<svg xmlns="http://www.w3.org/2000/svg" xmlns:xlink="http://www.w3.org/1999/xlink" width="130" height="129" viewBox="0 0 130 129"><defs><clipPath id="a"><rect width="130" height="129" transform="translate(495.732 2121.41)" fill="#fff" stroke="#707070" stroke-width="1"/></clipPath><clipPath id="b"><rect width="135.048" height="135.048" fill="none"/></clipPath><clipPath id="c"><rect width="136.103" height="267.81" fill="none"/></clipPath></defs><g transform="translate(-495.732 -2121.41)" clip-path="url(#a)"><g transform="translate(492.883 2115.178)"><g transform="translate(0.571 0)"><g clip-path="url(#b)"><path d="M178.7,270.617A14.293,14.293,0,0,0,164.4,284.91V294c-8.745,4.8-14.647,14.349-14.647,27.827,0,27.7,12.956,41,28.939,41s28.939-13.3,28.939-41c0-13.478-5.9-23.031-14.646-27.826v-9.1A14.293,14.293,0,0,0,178.7,270.617" transform="translate(-111.435 -200.335)" fill="#fff"/><path d="M199.773,316.012c0,24.029-10.305,38.955-26.9,38.955s-26.9-14.926-26.9-38.955c0-11.986,4.825-21.233,13.587-26.037a2.041,2.041,0,0,0,1.06-1.79v-9.094a12.251,12.251,0,0,1,24.5,0v9.094a2.041,2.041,0,0,0,1.06,1.79c8.761,4.8,13.585,14.05,13.585,26.037m-26.9-53.255a16.353,16.353,0,0,0-16.334,16.334v7.914c-9.326,5.642-14.647,16.138-14.647,29.007,0,13.473,3.078,24.585,8.9,32.132a27.8,27.8,0,0,0,44.158,0c5.824-7.548,8.9-18.658,8.9-32.132,0-12.869-5.32-23.364-14.646-29.007v-7.914a16.353,16.353,0,0,0-16.335-16.334" transform="translate(-105.615 -194.516)" fill="#183843"/></g></g><g transform="translate(0 0)"><g clip-path="url(#c)"><path d="M187.28,61c0-17.581-13.388-31.833-29.9-31.833s-29.9,17.146-29.9,34.727,13.388,28.939,29.9,28.939S187.28,78.581,187.28,61" transform="translate(-94.367 -21.592)" fill="#52555f"/><path d="M224.422,63.895c0-17.581-13.388-34.727-29.9-34.727S164.615,43.42,164.615,61,178,92.834,194.518,92.834s29.9-11.359,29.9-28.939" transform="translate(-121.863 -21.592)" fill="#52555f"/><path d="M139.907,120.995a11.569,11.569,0,0,0,1.907,6.3,5.821,5.821,0,0,0,4.6,2.926,4.157,4.157,0,0,0,1.069-.153c3.707,13.028,12.1,19.361,23.917,19.361s20.21-6.333,23.917-19.361a4.158,4.158,0,0,0,1.069.153,5.82,5.82,0,0,0,4.6-2.926,11.565,11.565,0,0,0,1.907-6.3,7.239,7.239,0,0,0-1.907-5.213,6.165,6.165,0,0,0-3.563-1.76c.008-.495.018-.986.018-1.492,0-17.98-11.661-28.215-26.045-28.215S145.359,94.55,145.359,112.53c0,.506.011,1,.019,1.492a6.167,6.167,0,0,0-3.564,1.76,7.241,7.241,0,0,0-1.907,5.213" transform="translate(-103.572 -62.417)" fill="#fff"/><path d="M138.542,112.488a4.654,4.654,0,0,1,2.69-1.317,1.532,1.532,0,0,0,1.312-1.54l-.005-.3c-.006-.387-.013-.773-.013-1.169,0-15.961,9.852-26.684,24.514-26.684s24.513,10.723,24.513,26.684c0,.4-.006.782-.013,1.169l-.005.3a1.533,1.533,0,0,0,1.312,1.54,4.657,4.657,0,0,1,2.69,1.317h0a5.757,5.757,0,0,1,1.469,4.14,10.087,10.087,0,0,1-1.644,5.44,4.372,4.372,0,0,1-3.335,2.252,2.651,2.651,0,0,1-.677-.1,1.533,1.533,0,0,0-1.865,1.061c-3.445,12.109-11,18.249-22.444,18.249s-19-6.139-22.444-18.249a1.53,1.53,0,0,0-1.866-1.061,2.647,2.647,0,0,1-.676.1,4.371,4.371,0,0,1-3.335-2.252,10.09,10.09,0,0,1-1.645-5.441,5.761,5.761,0,0,1,1.469-4.141m-4.532,4.141a13.087,13.087,0,0,0,2.169,7.155c1.563,2.314,3.64,3.591,5.85,3.6,4,12.574,12.619,19.209,25.009,19.209s21.014-6.634,25.009-19.209c2.21-.008,4.287-1.286,5.85-3.6a13.087,13.087,0,0,0,2.169-7.155,8.741,8.741,0,0,0-2.345-6.285,7.524,7.524,0,0,0-3.108-1.9v-.281c0-8.96-2.789-16.541-8.067-21.923a28.236,28.236,0,0,0-39.02,0c-5.277,5.381-8.067,12.962-8.067,21.923,0,.094,0,.188,0,.281a7.521,7.521,0,0,0-3.108,1.9,8.743,8.743,0,0,0-2.345,6.285" transform="translate(-99.206 -58.051)" fill="#183843"/><path d="M163.338,225.168c.7-.35.75-1.731.415-3.047s-1.054-2.568-1.891-2.661l-.174,4.677c.323.784.95,1.382,1.651,1.032" transform="translate(-119.696 -162.463)" fill="#fff"/><path d="M159.721,220.834a1.021,1.021,0,0,0-1.888.778,2.811,2.811,0,0,0,1.523,1.645,1.864,1.864,0,0,0,.658.12,1.939,1.939,0,0,0,.869-.209c1.321-.66,1.356-2.608.949-4.212-.395-1.551-1.329-3.265-2.769-3.424a1.02,1.02,0,1,0-.236,2.027,3.152,3.152,0,0,1,1.026,1.9,3.9,3.9,0,0,1,.112,1.789,1.48,1.48,0,0,1-.244-.414" transform="translate(-116.786 -159.55)" fill="#183843"/><path d="M354.225,224.136l-.174-4.677c-.837.093-1.556,1.345-1.891,2.661s-.285,2.7.415,3.047,1.328-.248,1.65-1.032" transform="translate(-260.552 -162.463)" fill="#fff"/><path d="M351.262,217.564a1.021,1.021,0,1,0-.225-2.029c-1.441.159-2.375,1.874-2.769,3.424-.407,1.6-.372,3.552.948,4.212a1.944,1.944,0,0,0,.87.209,1.883,1.883,0,0,0,.659-.119,2.815,2.815,0,0,0,1.523-1.645,1.021,1.021,0,1,0-1.887-.778,1.477,1.477,0,0,1-.244.414,3.878,3.878,0,0,1,.112-1.789,3.213,3.213,0,0,1,1.014-1.9" transform="translate(-257.651 -159.553)" fill="#183843"/><path d="M203.4,86.356c.221-6.16-8.183-10.272-13.2-13.246S178.365,67,172.617,68.836h-2.083c-5.748-1.835-12.57,1.3-17.587,4.274s-13.421,7.086-13.2,13.246,8.914,13.968,14.135,16.687c-2.3-4.271-3.27-12.895-2.787-17.56.335,4.635,2.583,7.231,6.277,10.7a22.606,22.606,0,0,1-.552-9.6c.476-3.661,1.877-7.755,5.849-9.765,2.811-1.422,7.021-1.527,8.907.721,1.886-2.247,6.1-2.143,8.907-.721,3.971,2.01,5.373,6.1,5.848,9.765a22.606,22.606,0,0,1-.552,9.6c3.694-3.473,5.942-6.068,6.277-10.7.483,4.665-.487,13.289-2.787,17.56,5.221-2.719,13.914-10.527,14.135-16.687" transform="translate(-103.45 -50.554)" fill="#52555f"/><path d="M202.59,106.069a1.021,1.021,0,0,0,1.011-.889c.582-4.478,2.364-7.5,5.3-8.986,2.463-1.247,6.133-1.359,7.664.466a1.021,1.021,0,1,0,1.563-1.313c-2.253-2.685-6.93-2.6-10.15-.975-3.572,1.808-5.724,5.355-6.4,10.544a1.021,1.021,0,0,0,.881,1.144,1,1,0,0,0,.133.009" transform="translate(-149.219 -69.012)" fill="#183843"/><path d="M157.589,141.395a1.021,1.021,0,0,0-1.494,1.393,37.458,37.458,0,0,0,9.218,7.262,1.021,1.021,0,0,0,1.371-1.389,26.619,26.619,0,0,1-2.326-8.293c-.112-.781-.2-1.567-.275-2.343a28.581,28.581,0,0,0,4.492,5.007,1.021,1.021,0,0,0,1.692-.982,25.885,25.885,0,0,1-.77-4.67,23.757,23.757,0,0,1,.238-4.557,1.021,1.021,0,1,0-2.024-.264,25.677,25.677,0,0,0-.253,4.936c.032.559.088,1.122.171,1.718a17.408,17.408,0,0,1-1.893-2.392,10.916,10.916,0,0,1-1.72-5.31,1.021,1.021,0,0,0-1-.947H163a1.021,1.021,0,0,0-1.015.916,40.544,40.544,0,0,0,.356,9.178,37.31,37.31,0,0,0,1.325,5.992,39.012,39.012,0,0,1-6.074-5.254" transform="translate(-115.353 -96.654)" fill="#183843"/></g></g><g transform="translate(0.571 0)"><g clip-path="url(#b)"><path d="M275.172,104.953a17.454,17.454,0,0,0-1.722-5.843,10.664,10.664,0,0,0-4.678-4.7,11.018,11.018,0,0,0-5.309-1.125,6.578,6.578,0,0,0-4.84,2.1,1.021,1.021,0,1,0,1.563,1.313,4.6,4.6,0,0,1,3.373-1.373,8.874,8.874,0,0,1,4.291.907,8.661,8.661,0,0,1,3.792,3.826,15.451,15.451,0,0,1,1.506,5.16,23.937,23.937,0,0,1,.238,4.556,25.986,25.986,0,0,1-.771,4.671,1.021,1.021,0,0,0,1.691.982,28.674,28.674,0,0,0,4.493-5.006c-.072.776-.165,1.562-.276,2.342a26.612,26.612,0,0,1-2.326,8.294,1.021,1.021,0,0,0,1.37,1.389,37.4,37.4,0,0,0,9.219-7.263,1.021,1.021,0,0,0-1.494-1.392,39,39,0,0,1-6.074,5.254,37.372,37.372,0,0,0,1.325-5.993,40.474,40.474,0,0,0,.356-9.178,1.035,1.035,0,0,0-1.032-.916,1.021,1.021,0,0,0-1,.948,10.922,10.922,0,0,1-1.719,5.31,17.415,17.415,0,0,1-1.893,2.392c.083-.6.139-1.16.171-1.718a25.843,25.843,0,0,0-.252-4.936" transform="translate(-191.849 -69.049)" fill="#183843"/><path d="M7.861,532.23l28.58.565.5-25.021h73.9l.462,25,28.58-.529-1.36-73.538-.15,0-2.149-68.228a14.268,14.268,0,0,0-9.372-12.964L91.93,360.706,73.871,391.215,55.812,360.706,20.849,377.541a14.3,14.3,0,0,0-9.329,12.943L9.226,463.346c0,.056,0,.111,0,.167H9.221Z" transform="translate(-6.39 -267.027)" fill="#cbb84f"/><path d="M5.44,457.917c.007-.065.011-.131.012-.2s0-.108,0-.17L7.741,384.73a12.217,12.217,0,0,1,8-11.094c.059-.022.117-.047.174-.074l33.275-16.023,17.1,28.9a2.042,2.042,0,0,0,3.515,0l17.1-28.9,33.23,16a1.834,1.834,0,0,0,.185.078,12.188,12.188,0,0,1,8.034,11.111l2.149,68.227a2.011,2.011,0,0,0,.164.742l1.308,70.725-24.5.454-.425-22.962a2.041,2.041,0,0,0-2.041-2h-73.9a2.042,2.042,0,0,0-2.041,2l-.455,22.98-24.5-.485Zm25.142,71.1h.041a2.042,2.042,0,0,0,2.041-2L33.119,504h69.9l.425,23a2.043,2.043,0,0,0,.624,1.432,1.99,1.99,0,0,0,1.455.571l28.58-.529a2.041,2.041,0,0,0,2-2.079l-1.36-73.538a2.012,2.012,0,0,0-.175-.793L132.444,384.6a16.251,16.251,0,0,0-10.616-14.782L87,353.048a2.044,2.044,0,0,0-2.643.8l-16.3,27.54-16.3-27.54a2.044,2.044,0,0,0-2.643-.8l-34.88,16.8A16.282,16.282,0,0,0,3.66,384.6L1.366,457.455c0,.036,0,.072,0,.1s0,.063,0,.094L0,526.37a2.04,2.04,0,0,0,2,2.082Z" transform="translate(-0.571 -261.208)" fill="#183843"/><path d="M226.595,416.39V364.807L207.9,379.277l-18.694-14.47v59.757L207.9,453.5l18.694-28.941Z" transform="translate(-140.64 -270.063)" fill="#fff"/><path d="M187.318,363.978l17.048,13.2a1.02,1.02,0,0,0,1.25,0l17.048-13.2v57.374l-17.673,27.36-17.673-27.36Zm17.673,87.637a1.023,1.023,0,0,0,.858-.467l18.693-28.94a1.017,1.017,0,0,0,.164-.554V361.9a1.021,1.021,0,0,0-1.646-.807l-18.069,13.986L186.922,361.09a1.021,1.021,0,0,0-1.646.807v59.757a1.021,1.021,0,0,0,.163.554l18.694,28.94a1.022,1.022,0,0,0,.857.467" transform="translate(-137.729 -267.153)" fill="#183843"/></g></g><g transform="translate(0 0)"><g clip-path="url(#c)"><path d="M202.011,368.49l2.967-1,6.971,13.47,10.886-27.453-3.751-3.561-17.074,16.839-17.118-16.839-3.7,3.561,10.357,27.453,7.233-13.47Z" transform="translate(-134.135 -259.063)" fill="#fff"/></g></g><g transform="translate(0.571 0)"><g clip-path="url(#b)"><path d="M181.974,348.463l15.943,15.683-1.745-.54a1.021,1.021,0,0,0-1.2.492L188.8,375.592l-9.328-24.722Zm34.213,0,2.533,2.406-9.805,24.728-5.942-11.481a1.022,1.022,0,0,0-1.233-.5l-1.4.471Zm-27.617,30.612.067,0a1.02,1.02,0,0,0,.9-.538l6.835-12.73,2.426.751a1.014,1.014,0,0,0,.627-.008l2.137-.72,6.569,12.693a1,1,0,0,0,.958.55,1.02,1.02,0,0,0,.9-.643l10.887-27.453a1.021,1.021,0,0,0-.246-1.116l-3.751-3.561a1.021,1.021,0,0,0-1.42.014L199.1,362.445l-16.4-16.134a1.021,1.021,0,0,0-1.424-.008l-3.7,3.561a1.02,1.02,0,0,0-.247,1.1l10.357,27.453a1.021,1.021,0,0,0,.888.658" transform="translate(-131.795 -256.153)" fill="#183843"/><path d="M160.53,364.71a2.041,2.041,0,0,0,.122-2.4l-5.086-7.788,6.5-9.439,11.911,77.423-19.76-49.984Zm-10.553,8.206L176.854,440.9a2.042,2.042,0,0,0,3.917-1.061L165.315,339.375a2.042,2.042,0,0,0-3.7-.847l-10.189,14.807a2.042,2.042,0,0,0-.027,2.274l5.021,7.69-6.132,7.583a2.042,2.042,0,0,0-.311,2.034" transform="translate(-111.491 -249.954)" fill="#183843"/><path d="M273.47,362.311a2.041,2.041,0,0,0,.121,2.4l6.318,7.813-19.761,49.983,11.911-77.423,6.5,9.439Zm9.225-8.976-10.189-14.807a2.042,2.042,0,0,0-3.7.847L253.35,439.842a2.042,2.042,0,0,0,3.917,1.061l26.878-67.986a2.041,2.041,0,0,0-.311-2.034L277.7,363.3l5.021-7.69a2.042,2.042,0,0,0-.027-2.274" transform="translate(-188.106 -249.955)" fill="#183843"/><path d="M184.572,445.972,169.116,345.506l-10.189,14.806,5.834,8.935-7.066,8.739Z" transform="translate(-117.311 -255.774)" fill="#cbb84f"/><path d="M162.646,366.98a1.021,1.021,0,0,0,.061-1.2l-5.46-8.361L165.59,345.3l13.684,88.944-23.319-58.984Zm-8.809,8.473,26.878,67.986a1.021,1.021,0,0,0,.949.646,1.009,1.009,0,0,0,.267-.036,1.02,1.02,0,0,0,.741-1.141L167.216,342.442a1.021,1.021,0,0,0-1.85-.423l-10.189,14.806a1.02,1.02,0,0,0-.014,1.137l5.428,8.312-6.6,8.161a1.02,1.02,0,0,0-.156,1.018" transform="translate(-114.402 -252.866)" fill="#183843"/><path d="M281,369.247l5.833-8.935-10.188-14.806L261.187,445.972l26.878-67.986Z" transform="translate(-193.925 -255.775)" fill="#cbb84f"/><path d="M277.233,365.779a1.022,1.022,0,0,0,.061,1.2l6.692,8.276L260.667,434.24,274.35,345.3l8.343,12.123Zm7.529-8.955-10.189-14.806a1.021,1.021,0,0,0-1.85.423L257.268,442.907a1.021,1.021,0,0,0,.742,1.141,1.009,1.009,0,0,0,.267.036,1.02,1.02,0,0,0,.949-.646L286.1,375.452a1.019,1.019,0,0,0-.156-1.018l-6.6-8.161,5.427-8.312a1.021,1.021,0,0,0-.013-1.137" transform="translate(-191.015 -252.865)" fill="#183843"/></g></g><g transform="translate(0 0)"><g clip-path="url(#c)"><path d="M204.639,220.6a1.526,1.526,0,0,1-1.545-1.731.681.681,0,0,0-1.361,0,2.873,2.873,0,0,0,2.907,3.092.681.681,0,1,0,0-1.361" transform="translate(-149.34 -161.523)" fill="#183843"/><path d="M309.746,218.19a.68.68,0,0,0-.681.681,1.527,1.527,0,0,1-1.546,1.731.681.681,0,1,0,0,1.361,2.873,2.873,0,0,0,2.907-3.092.681.681,0,0,0-.681-.681" transform="translate(-227.15 -161.523)" fill="#183843"/><path d="M213.074,149.61a1.021,1.021,0,0,0-1.422.251,3.076,3.076,0,0,1-4.278.754,1.021,1.021,0,0,0-1.171,1.673,5.119,5.119,0,0,0,7.122-1.256,1.021,1.021,0,0,0-.251-1.422" transform="translate(-152.328 -110.618)" fill="#183843"/><path d="M292.933,154.329a3.075,3.075,0,0,1-4.278-.754,1.021,1.021,0,1,0-1.672,1.171A5.12,5.12,0,0,0,294.1,156a1.021,1.021,0,0,0-1.171-1.673" transform="translate(-212.314 -113.367)" fill="#183843"/><path d="M215.505,201.472c-1.079,0-1.953.9-1.953,2.767a1.96,1.96,0,1,0,3.907,0c0-1.869-.874-2.767-1.953-2.767" transform="translate(-158.091 -149.147)" fill="#183843"/><path d="M295.734,201.472c-1.079,0-1.953.9-1.953,2.767a1.96,1.96,0,1,0,3.907,0c0-1.869-.874-2.767-1.953-2.767" transform="translate(-217.484 -149.147)" fill="#183843"/><path d="M256.068,235.943a2.295,2.295,0,0,1,0-3.6,1.021,1.021,0,1,0-1.261-1.605,4.337,4.337,0,0,0,0,6.814,1.021,1.021,0,1,0,1.263-1.6" transform="translate(-187.406 -170.648)" fill="#183843"/><path d="M244.609,276.685l-2.571-1.929a1.022,1.022,0,0,0-1.226,0l-1.957,1.469-1.958-1.469a1.022,1.022,0,0,0-1.226,0l-1.958,1.47-1.963-1.471a1.021,1.021,0,0,0-1.224,0l-2.576,1.929a1.021,1.021,0,0,0,1.224,1.635l1.963-1.471,1.963,1.471a1.022,1.022,0,0,0,1.225,0l1.958-1.47,1.958,1.47a1.022,1.022,0,0,0,1.226,0l1.957-1.47,1.958,1.47a1.021,1.021,0,0,0,1.225-1.634" transform="translate(-168.447 -203.247)" fill="#183843"/></g></g></g></g></svg>