<svg xmlns="http://www.w3.org/2000/svg" xmlns:xlink="http://www.w3.org/1999/xlink" width="80" height="80" viewBox="0 0 80 80"><defs><clipPath id="a"><rect width="80" height="80" rx="40" transform="translate(495.732 2121.41)" fill="#fff" stroke="#707070" stroke-width="1"/></clipPath><clipPath id="b"><rect width="83.107" height="83.751" fill="none"/></clipPath><clipPath id="c"><rect width="83.756" height="166.083" fill="none"/></clipPath></defs><g transform="translate(-495.732 -2121.41)" clip-path="url(#a)"><g transform="translate(493.979 2117.545)"><g transform="translate(0.351 0)"><g clip-path="url(#b)"><path d="M167.567,270.617a8.83,8.83,0,0,0-8.8,8.864v5.64c-5.381,2.974-9.013,8.9-9.013,17.257,0,17.175,7.973,25.424,17.809,25.424s17.808-8.249,17.808-25.424c0-8.358-3.631-14.283-9.013-17.257v-5.64a8.83,8.83,0,0,0-8.8-8.864" transform="translate(-126.175 -227.031)" fill="#fff"/><path d="M177.512,295.783c0,14.9-6.342,24.158-16.552,24.158s-16.552-9.257-16.552-24.158c0-7.433,2.969-13.168,8.361-16.147a1.268,1.268,0,0,0,.652-1.11v-5.64a7.539,7.539,0,1,1,15.078,0v5.64a1.267,1.267,0,0,0,.653,1.11c5.392,2.979,8.36,8.713,8.36,16.147M160.96,262.757a10.1,10.1,0,0,0-10.052,10.13v4.908c-5.739,3.5-9.013,10.008-9.013,17.989,0,8.355,1.894,15.246,5.478,19.927a17.029,17.029,0,0,0,27.174,0c3.584-4.681,5.478-11.571,5.478-19.927,0-7.981-3.274-14.49-9.013-17.989v-4.908a10.1,10.1,0,0,0-10.052-10.13" transform="translate(-119.569 -220.437)" fill="#183843"/></g></g><g transform="translate(0 0)"><g clip-path="url(#c)"><path d="M164.277,48.909c0-10.9-8.239-19.741-18.4-19.741s-18.4,10.633-18.4,21.536,8.239,17.947,18.4,17.947,18.4-8.839,18.4-19.741" transform="translate(-107.1 -24.47)" fill="#52555f"/><path d="M201.419,50.7c0-10.9-8.239-21.536-18.4-21.536s-18.4,8.838-18.4,19.741,8.239,19.742,18.4,19.742,18.4-7.044,18.4-17.947" transform="translate(-138.306 -24.47)" fill="#52555f"/><path d="M139.907,107.062a7.214,7.214,0,0,0,1.174,3.906,3.579,3.579,0,0,0,2.833,1.815,2.54,2.54,0,0,0,.658-.095c2.281,8.079,7.447,12.007,14.718,12.007s12.437-3.927,14.718-12.007a2.54,2.54,0,0,0,.658.095,3.579,3.579,0,0,0,2.833-1.815,7.212,7.212,0,0,0,1.174-3.906,4.509,4.509,0,0,0-1.174-3.233,3.783,3.783,0,0,0-2.193-1.091c0-.307.011-.612.011-.925,0-11.151-7.176-17.5-16.027-17.5s-16.028,6.347-16.028,17.5c0,.314.007.618.012.925a3.784,3.784,0,0,0-2.193,1.091,4.51,4.51,0,0,0-1.174,3.233" transform="translate(-117.547 -70.735)" fill="#fff"/><path d="M136.8,99.546a2.856,2.856,0,0,1,1.656-.817.948.948,0,0,0,.807-.955l0-.185c0-.24-.008-.479-.008-.725,0-9.9,6.062-16.548,15.086-16.548s15.085,6.65,15.085,16.548c0,.245,0,.485-.008.725l0,.185a.948.948,0,0,0,.808.955,2.857,2.857,0,0,1,1.655.817h0a3.587,3.587,0,0,1,.9,2.567,6.29,6.29,0,0,1-1.012,3.374,2.689,2.689,0,0,1-2.052,1.4,1.62,1.62,0,0,1-.417-.063.942.942,0,0,0-1.148.658c-2.12,7.51-6.767,11.317-13.812,11.317s-11.692-3.807-13.812-11.317a.939.939,0,0,0-1.148-.658,1.617,1.617,0,0,1-.416.063,2.689,2.689,0,0,1-2.052-1.4,6.292,6.292,0,0,1-1.012-3.374,3.589,3.589,0,0,1,.9-2.568m-2.789,2.568a8.161,8.161,0,0,0,1.335,4.437,4.447,4.447,0,0,0,3.6,2.233c2.459,7.8,7.766,11.912,15.39,11.912s12.932-4.114,15.39-11.912a4.446,4.446,0,0,0,3.6-2.233,8.161,8.161,0,0,0,1.335-4.437,5.444,5.444,0,0,0-1.443-3.9,4.624,4.624,0,0,0-1.912-1.178v-.174c0-5.557-1.716-10.258-4.964-13.6a17.28,17.28,0,0,0-24.012,0c-3.248,3.337-4.964,8.039-4.964,13.6,0,.058,0,.116,0,.174a4.622,4.622,0,0,0-1.913,1.178,5.446,5.446,0,0,0-1.443,3.9" transform="translate(-112.592 -65.787)" fill="#183843"/><path d="M162.7,223c.431-.217.461-1.073.255-1.89s-.649-1.593-1.164-1.65l-.107,2.9c.2.486.585.857,1.016.64" transform="translate(-135.846 -184.113)" fill="#fff"/><path d="M158.965,218.818a.627.627,0,0,0-.82-.344.635.635,0,0,0-.342.827,1.738,1.738,0,0,0,.938,1.02,1.139,1.139,0,0,0,.4.074,1.186,1.186,0,0,0,.535-.13c.813-.409.834-1.617.584-2.612-.243-.962-.818-2.025-1.7-2.124a.633.633,0,0,0-.145,1.257,1.958,1.958,0,0,1,.631,1.178,2.434,2.434,0,0,1,.069,1.11.919.919,0,0,1-.15-.257" transform="translate(-132.544 -180.812)" fill="#183843"/><path d="M353.353,222.36l-.107-2.9c-.515.057-.958.834-1.164,1.65s-.175,1.673.256,1.89.817-.154,1.016-.64" transform="translate(-295.709 -184.113)" fill="#fff"/><path d="M350.023,216.791a.633.633,0,0,0-.138-1.258c-.887.1-1.461,1.162-1.7,2.123-.25.994-.229,2.2.583,2.612a1.189,1.189,0,0,0,.535.13,1.15,1.15,0,0,0,.405-.074,1.74,1.74,0,0,0,.937-1.02.634.634,0,0,0-.341-.827.627.627,0,0,0-.82.344.919.919,0,0,1-.15.257,2.424,2.424,0,0,1,.069-1.11,2,2,0,0,1,.624-1.177" transform="translate(-292.416 -180.815)" fill="#183843"/><path d="M178.919,79.494c.136-3.82-5.036-6.37-8.123-8.215s-7.285-3.788-10.823-2.65h-1.282c-3.537-1.138-7.735.806-10.823,2.65s-8.259,4.395-8.123,8.215,5.486,8.663,8.7,10.349c-1.416-2.649-2.012-8-1.715-10.89.206,2.875,1.589,4.484,3.863,6.638a14.125,14.125,0,0,1-.34-5.952c.293-2.27,1.155-4.809,3.6-6.056,1.73-.882,4.321-.947,5.481.447,1.161-1.394,3.751-1.329,5.481-.447,2.444,1.246,3.306,3.786,3.6,6.056a14.125,14.125,0,0,1-.34,5.952c2.273-2.154,3.657-3.763,3.863-6.638.3,2.893-.3,8.241-1.715,10.89,3.213-1.686,8.563-6.528,8.7-10.349" transform="translate(-117.409 -57.291)" fill="#52555f"/><path d="M202.2,101.19a.63.63,0,0,0,.622-.551c.358-2.777,1.455-4.652,3.26-5.573,1.516-.773,3.774-.842,4.716.289a.625.625,0,0,0,.885.078.637.637,0,0,0,.077-.892c-1.387-1.665-4.264-1.615-6.246-.6-2.2,1.121-3.523,3.321-3.938,6.539a.632.632,0,0,0,.542.709.611.611,0,0,0,.082.005" transform="translate(-169.353 -78.209)" fill="#183843"/><path d="M156.91,137.28a.625.625,0,0,0-.888-.031.637.637,0,0,0-.031.9,23.078,23.078,0,0,0,5.673,4.5.626.626,0,0,0,.738-.117.637.637,0,0,0,.105-.745,16.605,16.605,0,0,1-1.431-5.143c-.069-.484-.126-.972-.169-1.453a17.68,17.68,0,0,0,2.765,3.1.625.625,0,0,0,.746.086.636.636,0,0,0,.3-.7,16.167,16.167,0,0,1-.474-2.9,14.847,14.847,0,0,1,.146-2.826.628.628,0,1,0-1.246-.164,16.047,16.047,0,0,0-.156,3.061c.02.346.054.7.105,1.066a10.784,10.784,0,0,1-1.165-1.483,6.806,6.806,0,0,1-1.058-3.293.63.63,0,0,0-.617-.588h-.01a.63.63,0,0,0-.625.568,25.337,25.337,0,0,0,.219,5.692,23.292,23.292,0,0,0,.816,3.716,24.06,24.06,0,0,1-3.738-3.259" transform="translate(-130.918 -109.534)" fill="#183843"/></g></g><g transform="translate(0.351 0)"><g clip-path="url(#b)"><path d="M268.714,100.517a10.886,10.886,0,0,0-1.06-3.624,6.588,6.588,0,0,0-2.879-2.915,6.736,6.736,0,0,0-3.267-.7,4.034,4.034,0,0,0-2.979,1.3.637.637,0,0,0,.077.892.625.625,0,0,0,.885-.078,2.818,2.818,0,0,1,2.076-.851,5.426,5.426,0,0,1,2.641.562,5.351,5.351,0,0,1,2.333,2.373,9.638,9.638,0,0,1,.927,3.2,14.959,14.959,0,0,1,.147,2.826,16.23,16.23,0,0,1-.474,2.9.635.635,0,0,0,.3.7.624.624,0,0,0,.746-.086,17.739,17.739,0,0,0,2.765-3.1c-.044.481-.1.968-.17,1.452a16.6,16.6,0,0,1-1.431,5.143.637.637,0,0,0,.106.745.625.625,0,0,0,.738.117,23.04,23.04,0,0,0,5.673-4.5.637.637,0,0,0-.031-.895.625.625,0,0,0-.888.032,24.051,24.051,0,0,1-3.738,3.259,23.332,23.332,0,0,0,.816-3.716,25.3,25.3,0,0,0,.219-5.692.639.639,0,0,0-.635-.568.631.631,0,0,0-.617.588,6.809,6.809,0,0,1-1.058,3.293,10.787,10.787,0,0,1-1.165,1.483c.051-.37.085-.719.105-1.066a16.152,16.152,0,0,0-.155-3.061" transform="translate(-217.439 -78.251)" fill="#183843"/><path d="M7.861,467.077l17.588.35.3-15.517H71.232l.284,15.505,17.587-.328-.837-45.605-.093,0-1.323-42.312a8.842,8.842,0,0,0-5.768-8.04L59.6,360.706l-11.113,18.92-11.113-18.92L15.854,371.147a8.864,8.864,0,0,0-5.741,8.027L8.7,424.359c0,.035,0,.069,0,.1h0Z" transform="translate(-6.956 -302.61)" fill="#cbb84f"/><path d="M3.347,418.006c0-.04.007-.082.007-.123s0-.067,0-.105l1.411-45.159a7.572,7.572,0,0,1,4.923-6.88c.036-.014.072-.029.107-.046l20.477-9.937L40.8,373.677a1.252,1.252,0,0,0,2.163,0l10.526-17.921,20.449,9.924a1.118,1.118,0,0,0,.114.048,7.554,7.554,0,0,1,4.944,6.891l1.323,42.311a1.255,1.255,0,0,0,.1.46l.805,43.861-15.075.281-.261-14.24a1.261,1.261,0,0,0-1.256-1.243H19.149a1.261,1.261,0,0,0-1.256,1.241l-.28,14.251-15.075-.3ZM18.819,462.1h.025a1.261,1.261,0,0,0,1.256-1.241l.28-14.276H63.395l.262,14.263a1.271,1.271,0,0,0,.384.888,1.219,1.219,0,0,0,.9.354l17.588-.328a1.261,1.261,0,0,0,1.233-1.289l-.837-45.605a1.256,1.256,0,0,0-.108-.492L81.5,372.539a10.072,10.072,0,0,0-6.533-9.167l-21.434-10.4a1.253,1.253,0,0,0-1.627.5L41.878,370.546,31.846,353.467a1.253,1.253,0,0,0-1.627-.5L8.755,363.387a10.092,10.092,0,0,0-6.5,9.152L.841,417.72c0,.022,0,.045,0,.065s0,.039,0,.058L0,460.458a1.273,1.273,0,0,0,.35.9,1.255,1.255,0,0,0,.881.388Z" transform="translate(-0.352 -296.016)" fill="#183843"/><path d="M212.215,396.8v-31.99l-11.5,8.974-11.5-8.974v37.059l11.5,17.948,11.5-17.948Z" transform="translate(-159.32 -306.051)" fill="#fff"/><path d="M186.533,362.8l10.491,8.184a.624.624,0,0,0,.769,0l10.491-8.184v35.581l-10.875,16.967-10.876-16.967Zm10.876,54.348a.628.628,0,0,0,.528-.29l11.5-17.948a.634.634,0,0,0,.1-.344V361.509a.633.633,0,0,0-.352-.569.624.624,0,0,0-.661.068l-11.119,8.674-11.12-8.674a.623.623,0,0,0-.661-.068.633.633,0,0,0-.352.569v37.059a.636.636,0,0,0,.1.344l11.5,17.948a.628.628,0,0,0,.528.29" transform="translate(-156.016 -302.753)" fill="#183843"/></g></g><g transform="translate(0 0)"><g clip-path="url(#c)"><path d="M194,361.447l1.826-.62,4.29,8.354,6.7-17.025-2.308-2.208L194,360.391,183.47,349.948l-2.278,2.208,6.374,17.025,4.451-8.354Z" transform="translate(-152.234 -293.585)" fill="#fff"/></g></g><g transform="translate(0.351 0)"><g clip-path="url(#b)"><path d="M180.161,347.535l9.811,9.726-1.074-.335a.626.626,0,0,0-.739.305l-3.8,7.127-5.74-15.332Zm21.054,0,1.559,1.492L196.74,364.36l-3.656-7.12a.626.626,0,0,0-.758-.309l-.86.292Zm-16.995,18.984h.041a.627.627,0,0,0,.553-.333l4.206-7.895,1.493.466a.619.619,0,0,0,.386,0l1.315-.447,4.042,7.872a.617.617,0,0,0,.589.341.628.628,0,0,0,.552-.4l6.7-17.025a.637.637,0,0,0-.152-.692l-2.308-2.209a.625.625,0,0,0-.874.008L190.7,356.205,180.607,346.2a.625.625,0,0,0-.876-.005l-2.278,2.208a.636.636,0,0,0-.152.68l6.374,17.025a.629.629,0,0,0,.546.408" transform="translate(-149.281 -290.288)" fill="#183843"/><path d="M156.416,354.429a1.273,1.273,0,0,0,.075-1.488l-3.13-4.83,4-5.854,7.33,48.014-12.16-31Zm-6.494,5.089,16.54,42.162a1.256,1.256,0,0,0,2.41-.658l-9.512-62.3a1.254,1.254,0,0,0-2.277-.526l-6.27,9.182a1.275,1.275,0,0,0-.017,1.41l3.09,4.769-3.774,4.7a1.274,1.274,0,0,0-.191,1.262" transform="translate(-126.238 -283.262)" fill="#183843"/><path d="M265.722,352.942a1.274,1.274,0,0,0,.074,1.488l3.888,4.845-12.161,31,7.33-48.014,4,5.854Zm5.677-5.566-6.27-9.182a1.254,1.254,0,0,0-2.277.526l-9.511,62.3a1.266,1.266,0,0,0,.913,1.415,1.244,1.244,0,0,0,.329.044,1.258,1.258,0,0,0,1.168-.8l16.54-42.162a1.274,1.274,0,0,0-.191-1.262l-3.774-4.7,3.09-4.769a1.275,1.275,0,0,0-.017-1.41" transform="translate(-213.19 -283.263)" fill="#183843"/><path d="M174.235,407.81l-9.512-62.3-6.27,9.182,3.59,5.541-4.349,5.42Z" transform="translate(-132.843 -289.859)" fill="#cbb84f"/><path d="M159.23,357.331a.637.637,0,0,0,.038-.744l-3.36-5.185,5.134-7.518,8.421,55.159-14.35-36.579Zm-5.421,5.254,16.54,42.162a.628.628,0,0,0,.584.4.615.615,0,0,0,.164-.022.633.633,0,0,0,.456-.707l-9.511-62.3a.627.627,0,0,0-1.138-.263l-6.27,9.182a.637.637,0,0,0-.009.705l3.34,5.155-4.061,5.061a.636.636,0,0,0-.1.631" transform="translate(-129.541 -286.562)" fill="#183843"/><path d="M273.378,360.229l3.59-5.541-6.27-9.182-9.511,62.3,16.54-42.162Z" transform="translate(-219.795 -289.859)" fill="#cbb84f"/><path d="M269.549,356.586a.638.638,0,0,0,.038.744l4.118,5.132-14.35,36.58,8.42-55.16,5.134,7.518Zm4.634-5.554-6.27-9.182a.627.627,0,0,0-1.138.262l-9.511,62.3a.633.633,0,0,0,.456.708.617.617,0,0,0,.164.022.628.628,0,0,0,.584-.4l16.54-42.162a.636.636,0,0,0-.1-.631l-4.061-5.061,3.34-5.155a.637.637,0,0,0-.008-.705" transform="translate(-216.492 -286.561)" fill="#183843"/></g></g><g transform="translate(0 0)"><g clip-path="url(#c)"><path d="M203.521,219.685a.944.944,0,0,1-.951-1.073.419.419,0,1,0-.838,0,1.776,1.776,0,0,0,1.789,1.918.422.422,0,0,0,0-.844" transform="translate(-169.491 -183.047)" fill="#183843"/><path d="M308.628,218.19a.42.42,0,0,0-.419.422.944.944,0,0,1-.951,1.073.422.422,0,0,0,0,.844,1.776,1.776,0,0,0,1.789-1.918.421.421,0,0,0-.419-.422" transform="translate(-257.8 -183.048)" fill="#183843"/><path d="M210.264,149.54a.625.625,0,0,0-.875.155,1.884,1.884,0,0,1-2.633.468.626.626,0,0,0-.875.156.636.636,0,0,0,.154.882,3.134,3.134,0,0,0,4.383-.779.636.636,0,0,0-.154-.882" transform="translate(-172.882 -125.359)" fill="#183843"/><path d="M290.573,153.877a1.883,1.883,0,0,1-2.633-.468.625.625,0,0,0-.875-.155.636.636,0,0,0-.154.882,3.135,3.135,0,0,0,4.383.779.636.636,0,0,0,.154-.882.626.626,0,0,0-.875-.156" transform="translate(-240.962 -128.474)" fill="#183843"/><path d="M214.754,201.472c-.664,0-1.2.557-1.2,1.716a1.207,1.207,0,1,0,2.4,0c0-1.159-.538-1.716-1.2-1.716" transform="translate(-179.422 -169.022)" fill="#183843"/><path d="M294.983,201.472c-.664,0-1.2.557-1.2,1.716a1.207,1.207,0,1,0,2.4,0c0-1.159-.538-1.716-1.2-1.716" transform="translate(-246.829 -169.022)" fill="#183843"/><path d="M254.946,233.882a1.43,1.43,0,0,1,0-2.235.636.636,0,0,0,.106-.889.625.625,0,0,0-.882-.106,2.7,2.7,0,0,0,0,4.226.625.625,0,0,0,.882-.106.636.636,0,0,0-.105-.889" transform="translate(-212.693 -193.389)" fill="#183843"/><path d="M238.045,275.875l-1.582-1.2a.625.625,0,0,0-.754,0l-1.2.911-1.2-.911a.625.625,0,0,0-.754,0l-1.205.912-1.208-.912a.625.625,0,0,0-.753,0l-1.585,1.2a.636.636,0,0,0-.126.886.625.625,0,0,0,.879.127l1.208-.913,1.208.913a.625.625,0,0,0,.754,0l1.2-.912,1.205.912a.625.625,0,0,0,.754,0l1.2-.912,1.205.912a.624.624,0,0,0,.879-.127.636.636,0,0,0-.125-.886" transform="translate(-191.176 -230.332)" fill="#183843"/></g></g></g></g></svg>