<svg xmlns="http://www.w3.org/2000/svg" xmlns:xlink="http://www.w3.org/1999/xlink" width="80" height="80" viewBox="0 0 80 80"><defs><clipPath id="a"><circle cx="40" cy="40" r="40" transform="translate(146 2302)" fill="#fff" stroke="#707070" stroke-width="1"/></clipPath><clipPath id="b"><rect width="84.04" height="84.04" fill="none"/></clipPath><clipPath id="c"><rect width="84.698" height="166.657" fill="none"/></clipPath></defs><g transform="translate(-146 -2302)" clip-path="url(#a)"><g transform="translate(144.702 2297.959)"><g transform="translate(0.356 0)"><g clip-path="url(#b)"><path d="M167.769,270.617a8.9,8.9,0,0,0-8.894,8.894v5.659c-5.442,2.984-9.115,8.929-9.115,17.317,0,17.235,8.063,25.512,18.009,25.512s18.009-8.278,18.009-25.512c0-8.387-3.672-14.332-9.114-17.317v-5.659a8.9,8.9,0,0,0-8.894-8.894" transform="translate(-125.912 -226.88)" fill="#fff"/><path d="M177.915,295.9c0,14.953-6.414,24.241-16.739,24.241s-16.738-9.289-16.738-24.241c0-7.459,3-13.213,8.455-16.2a1.27,1.27,0,0,0,.66-1.114v-5.659a7.624,7.624,0,1,1,15.247,0v5.659a1.27,1.27,0,0,0,.66,1.114c5.452,2.989,8.455,8.744,8.455,16.2m-16.738-33.141a10.176,10.176,0,0,0-10.165,10.165v4.925c-5.8,3.511-9.115,10.042-9.115,18.051,0,8.384,1.915,15.3,5.54,20a17.3,17.3,0,0,0,27.48,0c3.624-4.7,5.539-11.611,5.539-20,0-8.008-3.311-14.54-9.115-18.051v-4.925a10.176,10.176,0,0,0-10.165-10.165" transform="translate(-119.32 -220.291)" fill="#183843"/></g></g><g transform="translate(0 0)"><g clip-path="url(#c)"><path d="M164.692,48.977c0-10.94-8.331-19.809-18.609-19.809s-18.609,10.67-18.609,21.61,8.331,18.009,18.609,18.009,18.609-8.869,18.609-19.81" transform="translate(-106.872 -24.453)" fill="#183843"/><path d="M201.835,50.778c0-10.94-8.331-21.61-18.609-21.61s-18.609,8.869-18.609,19.809,8.332,19.81,18.609,19.81,18.609-7.068,18.609-18.009" transform="translate(-138.012 -24.453)" fill="#183843"/><path d="M139.909,107.141a7.2,7.2,0,0,0,1.187,3.919,3.622,3.622,0,0,0,2.865,1.821,2.589,2.589,0,0,0,.665-.1c2.307,8.107,7.531,12.048,14.884,12.048s12.577-3.941,14.884-12.048a2.588,2.588,0,0,0,.665.1,3.622,3.622,0,0,0,2.865-1.821,7.2,7.2,0,0,0,1.187-3.919,4.5,4.5,0,0,0-1.187-3.244,3.837,3.837,0,0,0-2.218-1.1c.005-.308.011-.614.011-.928,0-11.189-7.256-17.558-16.208-17.558S143.3,90.684,143.3,101.873c0,.315.007.621.012.928a3.838,3.838,0,0,0-2.218,1.1,4.506,4.506,0,0,0-1.187,3.244" transform="translate(-117.297 -70.688)" fill="#fff"/><path d="M136.832,99.619a2.9,2.9,0,0,1,1.674-.819.953.953,0,0,0,.816-.958l0-.186c0-.241-.008-.481-.008-.727,0-9.932,6.131-16.606,15.255-16.606S169.821,87,169.821,96.929c0,.246,0,.487-.009.727l0,.186a.953.953,0,0,0,.816.958,2.9,2.9,0,0,1,1.674.819,3.586,3.586,0,0,1,.914,2.577,6.282,6.282,0,0,1-1.023,3.386,2.721,2.721,0,0,1-2.076,1.4,1.647,1.647,0,0,1-.421-.063.953.953,0,0,0-1.161.66c-2.144,7.536-6.843,11.356-13.967,11.356s-11.823-3.821-13.967-11.356a.953.953,0,0,0-1.161-.661,1.649,1.649,0,0,1-.421.063,2.721,2.721,0,0,1-2.075-1.4,6.278,6.278,0,0,1-1.023-3.386,3.583,3.583,0,0,1,.914-2.577m-2.82,2.577a8.144,8.144,0,0,0,1.35,4.453,4.5,4.5,0,0,0,3.641,2.24c2.486,7.825,7.853,11.953,15.563,11.953s13.077-4.129,15.563-11.953a4.5,4.5,0,0,0,3.641-2.24,8.151,8.151,0,0,0,1.35-4.453,5.441,5.441,0,0,0-1.46-3.911,4.675,4.675,0,0,0-1.934-1.182c0-.058,0-.116,0-.175,0-5.576-1.736-10.294-5.02-13.643a17.571,17.571,0,0,0-24.282,0c-3.284,3.349-5.02,8.066-5.02,13.643,0,.059,0,.117,0,.175a4.678,4.678,0,0,0-1.934,1.182,5.439,5.439,0,0,0-1.459,3.911" transform="translate(-112.353 -65.743)" fill="#183843"/><path d="M162.716,223.011c.436-.218.467-1.077.258-1.9s-.656-1.6-1.177-1.656l-.108,2.911c.2.488.592.86,1.027.642" transform="translate(-135.557 -183.99)" fill="#fff"/><path d="M158.979,218.829a.635.635,0,0,0-1.175.484,1.751,1.751,0,0,0,.948,1.024,1.171,1.171,0,0,0,.41.075,1.209,1.209,0,0,0,.541-.13c.822-.411.844-1.623.59-2.621-.245-.965-.827-2.032-1.723-2.131a.635.635,0,1,0-.147,1.262,1.963,1.963,0,0,1,.638,1.183,2.424,2.424,0,0,1,.069,1.113.93.93,0,0,1-.152-.258" transform="translate(-132.26 -180.692)" fill="#183843"/><path d="M353.371,222.37l-.109-2.911c-.521.058-.969.837-1.177,1.656s-.177,1.679.258,1.9.826-.154,1.028-.642" transform="translate(-295.078 -183.99)" fill="#fff"/><path d="M350.047,216.8a.635.635,0,1,0-.14-1.263c-.9.1-1.477,1.166-1.723,2.131-.253,1-.231,2.21.59,2.621a1.208,1.208,0,0,0,.541.13,1.172,1.172,0,0,0,.41-.074,1.753,1.753,0,0,0,.948-1.024.636.636,0,0,0-1.175-.485.922.922,0,0,1-.152.258,2.433,2.433,0,0,1,.069-1.113,2,2,0,0,1,.631-1.181" transform="translate(-291.793 -180.695)" fill="#183843"/><path d="M200.86,59.67c0-2.984-6.45-5.4-14.407-5.4s-14.407,2.419-14.407,5.4,6.45,5.4,14.407,5.4,14.407-2.419,14.407-5.4" transform="translate(-144.241 -45.496)" fill="#183843"/><path d="M161.907,71.94a14.657,14.657,0,0,1,14.866,12.127,4.388,4.388,0,0,0,4.273,3.521V81.845a15.127,15.127,0,0,0-15.127-15.127H157.9a15.127,15.127,0,0,0-15.127,15.127v5.742a4.388,4.388,0,0,0,4.273-3.521A14.657,14.657,0,0,1,161.907,71.94" transform="translate(-119.694 -55.935)" fill="#183843"/><path d="M301.328,127.329l-.025-.077s.007.027.025.077" transform="translate(-252.608 -106.686)" fill="#183843"/><path d="M234.7,94.426s.383-9.1-11.045-10.8l-10.1,2.863s.816,5.423,9.209,7.933l-1.15-3.746s3.185,3.4,7.339,3.746l-1.19-3.669c-.018-.05-.025-.077-.025-.077l.025.077c.173.481,1.359,3.084,6.938,3.669" transform="translate(-179.039 -70.114)" fill="#183843"/></g></g><g transform="translate(0.356 0)"><g clip-path="url(#b)"><path d="M210.885,97.953a.635.635,0,0,0-1.256.192c.036.238.975,5.851,9.655,8.447a.635.635,0,0,0,.789-.8l-.5-1.643a12.186,12.186,0,0,0,6.032,2.462.642.642,0,0,0,.551-.238.635.635,0,0,0,.107-.591l-.275-.846a11.951,11.951,0,0,0,5.352,1.674.62.62,0,0,0,.067,0,.635.635,0,0,0,.066-1.267c-5.2-.545-6.279-2.915-6.4-3.238l-.023-.072a.635.635,0,0,0-1.219.356c0,.012.013.049.033.106l.877,2.7a13,13,0,0,1-5.956-3.4.635.635,0,0,0-1.07.622L218.5,105c-6.791-2.454-7.58-6.84-7.613-7.043" transform="translate(-176.099 -81.67)" fill="#183843"/><path d="M7.862,467.445l17.785.352.308-15.57h45.99l.288,15.559,17.786-.329-.846-45.763-.094,0-1.337-42.458a8.885,8.885,0,0,0-5.825-8.064L60.178,360.706,48.94,379.692,37.7,360.706,15.977,371.167a8.893,8.893,0,0,0-5.838,8.07L8.711,424.579c0,.035,0,.069,0,.1h0Z" transform="translate(-6.947 -302.41)" fill="#9fa0a0"/><path d="M3.385,418.231c0-.041.007-.082.007-.123s0-.067,0-.106l1.427-45.315a7.592,7.592,0,0,1,5.005-6.917c.039-.014.077-.031.115-.048l20.674-9.956,10.644,17.983a1.271,1.271,0,0,0,2.187,0l10.644-17.983,20.687,9.962c.037.018.075.034.113.048a7.591,7.591,0,0,1,4.994,6.911l1.337,42.458a1.27,1.27,0,0,0,.1.462l.814,44.012-15.244.282-.265-14.289a1.27,1.27,0,0,0-1.27-1.247H19.364a1.271,1.271,0,0,0-1.27,1.245l-.283,14.3-15.244-.3Zm15.646,44.246h.026a1.271,1.271,0,0,0,1.27-1.246l.284-14.325h43.5l.265,14.312a1.267,1.267,0,0,0,.388.891,1.231,1.231,0,0,0,.905.355l17.785-.329a1.27,1.27,0,0,0,1.247-1.294l-.846-45.763a1.264,1.264,0,0,0-.109-.493L82.42,372.607a10.117,10.117,0,0,0-6.6-9.194L54.139,352.971a1.272,1.272,0,0,0-1.645.5L42.349,370.607,32.2,353.469a1.272,1.272,0,0,0-1.645-.5L8.888,363.406a10.12,10.12,0,0,0-6.611,9.2L.85,417.944c0,.022,0,.045,0,.065s0,.039,0,.059L0,460.83a1.27,1.27,0,0,0,1.245,1.3Z" transform="translate(-0.356 -295.82)" fill="#183843"/><path d="M216.957,363.706l-1.4-17.471L204.6,358.772l-10.625-12.537-.284,15.521,3.885,46.671,9.676,2.009Z" transform="translate(-162.743 -290.277)" fill="#fff"/><path d="M191.282,344.636l9.536,11.252a.636.636,0,0,0,.48.224.6.6,0,0,0,.484-.217l9.962-11.4,1.276,15.879-9.557,46.018-8.589-1.783-3.844-46.165Zm2.868,61.119,9.676,2.008a.617.617,0,0,0,.13.014.636.636,0,0,0,.621-.506l9.7-46.729a.627.627,0,0,0,.011-.18l-1.4-17.471a.635.635,0,0,0-1.112-.367L201.31,354.5,191.162,342.53a.635.635,0,0,0-1.12.4l-.284,15.521c0,.021,0,.043,0,.064l3.885,46.671a.636.636,0,0,0,.5.569" transform="translate(-159.446 -286.983)" fill="#183843"/></g></g><g transform="translate(0 0)"><g clip-path="url(#c)"><path d="M226.347,418.882l-5.272,5.157h12.7l-4.947-5.157Z" transform="translate(-185.345 -351.183)" fill="#fff"/></g></g><g transform="translate(0.356 0)"><g clip-path="url(#b)"><path d="M218.223,421.2l5.087-4.977h1.946l4.76,4.962a.635.635,0,0,0,.917-.88l-4.947-5.158a.636.636,0,0,0-.458-.2h-2.476a.635.635,0,0,0-.444.181l-5.272,5.158a.635.635,0,0,0,.888.908" transform="translate(-182.405 -347.888)" fill="#183843"/><path d="M227.743,452.281l-4.353,2.129-4.544,26.1,7.676,14.615,6.731-15.026Z" transform="translate(-183.832 -379.185)" fill="#cce198"/><path d="M220.334,450.651a.609.609,0,0,0-.7.5l-4.544,26.1a.61.61,0,0,0,.061.388l7.676,14.615a.61.61,0,0,0,.539.326h.019a.61.61,0,0,0,.537-.36l6.73-15.026a.612.612,0,0,0,.042-.367L225.18,449a.609.609,0,1,0-1.2.237l5.472,27.627-6.139,13.705-7-13.322,4.509-25.9a.609.609,0,0,0-.5-.7" transform="translate(-180.671 -376.026)" fill="#183843"/></g></g><g transform="translate(0 0)"><g clip-path="url(#c)"><path d="M243.458,422.337l-3.041-3.455h-2.476l-3.037,3.455,1.9,6.98h5.205Z" transform="translate(-196.94 -351.183)" fill="#cce198"/></g></g><g transform="translate(0.356 0)"><g clip-path="url(#b)"><path d="M235.057,416.332h1.925l2.658,3.02-1.288,6.2h-4.244l-1.69-6.214Zm-1.415,10.435h5.205a.61.61,0,0,0,.6-.485l1.451-6.98a.609.609,0,0,0-.139-.527l-3.041-3.455a.609.609,0,0,0-.457-.207h-2.476a.609.609,0,0,0-.458.207l-3.037,3.456a.608.608,0,0,0-.13.562l1.9,6.98a.609.609,0,0,0,.588.449" transform="translate(-194.136 -348.024)" fill="#183843"/><path d="M152.73,408.026l-9.619-62.52L140,348.1l-3.231,6.625,2.261,6.16-7.209,7.84Z" transform="translate(-110.874 -289.666)" fill="#9fa0a0"/><path d="M274.887,360.881l2.261-6.16-3.231-6.624-3.11-2.589-9.618,62.519L282.1,368.72Z" transform="translate(-219.332 -289.667)" fill="#9fa0a0"/><path d="M133.375,355.151a1.271,1.271,0,0,0,.258-1.3l-2.074-5.652,2.874-5.893,1.173-.977,8.139,52.9-16.969-31.9Zm-9.266,7.576,20.908,39.306a1.27,1.27,0,0,0,1.122.674,1.27,1.27,0,0,0,1.256-1.464l-9.619-62.52a1.271,1.271,0,0,0-2.069-.783L132.6,340.53a1.268,1.268,0,0,0-.329.42l-3.231,6.624a1.269,1.269,0,0,0-.051.994L130.98,354,124.3,361.27a1.271,1.271,0,0,0-.187,1.457" transform="translate(-104.281 -283.077)" fill="#183843"/><path d="M273.962,362.328l-16.969,31.9,8.138-52.9,1.173.977,2.874,5.893-2.074,5.652a1.271,1.271,0,0,0,.257,1.3ZM271.7,347.574l-3.231-6.624a1.262,1.262,0,0,0-.329-.42l-3.11-2.589a1.271,1.271,0,0,0-2.069.783l-9.618,62.52a1.27,1.27,0,0,0,2.378.79l20.907-39.306a1.27,1.27,0,0,0-.186-1.457L269.756,354l1.994-5.433a1.267,1.267,0,0,0-.051-.994" transform="translate(-212.742 -283.077)" fill="#183843"/><path d="M152.73,408.026l-9.619-62.52L140,348.1l-3.231,6.625,2.261,6.16-7.209,7.84Z" transform="translate(-110.874 -289.666)" fill="#9fa0a0"/><path d="M136.2,358.013a.636.636,0,0,0,.129-.649l-2.167-5.906,3.053-6.259,2.141-1.783,8.879,57.709-18.939-35.6Zm-8.238,7.708,20.908,39.306a.635.635,0,0,0,1.189-.4l-9.619-62.519a.635.635,0,0,0-1.034-.392l-3.109,2.589a.635.635,0,0,0-.165.21l-3.231,6.625a.635.635,0,0,0-.025.5l2.127,5.8-6.947,7.555a.635.635,0,0,0-.093.728" transform="translate(-107.577 -286.37)" fill="#183843"/><path d="M274.887,360.881l2.261-6.16-3.231-6.624-3.11-2.589-9.618,62.519L282.1,368.72Z" transform="translate(-219.332 -289.667)" fill="#9fa0a0"/><path d="M271,357.365a.636.636,0,0,0,.129.649l6.9,7.509-18.939,35.6,8.878-57.709,2.142,1.783,3.052,6.259Zm3.429-6.22-3.231-6.624a.637.637,0,0,0-.165-.21l-3.11-2.59a.635.635,0,0,0-1.034.392l-9.618,62.52a.635.635,0,0,0,1.189.4l20.908-39.306a.635.635,0,0,0-.093-.728l-6.947-7.555,2.127-5.8a.637.637,0,0,0-.025-.5" transform="translate(-216.037 -286.37)" fill="#183843"/></g></g><g transform="translate(0 0)"><g clip-path="url(#c)"><path d="M206.038,151.668a.635.635,0,0,0,.885-.156,1.911,1.911,0,0,1,2.662-.469.635.635,0,0,0,.729-1.041,3.159,3.159,0,0,0-1.819-.576,3.227,3.227,0,0,0-.559.049,3.161,3.161,0,0,0-2.054,1.309.635.635,0,0,0,.156.885" transform="translate(-172.512 -125.275)" fill="#183843"/><path d="M287.8,154.758a1.911,1.911,0,0,1,2.662.469.635.635,0,1,0,1.041-.729,3.161,3.161,0,0,0-2.054-1.308,3.212,3.212,0,0,0-.559-.049,3.158,3.158,0,0,0-1.818.576.635.635,0,0,0,.729,1.041" transform="translate(-240.448 -128.39)" fill="#183843"/><path d="M214.768,204.444c-.671,0-1.216.559-1.216,1.722a1.219,1.219,0,1,0,2.431,0c0-1.163-.544-1.722-1.216-1.722" transform="translate(-179.039 -171.402)" fill="#183843"/><path d="M295,204.444c-.671,0-1.216.559-1.216,1.722a1.219,1.219,0,1,0,2.431,0c0-1.163-.544-1.722-1.216-1.722" transform="translate(-246.302 -171.402)" fill="#183843"/><path d="M254.97,234.62a.635.635,0,0,0-.789-1,2.7,2.7,0,0,0,0,4.238.635.635,0,1,0,.788-1,1.429,1.429,0,0,1,0-2.245" transform="translate(-212.24 -195.751)" fill="#183843"/><path d="M196.548,195.6h-8.211v-5.6h8.211Zm.635-6.875H187.7a.635.635,0,0,0-.635.635v6.875a.635.635,0,0,0,.635.635h9.481a.635.635,0,0,0,.635-.635v-6.875a.635.635,0,0,0-.635-.635" transform="translate(-156.834 -158.22)" fill="#183843"/><path d="M278.262,195.6h-8.211v-5.6h8.211Zm.635-6.875h-9.481a.635.635,0,0,0-.635.635v6.875a.635.635,0,0,0,.635.635H278.9a.635.635,0,0,0,.635-.635v-6.875a.635.635,0,0,0-.635-.635" transform="translate(-225.342 -158.22)" fill="#183843"/><path d="M250.092,209.915h-3.725a.635.635,0,1,0,0,1.271h3.725a.635.635,0,0,0,0-1.271" transform="translate(-206.018 -175.989)" fill="#183843"/><path d="M157.84,199.261l-5.777-.968a.635.635,0,1,0-.21,1.253l5.777.968a.621.621,0,0,0,.106.009.635.635,0,0,0,.1-1.262" transform="translate(-126.866 -166.238)" fill="#183843"/><path d="M333.755,198.291l-5.777.968a.635.635,0,0,0,.21,1.253l5.777-.968a.635.635,0,1,0-.21-1.253" transform="translate(-274.527 -166.236)" fill="#183843"/><path d="M233.077,279.742a10.179,10.179,0,0,1-5.344-1.615.727.727,0,0,1,.844-1.184,7.637,7.637,0,0,0,8.61,0,.727.727,0,1,1,.84,1.188,8.429,8.429,0,0,1-4.951,1.613" transform="translate(-190.672 -232.07)" fill="#183843"/></g></g></g></g></svg>