<svg data-name="グループ 233" xmlns="http://www.w3.org/2000/svg" width="82.207" height="100"><defs><clipPath id="a"><path data-name="長方形 527" fill="#79c9bc" d="M0 0h82.207v100H0z"/></clipPath></defs><g data-name="グループ 232" clip-path="url(#a)" fill="#79c9bc"><path data-name="パス 412" d="M5.752 100a2.266 2.266 0 01-1.007-2.151c.046-2.733.06-5.468.005-8.2a18.409 18.409 0 012.05-9.68c-.706-.164-1.331-.291-1.946-.454a6.312 6.312 0 01-4.8-6.859Q1.31 62.3 2.387 51.911a52.937 52.937 0 016.531-20.573c3.541-6.317 8.122-11.7 14.436-15.415a45.376 45.376 0 015.288-2.467.946.946 0 00.708-1.145c-.146-1.423-.234-2.853-.322-4.282-.086-1.394.436-2.021 1.8-2.114a11.336 11.336 0 008.79-4.931c.949-1.312 2.025-1.312 2.972 0a11.349 11.349 0 008.786 4.934c1.372.1 1.891.718 1.805 2.111-.089 1.461-.2 2.921-.317 4.38-.035.45-.024.757.531.955 8.461 3.025 14.428 8.962 19.009 16.458a53.957 53.957 0 017.559 23.053q1 9.851 2.192 19.682A6.413 6.413 0 0176.8 79.67c-.412.088-.826.164-1.207.238a44.875 44.875 0 011.418 4.412 22.1 22.1 0 01.425 4.256c.06 3.09-.008 6.183.034 9.274a2.259 2.259 0 01-1.013 2.15h-1.172a2.63 2.63 0 01-.974-2.378c.037-3.382.061-6.766-.015-10.147a12.177 12.177 0 00-3.608-8.592 17.115 17.115 0 00-6.333-4.116c-3.9-1.407-7.864-2.669-11.837-3.869-3.45-1.041-5.195-3.211-5.207-6.824v-2.316a18.2 18.2 0 01-12.411.022c0 1.01.013 1.848 0 2.684a6.283 6.283 0 01-4.743 6.268c-1.587.472-3.192.884-4.781 1.354-4.025 1.19-8.015 2.464-11.53 4.867A12.849 12.849 0 007.888 88.16c0 3.155-.028 6.31.014 9.465A2.6 2.6 0 016.924 100zm55.46-78.732l-.168.136a3.2 3.2 0 00.151.308A57.174 57.174 0 0167.3 36c2.836 9.592 2.818 19.529 3.644 29.365a1.489 1.489 0 01-1.518 1.668 1.515 1.515 0 01-1.586-1.6c-.265-3.536-.55-7.07-.76-10.609a81.3 81.3 0 00-3.119-19.007c-.4-1.316-.854-2.616-1.283-3.923l-.243.036c0 .178-.007.355 0 .533a33.832 33.832 0 00.4 5.7A29 29 0 0162.978 44c.009 3.157-.97 4.474-3.971 5.4a1.221 1.221 0 00-.264.181c0 1.421.075 2.856-.016 4.28-.155 2.427-.313 4.862-.666 7.265a8.551 8.551 0 01-2.126 4.637 1.544 1.544 0 01-2.188.169 1.636 1.636 0 01-.238-2.116 18.68 18.68 0 001.551-3.635 37.959 37.959 0 00.636-4.516 32.9 32.9 0 00-2.64 2.536c-.848.846-2.1 1.494-2.523 2.5-.44 1.053-.114 2.432-.095 3.668a3.255 3.255 0 002.7 3.434c2.652.766 5.315 1.5 7.941 2.347 3.76 1.214 7.5 2.627 10.406 5.363a4.315 4.315 0 004.855 1.049c.062-.02.127-.028.189-.047a3.139 3.139 0 002.48-3.638c-.244-2.426-.519-4.85-.8-7.272-.642-5.555-1.09-11.142-1.991-16.655a46.47 46.47 0 00-12.079-24.893c-.922-.981-1.949-1.862-2.928-2.789M19.765 31.97l-.177-.065c-.117.285-.246.567-.349.857a78.741 78.741 0 00-4.122 22.264c-.192 3.475-.486 6.945-.749 10.417a1.515 1.515 0 01-1.595 1.6 1.563 1.563 0 01-1.509-1.874c.1-1.623.209-3.247.357-4.867.508-5.537.8-11.105 1.612-16.6a58.362 58.362 0 017.137-20.917l.8-1.375a5.766 5.766 0 00-1.45 1.044A45.177 45.177 0 006.017 48.9C4.752 56.859 4.1 64.914 3.193 72.928a2.9 2.9 0 002.084 3.412 22.872 22.872 0 003.332.7.8.8 0 00.581-.247c3.392-3.384 7.626-5.253 12.091-6.678 2.6-.829 5.232-1.552 7.847-2.329a3.259 3.259 0 002.645-3.486 79.434 79.434 0 00-.009-3.417 1.3 1.3 0 00-.287-.858c-1.6-1.437-3.241-2.835-4.788-4.175a13.7 13.7 0 001.862 7.786 1.573 1.573 0 01-.134 2.335 1.556 1.556 0 01-2.3-.418 11.7 11.7 0 01-1.406-2.542 21.927 21.927 0 01-1.24-8.051v-5.429c-3.628-1.279-4.338-2.217-4.265-6.033.046-2.35-.246-4.7.483-7.059.422-1.367.076-2.969.076-4.465m36.066 5.441c-8.7-.018-16.788-1.024-23.075-7.015-2.03 2.137-3.977 4.174-5.9 6.234a1.248 1.248 0 00-.253.787c-.014 2.765-.062 5.533.013 8.3a14.468 14.468 0 0013.327 14A14.186 14.186 0 0055.094 48.76c.731-3.615.514-7.421.737-11.35m3.389-3.06a18.26 18.26 0 00-29.684-16.469c-4.819 3.958-7.938 11.906-6.475 16.4a2.757 2.757 0 003-1.168 360.067 360.067 0 004.734-5.94c.831-1.073 1.712-1.216 2.709-.321.266.239.518.494.78.738a22.809 22.809 0 0011.366 5.867c4.471.879 8.99.8 13.573.892M32.459 12.414a21.7 21.7 0 0117.279-.014c.063-.966.084-1.837.188-2.7.076-.635-.166-.815-.768-.934a14.315 14.315 0 01-7.449-3.982c-.2-.2-.413-.37-.612-.547-3.334 3.024-4.141 3.46-8.3 4.6-.207.057-.5.354-.5.539 0 .966.09 1.932.156 3.042M23.4 37.505a1.354 1.354 0 00-1.081 1.378q-.019 2.967 0 5.934a1.286 1.286 0 001.081 1.352zm35.405 8.547l.37.156c.224-.451.626-.9.642-1.355.07-2.01.075-4.026-.007-6.036-.019-.453-.484-.888-.743-1.331l-.262.161z"/><path data-name="パス 413" d="M63.176 100.001a2.133 2.133 0 01-1.159-2.165 36.4 36.4 0 00-.239-5.542 9.115 9.115 0 00-13.527-6.375 32.04 32.04 0 00-3.4 2.451c-2.763 2.1-4.753 2.109-7.5-.006-.567-.437-1.144-.862-1.691-1.322-2.863-2.41-6.111-2.71-9.548-1.662-3.5 1.068-5.752 4.344-5.91 8.46a58.627 58.627 0 00-.017 4 2.064 2.064 0 01-1.159 2.161h-.977a2.128 2.128 0 01-1.009-2.145c.178-2.36-.01-4.8.532-7.07 1.591-6.664 7.028-9.378 13.111-9.053a12.478 12.478 0 017.154 3.029q1.07.848 2.175 1.65a1.707 1.707 0 002.172 0 96.897 96.897 0 002.876-2.18c5.459-4.328 13.709-2.654 17.1 1.537a13.369 13.369 0 012.95 7.8c.088 1.427-.007 2.864.057 4.293a2.168 2.168 0 01-1.021 2.142z"/><path data-name="パス 414" d="M41.053 55.659a6.438 6.438 0 01-4.756-2.2 1.617 1.617 0 01-.054-2.35 1.588 1.588 0 012.333.215 3.235 3.235 0 005.035.019 1.6 1.6 0 012.332-.251 1.631 1.631 0 01-.083 2.421 6.458 6.458 0 01-4.807 2.15"/><path data-name="パス 415" d="M34.661 40.796c0 .389.024.779-.006 1.165a1.532 1.532 0 01-1.5 1.486 1.505 1.505 0 01-1.584-1.394 16.442 16.442 0 01-.006-2.426 1.533 1.533 0 011.546-1.448 1.559 1.559 0 011.547 1.548c.023.355 0 .712 0 1.068"/><path data-name="パス 416" d="M50.635 40.91a6.283 6.283 0 01-.015 1.258 1.448 1.448 0 01-1.589 1.267 1.422 1.422 0 01-1.464-1.4 18.312 18.312 0 01-.011-2.33 1.534 1.534 0 011.466-1.524 1.561 1.561 0 011.629 1.467c.041.417.007.841.007 1.262h-.023"/></g></svg>