<svg xmlns="http://www.w3.org/2000/svg" width="107.608" height="100"><defs><clipPath id="a"><path fill="#79c9bc" d="M0 0h107.608v100H0z"/></clipPath></defs><g clip-path="url(#a)" fill="#79c9bc"><path d="M0 77.179c.161-.637.288-1.286.49-1.91a11.292 11.292 0 017.423-7.577q6.7-2.3 13.4-4.573a1.981 1.981 0 001.56-1.636 1.148 1.148 0 00-.676-1.346 20.509 20.509 0 01-10.942-16.123 57.867 57.867 0 01-.166-7.569 59.574 59.574 0 01.254-8.193c1.061-7.3 5.084-12.526 11.691-15.763.215-.106.423-.228.713-.385a7.057 7.057 0 01-1.158-5.613 7.76 7.76 0 014.661-5.484 10.147 10.147 0 019.122.153c4.366 2.189 5.588 6.32 3.228 10.982a21.318 21.318 0 017.766 5.737 21.556 21.556 0 014.411 8.82 25.487 25.487 0 014.678-7.923C63.338 11.14 71.91 8.183 81.869 10.54c9.925 2.348 16.226 8.86 18.986 18.7a54.816 54.816 0 011.969 14.658c.014 3.755.025 7.51 0 11.265a23.279 23.279 0 01-3.3 11.807c-.085.145-.15.3-.259.523.356.149.667.289.984.412a11.32 11.32 0 017.338 10.555c.039 6.527.015 13.055.01 19.582 0 1.244-.578 1.939-1.567 1.943s-1.578-.69-1.579-1.929q-.009-9.423 0-18.845c0-4.432-2.008-7.24-6.217-8.679-4.268-1.46-8.531-2.938-12.816-4.346a5.282 5.282 0 01-3.862-4.329 19.158 19.158 0 01-11.24-.026c-.4 2.885-2.43 3.973-4.883 4.707-2.372.711-4.694 1.59-7.166 2.439.3.264.508.46.729.643a11.154 11.154 0 014.288 8.875c.03 6.528.014 13.055.008 19.583 0 1.251-.58 1.922-1.587 1.905-.982-.015-1.556-.711-1.558-1.964-.008-6.141-.124-12.286.034-18.423a8.835 8.835 0 00-6.566-9.206c-4.05-1.213-8.015-2.709-12.018-4.078-2.849-.974-3.474-1.6-4.392-4.51a21.252 21.252 0 01-11.111-.029c-.1.367-.174.665-.266.956a4.951 4.951 0 01-3.357 3.339q-6.708 2.266-13.4 4.577a8.233 8.233 0 00-5.916 8.254q-.012 9.475.005 18.951c0 .859-.093 1.658-.985 2.015A1.645 1.645 0 01.1 99.099c-.015-.021-.066-.017-.1-.026V77.179m48.868-24.027a20.339 20.339 0 01-7.646 6.972 1.171 1.171 0 00-.637 1.774 2.694 2.694 0 001.35 1.162c3.222 1.163 6.5 2.166 9.7 3.384a5.73 5.73 0 004.319 0c3.244-1.2 6.539-2.272 9.818-3.382a1.955 1.955 0 001.415-1.763c.115-.829-.44-1.065-.975-1.412A18.336 18.336 0 0157.4 46.008c-.382-3.612-.195-7.286-.233-10.932-.021-2.028.857-3.064 2.876-3.32a29.34 29.34 0 0014.051-5.657 3 3 0 013.7-.127 43.979 43.979 0 0014.348 5.725 2.9 2.9 0 012.6 3.163c.017 3.053.091 6.109-.02 9.158a18.786 18.786 0 01-9.155 15.99c-.482.307-1.1.56-.83 1.243.237.6.567 1.441 1.061 1.626 3.395 1.275 6.844 2.406 10.307 3.595a19.385 19.385 0 003.507-10.278c.12-4.1.065-8.209.058-12.314a56.823 56.823 0 00-1.758-13.526 22.56 22.56 0 00-43.812-.467 49.119 49.119 0 00-1.857 12.98c.041 6.183-.812 12.422.946 18.525a1.448 1.448 0 01-1.079 1.875 1.473 1.473 0 01-1.9-1.058 21.4 21.4 0 01-.807-3.257c-.25-1.861-.357-3.74-.542-5.8M14.108 35.369c.129 3.143.012 6.216.427 9.215a17.624 17.624 0 0015.494 14.728 17.555 17.555 0 0018.3-12.413c1.106-3.67.7-7.441.749-11.18 0-.209-.389-.56-.646-.615a51.206 51.206 0 01-16.084-6.436.942.942 0 00-1.2.053c-1.428.946-2.857 1.9-4.36 2.717a35.7 35.7 0 01-12.68 3.935m46.2-.44c0 2.7-.077 5.365.028 8.019a22.851 22.851 0 00.648 5.084 15.508 15.508 0 0030.428-2.537c.3-3.342.153-6.727.15-10.093 0-.259-.429-.684-.723-.75a46.881 46.881 0 01-14.151-5.683 1.043 1.043 0 00-1.312.069c-1.251.833-2.516 1.657-3.838 2.369a32.535 32.535 0 01-11.225 3.518m-23.1-20.324c-6.319-1.8-12.018-.855-16.971 3.43a16.962 16.962 0 00-5.997 14.054c10.3-.529 20.642-8.395 22.964-17.483m3.091 1.478c-.855 1.815-1.57 3.65-2.551 5.328s-2.224 3.186-3.373 4.8a47.006 47.006 0 0014.606 5.735A17.1 17.1 0 0040.3 16.084M31.255 3.207a6.18 6.18 0 00-4.674 2.134 3.826 3.826 0 00-.006 5.172 1.457 1.457 0 001.133.413 23.115 23.115 0 017.931.01 1.359 1.359 0 001.052-.373 3.906 3.906 0 00-.348-5.635 6.926 6.926 0 00-5.088-1.722"/><path d="M31.585 79.91c.295-.282.521-.492.74-.708a12.5 12.5 0 0113.8-2.6 12.343 12.343 0 017.461 11.785c-.133 3.355-.458 6.7-.722 10.052a1.515 1.515 0 01-1.649 1.533 1.437 1.437 0 01-1.451-1.6c.127-2.937.177-5.892.56-8.8a9.327 9.327 0 00-16.027-7.886 5.537 5.537 0 01-1.8 1.374c-1.362.55-2.392-.15-3.312-1.15a9.1 9.1 0 00-9.539-2.815 9.354 9.354 0 00-6.734 10.315c.376 2.842.482 5.72.69 8.584a1.718 1.718 0 01-.924 1.852 1.53 1.53 0 01-2.2-1.328c-.271-3.245-.571-6.488-.767-9.738a12.483 12.483 0 0121.3-9.541c.2.2.363.427.575.679m44.372-.094c3.961-4.024 8.581-5.3 13.864-3.427 5.594 1.98 8.719 7.634 7.91 13.672-.357 2.666-.419 5.372-.583 8.063-.077 1.269-.695 1.95-1.763 1.83-.893-.1-1.443-.744-1.379-1.906.161-2.936.249-5.888.647-8.8a9.324 9.324 0 00-16.27-7.33q-2.451 2.676-4.892-.032a9.525 9.525 0 00-4.472-2.816c-1.345-.394-1.87-1.136-1.541-2.157.3-.92 1.165-1.222 2.457-.851 2.157.619 3.211 1.274 6.022 3.75M31.602 53.11a34.156 34.156 0 01-3.3-1.292 1.558 1.558 0 111.533-2.7 3.327 3.327 0 003.652-.006 1.532 1.532 0 012.19.49 1.466 1.466 0 01-.588 2.156 36.333 36.333 0 01-3.484 1.354m-7.05-13.739a15.183 15.183 0 01-.01 1.575 1.574 1.574 0 01-1.613 1.477 1.549 1.549 0 01-1.5-1.575 44.767 44.767 0 010-3.152 1.553 1.553 0 013.1-.109 13.891 13.891 0 01.015 1.784h.007m17.301.033a15.737 15.737 0 01-.012 1.677 1.408 1.408 0 01-1.393 1.323 1.342 1.342 0 01-1.6-1.182 22.556 22.556 0 010-3.863 1.334 1.334 0 011.5-1.181 1.416 1.416 0 011.488 1.339 18.226 18.226 0 01.012 1.887m34.046 14.777a30.193 30.193 0 01-3.156-1.274 1.547 1.547 0 111.574-2.663 2.949 2.949 0 003.259 0 1.468 1.468 0 012.108.491 1.492 1.492 0 01-.544 2.175 32.592 32.592 0 01-3.24 1.27m-6.263-12.635a12.307 12.307 0 01-.012 1.574 1.442 1.442 0 01-1.58 1.364 1.392 1.392 0 01-1.465-1.365 24.864 24.864 0 01.01-3.254 1.362 1.362 0 011.508-1.3 1.4 1.4 0 011.516 1.3 13.047 13.047 0 01.013 1.678h.009m15.71-.017c0 .491.025.984-.006 1.473a1.456 1.456 0 01-1.475 1.484 1.424 1.424 0 01-1.6-1.344 16.778 16.778 0 010-3.254 1.407 1.407 0 011.614-1.318 1.437 1.437 0 011.461 1.486c.03.489.005.982.005 1.473"/></g></svg>