<svg xmlns="http://www.w3.org/2000/svg" width="555" height="42.337"><path data-name="パス 930" d="M23.703 8.496a9.881 9.881 0 00-1.173.094c-7.181.8-11.5 1.173-16.991 1.361 0-1.126-.375-2.3-3.567-2.769a3.623 3.623 0 00-.7-.094c-.845 0-1.267.329-1.267.751 0 .329.235.7.8 1.033 1.549 1.033 1.408 1.314 1.971 12.016a2.26 2.26 0 002.018 2.394c.892 0 1.69-.657 1.69-2.065 0-.235-.047-.469-.047-.7a44.15 44.15 0 01-.939-7.932 146.214 146.214 0 0117.085-1.5.843.843 0 01.986.892v.094c-1.267 11.64-7.322 22.248-19.009 28.3-.516.282-.751.61-.751.8 0 .141.141.235.375.235a1.838 1.838 0 00.61-.141c11.164-4.655 19.66-13.339 22.382-26.762a10.924 10.924 0 00.282-2.3c0-2.577-1.314-3.707-3.755-3.707zm53.32 1.924c0-1.126-.657-1.784-2.065-1.784a5.985 5.985 0 00-.892.047 65.843 65.843 0 01-10.279.939c.094-.235.235-.516.329-.8a6.778 6.778 0 00.657-2.488c0-1.267-.751-2.394-3.051-3.239a2.967 2.967 0 00-.986-.235c-.516 0-.892.235-.892.657a2.677 2.677 0 001.033 1.6 2.587 2.587 0 01.7 1.877 6.214 6.214 0 01-.61 2.394 31.943 31.943 0 01-11.824 14.456c-.469.329-.657.657-.657.892a.379.379 0 00.422.329 1.224 1.224 0 00.516-.141c6.618-3.567 10.232-6.712 13.424-13.33 2.675-.141 5.867-.329 9.387-.7a.531.531 0 01.657.563l-.047.329a49.871 49.871 0 01-3.849 9.951 30.98 30.98 0 00-5.492-2.957 1.62 1.62 0 00-.61-.141c-.329 0-.516.141-.516.329 0 .282.235.61.751.892a14.217 14.217 0 014.553 4.037c-3.989 6.236-10.044 11.165-20.135 16.046-.516.235-.8.563-.8.8 0 .188.188.329.469.329a1.838 1.838 0 00.61-.141c9.906-3.663 16.148-8.029 21.218-14.834.282.563.563 1.126.8 1.737a3.466 3.466 0 002.908 2.392 1.629 1.629 0 001.642-1.736 4.4 4.4 0 00-.657-1.971 13.736 13.736 0 00-2.773-3.239 85.786 85.786 0 005.3-10.232 6.866 6.866 0 00.759-2.628zm30.79 7.557a1.726 1.726 0 001.831-1.737 3.476 3.476 0 00-.845-1.971c-2.159-2.582-5.82-3.708-9.481-3.708h-1.126c-.657.047-.986.282-.986.563s.375.563.939.657c3.332.563 5.4 2.488 7.463 5.069a2.839 2.839 0 002.205 1.127zm-5.585 20.511c8.918 0 21.309-13.565 29.241-25.58a1.362 1.362 0 00.282-.751c0-.282-.141-.422-.375-.422a1.639 1.639 0 00-1.173.8c-10.655 14.269-22.06 22.2-26.989 22.2a3.681 3.681 0 01-2.957-1.033 1.479 1.479 0 00-1.033-.469c-.516 0-.939.375-.939 1.173a4.747 4.747 0 00.469 1.831 3.625 3.625 0 003.474 2.251zm1.408-12.532a1.644 1.644 0 001.69-1.643 2.83 2.83 0 00-.8-1.831c-2.065-2.3-5.351-3.1-8.589-3.1-.469 0-.986.047-1.455.094-.516 0-.8.282-.8.516 0 .282.282.563.892.657a11 11 0 016.853 3.99 2.763 2.763 0 002.209 1.317zm53.6 14.55c13.565 0 19.479-7.04 19.479-12.908 0-4.271-3.051-7.885-8.636-7.885-3.661 0-8.4 1.549-13.987 5.585a4.794 4.794 0 01-2.488 1.033c-.657 0-1.126-.422-1.126-1.549a4.053 4.053 0 01.047-.7l1.267-10.514c.235-2.018.986-3.473 3.755-3.473a14.229 14.229 0 013.9.657 7.281 7.281 0 001.6.235c1.361 0 2.065-.7 2.065-1.831a5.368 5.368 0 00-.986-2.722c-1.5-2.253-3-3.614-8.214-3.8-.516 0-.892.235-.892.563 0 .282.235.516.845.8a9.225 9.225 0 014.788 3.567.6.6 0 01.188.469.5.5 0 01-.563.516c-4.13.563-8.12.845-8.73 5.022s-1.408 9.622-1.6 13.1c-.141 2.535 1.126 4.177 2.957 4.177a5.454 5.454 0 003.559-1.841c5.257-5.257 9.857-7.275 13.236-7.275 4.037 0 6.43 2.769 6.43 6.149 0 5.116-5.585 11.546-19.432 11.406-.751 0-1.126.282-1.126.563 0 .235.329.516 1.033.563.896.046 1.74.093 2.632.093zm51.724.282c5.632 0 12.72-3.567 18.54-10.608a1.52 1.52 0 00.422-.892.383.383 0 00-.422-.375 1.442 1.442 0 00-.986.516c-5.537 5.351-11.78 8.308-16.567 8.308-4.459 0-7.651-2.582-7.651-8.167 0-.422 0-.892.047-1.361.892-10.279 2.488-15.865 2.488-19.291a4.676 4.676 0 00-2.767-4.741 2.269 2.269 0 00-.986-.282c-.516 0-.8.282-.8.7a1.992 1.992 0 00.469 1.173 4.394 4.394 0 01.751 2.91c0 2.769-.939 7.932-2.018 19.76-.047.657-.094 1.267-.094 1.831 0 7.092 4.084 10.519 9.578 10.519zM271.434 6.9a26.826 26.826 0 01-11.265-2.91 2.389 2.389 0 00-1.033-.235c-1.08 0-2.112.657-2.112 1.643a2.274 2.274 0 00.61 1.408 59.483 59.483 0 014.037 6.243 32.526 32.526 0 01-10.467 2.018 10.934 10.934 0 01-6.055-1.455 2.407 2.407 0 00-1.126-.422.458.458 0 00-.516.469 1.974 1.974 0 00.751 1.22c1.5 1.408 4.553 2.159 8.308 2.159a34.616 34.616 0 0010.467-1.737 76.3 76.3 0 014.083 7.745 5.233 5.233 0 01.141 1.08c0 .845-.375 1.267-.986 1.267a1.842 1.842 0 01-.657-.141 26.607 26.607 0 00-9.012-1.924 14.833 14.833 0 00-4.224.61c-3.614 1.033-5.3 3.52-5.3 6.243-.004 4.645 4.971 10.045 13.842 10.045a28.064 28.064 0 005.351-.563c1.314-.282 1.831-.892 1.831-1.5 0-.845-1.126-1.784-2.722-1.784a3.552 3.552 0 00-.7.047 26.969 26.969 0 01-4.13.375c-7.7 0-11.734-3.943-11.734-7.228 0-1.784 1.267-3.379 3.8-3.99a12.087 12.087 0 012.816-.329 18.382 18.382 0 019.434 3.1 6.056 6.056 0 003.051.939 2.18 2.18 0 002.394-2.347 5.748 5.748 0 00-.376-1.971 75.018 75.018 0 00-4.6-10.514 29.541 29.541 0 006.806-3.849c1.033-.8 1.408-1.5 1.408-2.065-.003-.99-1.176-1.6-2.115-1.647zm-2.863 3a30.977 30.977 0 01-4.507 2.257 97.17 97.17 0 00-3.239-5.4 1.592 1.592 0 01-.235-.657c0-.188.141-.282.329-.282a1.623 1.623 0 01.563.141 33.539 33.539 0 006.994 2.675c.469.141.751.329.751.563.001.19-.187.429-.656.707zm47.81 9.963c0-1.175-.992-1.91-2.535-1.91-2.351 0-5.951 1.69-9.44 6.134a4.263 4.263 0 00-3.379-1.763 6.192 6.192 0 00-2.388.551.522.522 0 01-.22.073c-.11 0-.184-.037-.184-.147 0-.073.037-.147.147-.257a24.381 24.381 0 004-7.2 5.588 5.588 0 002.571-2.461 3.436 3.436 0 00.331-1.139c0-.367-.22-.624-.735-.735-.735-.147-1.69-.331-2.424-.4a2.2 2.2 0 00-1.506-.808c-.551 0-.918.294-.918.771a1.421 1.421 0 00.4.918 3.2 3.2 0 01.735 2.131 6.594 6.594 0 01-2.277.4 4.635 4.635 0 01-2.5-.661 1.468 1.468 0 00-.771-.257.922.922 0 00-.882.992 2.51 2.51 0 001.286 1.91 3.862 3.862 0 002.057.478 9.189 9.189 0 002.535-.367c-1.139 2.9-4.077 6.428-8.412 9.955a1.891 1.891 0 00-.845 1.469 1.2 1.2 0 001.212 1.212 2.381 2.381 0 001.726-.955c2.608-3.049 4.775-4.261 6.428-4.261 1.726 0 2.865 1.433 3.2 3.526-5.62 2.718-8.045 5.8-8.045 8.3 0 2.939 3.2 5.069 8.412 5.069a23.952 23.952 0 006.428-.918c1.175-.331 1.69-.845 1.69-1.286 0-.7-.992-1.286-2.314-1.286a4.4 4.4 0 00-1.139.147 25.248 25.248 0 01-6.685 1.1c-3.233 0-4.775-1.175-4.775-2.792 0-1.984 2.277-4.628 6.538-6.722a13.082 13.082 0 01-.588 3.416 2.556 2.556 0 00-.147.845 1.176 1.176 0 001.139 1.322c.661 0 1.469-.551 1.763-1.837a9.583 9.583 0 00.294-2.535 10.582 10.582 0 00-.22-2.167l.184-.073c7.498-2.746 10.253-5.832 10.253-7.779zm-13.848-8.485a4.9 4.9 0 011.029.22c.22.073.331.147.331.294 0 .073-.037.147-.147.257a6.868 6.868 0 01-.955.624 3.379 3.379 0 00-.259-1.392zm2.531 13.741c2.755-3.93 6.024-5.473 7.64-5.473.624 0 1.029.22 1.029.661 0 1.065-2.167 3.232-8.191 5.877a9.374 9.374 0 00-.478-1.065zm32.679-23.993c4.788 1.173 8.449 2.769 10.936 4.788a3.7 3.7 0 002.112 1.173q1.408 0 1.408-1.549c0-.986-.939-1.924-2.863-2.816C346.895 1.549 343.187.61 338.165 0zm11.171 10.984l1.267-.751a.635.635 0 00.422-.563c0-.469-.986-1.408-2.957-2.863l-1.83 2.253h-12.767l.469 1.173h12.767v25.392c0 .939-.563 1.408-1.643 1.408a63.515 63.515 0 01-7.04-.516v1.22a27.821 27.821 0 014.6 1.08 2.38 2.38 0 011.737 2.253c3.332.047 4.975-1.173 4.975-3.708V16.24a35.747 35.747 0 004.083 10.138c2.769 4.459 7.087 8.4 12.954 11.781a9.725 9.725 0 012.488-2.722c-6.242-2.911-11.075-6.618-14.456-11.171a58.9 58.9 0 009.106-8.308 7.268 7.268 0 001.033.047c.8 0 1.22-.188 1.22-.563q0-.986-3.661-3.379a57.641 57.641 0 01-8.4 11.124 34.288 34.288 0 01-4.365-11.03zm-10 6.336h-10.887l.469 1.173h10.655a35.219 35.219 0 01-12.532 19.291l.7.986a31.917 31.917 0 009.2-7.791 36.2 36.2 0 005.585-11.453l1.22-.657a.635.635 0 00.422-.563c0-.516-.986-1.6-2.957-3.286zm61.487-7.134h-12.72l.61 1.173h27.364l.563-.892a27.346 27.346 0 00-2.112-2.394 10.344 10.344 0 01-.8-.751l-2.253 2.863h-8.026V6.617h10.561l.516-.845a24.5 24.5 0 00-2.91-2.957l-2.159 2.628h-6.008v-3c1.267-.422 1.877-.845 1.877-1.267 0-.7-1.5-1.033-4.506-1.033v5.3h-10.227l.563 1.173h9.669zm-22.858-8.308c2.675 2.112 4.412 4.224 5.163 6.336.422 1.126 1.033 1.69 1.737 1.69 1.173 0 1.784-.61 1.784-1.877 0-2.535-2.675-4.881-8.026-7.087zm16.662 12.908c-1.361-.563-2.3-.939-2.816-1.08v9.9h2.582v-1.549h6.336a40.525 40.525 0 01-12.11 9.857l.7.986a38.059 38.059 0 0011.5-7.463v10.094h2.628v-9.622a28.068 28.068 0 018.871 6.2c.7.751 1.22 1.126 1.643 1.126a1.355 1.355 0 001.549-1.5q0-1.971-5.492-4.647a22.332 22.332 0 004.553-3.426 2.48 2.48 0 00.61.047q1.408 0 1.408-.563c-.047-.516-1.033-1.455-2.957-2.722a23.789 23.789 0 01-1.69 2.535v-6.2l1.033-.8a.548.548 0 00.329-.516c0-.329-.845-1.173-2.535-2.441l-1.643 1.784zm14.832 6.1h-15.064v-4.928h15.067zm-23.234.141l1.126-.7q.422-.282.422-.563c0-.422-.939-1.408-2.769-2.863l-1.831 2.159h-6.947l.516 1.173h6.853v12.529a48.343 48.343 0 01-7.459 4.694c1.267 2.488 2.206 3.755 2.863 3.755.422 0 .657-.61.657-1.877a67.32 67.32 0 005.914-6.712 12.263 12.263 0 006.759 5.632c3.332 1.22 8.167 1.831 14.6 1.831h10.277a7.729 7.729 0 011.455-3.145 124.553 124.553 0 01-12.579.7c-5.867 0-10.373-.516-13.424-1.549a10.6 10.6 0 01-6.43-5.257zm23.234 1.033v1.22h2.253a42.57 42.57 0 01-2.769 3.332 43.957 43.957 0 00-4.928-1.784l-.563-.141v-2.112l.422-.516zm22.954 17.288c.624 0 1.139-.478 1.139-1.359a3.362 3.362 0 00-.184-.918 19.26 19.26 0 01-.992-5.363 9.048 9.048 0 01.882-3.894 2.429 2.429 0 00.22-.808c0-.184-.073-.294-.22-.294-.184 0-.478.22-.845.661a9.784 9.784 0 00-1.286 2.388c-.11.331-.294.514-.4.514s-.184-.184-.184-.588c.147-6.722 3.049-10.763 3.049-13.812a3.723 3.723 0 00-.735-2.351c-.735-.955-1.4-1.359-1.8-1.359a.485.485 0 00-.478.551 2.506 2.506 0 00.367 1.139 4.107 4.107 0 01.4 1.947c0 3.232-2.351 8.118-2.351 14a20.259 20.259 0 001.655 8.076 2.161 2.161 0 001.763 1.47zm15.244-21.966a12.245 12.245 0 004-.588c.808-.257 1.212-.808 1.212-1.286 0-.514-.441-.955-1.212-.955a2.041 2.041 0 00-.771.147 17.943 17.943 0 01-5.216.918 11.3 11.3 0 01-3.232-.478 1.9 1.9 0 00-.4-.073c-.294 0-.478.147-.478.367s.184.478.624.735a11.645 11.645 0 005.473 1.212zm2.429 19.504a19.406 19.406 0 004.481-.551c1.139-.294 1.616-.808 1.616-1.286 0-.661-.845-1.286-2.094-1.286a4.684 4.684 0 00-.7.037 30.387 30.387 0 01-5.4.661 8.75 8.75 0 01-5.877-2.02 1.36 1.36 0 00-.771-.331.378.378 0 00-.4.367 1.492 1.492 0 00.294.7c1.941 2.571 5.21 3.709 8.851 3.709zm54.742-2.341q0-1.69.282-5.632l-1.224-.513c-.61 5.351-1.267 8.026-2.065 8.026-.282 0-.8-.329-1.6-1.033a20.376 20.376 0 01-4.035-4.793A35.093 35.093 0 00500.645 26a3.552 3.552 0 00.7.047c.845 0 1.267-.188 1.267-.516 0-.563-1.126-1.408-3.426-2.582a34.941 34.941 0 01-4.547 6.477 40.12 40.12 0 01-2.065-6.43l-.094-.516 12.908-1.354.469-.939a20.029 20.029 0 00-3.145-2.961l-1.971 3.1-8.5.892a42.7 42.7 0 01-.751-5.257l10.424-1.035.422-.892a20.038 20.038 0 00-2.957-2.675l-1.69 2.675-6.289.657a67.634 67.634 0 01-.282-4.553l12.438-1.08.422-.986a29.182 29.182 0 00-2.957-2.722l-1.877 2.816-8.073.7c-.047-1.549-.047-3.567-.047-6.055 1.08-.375 1.6-.751 1.6-1.08q0-.986-4.224-1.267c0 1.737.047 4.083.094 7.04v1.549l-9.153.8.563 1.267 8.683-.751c.047 1.69.141 3.192.282 4.553l-7.791.8.61 1.22 7.275-.7c.235 2.018.469 3.755.751 5.257l-10.611 1.127.563 1.173 10.279-1.08a44.456 44.456 0 002.769 8.542 47.257 47.257 0 01-15.536 9.293l.61 1.08a50.211 50.211 0 0016.193-7.979 23.944 23.944 0 003.709 4.739c2.206 2.206 4.224 3.286 6.1 3.286 1.173 0 1.877-.7 2.112-2.159-.984-.282-1.5-1.549-1.5-3.849zm-8.073-30.227c.188 1.08.657 1.6 1.408 1.6a1.4 1.4 0 001.6-1.6c0-1.924-1.737-3.52-5.21-4.834l-.563.751a7.087 7.087 0 012.761 4.084zm-15.3 9.481a.548.548 0 00.329-.516c0-.469-.892-1.455-2.722-3l-1.831 2.159h-4.845a66.313 66.313 0 001.5-7.51l.094-.61h9.81l.563-.939a21.953 21.953 0 00-3.1-3.286l-2.394 3.051h-14.964l.375 1.173h6.616q-1.338 13.8-7.557 22.389l.892.7a27.607 27.607 0 004.412-5.726l.235-.375a8.958 8.958 0 012.675 3.943 1.521 1.521 0 001.455 1.22 1.291 1.291 0 001.267-.7c-.141.282-.235.563-.375.845a37.7 37.7 0 01-10.323 13.702l.8.845a34.188 34.188 0 0010.7-11.218 48.364 48.364 0 005.163-15.4zM473.852 26.8a1.87 1.87 0 00.141-.8c0-1.831-1.69-3.332-5.022-4.506a36.217 36.217 0 002.675-6.759h5.4a54.755 54.755 0 01-3.2 12.066zm79.412-15.629c-5.351-1.549-9.012-3.426-14.785-7.322a3.28 3.28 0 00-1.6-2.065 3.9 3.9 0 00-1.878-.7.815.815 0 00-.892.892 4.621 4.621 0 00.657 2.065 17.028 17.028 0 011.267 6.1c-5.726.516-10.514 1.737-14.5 1.737a11.847 11.847 0 01-4.365-.657 2.692 2.692 0 00-1.127-.235c-.8 0-1.314.469-1.314 1.033 0 .8.8 1.784 2.769 2.488a5.971 5.971 0 002.159.329c3.52 0 8.589-1.831 16.522-2.347.047 1.5.047 3 .047 4.412v.325a5.077 5.077 0 00-2.816-.845c-2.675 0-5.3 2.159-5.3 6.2a4.554 4.554 0 00.047.8c.422 5.257 2.816 7.51 5.257 7.51a4.544 4.544 0 003.142-1.365c-.094 4.459-1.361 8.73-6.571 10.889-.563.235-.845.563-.845.845s.282.469.751.469a1.761 1.761 0 00.469-.047c7.651-1.971 8.918-10.091 8.918-15.911a25.049 25.049 0 00-.094-2.722 8.6 8.6 0 00-.751-3.145 114.622 114.622 0 01-.141-5.3c0-.8 0-1.5.047-2.206h1.643a71.366 71.366 0 0112.861 1.22 4.3 4.3 0 00.751.047c.939 0 1.408-.422 1.408-.892-.001-.616-.564-1.274-1.736-1.602zm-7.885-.939c-.047 0-.094-.047-.141-.047-1.549-.141-3.1-.235-4.553-.235-.751 0-1.549 0-2.253.047.094-1.831.188-3.239.188-4.365 2.628 1.643 5.492 3.239 6.759 3.99a.44.44 0 01.282.375c.003.141-.097.235-.283.235zm-12.344 17.93c-1.6 0-3.1-1.6-3.1-5.21 0-2.91 1.455-4.365 2.957-4.365 1.455 0 3.051 1.455 3.286 4.318 0 .235.047.469.047.7-.047 2.867-1.643 4.557-3.192 4.557z" fill="#5d5d5d"/></svg>