<svg xmlns="http://www.w3.org/2000/svg" width="391.526" height="179.726"><path data-name="パス 931" d="M30.598 4.796a19.712 19.712 0 00-1.9-.858v19.578h1.586V21.15H43.05v2.366h1.586V5.94l.65-.442a.33.33 0 00.182-.286q-.039-.39-1.716-1.638l-.988 1.222h-7.462a16.113 16.113 0 001.846-3.12c.7-.13 1.066-.312 1.066-.546 0-.364-.858-.7-2.6-1.014a26.666 26.666 0 01-1.2 4.68zm-.312.65h12.766V9.84H30.286zm12.766 9.542H30.286v-4.5h12.766zm0 5.512H30.286v-4.862h12.766zm11.336-7.436a21.77 21.77 0 004.442-3.692 26.406 26.406 0 004.212-6.552c.728-.156 1.092-.338 1.092-.572q0-.507-2.34-1.326a25.6 25.6 0 01-7.826 11.622zM67.206 1.286q.975 2.067 1.872 3.588a25.464 25.464 0 006.188 6.994 4.592 4.592 0 011.352-1.586 25.288 25.288 0 01-8.762-9.36zm-4.888 9.906a20.063 20.063 0 01-1.066 5.122 12.619 12.619 0 01-6.162 6.656l.364.572a13.09 13.09 0 006.292-4.836 15.962 15.962 0 002.21-7.514h6.188a39 39 0 01-.7 8.294c-.26 1.092-.832 1.638-1.742 1.638a33.483 33.483 0 01-4.082-.364v.7a13.474 13.474 0 012.73.624c.65.26.988.65.988 1.17a3.169 3.169 0 003.042-1.56c.832-1.534 1.248-4.836 1.274-9.958l.546-.416a.5.5 0 00.26-.39c0-.234-.52-.754-1.534-1.56l-.988 1.17h-11.96l.208.65zm29.328 11.362c7.514 0 10.79-3.9 10.79-7.15 0-2.366-1.69-4.368-4.784-4.368-2.028 0-4.654.858-7.748 3.094a2.656 2.656 0 01-1.378.572c-.364 0-.624-.234-.624-.858a2.245 2.245 0 01.026-.39l.7-5.824c.13-1.118.546-1.924 2.08-1.924a7.882 7.882 0 012.158.364 4.033 4.033 0 00.884.13c.754 0 1.144-.39 1.144-1.014a2.974 2.974 0 00-.546-1.508c-.832-1.248-1.664-2-4.55-2.106-.286 0-.494.13-.494.312 0 .156.13.286.468.442a5.11 5.11 0 012.658 1.976.334.334 0 01.1.26.279.279 0 01-.312.286c-2.288.312-4.5.468-4.836 2.782s-.78 5.33-.884 7.254c-.078 1.4.624 2.314 1.638 2.314a3.021 3.021 0 001.976-1.014c2.912-2.912 5.46-4.03 7.332-4.03a3.332 3.332 0 013.562 3.406c0 2.834-3.094 6.4-10.764 6.318-.416 0-.624.156-.624.312 0 .13.182.286.572.312.494.026.962.052 1.456.052zm29.952.156c3.12 0 7.046-1.976 10.27-5.876a.842.842 0 00.234-.494.212.212 0 00-.234-.208.8.8 0 00-.546.286c-3.068 2.964-6.526 4.604-9.178 4.604-2.47 0-4.238-1.43-4.238-4.524 0-.234 0-.494.026-.754.494-5.694 1.378-8.788 1.378-10.686a2.59 2.59 0 00-1.534-2.626 1.257 1.257 0 00-.546-.156c-.286 0-.442.156-.442.39a1.1 1.1 0 00.26.65 2.434 2.434 0 01.416 1.612c0 1.534-.52 4.394-1.118 10.946-.026.364-.052.7-.052 1.014 0 3.924 2.262 5.822 5.304 5.822zm31.174.676c.416 0 .806-.364.806-1.04a2.276 2.276 0 00-.048-.416c-.832-4.082-2.418-5.928-5.564-9.594a1.008 1.008 0 01-.26-.676 1.206 1.206 0 01.1-.494 17.655 17.655 0 015.3-6.344 2.053 2.053 0 00.936-1.716 2.923 2.923 0 00-.65-1.742.936.936 0 00-.676-.442c-.286 0-.494.26-.494.728a2.379 2.379 0 00.026.416.884.884 0 01.026.26c0 1.612-2.886 3.406-5.434 8.4a2.057 2.057 0 00-.234.91 1.925 1.925 0 00.442 1.248 21.621 21.621 0 014.632 9.332c.182.806.65 1.17 1.092 1.17zm27.9-9.1h7.592l.312-.572a15.885 15.885 0 00-1.746-1.924l-1.35 1.846h-4.81V7.552h8.866l.286-.52a15.124 15.124 0 00-1.768-1.976l-1.378 1.846h-6.006v-4.78c.754-.286 1.144-.546 1.144-.78 0-.39-.936-.624-2.782-.7v6.266h-5.512c.416-1.118.78-2.236 1.092-3.3.78-.13 1.17-.312 1.17-.572 0-.364-.858-.754-2.6-1.2a28.57 28.57 0 01-4.368 11.332l.546.39a23.524 23.524 0 003.87-6.006h5.8v6.084h-7.7l.26.65h7.44v7.02h-10.736l.26.65h22.2l.286-.52a23.612 23.612 0 00-1.816-2.054l-1.482 1.924h-7.072zm34.736-7.072a54.239 54.239 0 01-5.33-1.092 8.24 8.24 0 001.274-.6c.468-.26.676-.546.676-.78 0-.39-.52-.7-1.118-.7a2.087 2.087 0 00-.78.156c-.39.182-.884.442-1.4.676-1.17-2.574-1.716-3.172-3.094-3.484a3.072 3.072 0 00-.78-.1c-.546 0-.884.182-.884.442s.338.6 1.092.91a5.679 5.679 0 012.418 2.73 8.1 8.1 0 01-2.392.416 5.651 5.651 0 01-1.82-.286.469.469 0 00-.26-.052c-.26 0-.416.13-.416.312s.13.39.468.546a7.815 7.815 0 002.964.494 11.443 11.443 0 002.08-.182c.468 1.04.936 2.21 1.43 3.484a13.013 13.013 0 01-3.874.65 7.971 7.971 0 01-3.8-.884 1 1 0 00-.494-.13c-.26 0-.442.13-.442.312 0 .156.13.338.416.546a7.838 7.838 0 004.628 1.3 15.391 15.391 0 004.03-.572c.416 1.144.858 2.34 1.3 3.588a1.92 1.92 0 01.052.312c0 .234-.13.338-.39.338a2.7 2.7 0 01-.39-.052 12.2 12.2 0 00-3.328-.468c-3.64 0-5.772 1.872-5.772 3.77-.002 1.946 2.208 3.87 7.278 3.87.7 0 1.482-.026 2.34-.1.806-.082 1.17-.446 1.17-.836 0-.494-.65-1.066-1.742-1.066a2.379 2.379 0 00-.442.026 25.047 25.047 0 01-2.886.208c-3.3 0-4.6-1.04-4.6-2.132 0-1.352 1.846-2.808 4.316-2.808a6.924 6.924 0 014 1.326 1.869 1.869 0 001.04.364 1.417 1.417 0 001.4-1.534 3.069 3.069 0 00-.286-1.17 147.953 147.953 0 01-1.742-4.03 24.525 24.525 0 004.5-1.95 1.057 1.057 0 00.65-.884c.004-.416-.386-.806-1.062-.884zm-2.03 1.248a24.279 24.279 0 01-2.6 1.2c-.52-1.2-.936-2.21-1.326-3.094a37.983 37.983 0 003.77 1.274c.286.078.416.208.416.338 0 .1-.108.204-.26.282zm24.8 1.586a10.113 10.113 0 00-4.472 1.092.37.37 0 01-.156.052.056.056 0 01-.052-.052.346.346 0 01.078-.182 52.189 52.189 0 015.8-6.24 1.853 1.853 0 00.676-1.378 1.18 1.18 0 00-1.246-1.218 3.375 3.375 0 00-1.742.624c-2.262 1.456-3.848 2.34-5.2 2.34a2.458 2.458 0 01-1.2-.286 1.072 1.072 0 00-.442-.1.37.37 0 00-.364.416 1.619 1.619 0 00.78 1.2 1.941 1.941 0 001.17.338c1.118 0 2.756-.728 5.356-2.47a.783.783 0 01.364-.156.178.178 0 01.182.182.758.758 0 01-.156.39c-.364.494-8.138 10.062-9.542 11.726a2.335 2.335 0 00-.542 1.366c0 .572.312.962.728.962.364 0 .884-.364 1.378-1.3 2.288-4.524 5.486-6.11 8.19-6.11 3.042 0 5.486 2 5.512 4.134-.026 3.562-2.912 5.018-5.564 5.3a2.365 2.365 0 00.182-.91c0-1.274-1.248-1.82-2.574-1.82-1.482 0-3.068.676-3.068 1.742 0 1.332 2.392 2.292 5.07 2.292 3.51 0 7.514-1.664 7.514-6.448 0-3.458-3.094-5.486-6.656-5.486zm-4.572 9.646c-.026-.624.7-.988 1.43-.988.754 0 1.508.39 1.508 1.118a1.891 1.891 0 01-.312.936c-1.482-.078-2.652-.52-2.626-1.066zm37.57-14.872a5.473 5.473 0 00-.65.052c-3.978.442-6.37.65-9.412.754 0-.624-.208-1.274-1.976-1.534a2.007 2.007 0 00-.39-.052c-.468 0-.7.182-.7.416 0 .182.13.39.442.572.858.572.78.728 1.092 6.656a1.252 1.252 0 001.116 1.326c.494 0 .936-.364.936-1.144 0-.13-.026-.26-.026-.39a24.457 24.457 0 01-.52-4.394 80.994 80.994 0 019.464-.832.467.467 0 01.546.494v.052a19.456 19.456 0 01-10.53 15.678c-.286.156-.416.338-.416.442 0 .078.078.13.208.13a1.018 1.018 0 00.338-.078 19.8 19.8 0 0012.4-14.82 6.051 6.051 0 00.156-1.274 1.817 1.817 0 00-2.078-2.054zm30.836 1.066c0-.624-.364-.988-1.144-.988a3.315 3.315 0 00-.494.026 36.473 36.473 0 01-5.694.52c.052-.13.13-.286.182-.442a3.754 3.754 0 00.368-1.382c0-.7-.416-1.326-1.69-1.794a1.643 1.643 0 00-.546-.13c-.286 0-.494.13-.494.364a1.483 1.483 0 00.572.884 1.433 1.433 0 01.39 1.04 3.442 3.442 0 01-.338 1.326 17.7 17.7 0 01-6.556 8.01c-.26.182-.364.364-.364.494a.21.21 0 00.234.182.678.678 0 00.286-.078c3.666-1.976 5.668-3.718 7.436-7.384a95.348 95.348 0 005.2-.39.294.294 0 01.364.312l-.026.182a27.626 27.626 0 01-2.132 5.512 17.162 17.162 0 00-3.042-1.638.9.9 0 00-.338-.078c-.182 0-.286.078-.286.182 0 .156.13.338.416.494a7.875 7.875 0 012.522 2.236c-2.208 3.46-5.564 6.19-11.154 8.894-.286.13-.442.312-.442.442 0 .1.1.182.26.182a1.018 1.018 0 00.338-.078c5.49-2.028 8.944-4.446 11.752-8.216.156.312.312.624.442.962a1.92 1.92 0 001.612 1.326.9.9 0 00.91-.962 2.436 2.436 0 00-.364-1.092 7.609 7.609 0 00-1.534-1.794 47.52 47.52 0 002.938-5.668 3.8 3.8 0 00.416-1.456zm18.356 4.186a.956.956 0 001.014-.962 1.925 1.925 0 00-.468-1.092 6.784 6.784 0 00-5.252-2.054h-.624c-.364.026-.546.156-.546.312s.208.312.52.364a6.557 6.557 0 014.134 2.808 1.572 1.572 0 001.222.624zm-3.094 11.362c4.94 0 11.8-7.514 16.2-14.17a.755.755 0 00.156-.416c0-.156-.078-.234-.208-.234a.908.908 0 00-.65.442c-5.9 7.9-12.22 12.3-14.95 12.3a2.039 2.039 0 01-1.638-.572.819.819 0 00-.572-.26c-.286 0-.52.208-.52.65a2.63 2.63 0 00.26 1.014 2.008 2.008 0 001.922 1.246zm.78-6.942a.91.91 0 00.936-.91 1.568 1.568 0 00-.442-1.014 6.272 6.272 0 00-4.758-1.716c-.26 0-.546.026-.806.052-.286 0-.442.156-.442.286 0 .156.156.312.494.364a6.092 6.092 0 013.8 2.21 1.531 1.531 0 001.218.728zm43.342 3.822a1.312 1.312 0 001.434-1.094c0-.364-.286-.676-.91-.7-2.808-.1-6.942-4.446-11.414-9.022a1.953 1.953 0 00-1.378-.806 2.051 2.051 0 00-1.43.936c-.936 1.118-3.562 4.654-5.382 4.654a.8.8 0 01-.26-.026 2.049 2.049 0 00-.52-.052c-.442 0-.65.156-.65.416 0 .364.468.884 1.352 1.2a2.528 2.528 0 00.7.13c2.132 0 3.77-3.354 5.2-5.434.338-.442.65-.7 1.04-.7s.78.26 1.222.832c4.808 6.078 7.694 9.666 10.996 9.666zM59.43 54.846c-.858-.442-1.508-.78-1.924-.962v20.93h1.638v-2.236H71.03v1.976h1.612V56.068l.7-.468a.367.367 0 00.208-.312c0-.26-.572-.858-1.69-1.768l-1.092 1.326zm-.286.65H71.03v7.618H59.148zM71.03 71.928H59.148v-8.164H71.03zM94.48 56.9v-3.588c.7-.234 1.066-.468 1.066-.676 0-.338-.858-.52-2.548-.6v4.862H85.38a9.317 9.317 0 01-.1-.988l-.7-.1a7 7 0 01-1.768 4.342 1.376 1.376 0 00-.364.806c0 .6.312.884.962.884.52 0 .962-.39 1.352-1.17a7.479 7.479 0 00.65-3.12H102.8a10.79 10.79 0 01-1.326 2.626l.494.364a31.492 31.492 0 002.34-2.184l.91-.156c.208-.026.312-.13.312-.26 0-.338-.6-1.092-1.82-2.21l-.936 1.17h-4.6a32.876 32.876 0 002.34-2.574c.754-.026 1.118-.156 1.118-.39 0-.338-.78-.832-2.314-1.43a26.429 26.429 0 01-2.106 4.394zm-8.268-3.666a5.265 5.265 0 012.106 2.808c.13.546.416.832.832.832.65 0 .988-.364.988-1.066q0-1.755-3.588-3.042zm2.964 6.6a16.365 16.365 0 00-1.638-.65v6.188h1.456V64.31h3.978v2.756H87.23q-.507-.234-1.326-.546l-.39-.13v7.618h1.508v-6.292h5.954v7.878h1.534v-7.878h6.214v3.506c0 .494-.286.728-.858.728-.884 0-2.028-.078-3.406-.208v.68a11.046 11.046 0 012.366.494 1.087 1.087 0 01.884.988c1.69-.078 2.522-.754 2.522-1.976V68.21l.6-.416q.234-.156.234-.312c0-.208-.52-.7-1.56-1.508l-.988 1.092h-6.006V64.31h3.874v.962h1.456v-4.238l.572-.442c.156-.13.234-.234.234-.338.026-.182-.494-.676-1.534-1.43l-.884 1.014zm-.182.65h9.386v3.172h-9.386zm35.256-4.472c-5.356 0-11.232 3.744-11.232 10.244 0 3.146 1.508 4.836 3.328 4.836 2.782 0 6.292-3.848 6.292-12.35 0-.52-.026-1.014-.052-1.56.39-.026.754-.052 1.118-.052 3.926 0 7.618 2.392 7.618 7.462 0 5.876-5.746 7.93-10.608 7.982-.286.026-.442.156-.442.286s.13.26.442.312a19 19 0 002.08.13c5.668 0 10.192-3.12 10.192-8.788 0-5.846-4.212-8.498-8.736-8.498zm-2.626 1.794c0 7.618-3.146 11.1-5.278 11.1-1.144 0-1.9-.936-1.9-2.834a8.729 8.729 0 017.176-8.71zm33.28 16.77c1.144.026 1.586-.286 1.586-.7 0-.624-1.04-1.43-2.314-1.352h-.416c-2.782 0-4.082-1.716-4.082-3.51a4.056 4.056 0 012.626-3.77 25.258 25.258 0 016.552-1.56c.78-.078 1.144-.468 1.144-.858 0-.494-.546-1.014-1.456-1.014a2.733 2.733 0 00-.858.156 120.69 120.69 0 00-12.506 4.5.482.482 0 01-.182.052c-.13 0-.208-.078-.208-.234a.71.71 0 01.182-.39 99.111 99.111 0 019.386-9.308 1.783 1.783 0 00.676-1.274 1.173 1.173 0 00-1.326-1.118 2.813 2.813 0 00-1.04.234 11.421 11.421 0 01-3.874.936 3.732 3.732 0 01-1.69-.364.8.8 0 00-.338-.078.48.48 0 00-.468.52 1.8 1.8 0 00.832 1.278 1.986 1.986 0 001.248.39 8.129 8.129 0 003.64-1.222.419.419 0 01.234-.078c.078 0 .13.052.13.156a.415.415 0 01-.078.208c-3.666 4.134-6.084 6.838-8.762 9.62a1.914 1.914 0 00-.572 1.352 1.057 1.057 0 001.144 1.118 3.316 3.316 0 001.144-.286c1.82-.78 3.12-1.326 4.368-1.82a.35.35 0 01.208-.052c.078 0 .13.026.13.078a.352.352 0 01-.13.234 4.449 4.449 0 00-1.4 3.2c-.004 2.386 2.102 4.802 6.47 4.96zm26.546-18.56c-5.356 0-11.232 3.744-11.232 10.244 0 3.146 1.508 4.836 3.328 4.836 2.782 0 6.292-3.848 6.292-12.35 0-.52-.026-1.014-.052-1.56.39-.026.754-.052 1.118-.052 3.926 0 7.618 2.392 7.618 7.462 0 5.876-5.746 7.93-10.608 7.982-.286.026-.442.156-.442.286s.13.26.442.312a19 19 0 002.08.13c5.668 0 10.192-3.12 10.192-8.788 0-5.85-4.212-8.502-8.736-8.502zm-2.626 1.794c0 7.618-3.146 11.1-5.278 11.1-1.144 0-1.9-.936-1.9-2.834a8.729 8.729 0 017.176-8.71zm30.134.546h8.138l.312-.52a12.63 12.63 0 00-1.768-1.924l-1.352 1.794h-5.33v-3.952c.754-.286 1.144-.546 1.144-.806 0-.39-.884-.6-2.678-.676v5.434h-5.2a25.736 25.736 0 001.066-2.938c.7-.156 1.066-.338 1.066-.572q0-.585-2.418-1.092a23.584 23.584 0 01-3.718 9.412l.546.39a17.983 17.983 0 003.146-4.55h5.512v5.616h-10.348l.286.65h6.942a12.548 12.548 0 01-.962 4.6q-1.638 3.707-6.63 5.7l.364.624c2.99-.91 5.174-2.158 6.5-3.8a11.56 11.56 0 002.366-7.124h3.848v8.216a2.218 2.218 0 00.364 1.4c.39.416 1.9.624 4.5.624a19.135 19.135 0 003.952-.234 1.379 1.379 0 00.988-1.482.806.806 0 01-.78-.338 5.561 5.561 0 01-.286-2.236c0-.624 0-1.17.026-1.638l-.7-.286c-.234 2.99-.65 4.576-1.274 4.758a10.786 10.786 0 01-2.444.156 8.918 8.918 0 01-2.418-.208c-.234-.1-.364-.364-.364-.806v-7.926h7.644l.312-.572a17.007 17.007 0 00-1.846-1.95l-1.486 1.872h-7.02zm29.692-2.34c-5.356 0-11.232 3.744-11.232 10.244 0 3.146 1.508 4.836 3.328 4.836 2.782 0 6.292-3.848 6.292-12.35 0-.52-.026-1.014-.052-1.56.39-.026.754-.052 1.118-.052 3.926 0 7.618 2.392 7.618 7.462 0 5.876-5.746 7.93-10.608 7.982-.286.026-.442.156-.442.286s.13.26.442.312a19 19 0 002.08.13c5.668 0 10.192-3.12 10.192-8.788 0-5.85-4.212-8.502-8.736-8.502zm-2.626 1.794c0 7.618-3.146 11.1-5.278 11.1-1.144 0-1.9-.936-1.9-2.834a8.729 8.729 0 017.176-8.71zm28.574 2.288h-10.452l.286.65h22.074l.286-.494a11.771 11.771 0 00-1.872-1.9l-1.352 1.742h-7.438v-3.352h7.826l.286-.468a9.3 9.3 0 00-1.794-1.846l-1.3 1.664h-5.018v-2.262c.7-.26 1.066-.494 1.066-.7 0-.364-.858-.572-2.6-.624v3.588h-8.006l.234.65h7.774zm-10.114 5.224l.286.65h9.8v3.822h-8.734l.26.65h8.476v5.148h1.586v-5.146h8.606l.26-.468a11.559 11.559 0 00-1.924-1.976l-1.43 1.794h-5.512v-3.822h9.932l.286-.494a10.9 10.9 0 00-1.82-1.924l-1.378 1.766h-5.148a27.584 27.584 0 002.262-2.678c.728-.026 1.092-.13 1.092-.364 0-.39-.754-.832-2.288-1.378a24.606 24.606 0 01-1.924 4.42zm5.046-3.872a4.853 4.853 0 011.794 2.886c.078.52.338.78.754.78.65 0 .962-.338.962-1.04q0-1.755-3.12-3.042zm45.214-.91a6.245 6.245 0 01-5.356-2.028v-.364a3.119 3.119 0 00-1.4-3.068 1.319 1.319 0 00-.676-.234.534.534 0 00-.6.546 1.32 1.32 0 00.338.78 6.7 6.7 0 01.936 3.952c0 .312 0 .624-.026.936-3.042.286-5.3.572-7.072.78a45.28 45.28 0 00.078-2.418c0-2.184-.39-2.964-2.236-3.562a1.293 1.293 0 00-.416-.078c-.364 0-.6.208-.6.468 0 .234.182.546.65.832.754.494.936 2.054.988 4.94-.806.078-1.508.13-2.132.13a6.806 6.806 0 01-2.782-.494 1.776 1.776 0 00-.572-.13.725.725 0 00-.78.728c0 .6.676 1.43 2.288 1.43.754 0 2.158-.182 4-.39.026 1.378.026 2.99.078 4.862.1 4.5 3.12 5.668 6.682 5.668a18.541 18.541 0 002.678-.182c1.092-.13 1.56-.52 1.56-.91 0-.468-.65-.91-1.716-.91a6.489 6.489 0 00-.65.052 19.5 19.5 0 01-3.12.312c-2.418 0-4.108-.806-4.134-3.536v-1.43c0-1.586.026-2.964.078-4.108 2-.234 4.394-.468 6.994-.6a23.34 23.34 0 01-.624 3.25.446.446 0 01-.442.338.653.653 0 01-.442-.182 9.454 9.454 0 00-1.508-.988.97.97 0 00-.416-.1c-.156 0-.26.052-.26.182a.851.851 0 00.338.494 8.215 8.215 0 011.794 2.21 1.235 1.235 0 001.066.78c.754 0 1.482-.832 1.534-2.08.052-1.508.13-2.808.208-3.952.7-.026 1.43-.026 2.158-.026 1.144 0 2.288.026 3.458.1 1.2.052 1.768-.442 1.768-.962s-.596-1.064-1.714-1.038zm-4.314.282c-.416.026-.832.078-1.222.1.052-.52.1-1.014.13-1.456a4.767 4.767 0 001.092.962c.156.1.286.208.286.286-.004.06-.086.108-.286.108zm32.37 9.49a1.312 1.312 0 001.43-1.09c0-.364-.286-.676-.91-.7-2.808-.1-6.942-4.446-11.414-9.022a1.953 1.953 0 00-1.378-.806 2.051 2.051 0 00-1.43.936c-.936 1.118-3.562 4.654-5.382 4.654a.8.8 0 01-.26-.026 2.049 2.049 0 00-.52-.052c-.442 0-.65.156-.65.416 0 .364.468.884 1.352 1.2a2.528 2.528 0 00.7.13c2.132 0 3.77-3.354 5.2-5.434.338-.442.65-.7 1.04-.7s.78.26 1.222.832c4.808 6.078 7.694 9.666 10.996 9.666zM2 108.792a19.711 19.711 0 00-1.9-.858v19.578h1.586v-2.366h12.766v2.366h1.586V109.94l.65-.442a.33.33 0 00.182-.286q-.039-.39-1.716-1.638l-.988 1.222H6.704a16.113 16.113 0 001.846-3.12c.7-.13 1.066-.312 1.066-.546 0-.364-.858-.7-2.6-1.014a26.666 26.666 0 01-1.2 4.68zm-.312.65h12.766v4.394H1.688zm12.766 9.542H1.688v-4.5h12.766zm0 5.512H1.688v-4.858h12.766zm22.776-14.17v-4.03c.754-.26 1.118-.494 1.118-.728 0-.39-.91-.6-2.7-.676v5.434h-6.786a15.979 15.979 0 00-1.846-.806v17.966h1.586v-2.054H44.41v2.054h1.586v-16.012l.676-.442a.367.367 0 00.208-.312c0-.234-.572-.806-1.69-1.69l-1.066 1.3zm-1.586.65v6.346h-7.046v-6.342zm8.762 6.344H37.23v-6.34h7.176zm-15.808 7.462v-6.808h7.046v6.812zm15.808-6.812v6.812H37.23v-6.808zm14.4 8.788c.442 0 .806-.338.806-.962a2.38 2.38 0 00-.13-.65 13.632 13.632 0 01-.7-3.8 6.4 6.4 0 01.624-2.756 1.719 1.719 0 00.156-.572c0-.13-.052-.208-.156-.208-.13 0-.338.156-.6.468a6.926 6.926 0 00-.91 1.69c-.078.234-.208.364-.286.364s-.13-.13-.13-.416c.1-4.758 2.158-7.618 2.158-9.776a2.635 2.635 0 00-.52-1.664c-.52-.676-.988-.962-1.274-.962a.344.344 0 00-.338.39 1.775 1.775 0 00.26.806 2.907 2.907 0 01.286 1.378c0 2.288-1.664 5.746-1.664 9.906a14.34 14.34 0 001.17 5.72 1.53 1.53 0 001.25 1.048zm10.79-15.548a8.667 8.667 0 002.834-.416c.572-.182.858-.572.858-.91 0-.364-.312-.676-.858-.676a1.444 1.444 0 00-.546.1 12.7 12.7 0 01-3.692.65 8 8 0 01-2.288-.338 1.341 1.341 0 00-.286-.052c-.208 0-.338.1-.338.26s.13.338.442.52a8.242 8.242 0 003.876.866zm1.716 13.806a13.736 13.736 0 003.172-.39c.806-.208 1.144-.572 1.144-.91 0-.468-.6-.91-1.482-.91a3.315 3.315 0 00-.494.026 21.509 21.509 0 01-3.822.468 6.193 6.193 0 01-4.16-1.43.963.963 0 00-.546-.234.267.267 0 00-.286.26 1.056 1.056 0 00.208.494c1.384 1.824 3.694 2.632 6.268 2.632zM85.82 111.6a57.89 57.89 0 001.69-5.668c.754-.13 1.118-.312 1.118-.546.026-.364-.78-.728-2.392-1.066a51.989 51.989 0 01-4.654 14.43l.6.364a34.111 34.111 0 002.6-4.888v13.364h1.456v-14.608q1.092-.39 1.092-.7c0-.34-.494-.548-1.508-.678zm5.642-5.226l-.338-.208a31.823 31.823 0 00-1.43-.65V127.2h1.508v-1.578h11.468v1.586h1.508v-19.66l.6-.416c.182-.13.286-.26.286-.39q-.039-.351-1.638-1.56l-.936 1.2zm-.26.65h11.468v17.94H91.204zm3.822 9.386c-.182-.078-.39-.182-.65-.312a5.83 5.83 0 00-.676-.286l-.338-.156v7.8h1.4v-1.534h4.056v1.378h1.4v-5.872l.52-.364a.445.445 0 00.208-.312c0-.182-.494-.65-1.456-1.352l-.832 1.014h-1.144v-3.822h4.186l.26-.52a14.565 14.565 0 00-1.17-1.248l-.39-.364-1.066 1.482h-1.82v-2.548c.676-.234 1.014-.442 1.014-.65 0-.416-.806-.624-2.444-.65v3.848H91.87l.26.65h3.952v3.822zm-.26.65h4.056v4.212h-4.056zm19.37 10.53h1.508v-21.94c.7-.286 1.066-.546 1.066-.754q0-.585-2.574-.624zm12.534-15.908h6.448l.286-.494-.208-.26a18.05 18.05 0 00-1.508-1.612l-1.274 1.716h-3.744v-5.226c.754-.234 1.118-.468 1.118-.7 0-.442-.884-.65-2.678-.676v6.6h-3.25c.234-.754.494-1.9.832-3.432.676-.13 1.014-.312 1.014-.52 0-.338-.832-.728-2.47-1.144a31.059 31.059 0 01-2.964 10.896l.624.364a20.278 20.278 0 002.756-5.512h3.458v6.292h-5.2l.26.65h4.94v7.228h-7.384l.312.65h15.86l.312-.52a23.82 23.82 0 00-1.456-1.638l-.312-.312-1.352 1.82h-4.42v-7.23h5.694l.312-.494a25.672 25.672 0 00-1.638-1.846l-1.248 1.69h-3.12zm-10.686-2.76a9.721 9.721 0 011.2 3.874c.052.7.286 1.04.676 1.04q.936 0 .936-1.092c0-1.17-.754-2.574-2.288-4.212zm-4.186.364a13.381 13.381 0 01-1.092 6.036 3.183 3.183 0 00-.364.91c0 .546.286.832.884.832 1.092 0 1.638-1.326 1.638-4a23.138 23.138 0 00-.39-3.692zm48.048 2.886c0-.832-.7-1.352-1.794-1.352-1.664 0-4.212 1.2-6.682 4.342a3.017 3.017 0 00-2.392-1.24 4.383 4.383 0 00-1.69.39.37.37 0 01-.156.052c-.078 0-.13-.026-.13-.1 0-.052.026-.1.1-.182a17.257 17.257 0 002.834-5.1 3.955 3.955 0 001.82-1.742 2.432 2.432 0 00.234-.806c0-.26-.156-.442-.52-.52-.52-.1-1.2-.234-1.716-.286a1.56 1.56 0 00-1.066-.572c-.39 0-.65.208-.65.546a1.006 1.006 0 00.286.65 2.267 2.267 0 01.52 1.508 4.667 4.667 0 01-1.612.286 3.281 3.281 0 01-1.768-.468 1.039 1.039 0 00-.546-.182.653.653 0 00-.624.7 1.777 1.777 0 00.91 1.352 2.734 2.734 0 001.456.338 6.5 6.5 0 001.794-.26c-.806 2.054-2.886 4.55-5.954 7.046a1.338 1.338 0 00-.6 1.04.849.849 0 00.858.858 1.685 1.685 0 001.222-.676c1.846-2.158 3.38-3.016 4.55-3.016 1.222 0 2.028 1.014 2.262 2.5-3.978 1.924-5.694 4.108-5.694 5.876 0 2.08 2.262 3.588 5.954 3.588a16.954 16.954 0 004.55-.65c.832-.234 1.2-.6 1.2-.91 0-.494-.7-.91-1.638-.91a3.117 3.117 0 00-.806.1 17.871 17.871 0 01-4.732.78c-2.288 0-3.38-.832-3.38-1.976 0-1.4 1.612-3.276 4.628-4.758a9.26 9.26 0 01-.416 2.418 1.809 1.809 0 00-.1.6.833.833 0 00.806.936c.468 0 1.04-.39 1.248-1.3a6.784 6.784 0 00.208-1.794 7.489 7.489 0 00-.156-1.534l.13-.052c5.302-1.954 7.252-4.138 7.252-5.516zm-9.8-6.006a3.467 3.467 0 01.728.156c.156.052.234.1.234.208 0 .052-.026.1-.1.182a4.863 4.863 0 01-.676.442 2.393 2.393 0 00-.188-.984zm1.794 9.724c1.95-2.782 4.264-3.874 5.408-3.874.442 0 .728.156.728.468 0 .754-1.534 2.288-5.8 4.16a6.629 6.629 0 00-.338-.75zm28.184-.52a17.506 17.506 0 009.984 11.44 7.077 7.077 0 011.352-1.612 19.015 19.015 0 01-6.968-4.238 26.341 26.341 0 003.82-2.96 2.528 2.528 0 00.468.026c.494 0 .728-.1.728-.312 0-.312-.65-.858-1.976-1.664a27.927 27.927 0 01-3.51 4.42 17.1 17.1 0 01-3.09-5.174h9.75l.312-.52a19.512 19.512 0 00-1.82-1.9l-1.43 1.768h-7.332v-3.092h7.488l.286-.494a21.254 21.254 0 00-1.716-1.768l-1.252 1.612h-4.81v-2.808h9.048l.312-.468a16.213 16.213 0 00-1.768-1.794l-1.3 1.612h-6.292v-1.822c.754-.26 1.118-.494 1.118-.728 0-.39-.884-.572-2.626-.6v3.146h-9.152l.286.65h8.866v2.812h-7.618l.26.65h7.358v3.094h-10.452l.286.65h9.282a23.5 23.5 0 01-10.114 6.266l.312.624a29.981 29.981 0 006.708-2.73v5.3l-.832.13c-1.95.312-3.068.494-3.38.52.494 1.56.91 2.34 1.274 2.34.182 0 .338-.338.442-.988a96.135 96.135 0 0010.712-3.12l-.182-.7c-1.846.494-4 1.014-6.5 1.534v-5.95a25.073 25.073 0 003.666-3.148zm27.872-9.464l-.312-.156c-.234-.13-.676-.338-1.326-.65v14.642h1.482v-1.3h1.612a10.393 10.393 0 01-1.04 4c-1.066 2.08-3.224 3.666-6.474 4.732l.338.6a12.759 12.759 0 006.136-2.912 9.979 9.979 0 002.6-6.422h1.95v7.02c0 .78.208 1.248.624 1.43a9.881 9.881 0 003.25.312 8.632 8.632 0 002.756-.26 1.371 1.371 0 00.754-1.378.883.883 0 01-.884-.52 13.1 13.1 0 01-.286-3.64l-.65-.286a19.249 19.249 0 01-.52 3.978q-.273.78-1.794.78a4.233 4.233 0 01-1.458-.154c-.234-.078-.338-.286-.338-.65v-6.63h1.976v1.3h1.482v-12.688l.676-.442c.13-.078.182-.156.182-.26 0-.286-.52-.832-1.586-1.638l-.962 1.2zm-6.188 8.58h3.354l.286-.52a9.055 9.055 0 00-1.484-1.764l-1.17 1.638h-.988v-6.266h3.64l.312-.494a16.292 16.292 0 00-1.612-1.742l-1.144 1.584h-6.292l.208.65h3.38v6.266h-3.224l.208.65h3.016v6.578l-.13.026c-.858.208-2.08.468-3.666.806.442 1.534.858 2.314 1.2 2.314.182 0 .338-.312.468-.962a74.132 74.132 0 007.514-3.068l-.208-.65c-1.378.468-2.6.858-3.666 1.144zm6.032-7.93h8.552v3.046h-8.554zm8.552 3.696v3.328h-8.554v-3.328zm0 3.978v3.562h-8.554v-3.562zm13.546-.308v-4.918c.7-.234 1.066-.468 1.066-.7 0-.364-.858-.6-2.548-.676v8.788h1.482v-1.848h6.058v9.954h-7.28v-4.81c.65-.234.988-.468.988-.7 0-.416-.832-.624-2.522-.65v8.788h1.534v-1.976h16.328v1.976h1.534v-7.59c.676-.234 1.014-.442 1.014-.676 0-.442-.858-.676-2.548-.754v6.4h-7.488v-9.962h6.214v1.69h1.482v-7.436c.65-.234.988-.468.988-.7 0-.416-.832-.65-2.47-.728v6.528h-6.214v-8.038c.728-.26 1.092-.52 1.092-.754q0-.663-2.652-.7v9.492zm34.606 2.626H253.6l.286.65h9.776a25.761 25.761 0 01-10.114 8.216l.364.572a25.462 25.462 0 0010.53-7.228v8.84h1.56v-9.62a28.019 28.019 0 009.984 7.644 4.552 4.552 0 011.3-1.664 27.84 27.84 0 01-10.868-6.578l-.182-.182h10.816l.312-.52a15.576 15.576 0 00-1.872-1.872l-1.326 1.742h-8.164v-7.31h9.568l.312-.52a11.72 11.72 0 00-1.742-1.846l-1.3 1.716h-6.838v-2.912c.754-.26 1.144-.494 1.144-.728 0-.39-.91-.624-2.7-.7v4.342h-9.338l.286.65h9.048zm4.368-.7a22.386 22.386 0 002.964-4.212c.754-.052 1.144-.182 1.144-.416 0-.338-.78-.806-2.366-1.4a28.9 28.9 0 01-2.314 5.72zm-11.362-5.2a9.562 9.562 0 012.132 3.874q.273 1.014.858 1.014c.65 0 .962-.338.962-1.04 0-1.456-1.2-2.86-3.562-4.238zm37.934 3.406a10.113 10.113 0 00-4.472 1.092.37.37 0 01-.156.052.056.056 0 01-.052-.052.346.346 0 01.078-.182 52.188 52.188 0 015.8-6.24 1.853 1.853 0 00.676-1.378 1.18 1.18 0 00-1.248-1.222 3.375 3.375 0 00-1.742.624c-2.262 1.456-3.848 2.34-5.2 2.34a2.458 2.458 0 01-1.2-.286 1.072 1.072 0 00-.442-.1.37.37 0 00-.364.416 1.619 1.619 0 00.78 1.2 1.941 1.941 0 001.17.338c1.118 0 2.756-.728 5.356-2.47a.783.783 0 01.364-.156.178.178 0 01.182.182.758.758 0 01-.156.39c-.364.494-8.138 10.062-9.542 11.726a2.335 2.335 0 00-.546 1.378c0 .572.312.962.728.962.364 0 .884-.364 1.378-1.3 2.288-4.524 5.486-6.11 8.19-6.11 3.042 0 5.486 2 5.512 4.134-.026 3.562-2.912 5.018-5.564 5.3a2.365 2.365 0 00.182-.91c0-1.274-1.248-1.82-2.574-1.82-1.482 0-3.068.676-3.068 1.742 0 1.326 2.392 2.288 5.07 2.288 3.51 0 7.514-1.664 7.514-6.448.002-3.468-3.092-5.496-6.654-5.496zm-4.576 9.646c-.026-.624.7-.988 1.43-.988.754 0 1.508.39 1.508 1.118a1.891 1.891 0 01-.312.936c-1.482-.084-2.652-.526-2.626-1.072zm36.374-4v2.08h1.534v-9.23h5.408l.286-.494a13.141 13.141 0 00-1.326-1.482l-.468-.468-1.352 1.794h-2.548v-5.704c.754-.26 1.144-.494 1.144-.728 0-.39-.884-.624-2.678-.7v7.124h-4.576v-5.644c.806-.286 1.222-.546 1.222-.754 0-.39-.91-.624-2.756-.7v7.1h-4.654v-4.972c.754-.26 1.118-.494 1.118-.728 0-.416-.91-.65-2.7-.7v6.4h-3.952l.26.65h3.688v15.054h1.586v-2.288h16.9l.338-.572a26.182 26.182 0 00-1.976-1.9l-1.456 1.82h-13.806V112.54h4.654v9.382h1.534v-2.232zm-4.576-.65v-6.5h4.576v6.5zm22.226-12.958a15.159 15.159 0 00-1.872-.832v10.608h1.482v-1.274h3.562a17.45 17.45 0 01-8.554 6.552l.39.572a20.741 20.741 0 007.072-3.77v1.974c0 3.51-1.768 5.954-5.33 7.332l.416.6c4.29-1.17 6.448-3.822 6.448-7.9v-.806c.6-.234.91-.442.91-.624 0-.338-.78-.572-2.34-.676a15.347 15.347 0 002.886-3.25h2.7a18.988 18.988 0 009.23 6.188A4.282 4.282 0 01363 119.2a20.114 20.114 0 01-9.438-4.6h4.134v.962h1.482v-8.4l.754-.442c.13-.078.208-.156.208-.26 0-.26-.546-.806-1.638-1.664l-1.066 1.3zm-.39.65h5.85v3.146h-5.85zm7.332 0h5.928v3.146h-5.928zm-7.332 7.2v-3.404h5.85v3.406zm13.26-3.406v3.406h-5.928v-3.404zm-3.8 16.952h1.508v-8.422c.624-.234.936-.468.936-.65 0-.338-.806-.546-2.444-.624zm36.088-5.174a1.312 1.312 0 001.442-1.092c0-.364-.286-.676-.91-.7-2.808-.1-6.942-4.446-11.414-9.022a1.953 1.953 0 00-1.378-.806 2.051 2.051 0 00-1.43.936c-.936 1.118-3.562 4.654-5.382 4.654a.8.8 0 01-.26-.026 2.049 2.049 0 00-.52-.052c-.442 0-.65.156-.65.416 0 .364.468.884 1.352 1.2a2.528 2.528 0 00.7.13c2.132 0 3.77-3.354 5.2-5.434.338-.442.65-.7 1.04-.7s.78.26 1.222.832c4.808 6.078 7.694 9.666 10.996 9.666zm-325.26 34.424a15.5 15.5 0 016.058 2.652 2.048 2.048 0 001.17.65q.78 0 .78-.858c0-.546-.52-1.066-1.586-1.56a20.692 20.692 0 00-6.188-1.508zm6.188 6.084l.7-.416a.352.352 0 00.234-.312c0-.26-.546-.78-1.638-1.586l-1.014 1.248h-7.072l.26.65h7.072v14.066c0 .52-.312.78-.91.78a35.185 35.185 0 01-3.9-.286v.676a15.411 15.411 0 012.548.6 1.319 1.319 0 01.962 1.248c1.846.026 2.756-.65 2.756-2.054v-12.324a19.8 19.8 0 002.262 5.616 19.852 19.852 0 007.176 6.526 5.387 5.387 0 011.378-1.508 20.467 20.467 0 01-8.008-6.188 32.623 32.623 0 005.044-4.6 4.025 4.025 0 00.572.026c.442 0 .676-.1.676-.312q0-.546-2.028-1.872a31.931 31.931 0 01-4.654 6.162 18.994 18.994 0 01-2.418-6.11zm-5.538 3.51h-6.032l.26.65h5.9a19.509 19.509 0 01-6.942 10.686l.39.546a17.68 17.68 0 005.1-4.316 20.051 20.051 0 003.094-6.344l.676-.364a.352.352 0 00.234-.312c0-.286-.546-.884-1.638-1.82zm35.36-3.952h-7.046l.338.65h15.158l.312-.494a15.145 15.145 0 00-1.17-1.326 5.734 5.734 0 01-.442-.416l-1.248 1.586h-4.446v-2.6h5.85l.286-.468a13.574 13.574 0 00-1.612-1.638l-1.2 1.456h-3.328v-1.664c.7-.234 1.04-.468 1.04-.7 0-.39-.832-.572-2.5-.572v2.938h-5.668l.312.65h5.356zm-12.662-4.6a8.325 8.325 0 012.86 3.51c.234.624.572.936.962.936.65 0 .988-.338.988-1.04 0-1.4-1.482-2.7-4.446-3.926zm9.23 7.15c-.754-.312-1.274-.52-1.56-.6v5.492h1.43v-.858h3.51a22.449 22.449 0 01-6.708 5.46l.39.546a21.082 21.082 0 006.37-4.134v5.59h1.456v-5.33a15.548 15.548 0 014.914 3.432c.39.416.676.624.91.624a.751.751 0 00.858-.832q0-1.092-3.042-2.574a12.372 12.372 0 002.522-1.9 1.374 1.374 0 00.338.026q.78 0 .78-.312c-.026-.286-.572-.806-1.638-1.508a13.175 13.175 0 01-.936 1.4v-3.43l.572-.442a.3.3 0 00.182-.286c0-.182-.468-.65-1.4-1.352l-.91.988zm8.216 3.38h-8.346v-2.73h8.354zm-12.87.078l.624-.39q.234-.156.234-.312c0-.234-.52-.78-1.534-1.586l-1.014 1.2h-3.848l.286.65h3.8v6.942a26.78 26.78 0 01-4.134 2.6c.7 1.378 1.222 2.08 1.586 2.08.234 0 .364-.338.364-1.04a37.294 37.294 0 003.276-3.718 6.793 6.793 0 003.744 3.12 24.652 24.652 0 008.086 1.014h5.694a4.281 4.281 0 01.806-1.742 68.992 68.992 0 01-6.968.39 24.594 24.594 0 01-7.436-.858 5.873 5.873 0 01-3.562-2.912zm12.87.572v.676h1.248a23.58 23.58 0 01-1.534 1.846 24.349 24.349 0 00-2.73-.988l-.312-.078v-1.17l.234-.286zm23.686-8.944c-5.356 0-11.232 3.744-11.232 10.244 0 3.146 1.508 4.836 3.328 4.836 2.782 0 6.292-3.848 6.292-12.35 0-.52-.026-1.014-.052-1.56.39-.026.754-.052 1.118-.052 3.926 0 7.618 2.392 7.618 7.462 0 5.876-5.746 7.93-10.608 7.982-.286.026-.442.156-.442.286s.13.26.442.312a19 19 0 002.08.13c5.668 0 10.192-3.12 10.192-8.788.008-5.85-4.204-8.502-8.728-8.502zm-2.626 1.794c0 7.618-3.146 11.1-5.278 11.1-1.144 0-1.9-.936-1.9-2.834a8.729 8.729 0 017.176-8.71zm28.964 15.652v-.806a6.735 6.735 0 01-2.652-.312 1.682 1.682 0 01-.78-1.612v-16.354c-1.066.832-2.99 1.4-5.746 1.69v.728h2.574a1.207 1.207 0 011.352 1.378v12.558a1.6 1.6 0 01-.884 1.664 8.027 8.027 0 01-2.7.26v.806zm24.336-4.706a26.546 26.546 0 003.12-10.4h2.834l.26-.468-.234-.286a12.838 12.838 0 00-1.43-1.56l-1.222 1.664h-7.254a29.4 29.4 0 001.092-3.952c.7-.1 1.066-.26 1.066-.494 0-.39-.832-.78-2.5-1.118a31.792 31.792 0 01-3.926 12.116 9.115 9.115 0 00-3.042-2.626v-2.964h4.134l.26-.494a20.434 20.434 0 00-1.586-1.872l-1.144 1.716h-1.664v-4.368c.7-.286 1.04-.546 1.04-.78q0-.546-2.5-.546v5.698h-4.16l.26.65h3.822a36.494 36.494 0 01-4.342 11.362l.572.416a29.661 29.661 0 003.848-7.566v12.714h1.456v-13.16a9.217 9.217 0 011.976 3.406.765.765 0 00.754.65c.546 0 .832-.312.832-.936a2.5 2.5 0 00-.13-.6 28.235 28.235 0 002.86-4.732 27.122 27.122 0 003.276 8.5 17.1 17.1 0 01-7.462 6.292l.39.572a16.684 16.684 0 007.956-5.59 21.593 21.593 0 005.9 5.1 4.791 4.791 0 011.292-1.478 21.028 21.028 0 01-6.396-4.866zm-.91-1.2a24.233 24.233 0 01-3.342-7.874l-.052-.234a3.277 3.277 0 01-.13-.39 3.362 3.362 0 00.234-.52l.052-.182h5.616l-.026.286a29.073 29.073 0 01-2.344 8.918zm17.862 7.2c.442 0 .806-.338.806-.962a2.38 2.38 0 00-.13-.65 13.632 13.632 0 01-.7-3.8 6.4 6.4 0 01.624-2.756 1.719 1.719 0 00.156-.572c0-.13-.052-.208-.156-.208-.13 0-.338.156-.6.468a6.926 6.926 0 00-.91 1.69c-.078.234-.208.364-.286.364s-.13-.13-.13-.416c.1-4.758 2.158-7.618 2.158-9.776a2.635 2.635 0 00-.52-1.664c-.52-.676-.988-.962-1.274-.962a.344.344 0 00-.338.39 1.774 1.774 0 00.26.806 2.907 2.907 0 01.286 1.378c0 2.288-1.664 5.746-1.664 9.906a14.34 14.34 0 001.178 5.73 1.53 1.53 0 001.248 1.04zm10.796-15.542a8.667 8.667 0 002.834-.416c.572-.182.858-.572.858-.91 0-.364-.312-.676-.858-.676a1.445 1.445 0 00-.546.1 12.7 12.7 0 01-3.692.65 8 8 0 01-2.288-.338 1.342 1.342 0 00-.286-.052c-.208 0-.338.1-.338.26s.13.338.442.52a8.243 8.243 0 003.874.862zm1.718 13.808a13.736 13.736 0 003.172-.39c.806-.208 1.144-.572 1.144-.91 0-.468-.6-.91-1.482-.91a3.315 3.315 0 00-.494.026 21.509 21.509 0 01-3.822.468 6.193 6.193 0 01-4.16-1.43.963.963 0 00-.546-.234.267.267 0 00-.286.26 1.056 1.056 0 00.208.494c1.378 1.818 3.692 2.626 6.266 2.626zm20.15-4.784v4.394c0 .494-.286.754-.832.754a28.089 28.089 0 01-3.38-.208v.676a14.362 14.362 0 012.262.494 1.143 1.143 0 01.78 1.066c1.716.026 2.574-.624 2.574-2v-13.6l.65-.39c.156-.078.234-.182.234-.286 0-.234-.494-.754-1.456-1.534l-.962 1.17h-2.652a23.754 23.754 0 002.184-3.152l.6-.26c.156-.078.234-.182.234-.26 0-.234-.494-.78-1.482-1.69l-.91 1.144h-2.446a5.178 5.178 0 00.208-.6l.156-.442c.65-.208.962-.416.962-.6 0-.286-.728-.52-2.184-.676a22.692 22.692 0 01-4.16 9l.494.416a18.482 18.482 0 001.508-1.716v7.02a15.231 15.231 0 01-1.976 8.242l.6.39a12.307 12.307 0 002.808-7.358zm11.544-13.338a17.721 17.721 0 01-.338 4.082 1.171 1.171 0 01-1.2 1.014 16.482 16.482 0 01-2.522-.234v.65a11.547 11.547 0 011.872.416 1.022 1.022 0 01.754 1.014 2.423 2.423 0 001.976-.832c.52-.7.806-2.574.884-5.642l.624-.39c.13-.078.182-.156.182-.26 0-.208-.52-.754-1.534-1.612l-.988 1.144h-8.94l.26.65h3.51a11.644 11.644 0 01-.338 2.6 8.433 8.433 0 01-3.692 4.862l.364.52a10.068 10.068 0 003.77-2.964 9.315 9.315 0 001.456-5.018zm-17.6 3.874a1.38 1.38 0 00-.286-.078l-.312-.1a22.2 22.2 0 001.794-3.38h2.808a23.442 23.442 0 01-1.508 3.562zm-.1.65h2.308v3.64h-2.314zm6.162 3.64h-2.45v-3.642h2.444zm4.862 2.574c.182-.572.364-1.144.494-1.69q.936-.2.936-.468c0-.312-.754-.65-2.236-.988a18.868 18.868 0 01-1.716 6.526l.546.312a14.7 14.7 0 001.716-3.042h2.7v3.588h-5.54l.286.65h5.252v5.07h1.456v-5.074h5.17l.286-.468a43.842 43.842 0 00-1.69-1.9l-1.3 1.716h-2.466v-3.588h4.576l.312-.494a9.2 9.2 0 00-1.3-1.508 1.914 1.914 0 01-.286-.26l-1.17 1.612h-2.132v-2.41c.572-.234.858-.442.858-.65 0-.39-.78-.572-2.314-.6v3.666zm-11.024 1.95v-3.876h2.308v3.874zm6.162 0h-2.45v-3.876h2.444zm38.142-8.372a54.24 54.24 0 01-5.33-1.092 8.24 8.24 0 001.274-.6c.468-.26.676-.546.676-.78 0-.39-.52-.7-1.118-.7a2.087 2.087 0 00-.78.156c-.39.182-.884.442-1.4.676-1.17-2.574-1.716-3.172-3.094-3.484a3.072 3.072 0 00-.78-.1c-.546 0-.884.182-.884.442s.338.6 1.092.91a5.679 5.679 0 012.418 2.73 8.1 8.1 0 01-2.392.416 5.651 5.651 0 01-1.82-.286.469.469 0 00-.26-.052c-.26 0-.416.13-.416.312s.13.39.468.546a7.815 7.815 0 002.964.494 11.442 11.442 0 002.08-.182c.468 1.04.936 2.21 1.43 3.484a13.013 13.013 0 01-3.874.65 7.971 7.971 0 01-3.8-.884 1 1 0 00-.494-.13c-.26 0-.442.13-.442.312 0 .156.13.338.416.546a7.838 7.838 0 004.628 1.3 15.391 15.391 0 004.03-.572c.416 1.144.858 2.34 1.3 3.588a1.92 1.92 0 01.052.312c0 .234-.13.338-.39.338a2.7 2.7 0 01-.39-.052 12.2 12.2 0 00-3.328-.468c-3.64 0-5.772 1.872-5.772 3.77 0 1.95 2.21 3.874 7.28 3.874.7 0 1.482-.026 2.34-.1.806-.078 1.17-.442 1.17-.832 0-.494-.65-1.066-1.742-1.066a2.38 2.38 0 00-.442.026 25.046 25.046 0 01-2.886.208c-3.3 0-4.6-1.04-4.6-2.132 0-1.352 1.846-2.808 4.316-2.808a6.924 6.924 0 014 1.326 1.869 1.869 0 001.04.364 1.417 1.417 0 001.4-1.534 3.069 3.069 0 00-.286-1.17 147.953 147.953 0 01-1.742-4.03 24.523 24.523 0 004.5-1.95 1.057 1.057 0 00.65-.884c-.002-.426-.392-.816-1.068-.894zm-2.028 1.248a24.279 24.279 0 01-2.6 1.2c-.52-1.2-.936-2.21-1.326-3.094a37.981 37.981 0 003.77 1.274c.286.078.416.208.416.338-.006.098-.11.202-.266.28zm16.328-3.068h-4.816l.234.65h3.406v1.69q0 9.984-3.484 15.392l.546.442q3.9-4.368 4.394-12.688h3.146a46.859 46.859 0 01-.65 9.23 1.259 1.259 0 01-1.326 1.144 16.687 16.687 0 01-2.522-.26v.676a9.75 9.75 0 011.664.494 1.217 1.217 0 01.676 1.144 2.564 2.564 0 002.678-1.56q.9-2.223.936-10.452l.572-.364c.156-.1.234-.208.234-.286 0-.234-.52-.78-1.534-1.638l-.91 1.222h-2.938c.026-1.222.052-2.028.052-2.47v-1.716h6.37l.286-.494a16.841 16.841 0 00-1.638-1.872l-1.248 1.716h-2.652v-3.774c.7-.208 1.066-.416 1.066-.624 0-.39-.858-.624-2.548-.7zm8.632 3.094a26.392 26.392 0 002.834 8.19 16.647 16.647 0 01-6.812 6.292l.39.6a16.063 16.063 0 007.254-5.564 21.4 21.4 0 005.33 5.122 6.377 6.377 0 011.3-1.378 17.416 17.416 0 01-5.876-4.992 25.4 25.4 0 002.808-10.166h2.624l.26-.468a13.2 13.2 0 00-1.638-1.768l-1.222 1.586h-6.3a39.448 39.448 0 00.988-4.186c.7-.13 1.04-.286 1.04-.494 0-.416-.832-.728-2.5-.962a31.719 31.719 0 01-3.562 12.116l.572.416a20.613 20.613 0 002.504-4.346zm.754-1.9h4.862a25.088 25.088 0 01-2.08 8.866 25.964 25.964 0 01-2.99-8.268zm24.882 13.6c7.7-.6 11.05-4.836 11.05-8.4 0-2.73-2-5.07-5.564-5.07-2.236 0-5.07.91-8.424 3.224a5.844 5.844 0 01-3.3 1.4 6.461 6.461 0 01-1.482-.234 1.266 1.266 0 00-.312-.026c-.312 0-.572.13-.572.39 0 .312.39.832 1.508 1.482a3.566 3.566 0 001.768.442 4.114 4.114 0 002.834-1.2c3.276-3.146 6.032-4.342 8.06-4.342a3.567 3.567 0 013.77 3.744c0 2.938-2.782 6.734-9.36 7.9-.364.078-.546.234-.546.416 0 .13.156.26.468.26z" fill="#5d5d5d" stroke="#5d5d5d" stroke-width=".2"/></svg>