<svg xmlns="http://www.w3.org/2000/svg" width="291" height="203.384"><defs><clipPath id="a"><path fill="none" d="M0 0h291v203.383H0z"/></clipPath><clipPath id="b"><path d="M647.777 148.422s-10.812 15.092-11.527 16.087c.814 1.757 1.514 3.215 2.717 5.329-4.905 31.907-1.01 37.695 9.261 57.032 6.926 13.038 10.468 24.677 15.934 40.814 36.513 4.469 51.293-10.118 51.293-10.118s-6.17-17.6-9.48-28.752c-8.589-38.65-14.906-56.571-29.481-66.461-2.432-1.651-16.538-9.973-16.538-9.973l-3.634-4.3z" transform="translate(-636.25 -148.08)" fill="none"/></clipPath><linearGradient id="c" x1="-.895" y1="1.213" x2="-.893" y2="1.213" gradientUnits="objectBoundingBox"><stop offset="0" stop-color="#9ed1e2"/><stop offset="1" stop-color="#fff"/></linearGradient></defs><g clip-path="url(#a)"><path d="M114.447 167.94s-8.337-29.844-8.555-30.806a2.324 2.324 0 00-2.612-1.678c-1.687.116-29.878-.061-30.609.085a1.23 1.23 0 00-.973 1.562c.222.707 8.982 31.323 8.982 31.323z" fill="#073d5e"/><path d="M134.973 168.093l-20.538-.16-33.755.492s.419 2.854 2.393 3.025c3.4.04 48.877-.052 50.1 0 1.609.069 1.8-3.353 1.8-3.353" fill="#073d5e"/><path d="M103.457 138.016l-28.616-.424 8.868 30.716 28.066-.076z" fill="#dbe7f8"/><path d="M101.468 146.315a.567.567 0 01.523.338l.11.387c.052.181-.1.322-.336.317l-20.332-.186a.61.61 0 01-.57-.355l-.113-.406c-.053-.19.117-.339.379-.332zm-6.091-6.483a.591.591 0 01.542.348l1.13 4c.052.184-.106.328-.353.321l-16.443-.105a.612.612 0 01-.57-.356l-1.144-4.12c-.053-.189.117-.335.38-.326zm-13.307 9.203c-.315-.006-.518.177-.453.408l1.144 4.092a.727.727 0 00.687.427l20.229-.224c.292 0 .477-.175.413-.4l-1.126-3.939a.693.693 0 00-.645-.414zm1.607 5.931c-.314 0-.517.183-.452.415l1.148 4.107a.718.718 0 00.687.422l20.354-.242c.292 0 .477-.181.412-.406l-1.129-3.952a.685.685 0 00-.645-.41zm1.754 6.088c-.314 0-.516.189-.451.423l1.152 4.121a.708.708 0 00.687.417l20.463-.354c.291 0 .476-.187.411-.412l-1.133-3.965a.677.677 0 00-.645-.406z" fill="#fff"/><path d="M200.422 203.377v-17.245c0-3.762-1.334-5.1-5.1-5.1H12.424c-3.762 0-5.1 1.333-5.1 5.1v17.248H0v-17.248c0-9.06 5.628-14.687 14.688-14.687h178.238c9.06 0 14.688 5.628 14.688 14.688v17.251z" fill="#177e9d"/><path d="M210.568 203.38c5.276-30.066 7.2-62.278 7.2-62.278l-36.49 5.525s-3.081 29.844-3.182 56.754z" fill="#003853"/><path d="M191.789 165.066s2.97 14.18 6.2 38.314h33.55c1.576-20.354 5.117-43.358.2-58.383-20.469.07-43.783.708-43.783.708z" fill="#144665"/><path d="M139.324 165.864s-4.8-.87-5.932-1.164c-.834-.218-6.68.708-9.067 1.1a2.188 2.188 0 00-1.553.992c-.413.611-3.448 4.961-3.78 6.791s2.288 1.3 2.288 1.3 1.193 2.268 2.959-.157c1.42-1.95 3.081-3.9 3.081-3.9l1.155-.339a21.725 21.725 0 00-2.287 6c-.064.4.956 2.278 2.737-1.14 2.01-3.858 4.517-4.306 4.517-4.306s9.907 2.328 11.32-.709a57.5 57.5 0 004.041-5.438l-5.538-4.839z" fill="#efbfa6"/><path d="M169.497 43.909s-12.418.132-20.294 19.185c-6.06 14.656-2.333 29.25-9.447 42.779-5.463 1.4-32.032 12.963-35.515 14.51-1.454 2.179.971 7.24 4.245 8.846 3.6-.591 24.417-4.681 32.531-6.8 10.43-2.725 11.836-5.716 15.122-9.452s23.5-41.373 23.5-41.373z" fill="#b7d8e4"/></g><g clip-path="url(#b)" transform="translate(152.575 35.51)"><path transform="rotate(-34.1 33.679 116.903)" fill="url(#c)" d="M0 0h136.96v148.373H0z"/></g><g clip-path="url(#a)"><path d="M175.545 140.488l-6.247-16.5c-2.777-10.238 11.627-36.722 16.3-31.607 6.237 6.822 2.263 29.538-10.057 48.1" fill="#add8e4"/><path d="M157.673 51.233s-1.26 1.164-1.8 4.529a15.619 15.619 0 00.526 3.888 333.389 333.389 0 00-6.2 39.957c-2.528 30.919-3.165 35.956-3.165 35.956l7.357 10.541 8.152-6.281s.53-10.072-3.164-39.141a176.875 176.875 0 01.082-40.7s2.667-3.22 4.691-5.582a46.391 46.391 0 00-6.475-3.167" fill="#325f86"/><path d="M167.46 72.337c-6.253 22.366-5.036 27.235-6.014 33.077-4.531 33.538-19.977 57.266-19.977 57.266l8.666 5.793s32.661-39 45.892-89.22c8.04-30.516-19.925-37.825-28.566-6.916" fill="#fff"/><path d="M139.783 41.396c7.016-1.353 13.531 6.365 17.11 11.3 8.4-5.018 14.538-13.535 16.184-14.048-6.133-3.17-6.565-8.609-6.565-8.609s-17.391-33.5-26.729 11.354" fill="#deb09b"/><path d="M155.445 53.062a15.589 15.589 0 007.4 5.975c5.436-14.311 14.059-18.875 14.059-18.875a40.426 40.426 0 00-4.255-4.66c-6.865 3.645-17.207 17.56-17.207 17.56" fill="#fff"/><path d="M138.826 41.593a30.951 30.951 0 006.254-1.46c4.316-1.379 3.816-6.675 3.816-6.675l-.385-6.117s4.055-.966 2.5-5.339c-1.153-3.237 5.92-2.7 2.284-3.337-5.382-.948-3-12.819-3-12.819l-7.277-.56-5.523 4.406-5.948 16.613s-.414 1.03.969 1.228c1.28.183 1.389.428 1.389.428s1.894 11.977 2.068 12.565 1.548 1.253 2.856 1.067" fill="#f0c0a7"/><path d="M161.031 7.32c-5.49-8.621-19.53-2.521-23.791-7.321a6.31 6.31 0 00-.088 10.748c5.533-1.6 6 .735 5.14 4.716a50.959 50.959 0 00-.808 7.137 2.035 2.035 0 003.043 1.1c.817-3.883 3.446-4.782 5.711-2.67 2.338 2.183 2.3 15.511 13.929 10.687a12.758 12.758 0 002.353-1.674c-.378-2.828 2.351-21.075-5.489-22.729" fill="#003853"/><path d="M104.284 120.379c-.329.115-1.772.676-2.11.783-1.94-2.2-7.8-1.6-16.171-3.213-.421 3.448 5.808 3.619 6.647 4.642-2.178 1.611-12.38 5.347-13.175 5.785a1.606 1.606 0 00-.151 2.295c-.558.315-1.459 2.1.122 2.455 1.6.354 9.161-1.958 9.161-1.958s-5.622 2.445-6.22 2.579-1.233 2.038 2.485 1.372c.541-.1 4.39-1.332 5.879-1.73 3.375-.109 11.223-3.706 12.427-6.138.57-.053 4.513-.837 4.513-.837s-.119-2.831-3.406-6.035" fill="#f0c0a7"/><path d="M279.623 131.286c17.937 24.166 3.441 60.5 2.889 72.094h-41.853c1.074-52.5 2.423-69.277 2.423-69.277a186.868 186.868 0 0036.541-2.816" fill="#003853"/><path d="M263.399 19.338s9.285-3.414 10.767 6.626-3.006 25.613 1.871 30.583c.092 1.288-3.721 7.3-11.135 3.65-9.619-4.741.377-25.941.5-29.6.139-4.023-2.105-4.956-2.925-5.287a9.8 9.8 0 00.919-5.97" fill="#002e4a"/><path d="M213.91 80.499c-.823-.48-4.977.036-5.934.082-.562.025-5.523.844-6 1.025s-2.1.221-2 .936c.1.618.616 1.291 1.921 1.4a37.211 37.211 0 005.339-.625l.96.57a11.978 11.978 0 00-2.212.372c-.417.2-7.936 3.718-8.045 4.121s.845 1.835 1.645 1.708a6.889 6.889 0 002.446-.809 18.559 18.559 0 01-1.661 1.058c-.585.3-.429 2.143.6 2.167 1.014.031 5.119-2.179 5.119-2.179l3.425-.342s-6 3.654-6.163 3.878a1.042 1.042 0 00.978 1.622c2.325-.158 6.581-2.908 6.581-2.908a36.65 36.65 0 014.521.8c1.14 2.412 4.726 3.076 6.732 1.967 2.417.463 17.635 8.769 28.56 13.688 6.964-1.146 4.76-8.99 4.735-10.28-15.67-5.2-35.23-11.507-35.23-11.507s-5.489-6.263-6.318-6.743" fill="#dfb29c"/><path d="M180.413 73.217c-.3-.406-.424-.641-.3-1.044a1.44 1.44 0 01.593-.808l1.288-.766 13.8-6.1c.318-.181.95.177 1.413.8l20.077 27.43c.315.424 2.345 3.119 3.028 3.806-.048.116-.179 2.7-.28 2.759l-9.594 9.784-1.719 1.047c-.317.181-1.029-.245-1.492-.87z" fill="#002e4a"/><path d="M182.191 72.097c-.463-.623-.585-1.273-.054-1.6l13.7-7.807c.258-.12.876.288 1.34.911l25.1 33.52c.463.623.381 1.475.07 1.652l-11.9 10.3c-.312.179-.94-.184-1.4-.807z" fill="#dbecf3"/><path d="M190.296 64.791c-.709-1.131-1.488-2.481-2.9-1.842-.041.019-.522.349-.564.371-1.391.728-.573 1.941.424 3.234.035.046.037.145-.01.17l-2.13 1.188a.8.8 0 00-.458 1.142l.806-.439 1.129 1.289c.708.952 1.64 1.5 2.387 1.154l5.86-3.362c.565-.345.581-1.132-.293-2.281l-1.46-1.949s-2.536 1.463-2.572 1.482-.126 0-.224-.158" fill="#002e4a"/><path d="M220.585 87.644s-3.045-6.644-6.109-7.77-7.338-2.643-8.481-3.1-1.178 3 2.132 3.78c3.884.917 7.189 6.2 7.189 6.2z" fill="#dfb29c"/><path d="M247.877 54.251s9.912-4.874 12.169-4.2c8.485 3.805 22 12.432 23.5 16.54 6.359 17.425-5.33 13.537-7.178 18.7-.85 6.513-1.629 11.2-1.869 16.477-1.489 12.122 5.132 29.509 5.132 29.509s-8.015 10.23-36.459 2.741c-.037-1.093 2.454-11.627-5.372-33-6.319-4.958-6.111-13.216-1.8-21.122a220.608 220.608 0 0011.877-25.645" fill="#fbcd5b"/><path d="M259.81 50.135C249.043 54 240.548 72.06 243 84.061c5.926-17.521 14.908-20 18.681-27.423 2.359-4.642-.859-6.737-1.871-6.5" fill="#edbfa6"/><path d="M280.781 92.357c-2.444 6.616-1.146 38.88-1.146 38.88s-13.1 11.044-34.8-13.521c-.3-.335 20.116.7 24.268.65-.638-3.782.093-17.084.865-28.208.777-11.188 9.187-1.135 10.817 2.2" fill="#dfa834"/><path d="M280.017 128.911s-9.446-29.833-9.272-41.931c.156-10.9 14.6-15.355 14.6-15.355s6.277 31.394 5.6 49.7c-.322 8.72-10.932 7.586-10.932 7.586" fill="#eec0a7"/><path d="M238.678 104.529c2.467-.261 17.4-1.932 16.926-4.252s-17.084.53-19.631 1.023c-.218.042-11.826 1.822-11.826 1.822-.568.107 1.074 2.337 3.819 1.728a27.057 27.057 0 005.238.322s5.253-.62 5.475-.643" fill="#032f4a"/><path d="M245.907 117.539c9.984 3.615 17.71 8.7 32.313 11.2s12.651-9.561 12.651-9.561l-40.562-5.569s-1.05-3.632-5-10.364c-4.732-8.073-20.035-2.409-20.035-2.409s.811 3.007 3.529 1.944c.458 1.8 9.791-.2 10.689 6.288.082.6-5.577-3.432-6.538-3.9a26.812 26.812 0 01-4.992-.315c.744.879 8 6.195 11.7 10.36 1.236 1.388 4.238 2.748 6.236 2.332" fill="#eec0a7"/><path d="M271.247 95.77s-.912-1.548-2.1-4.109c-1.5-3.229-3.621-7.907-3.325-13.025s4.89-14.1 10.2-15.257c2.555-.556 5.394.115 7.535 3.481s4.182 12.7 5.287 24.236c-7.107.759-17.6 4.674-17.6 4.674" fill="#fbcd5b"/><path d="M232.668 47.934c3.509.5 12.362 3.121 15.437 14.855 1.168 2.84 7.219-1.65 8.926-2.943 6.058-4.59 5.046-8.305 5.046-8.305s-4.438-5.221-4.021-9.955c.391-4.446-8.361-27.816-8.361-27.816s-20.535 33.663-17.026 34.164" fill="#dfb29c"/><path d="M244.533 23.276s-4.08 3.115-2.8 4.567c3.094 3.5-2.2 7.685-2.2 7.685s-1.145 9.984-3.745 11.755a5.042 5.042 0 01-3.223.97c-.486.007-1.979-.3-2.085-1.3-.051-.483-2.078-11.535-2.078-11.535s-2.307-.913-1.19-2.484c5.473-7.691 1.615-13.245 8.833-16.435z" fill="#eec0a7"/><path d="M234.511 10.474c.7-2.2 5.269-4.053 9.207-3.849 8.175.423 14.9 7.42 17.616 9.849s2.893 16.213-1.58 22.522c-.793 1.118-1.631 2.265-1.631 2.265s-8.449 2.356-10.092-2.685c-.979-3-4.013-8.128-5.856-9.714-1.238-1.066-3.81-2.346-4.083.437-.2 2.036-.5 2.012-1.761 1.593a20.292 20.292 0 01-6.866-6.112c-6.814-8.4-1-15.312 5.046-14.305" fill="#002e4a"/></g></svg>