<svg xmlns="http://www.w3.org/2000/svg" width="80" height="80"><defs><clipPath id="a"><circle cx="40" cy="40" r="40" transform="translate(146 2302)" fill="#fff" stroke="#707070"/></clipPath><clipPath id="b"><path fill="none" d="M0 0h84.04v84.04H0z"/></clipPath><clipPath id="c"><path fill="none" d="M0 0h84.698v166.657H0z"/></clipPath></defs><g transform="translate(-146 -2302)" clip-path="url(#a)"><g clip-path="url(#b)" transform="translate(145.058 2297.959)"><path d="M41.857 43.737a8.9 8.9 0 00-8.894 8.894v5.659c-5.442 2.984-9.115 8.929-9.115 17.317 0 17.235 8.063 25.512 18.009 25.512s18.009-8.278 18.009-25.512c0-8.387-3.672-14.332-9.114-17.317v-5.659a8.9 8.9 0 00-8.894-8.894" fill="#fff"/><path d="M58.595 75.609c0 14.953-6.414 24.241-16.739 24.241s-16.738-9.289-16.738-24.241c0-7.459 3-13.213 8.455-16.2a1.27 1.27 0 00.66-1.114v-5.659a7.624 7.624 0 1115.247 0v5.659a1.27 1.27 0 00.66 1.114c5.452 2.989 8.455 8.744 8.455 16.2M41.857 42.468a10.176 10.176 0 00-10.165 10.165v4.925c-5.8 3.511-9.115 10.042-9.115 18.051 0 8.384 1.915 15.3 5.54 20a17.3 17.3 0 0027.48 0c3.624-4.7 5.539-11.611 5.539-20 0-8.008-3.311-14.54-9.115-18.051v-4.925a10.176 10.176 0 00-10.165-10.165" fill="#183843"/></g><g clip-path="url(#c)" transform="translate(144.702 2297.959)"><path d="M57.82 24.524c0-10.94-8.331-19.809-18.609-19.809s-18.609 10.67-18.609 21.61 8.331 18.009 18.609 18.009 18.609-8.869 18.609-19.81" fill="#183843"/><path d="M63.823 26.325c0-10.94-8.331-21.61-18.609-21.61s-18.609 8.869-18.609 19.809 8.332 19.81 18.609 19.81 18.609-7.068 18.609-18.009" fill="#183843"/><path d="M22.612 36.453a7.2 7.2 0 001.187 3.919 3.622 3.622 0 002.865 1.821 2.589 2.589 0 00.665-.1c2.307 8.107 7.531 12.048 14.884 12.048S54.79 50.2 57.097 42.093a2.588 2.588 0 00.665.1 3.622 3.622 0 002.865-1.821 7.2 7.2 0 001.187-3.919 4.5 4.5 0 00-1.187-3.244 3.837 3.837 0 00-2.218-1.1c.005-.308.011-.614.011-.928 0-11.189-7.256-17.558-16.208-17.558s-16.209 6.373-16.209 17.562c0 .315.007.621.012.928a3.838 3.838 0 00-2.218 1.1 4.506 4.506 0 00-1.187 3.244" fill="#fff"/><path d="M24.479 33.876a2.9 2.9 0 011.674-.819.953.953 0 00.816-.958v-.186c0-.241-.008-.481-.008-.727 0-9.932 6.131-16.606 15.255-16.606s15.252 6.677 15.252 16.606c0 .246 0 .487-.009.727v.186a.953.953 0 00.816.958 2.9 2.9 0 011.674.819 3.586 3.586 0 01.914 2.577 6.282 6.282 0 01-1.023 3.386 2.721 2.721 0 01-2.076 1.4 1.647 1.647 0 01-.421-.063.953.953 0 00-1.161.66c-2.144 7.536-6.843 11.356-13.967 11.356s-11.823-3.821-13.967-11.356a.953.953 0 00-1.161-.661 1.649 1.649 0 01-.421.063 2.721 2.721 0 01-2.075-1.4 6.278 6.278 0 01-1.023-3.386 3.583 3.583 0 01.914-2.577m-2.82 2.577a8.144 8.144 0 001.35 4.453 4.5 4.5 0 003.641 2.24c2.486 7.825 7.853 11.953 15.563 11.953s13.077-4.129 15.563-11.953a4.5 4.5 0 003.641-2.24 8.151 8.151 0 001.35-4.453 5.441 5.441 0 00-1.46-3.911 4.675 4.675 0 00-1.934-1.182v-.175c0-5.576-1.736-10.294-5.02-13.643a17.571 17.571 0 00-24.282 0c-3.284 3.349-5.02 8.066-5.02 13.643v.175a4.678 4.678 0 00-1.934 1.182 5.439 5.439 0 00-1.459 3.911" fill="#183843"/><path d="M27.159 39.021c.436-.218.467-1.077.258-1.9s-.656-1.6-1.177-1.656l-.108 2.911c.2.488.592.86 1.027.642" fill="#fff"/><path d="M26.719 38.137a.635.635 0 00-1.175.484 1.751 1.751 0 00.948 1.024 1.171 1.171 0 00.41.075 1.209 1.209 0 00.541-.13c.822-.411.844-1.623.59-2.621-.245-.965-.827-2.032-1.723-2.131a.635.635 0 10-.147 1.262 1.963 1.963 0 01.638 1.183 2.424 2.424 0 01.069 1.113.93.93 0 01-.152-.258" fill="#183843"/><path d="M58.293 38.38l-.109-2.911c-.521.058-.969.837-1.177 1.656s-.177 1.679.258 1.9.826-.154 1.028-.642" fill="#fff"/><path d="M58.254 36.105a.635.635 0 10-.14-1.263c-.9.1-1.477 1.166-1.723 2.131-.253 1-.231 2.21.59 2.621a1.208 1.208 0 00.541.13 1.172 1.172 0 00.41-.074 1.753 1.753 0 00.948-1.024.636.636 0 00-1.175-.485.922.922 0 01-.152.258 2.433 2.433 0 01.069-1.113 2 2 0 01.631-1.181m-1.634-21.931c0-2.984-6.45-5.4-14.407-5.4s-14.407 2.419-14.407 5.4 6.45 5.4 14.407 5.4 14.407-2.419 14.407-5.4" fill="#183843"/><path d="M42.213 16.005a14.657 14.657 0 0114.866 12.127 4.388 4.388 0 004.273 3.521V25.91a15.127 15.127 0 00-15.127-15.127h-8.019A15.127 15.127 0 0023.079 25.91v5.742a4.388 4.388 0 004.273-3.521 14.657 14.657 0 0114.861-12.126" fill="#183843"/><path d="M48.72 20.643l-.025-.077s.007.027.025.077" fill="#183843"/><path d="M55.661 24.312s.383-9.1-11.045-10.8l-10.1 2.863s.816 5.423 9.209 7.933l-1.15-3.746s3.185 3.4 7.339 3.746l-1.19-3.669a.986.986 0 01-.025-.077l.025.077c.173.481 1.359 3.084 6.938 3.669" fill="#183843"/></g><g clip-path="url(#b)" transform="translate(145.058 2297.959)"><path d="M34.786 16.283a.635.635 0 00-1.256.192c.036.238.975 5.851 9.655 8.447a.635.635 0 00.789-.8l-.5-1.643a12.186 12.186 0 006.032 2.462.642.642 0 00.551-.238.635.635 0 00.107-.591l-.275-.846a11.951 11.951 0 005.352 1.674.62.62 0 00.067 0 .635.635 0 00.066-1.267c-5.2-.545-6.279-2.915-6.4-3.238l-.023-.072a.635.635 0 00-1.219.356c0 .012.013.049.033.106l.877 2.7a13 13 0 01-5.956-3.4.635.635 0 00-1.07.622l.785 2.583c-6.791-2.454-7.58-6.84-7.613-7.043" fill="#183843"/><path d="M.915 165.035l17.785.352.308-15.57h45.99l.288 15.559 17.786-.329-.846-45.763h-.094l-1.337-42.458a8.885 8.885 0 00-5.825-8.064L53.231 58.296 41.993 77.282l-11.24-18.986L9.03 68.757a8.893 8.893 0 00-5.838 8.07l-1.428 45.342v.1z" fill="#9fa0a0"/><path d="M3.029 122.411c0-.041.007-.082.007-.123v-.106l1.427-45.315a7.592 7.592 0 015.005-6.917c.039-.014.077-.031.115-.048l20.674-9.956 10.644 17.983a1.271 1.271 0 002.187 0l10.644-17.983 20.687 9.962c.037.018.075.034.113.048a7.591 7.591 0 014.994 6.911l1.337 42.458a1.27 1.27 0 00.1.462l.814 44.012-15.244.282-.265-14.289a1.27 1.27 0 00-1.27-1.247h-45.99a1.271 1.271 0 00-1.27 1.245l-.283 14.3-15.244-.3zm15.646 44.246h.026a1.271 1.271 0 001.27-1.246l.284-14.325h43.5l.265 14.312a1.267 1.267 0 00.388.891 1.231 1.231 0 00.905.355l17.785-.329a1.27 1.27 0 001.247-1.294l-.846-45.763a1.264 1.264 0 00-.109-.493l-1.326-41.978a10.117 10.117 0 00-6.6-9.194L53.783 57.151a1.272 1.272 0 00-1.645.5L41.993 74.787 31.844 57.649a1.272 1.272 0 00-1.645-.5L8.532 67.586a10.12 10.12 0 00-6.611 9.2L.494 122.124v.124l-.85 42.762a1.27 1.27 0 001.245 1.3z" fill="#183843"/><path d="M54.214 73.429l-1.4-17.471-10.957 12.537-10.625-12.537-.284 15.521 3.885 46.671 9.676 2.009z" fill="#fff"/><path d="M31.836 57.653l9.536 11.252a.636.636 0 00.48.224.6.6 0 00.484-.217l9.962-11.4 1.276 15.879-9.557 46.018-8.589-1.783-3.844-46.165zm2.868 61.119l9.676 2.008a.617.617 0 00.13.014.636.636 0 00.621-.506l9.7-46.729a.627.627 0 00.011-.18l-1.4-17.471a.635.635 0 00-1.112-.367L41.864 67.517l-10.148-11.97a.635.635 0 00-1.12.4l-.284 15.521v.064l3.885 46.671a.636.636 0 00.5.569" fill="#183843"/></g><g clip-path="url(#c)" transform="translate(144.702 2297.959)"><path d="M41.002 67.699l-5.272 5.157h12.7l-4.947-5.157z" fill="#fff"/></g><g clip-path="url(#b)" transform="translate(145.058 2297.959)"><path d="M35.818 73.312l5.087-4.977h1.946l4.76 4.962a.635.635 0 00.917-.88l-4.947-5.158a.636.636 0 00-.458-.2h-2.476a.635.635 0 00-.444.181l-5.272 5.158a.635.635 0 00.888.908" fill="#183843"/><path d="M43.911 73.096l-4.353 2.129-4.544 26.1 7.676 14.615 6.731-15.026z" fill="#cce198"/><path d="M39.663 74.625a.609.609 0 00-.7.5l-4.544 26.1a.61.61 0 00.061.388l7.676 14.615a.61.61 0 00.539.326h.019a.61.61 0 00.537-.36l6.73-15.026a.612.612 0 00.042-.367l-5.514-27.827a.612.612 0 10-1.2.237l5.472 27.627-6.139 13.705-7-13.322 4.509-25.9a.609.609 0 00-.5-.7" fill="#183843"/></g><g clip-path="url(#c)" transform="translate(144.702 2297.959)"><path d="M46.518 71.154l-3.041-3.455h-2.476l-3.037 3.455 1.9 6.98h5.205z" fill="#cce198"/></g><g clip-path="url(#b)" transform="translate(145.058 2297.959)"><path d="M40.921 68.308h1.925l2.658 3.02-1.288 6.2h-4.244l-1.69-6.214zm-1.415 10.435h5.205a.61.61 0 00.6-.485l1.451-6.98a.609.609 0 00-.139-.527l-3.041-3.455a.609.609 0 00-.457-.207h-2.476a.609.609 0 00-.458.207l-3.037 3.456a.608.608 0 00-.13.562l1.9 6.98a.609.609 0 00.588.449" fill="#183843"/><path d="M41.856 118.36l-9.619-62.52-3.111 2.594-3.231 6.625 2.261 6.16-7.209 7.84zm13.699-47.146l2.261-6.16-3.231-6.624-3.11-2.589-9.618 62.519 20.911-39.307z" fill="#9fa0a0"/><path d="M29.094 72.074a1.271 1.271 0 00.258-1.3l-2.074-5.652 2.874-5.893 1.173-.977 8.139 52.9-16.969-31.9zm-9.266 7.576l20.908 39.306a1.27 1.27 0 001.122.674 1.27 1.27 0 001.256-1.464l-9.619-62.52a1.271 1.271 0 00-2.069-.783l-3.107 2.59a1.268 1.268 0 00-.329.42l-3.231 6.624a1.269 1.269 0 00-.051.994l1.991 5.432-6.68 7.27a1.271 1.271 0 00-.187 1.457" fill="#183843"/><path d="M61.22 79.251l-16.969 31.9 8.138-52.9 1.173.977 2.874 5.893-2.074 5.652a1.271 1.271 0 00.257 1.3zm-2.262-14.754l-3.231-6.624a1.262 1.262 0 00-.329-.42l-3.11-2.589a1.271 1.271 0 00-2.069.783l-9.618 62.52a1.27 1.27 0 002.378.79l20.907-39.306a1.27 1.27 0 00-.186-1.457l-6.686-7.271 1.994-5.433a1.267 1.267 0 00-.051-.994" fill="#183843"/><path d="M41.856 118.36l-9.619-62.52-3.111 2.594-3.231 6.625 2.261 6.16-7.209 7.84z" fill="#9fa0a0"/><path d="M28.623 71.643a.636.636 0 00.129-.649l-2.167-5.906 3.053-6.259 2.141-1.783 8.879 57.709-18.939-35.6zm-8.238 7.708l20.908 39.306a.635.635 0 001.189-.4l-9.619-62.519a.635.635 0 00-1.034-.392l-3.109 2.589a.635.635 0 00-.165.21l-3.231 6.625a.635.635 0 00-.025.5l2.127 5.8-6.947 7.555a.635.635 0 00-.093.728" fill="#183843"/><path d="M55.555 71.214l2.261-6.16-3.231-6.624-3.11-2.589-9.618 62.519 20.911-39.307z" fill="#9fa0a0"/><path d="M54.963 70.995a.636.636 0 00.129.649l6.9 7.509-18.939 35.6 8.878-57.709 2.142 1.783 3.052 6.259zm3.429-6.22l-3.231-6.624a.637.637 0 00-.165-.21l-3.11-2.59a.635.635 0 00-1.034.392l-9.618 62.52a.635.635 0 001.189.4l20.908-39.306a.635.635 0 00-.093-.728l-6.947-7.555 2.127-5.8a.637.637 0 00-.025-.5" fill="#183843"/></g><g clip-path="url(#c)" fill="#183843" transform="translate(144.702 2297.959)"><path d="M33.526 26.393a.635.635 0 00.885-.156 1.911 1.911 0 012.662-.469.635.635 0 00.729-1.041 3.159 3.159 0 00-1.819-.576 3.227 3.227 0 00-.559.049 3.161 3.161 0 00-2.054 1.309.635.635 0 00.156.885m13.826-.026a1.911 1.911 0 012.662.469.635.635 0 101.041-.729 3.161 3.161 0 00-2.054-1.308 3.212 3.212 0 00-.559-.049 3.158 3.158 0 00-1.818.576.635.635 0 00.729 1.041m-11.624 6.674c-.671 0-1.216.559-1.216 1.722a1.219 1.219 0 102.431 0c0-1.163-.544-1.722-1.216-1.722m12.97 0c-.671 0-1.216.559-1.216 1.722a1.219 1.219 0 102.431 0c0-1.163-.544-1.722-1.216-1.722m-5.967 5.827a.637.637 0 00-.789-1 2.7 2.7 0 000 4.238.637.637 0 10.788-1 1.429 1.429 0 010-2.245"/><path d="M39.714 37.38h-8.211v-5.6h8.211zm.635-6.875h-9.483a.635.635 0 00-.635.635v6.875a.635.635 0 00.635.635h9.481a.635.635 0 00.635-.635V31.14a.635.635 0 00-.635-.635M52.92 37.38h-8.211v-5.6h8.211zm.635-6.875h-9.481a.635.635 0 00-.635.635v6.875a.635.635 0 00.635.635h9.484a.635.635 0 00.635-.635V31.14a.635.635 0 00-.635-.635"/><path d="M44.074 33.926h-3.725a.635.635 0 100 1.271h3.725a.635.635 0 000-1.271m-13.1-.903l-5.777-.968a.635.635 0 10-.21 1.253l5.777.968a.621.621 0 00.106.009.635.635 0 00.1-1.262m28.258-.968l-5.777.968a.635.635 0 00.21 1.253l5.777-.968a.635.635 0 10-.21-1.253M42.405 47.672a10.179 10.179 0 01-5.344-1.615.727.727 0 01.844-1.184 7.637 7.637 0 008.61 0 .727.727 0 11.84 1.188 8.429 8.429 0 01-4.951 1.613"/></g></g></svg>