<svg xmlns="http://www.w3.org/2000/svg" width="80" height="80"><defs><clipPath id="a"><rect width="80" height="80" rx="40" transform="translate(495.732 2121.41)" fill="#fff" stroke="#707070"/></clipPath><clipPath id="b"><path fill="none" d="M0 0h83.107v83.751H0z"/></clipPath><clipPath id="c"><path fill="none" d="M0 0h83.756v166.083H0z"/></clipPath></defs><g transform="translate(-495.732 -2121.41)" clip-path="url(#a)"><g clip-path="url(#b)" transform="translate(494.33 2117.545)"><path d="M41.392 43.586a8.83 8.83 0 00-8.8 8.864v5.64c-5.381 2.974-9.013 8.9-9.013 17.257 0 17.175 7.973 25.424 17.809 25.424s17.808-8.249 17.808-25.424c0-8.358-3.631-14.283-9.013-17.257v-5.64a8.83 8.83 0 00-8.8-8.864" fill="#fff"/><path d="M57.943 75.346c0 14.9-6.342 24.158-16.552 24.158s-16.552-9.257-16.552-24.158c0-7.433 2.969-13.168 8.361-16.147a1.268 1.268 0 00.652-1.11v-5.64a7.539 7.539 0 1115.078 0v5.64a1.267 1.267 0 00.653 1.11c5.392 2.979 8.36 8.713 8.36 16.147M41.391 42.32a10.1 10.1 0 00-10.052 10.13v4.908c-5.739 3.5-9.013 10.008-9.013 17.989 0 8.355 1.894 15.246 5.478 19.927a17.029 17.029 0 0027.174 0c3.584-4.681 5.478-11.571 5.478-19.927 0-7.981-3.274-14.49-9.013-17.989V52.45a10.1 10.1 0 00-10.052-10.13" fill="#183843"/></g><g clip-path="url(#c)" transform="translate(493.979 2117.545)"><path d="M57.177 24.439c0-10.9-8.239-19.741-18.4-19.741s-18.4 10.633-18.4 21.536 8.239 17.947 18.4 17.947 18.4-8.839 18.4-19.741" fill="#52555f"/><path d="M63.113 26.23c0-10.9-8.239-21.536-18.4-21.536s-18.4 8.838-18.4 19.741 8.239 19.742 18.4 19.742 18.4-7.044 18.4-17.947" fill="#52555f"/><path d="M22.36 36.327a7.214 7.214 0 001.174 3.906 3.579 3.579 0 002.833 1.815 2.54 2.54 0 00.658-.095c2.281 8.079 7.447 12.007 14.718 12.007s12.437-3.927 14.718-12.007a2.54 2.54 0 00.658.095 3.579 3.579 0 002.833-1.815 7.212 7.212 0 001.174-3.906 4.509 4.509 0 00-1.174-3.233 3.783 3.783 0 00-2.193-1.091c0-.307.011-.612.011-.925 0-11.151-7.176-17.5-16.027-17.5s-16.028 6.347-16.028 17.5c0 .314.007.618.012.925a3.784 3.784 0 00-2.193 1.091 4.51 4.51 0 00-1.174 3.233" fill="#fff"/><path d="M24.208 33.759a2.856 2.856 0 011.656-.817.948.948 0 00.807-.955v-.185c0-.24-.008-.479-.008-.725 0-9.9 6.062-16.548 15.086-16.548s15.085 6.65 15.085 16.548c0 .245 0 .485-.008.725v.185a.948.948 0 00.808.955 2.857 2.857 0 011.655.817 3.587 3.587 0 01.9 2.567 6.29 6.29 0 01-1.012 3.374 2.689 2.689 0 01-2.052 1.4 1.62 1.62 0 01-.417-.063.942.942 0 00-1.148.658c-2.12 7.51-6.767 11.317-13.812 11.317s-11.692-3.807-13.812-11.317a.939.939 0 00-1.148-.658 1.617 1.617 0 01-.416.063 2.689 2.689 0 01-2.052-1.4 6.292 6.292 0 01-1.012-3.374 3.589 3.589 0 01.9-2.568m-2.789 2.568a8.161 8.161 0 001.335 4.437 4.447 4.447 0 003.6 2.233c2.459 7.8 7.766 11.912 15.39 11.912s12.932-4.114 15.39-11.912a4.446 4.446 0 003.6-2.233 8.161 8.161 0 001.335-4.437 5.444 5.444 0 00-1.443-3.9 4.624 4.624 0 00-1.912-1.178v-.174c0-5.557-1.716-10.258-4.964-13.6a17.28 17.28 0 00-24.012 0c-3.248 3.337-4.964 8.039-4.964 13.6v.174a4.622 4.622 0 00-1.913 1.178 5.446 5.446 0 00-1.443 3.9" fill="#183843"/><path d="M26.854 38.887c.431-.217.461-1.073.255-1.89s-.649-1.593-1.164-1.65l-.107 2.9c.2.486.585.857 1.016.64" fill="#fff"/><path d="M26.421 38.006a.627.627 0 00-.82-.344.635.635 0 00-.342.827 1.738 1.738 0 00.938 1.02 1.139 1.139 0 00.4.074 1.186 1.186 0 00.535-.13c.813-.409.834-1.617.584-2.612-.243-.962-.818-2.025-1.7-2.124a.633.633 0 00-.145 1.257 1.958 1.958 0 01.631 1.178 2.434 2.434 0 01.069 1.11.919.919 0 01-.15-.257" fill="#183843"/><path d="M57.644 38.247l-.107-2.9c-.515.057-.958.834-1.164 1.65s-.175 1.673.256 1.89.817-.154 1.016-.64" fill="#fff"/><path d="M57.607 35.976a.633.633 0 00-.138-1.258c-.887.1-1.461 1.162-1.7 2.123-.25.994-.229 2.2.583 2.612a1.189 1.189 0 00.535.13 1.15 1.15 0 00.405-.074 1.74 1.74 0 00.937-1.02.634.634 0 00-.341-.827.627.627 0 00-.82.344.919.919 0 01-.15.257 2.424 2.424 0 01.069-1.11 2 2 0 01.624-1.177" fill="#183843"/><path d="M61.51 22.203c.136-3.82-5.036-6.37-8.123-8.215s-7.285-3.788-10.823-2.65h-1.282c-3.537-1.138-7.735.806-10.823 2.65s-8.259 4.395-8.123 8.215 5.486 8.663 8.7 10.349c-1.416-2.649-2.012-8-1.715-10.89.206 2.875 1.589 4.484 3.863 6.638a14.125 14.125 0 01-.34-5.952c.293-2.27 1.155-4.809 3.6-6.056 1.73-.882 4.321-.947 5.481.447 1.161-1.394 3.751-1.329 5.481-.447 2.444 1.246 3.306 3.786 3.6 6.056a14.125 14.125 0 01-.34 5.952c2.273-2.154 3.657-3.763 3.863-6.638.3 2.893-.3 8.241-1.715 10.89 3.213-1.686 8.563-6.528 8.7-10.349" fill="#52555f"/><path d="M32.847 22.981a.63.63 0 00.622-.551c.358-2.777 1.455-4.652 3.26-5.573 1.516-.773 3.774-.842 4.716.289a.625.625 0 00.885.078.637.637 0 00.077-.892c-1.387-1.665-4.264-1.615-6.246-.6-2.2 1.121-3.523 3.321-3.938 6.539a.632.632 0 00.542.709.611.611 0 00.082.005" fill="#183843"/><path d="M25.992 27.746a.625.625 0 00-.888-.031.637.637 0 00-.031.9 23.078 23.078 0 005.673 4.5.626.626 0 00.738-.117.637.637 0 00.105-.745 16.605 16.605 0 01-1.431-5.143 27.998 27.998 0 01-.169-1.453 17.68 17.68 0 002.765 3.1.625.625 0 00.746.086.636.636 0 00.3-.7 16.167 16.167 0 01-.474-2.9 14.847 14.847 0 01.146-2.826.628.628 0 10-1.246-.164 16.047 16.047 0 00-.156 3.061c.02.346.054.7.105 1.066a10.784 10.784 0 01-1.165-1.483 6.806 6.806 0 01-1.058-3.293.63.63 0 00-.617-.588h-.01a.63.63 0 00-.625.568 25.337 25.337 0 00.219 5.692 23.292 23.292 0 00.816 3.716 24.06 24.06 0 01-3.738-3.259" fill="#183843"/></g><g clip-path="url(#b)" transform="translate(494.33 2117.545)"><path d="M51.275 22.266a10.886 10.886 0 00-1.06-3.624 6.588 6.588 0 00-2.879-2.915 6.736 6.736 0 00-3.267-.7 4.034 4.034 0 00-2.979 1.3.637.637 0 00.077.892.625.625 0 00.885-.078 2.818 2.818 0 012.076-.851 5.426 5.426 0 012.641.562 5.351 5.351 0 012.333 2.373 9.638 9.638 0 01.927 3.2 14.959 14.959 0 01.147 2.826 16.23 16.23 0 01-.474 2.9.635.635 0 00.3.7.624.624 0 00.746-.086 17.739 17.739 0 002.765-3.1c-.044.481-.1.968-.17 1.452a16.6 16.6 0 01-1.431 5.143.637.637 0 00.106.745.625.625 0 00.738.117 23.04 23.04 0 005.673-4.5.637.637 0 00-.031-.895.625.625 0 00-.888.032 24.051 24.051 0 01-3.738 3.259 23.332 23.332 0 00.816-3.716 25.3 25.3 0 00.219-5.692.639.639 0 00-.635-.568.631.631 0 00-.617.588 6.809 6.809 0 01-1.058 3.293 10.787 10.787 0 01-1.165 1.483c.051-.37.085-.719.105-1.066a16.152 16.152 0 00-.155-3.061" fill="#183843"/><path d="M.905 164.467l17.588.35.3-15.517h45.483l.284 15.505 17.587-.328-.837-45.605h-.093L79.894 76.56a8.842 8.842 0 00-5.768-8.04L52.644 58.096l-11.113 18.92-11.113-18.92-21.52 10.441a8.864 8.864 0 00-5.741 8.027l-1.413 45.185v.1z" fill="#cbb84f"/><path d="M2.995 121.99c0-.04.007-.082.007-.123v-.105l1.411-45.159a7.572 7.572 0 014.923-6.88c.036-.014.072-.029.107-.046L29.92 59.74l10.528 17.921a1.252 1.252 0 002.163 0L53.137 59.74l20.449 9.924a1.118 1.118 0 00.114.048 7.554 7.554 0 014.944 6.891l1.323 42.311a1.255 1.255 0 00.1.46l.805 43.861-15.075.281-.261-14.24a1.261 1.261 0 00-1.256-1.243H18.797a1.261 1.261 0 00-1.256 1.241l-.28 14.251-15.075-.3zm15.472 44.094h.025a1.261 1.261 0 001.256-1.241l.28-14.276h43.015l.262 14.263a1.271 1.271 0 00.384.888 1.219 1.219 0 00.9.354l17.588-.328a1.261 1.261 0 001.233-1.289l-.837-45.605a1.256 1.256 0 00-.108-.492l-1.317-41.835a10.072 10.072 0 00-6.533-9.167l-21.434-10.4a1.253 1.253 0 00-1.627.5L41.526 74.53 31.494 57.451a1.253 1.253 0 00-1.627-.5L8.403 67.371a10.092 10.092 0 00-6.5 9.152L.489 121.704v.123l-.841 42.615a1.273 1.273 0 00.35.9 1.255 1.255 0 00.881.388z" fill="#183843"/><path d="M52.895 90.749v-31.99l-11.5 8.974-11.5-8.974v37.059l11.5 17.948 11.5-17.948z" fill="#fff"/><path d="M30.517 60.047l10.491 8.184a.624.624 0 00.769 0l10.491-8.184v35.581l-10.875 16.967-10.876-16.967zm10.876 54.348a.628.628 0 00.528-.29l11.5-17.948a.634.634 0 00.1-.344V58.756a.633.633 0 00-.352-.569.624.624 0 00-.661.068l-11.119 8.674-11.12-8.674a.623.623 0 00-.661-.068.633.633 0 00-.352.569v37.059a.636.636 0 00.1.344l11.5 17.948a.628.628 0 00.528.29" fill="#183843"/></g><g clip-path="url(#c)" transform="translate(493.979 2117.545)"><path d="M41.766 67.862l1.826-.62 4.29 8.354 6.7-17.025-2.308-2.208-10.508 10.443-10.53-10.443-2.278 2.208 6.374 17.025 4.451-8.354z" fill="#fff"/></g><g clip-path="url(#b)" transform="translate(494.33 2117.545)"><path d="M30.88 57.247l9.811 9.726-1.074-.335a.626.626 0 00-.739.305l-3.8 7.127-5.74-15.332zm21.054 0l1.559 1.492-6.034 15.333-3.656-7.12a.626.626 0 00-.758-.309l-.86.292zM34.939 76.231h.041a.627.627 0 00.553-.333l4.206-7.895 1.493.466a.619.619 0 00.386 0l1.315-.447 4.042 7.872a.617.617 0 00.589.341.628.628 0 00.552-.4l6.7-17.025a.637.637 0 00-.152-.692l-2.308-2.209a.625.625 0 00-.874.008l-10.063 10-10.093-10.005a.625.625 0 00-.876-.005l-2.278 2.208a.636.636 0 00-.152.68l6.374 17.025a.629.629 0 00.546.408" fill="#183843"/><path d="M30.178 71.167a1.273 1.273 0 00.075-1.488l-3.13-4.83 4-5.854 7.33 48.014-12.16-31zm-6.494 5.089l16.54 42.162a1.256 1.256 0 002.41-.658l-9.512-62.3a1.254 1.254 0 00-2.277-.526l-6.27 9.182a1.275 1.275 0 00-.017 1.41l3.09 4.769-3.774 4.7a1.274 1.274 0 00-.191 1.262" fill="#183843"/><path d="M52.532 69.679a1.274 1.274 0 00.074 1.488l3.888 4.845-12.161 31 7.33-48.014 4 5.854zm5.677-5.566l-6.27-9.182a1.254 1.254 0 00-2.277.526l-9.511 62.3a1.266 1.266 0 00.913 1.415 1.244 1.244 0 00.329.044 1.258 1.258 0 001.168-.8l16.54-42.162a1.274 1.274 0 00-.191-1.262l-3.774-4.7 3.09-4.769a1.275 1.275 0 00-.017-1.41" fill="#183843"/><path d="M41.392 117.951l-9.512-62.3-6.27 9.182 3.59 5.541-4.349 5.42z" fill="#cbb84f"/><path d="M29.689 70.769a.637.637 0 00.038-.744l-3.36-5.185 5.134-7.518 8.421 55.159-14.35-36.579zm-5.421 5.254l16.54 42.162a.628.628 0 00.584.4.615.615 0 00.164-.022.633.633 0 00.456-.707l-9.511-62.3a.627.627 0 00-1.138-.263l-6.27 9.182a.637.637 0 00-.009.705l3.34 5.155-4.061 5.061a.636.636 0 00-.1.631" fill="#183843"/><path d="M53.583 70.37l3.59-5.541-6.27-9.182-9.511 62.3 16.54-42.162z" fill="#cbb84f"/><path d="M53.057 70.025a.638.638 0 00.038.744l4.118 5.132-14.35 36.58 8.42-55.16 5.134 7.518zm4.634-5.554l-6.27-9.182a.627.627 0 00-1.138.262l-9.511 62.3a.633.633 0 00.456.708.617.617 0 00.164.022.628.628 0 00.584-.4l16.54-42.162a.636.636 0 00-.1-.631l-4.061-5.061 3.34-5.155a.637.637 0 00-.008-.705" fill="#183843"/></g><g clip-path="url(#c)" fill="#183843" transform="translate(493.979 2117.545)"><path d="M34.03 36.638a.944.944 0 01-.951-1.073.419.419 0 10-.838 0 1.776 1.776 0 001.789 1.918.422.422 0 000-.844m16.798-1.497a.42.42 0 00-.419.422.944.944 0 01-.951 1.073.422.422 0 000 .844 1.776 1.776 0 001.789-1.918.421.421 0 00-.419-.422m-13.446-10.96a.625.625 0 00-.875.155 1.884 1.884 0 01-2.633.468.626.626 0 00-.875.156.636.636 0 00.154.882 3.134 3.134 0 004.383-.779.636.636 0 00-.154-.882m12.229 1.222a1.883 1.883 0 01-2.633-.468.625.625 0 00-.875-.155.636.636 0 00-.154.882 3.135 3.135 0 004.383.779.636.636 0 00.154-.882.626.626 0 00-.875-.156M35.332 32.45c-.664 0-1.2.557-1.2 1.716a1.207 1.207 0 102.4 0c0-1.159-.538-1.716-1.2-1.716m12.822 0c-.664 0-1.2.557-1.2 1.716a1.207 1.207 0 102.4 0c0-1.159-.538-1.716-1.2-1.716m-5.901 8.043a1.43 1.43 0 010-2.235.636.636 0 00.106-.889.625.625 0 00-.882-.106 2.7 2.7 0 000 4.226.625.625 0 00.882-.106.636.636 0 00-.105-.889m4.615 5.049l-1.582-1.2a.625.625 0 00-.754 0l-1.2.911-1.2-.911a.625.625 0 00-.754 0l-1.205.912-1.208-.912a.625.625 0 00-.753 0l-1.585 1.2a.636.636 0 00-.126.886.625.625 0 00.879.127l1.208-.913 1.208.913a.625.625 0 00.754 0l1.2-.912 1.205.912a.625.625 0 00.754 0l1.2-.912 1.205.912a.624.624 0 00.879-.127.636.636 0 00-.125-.886"/></g></g></svg>