<svg xmlns="http://www.w3.org/2000/svg" width="130" height="129"><defs><clipPath id="a"><path transform="translate(495.732 2121.41)" fill="#fff" stroke="#707070" d="M0 0h130v129H0z"/></clipPath><clipPath id="b"><path fill="none" d="M0 0h135.048v135.048H0z"/></clipPath><clipPath id="c"><path fill="none" d="M0 0h136.103v267.81H0z"/></clipPath></defs><g transform="translate(-495.732 -2121.41)" clip-path="url(#a)"><g clip-path="url(#b)" transform="translate(493.454 2115.178)"><path d="M67.265 70.282a14.293 14.293 0 00-14.3 14.293v9.09c-8.745 4.8-14.647 14.349-14.647 27.827 0 27.7 12.956 41 28.939 41s28.939-13.3 28.939-41c0-13.478-5.9-23.031-14.646-27.826v-9.1a14.293 14.293 0 00-14.285-14.284" fill="#fff"/><path d="M94.158 121.496c0 24.029-10.305 38.955-26.9 38.955s-26.9-14.926-26.9-38.955c0-11.986 4.825-21.233 13.587-26.037a2.041 2.041 0 001.06-1.79v-9.094a12.251 12.251 0 0124.5 0v9.094a2.041 2.041 0 001.06 1.79c8.761 4.8 13.585 14.05 13.585 26.037m-26.9-53.255a16.353 16.353 0 00-16.334 16.334v7.914c-9.326 5.642-14.647 16.138-14.647 29.007 0 13.473 3.078 24.585 8.9 32.132a27.8 27.8 0 0044.158 0c5.824-7.548 8.9-18.658 8.9-32.132 0-12.869-5.32-23.364-14.646-29.007v-7.914a16.353 16.353 0 00-16.335-16.334" fill="#183843"/></g><g clip-path="url(#c)" transform="translate(492.883 2115.178)"><path d="M92.913 39.408c0-17.581-13.388-31.833-29.9-31.833s-29.9 17.146-29.9 34.727 13.388 28.939 29.9 28.939 29.9-14.252 29.9-31.833" fill="#52555f"/><path d="M102.559 42.303c0-17.581-13.388-34.727-29.9-34.727S42.752 21.828 42.752 39.408s13.385 31.834 29.903 31.834 29.9-11.359 29.9-28.939" fill="#52555f"/><path d="M36.335 58.578a11.569 11.569 0 001.907 6.3 5.821 5.821 0 004.6 2.926 4.157 4.157 0 001.069-.153c3.707 13.028 12.1 19.361 23.917 19.361s20.21-6.333 23.917-19.361a4.158 4.158 0 001.069.153 5.82 5.82 0 004.6-2.926 11.565 11.565 0 001.907-6.3 7.239 7.239 0 00-1.907-5.213 6.165 6.165 0 00-3.563-1.76c.008-.495.018-.986.018-1.492 0-17.98-11.661-28.215-26.045-28.215S41.787 32.133 41.787 50.113c0 .506.011 1 .019 1.492a6.167 6.167 0 00-3.564 1.76 7.241 7.241 0 00-1.907 5.213" fill="#fff"/><path d="M39.336 54.437a4.654 4.654 0 012.69-1.317 1.532 1.532 0 001.312-1.54l-.005-.3c-.006-.387-.013-.773-.013-1.169 0-15.961 9.852-26.684 24.514-26.684S92.347 34.15 92.347 50.111c0 .4-.006.782-.013 1.169l-.005.3a1.533 1.533 0 001.312 1.54 4.657 4.657 0 012.69 1.317 5.757 5.757 0 011.469 4.14 10.087 10.087 0 01-1.644 5.44 4.372 4.372 0 01-3.335 2.252 2.651 2.651 0 01-.677-.1 1.533 1.533 0 00-1.865 1.061c-3.445 12.109-11 18.249-22.444 18.249s-19-6.139-22.444-18.249a1.53 1.53 0 00-1.866-1.061 2.647 2.647 0 01-.676.1 4.371 4.371 0 01-3.335-2.252 10.09 10.09 0 01-1.645-5.441 5.761 5.761 0 011.469-4.141m-4.532 4.141a13.087 13.087 0 002.169 7.155c1.563 2.314 3.64 3.591 5.85 3.6 4 12.574 12.619 19.209 25.009 19.209s21.014-6.634 25.009-19.209c2.21-.008 4.287-1.286 5.85-3.6a13.087 13.087 0 002.169-7.155 8.741 8.741 0 00-2.345-6.285 7.524 7.524 0 00-3.108-1.9v-.281c0-8.96-2.789-16.541-8.067-21.923a28.236 28.236 0 00-39.02 0c-5.277 5.381-8.067 12.962-8.067 21.923v.281a7.521 7.521 0 00-3.108 1.9 8.743 8.743 0 00-2.345 6.285" fill="#183843"/><path d="M43.642 62.705c.7-.35.75-1.731.415-3.047s-1.054-2.568-1.891-2.661l-.174 4.677c.323.784.95 1.382 1.651 1.032" fill="#fff"/><path d="M42.935 61.284a1.021 1.021 0 00-1.888.778 2.811 2.811 0 001.523 1.645 1.864 1.864 0 00.658.12 1.939 1.939 0 00.869-.209c1.321-.66 1.356-2.608.949-4.212-.395-1.551-1.329-3.265-2.769-3.424a1.02 1.02 0 10-.236 2.027 3.152 3.152 0 011.026 1.9 3.9 3.9 0 01.112 1.789 1.48 1.48 0 01-.244-.414" fill="#183843"/><path d="M93.673 61.673l-.174-4.677c-.837.093-1.556 1.345-1.891 2.661s-.285 2.7.415 3.047 1.328-.248 1.65-1.032" fill="#fff"/><path d="M93.611 58.011a1.021 1.021 0 10-.225-2.029c-1.441.159-2.375 1.874-2.769 3.424-.407 1.6-.372 3.552.948 4.212a1.944 1.944 0 00.87.209 1.883 1.883 0 00.659-.119 2.815 2.815 0 001.523-1.645 1.021 1.021 0 10-1.887-.778 1.477 1.477 0 01-.244.414 3.878 3.878 0 01.112-1.789 3.213 3.213 0 011.014-1.9" fill="#183843"/><path d="M99.95 35.802c.221-6.16-8.183-10.272-13.2-13.246s-11.835-6.11-17.583-4.274h-2.083c-5.748-1.835-12.57 1.3-17.587 4.274s-13.421 7.086-13.2 13.246 8.914 13.968 14.135 16.687c-2.3-4.271-3.27-12.895-2.787-17.56.335 4.635 2.583 7.231 6.277 10.7a22.606 22.606 0 01-.552-9.6c.476-3.661 1.877-7.755 5.849-9.765 2.811-1.422 7.021-1.527 8.907.721 1.886-2.247 6.1-2.143 8.907-.721 3.971 2.01 5.373 6.1 5.848 9.765a22.606 22.606 0 01-.552 9.6c3.694-3.473 5.942-6.068 6.277-10.7.483 4.665-.487 13.289-2.787 17.56 5.221-2.719 13.914-10.527 14.135-16.687" fill="#52555f"/><path d="M53.371 37.057a1.021 1.021 0 001.011-.889c.582-4.478 2.364-7.5 5.3-8.986 2.463-1.247 6.133-1.359 7.664.466a1.021 1.021 0 101.563-1.313c-2.253-2.685-6.93-2.6-10.15-.975-3.572 1.808-5.724 5.355-6.4 10.544a1.021 1.021 0 00.881 1.144 1 1 0 00.133.009" fill="#183843"/><path d="M42.236 44.741a1.021 1.021 0 00-1.494 1.393 37.458 37.458 0 009.218 7.262 1.021 1.021 0 001.371-1.389 26.619 26.619 0 01-2.326-8.293c-.112-.781-.2-1.567-.275-2.343a28.581 28.581 0 004.492 5.007 1.021 1.021 0 001.692-.982 25.885 25.885 0 01-.77-4.67 23.757 23.757 0 01.238-4.557 1.021 1.021 0 10-2.024-.264 25.677 25.677 0 00-.253 4.936c.032.559.088 1.122.171 1.718a17.408 17.408 0 01-1.893-2.392 10.916 10.916 0 01-1.72-5.31 1.021 1.021 0 00-1-.947h-.016a1.021 1.021 0 00-1.015.916 40.544 40.544 0 00.356 9.178 37.31 37.31 0 001.325 5.992 39.012 39.012 0 01-6.074-5.254" fill="#183843"/></g><g clip-path="url(#b)" transform="translate(493.454 2115.178)"><path d="M83.323 35.904a17.454 17.454 0 00-1.722-5.843 10.664 10.664 0 00-4.678-4.7 11.018 11.018 0 00-5.309-1.125 6.578 6.578 0 00-4.84 2.1 1.021 1.021 0 101.563 1.313 4.6 4.6 0 013.373-1.373 8.874 8.874 0 014.291.907 8.661 8.661 0 013.792 3.826 15.451 15.451 0 011.506 5.16 23.937 23.937 0 01.238 4.556 25.986 25.986 0 01-.771 4.671 1.021 1.021 0 001.691.982 28.674 28.674 0 004.493-5.006 48.452 48.452 0 01-.276 2.342 26.612 26.612 0 01-2.326 8.294 1.021 1.021 0 001.37 1.389 37.4 37.4 0 009.219-7.263 1.021 1.021 0 00-1.494-1.392 39 39 0 01-6.074 5.254 37.372 37.372 0 001.325-5.993 40.474 40.474 0 00.356-9.178 1.035 1.035 0 00-1.032-.916 1.021 1.021 0 00-1 .948 10.922 10.922 0 01-1.719 5.31 17.415 17.415 0 01-1.893 2.392c.083-.6.139-1.16.171-1.718a25.843 25.843 0 00-.252-4.936" fill="#183843"/><path d="M1.471 265.203l28.58.565.5-25.021h73.9l.462 25 28.58-.529-1.36-73.538h-.15l-2.149-68.228a14.268 14.268 0 00-9.372-12.964L85.54 93.679l-18.059 30.509-18.059-30.509-34.963 16.835a14.3 14.3 0 00-9.329 12.943l-2.294 72.862v.167h-.005z" fill="#cbb84f"/><path d="M4.869 196.709c.007-.065.011-.131.012-.2s0-.108 0-.17l2.289-72.817a12.217 12.217 0 018-11.094c.059-.022.117-.047.174-.074l33.275-16.023 17.1 28.9a2.042 2.042 0 003.515 0l17.1-28.9 33.23 16a1.834 1.834 0 00.185.078 12.188 12.188 0 018.034 11.111l2.149 68.227a2.011 2.011 0 00.164.742l1.308 70.725-24.5.454-.425-22.962a2.041 2.041 0 00-2.041-2h-73.9a2.042 2.042 0 00-2.041 2l-.455 22.98-24.5-.485zm25.142 71.1h.041a2.042 2.042 0 002.041-2l.455-23.017h69.9l.425 23a2.043 2.043 0 00.624 1.432 1.99 1.99 0 001.455.571l28.58-.529a2.041 2.041 0 002-2.079l-1.36-73.538a2.012 2.012 0 00-.175-.793l-2.124-67.464a16.251 16.251 0 00-10.616-14.782L86.429 91.84a2.044 2.044 0 00-2.643.8l-16.3 27.54-16.3-27.54a2.044 2.044 0 00-2.643-.8l-34.88 16.8a16.282 16.282 0 00-10.574 14.752L.795 196.247v.194l-1.366 68.721a2.04 2.04 0 002 2.082z" fill="#183843"/><path d="M85.955 146.327V94.744l-18.695 14.47-18.694-14.47v59.757l18.694 28.936 18.694-28.941z" fill="#fff"/><path d="M49.589 96.825l17.048 13.2a1.02 1.02 0 001.25 0l17.048-13.2v57.374l-17.673 27.36-17.673-27.36zm17.673 87.637a1.023 1.023 0 00.858-.467l18.693-28.94a1.017 1.017 0 00.164-.554V94.747a1.021 1.021 0 00-1.646-.807l-18.069 13.986-18.069-13.989a1.021 1.021 0 00-1.646.807v59.757a1.021 1.021 0 00.163.554l18.694 28.94a1.022 1.022 0 00.857.467" fill="#183843"/></g><g clip-path="url(#c)" transform="translate(492.883 2115.178)"><path d="M67.876 109.427l2.967-1 6.971 13.47L88.7 94.444l-3.751-3.561-17.074 16.839-17.118-16.839-3.7 3.561 10.357 27.453 7.233-13.47z" fill="#fff"/></g><g clip-path="url(#b)" transform="translate(493.454 2115.178)"><path d="M50.179 92.31l15.943 15.683-1.745-.54a1.021 1.021 0 00-1.2.492l-6.172 11.494-9.328-24.722zm34.213 0l2.533 2.406-9.805 24.728-5.942-11.481a1.022 1.022 0 00-1.233-.5l-1.4.471zm-27.617 30.612h.067a1.02 1.02 0 00.9-.538l6.835-12.73 2.426.751a1.014 1.014 0 00.627-.008l2.137-.72 6.569 12.693a1 1 0 00.958.55 1.02 1.02 0 00.9-.643l10.887-27.453a1.021 1.021 0 00-.246-1.116l-3.751-3.561a1.021 1.021 0 00-1.42.014l-16.359 16.131-16.4-16.134a1.021 1.021 0 00-1.424-.008l-3.7 3.561a1.02 1.02 0 00-.247 1.1l10.357 27.453a1.021 1.021 0 00.888.658" fill="#183843"/><path d="M49.039 114.756a2.041 2.041 0 00.122-2.4l-5.086-7.788 6.5-9.439 11.911 77.423-19.76-49.984zm-10.553 8.206l26.877 67.984a2.042 2.042 0 003.917-1.061L53.824 89.421a2.042 2.042 0 00-3.7-.847l-10.189 14.807a2.042 2.042 0 00-.027 2.274l5.021 7.69-6.132 7.583a2.042 2.042 0 00-.311 2.034" fill="#183843"/><path d="M85.364 112.356a2.041 2.041 0 00.121 2.4l6.318 7.813-19.761 49.983 11.911-77.423 6.5 9.439zm9.225-8.976L84.4 88.573a2.042 2.042 0 00-3.7.847L65.244 189.887a2.042 2.042 0 003.917 1.061l26.878-67.986a2.041 2.041 0 00-.311-2.034l-6.134-7.583 5.021-7.69a2.042 2.042 0 00-.027-2.274" fill="#183843"/><path d="M67.261 190.198L51.805 89.732l-10.189 14.806 5.834 8.935-7.066 8.739z" fill="#cbb84f"/><path d="M48.244 114.114a1.021 1.021 0 00.061-1.2l-5.46-8.361 8.343-12.119 13.684 88.944-23.319-58.984zm-8.809 8.473l26.878 67.986a1.021 1.021 0 00.949.646 1.009 1.009 0 00.267-.036 1.02 1.02 0 00.741-1.141L52.814 89.576a1.021 1.021 0 00-1.85-.423l-10.189 14.806a1.02 1.02 0 00-.014 1.137l5.428 8.312-6.6 8.161a1.02 1.02 0 00-.156 1.018" fill="#183843"/><path d="M87.075 113.472l5.833-8.935L82.72 89.731 67.262 190.197l26.878-67.986z" fill="#cbb84f"/><path d="M86.218 112.914a1.022 1.022 0 00.061 1.2l6.692 8.276-23.319 58.985 13.683-88.94 8.343 12.123zm7.529-8.955L83.558 89.153a1.021 1.021 0 00-1.85.423L66.253 190.042a1.021 1.021 0 00.742 1.141 1.009 1.009 0 00.267.036 1.02 1.02 0 00.949-.646l26.874-67.986a1.019 1.019 0 00-.156-1.018l-6.6-8.161 5.427-8.312a1.021 1.021 0 00-.013-1.137" fill="#183843"/></g><g clip-path="url(#c)" fill="#183843" transform="translate(492.883 2115.178)"><path d="M55.299 59.077a1.526 1.526 0 01-1.545-1.731.681.681 0 00-1.361 0 2.873 2.873 0 002.907 3.092.681.681 0 100-1.361m27.296-2.41a.68.68 0 00-.681.681 1.527 1.527 0 01-1.546 1.731.681.681 0 100 1.361 2.873 2.873 0 002.907-3.092.681.681 0 00-.681-.681M60.746 38.992a1.021 1.021 0 00-1.422.251 3.076 3.076 0 01-4.278.754 1.021 1.021 0 00-1.171 1.673 5.119 5.119 0 007.122-1.256 1.021 1.021 0 00-.251-1.422m19.873 1.97a3.075 3.075 0 01-4.278-.754 1.021 1.021 0 10-1.672 1.171 5.12 5.12 0 007.117 1.254 1.021 1.021 0 00-1.171-1.673M57.414 52.325c-1.079 0-1.953.9-1.953 2.767a1.96 1.96 0 103.907 0c0-1.869-.874-2.767-1.953-2.767m20.835 0c-1.079 0-1.953.9-1.953 2.767a1.96 1.96 0 103.907 0c0-1.869-.874-2.767-1.953-2.767m-9.589 12.97a2.295 2.295 0 010-3.6 1.021 1.021 0 10-1.261-1.605 4.337 4.337 0 000 6.814 1.021 1.021 0 101.263-1.6m7.498 8.134l-2.571-1.929a1.022 1.022 0 00-1.226 0l-1.957 1.469-1.958-1.469a1.022 1.022 0 00-1.226 0l-1.958 1.47-1.963-1.471a1.021 1.021 0 00-1.224 0l-2.576 1.929a1.021 1.021 0 001.224 1.635l1.963-1.471 1.963 1.471a1.022 1.022 0 001.225 0l1.958-1.47 1.958 1.47a1.022 1.022 0 001.226 0l1.957-1.47 1.958 1.47a1.021 1.021 0 001.225-1.634"/></g></g></svg>