<svg xmlns="http://www.w3.org/2000/svg" width="200" height="185.3"><defs><clipPath id="a"><path fill="none" d="M0 0h200v185.3H0z"/></clipPath><clipPath id="b"><path d="M32.885 16.372A29.375 29.375 0 0015.364 54.04L26.71 49.9a21.812 21.812 0 1140.265 1.718l3.788 1.834a29.367 29.367 0 00-37.878-37.08" transform="translate(-13.574 -14.584)" fill="none"/></clipPath><clipPath id="c"><path d="M39.6 45.194a21.791 21.791 0 1120.49 14.339A21.81 21.81 0 0139.6 45.194M54.256 8.575a29.343 29.343 0 1010.07-1.791 29.376 29.376 0 00-10.07 1.791" transform="translate(-34.941 -6.784)" fill="none"/></clipPath><clipPath id="d"><path d="M47.468 23.156a29.377 29.377 0 0020.147 55.191L63.475 67A21.81 21.81 0 1168.8 28.856l4.446-2.935a29.327 29.327 0 00-25.778-2.766" transform="translate(-28.157 -21.368)" fill="none"/></clipPath><clipPath id="e"><path d="M26.71 49.9A21.792 21.792 0 1147.2 64.235 21.811 21.811 0 0126.71 49.9m6.175-33.528a29.353 29.353 0 1010.071-1.788 29.375 29.375 0 00-10.071 1.788" transform="translate(-13.574 -14.584)" fill="none"/></clipPath></defs><g clip-path="url(#a)" fill="#fff"><path d="M87.779 93.279c-7.523 18.214-30.442 27.175-48.26 27.7-.061-2.78.064-5.561 0-8.516 18.5.259 34.823-6.067 45.631-20.293"/><path d="M65.665 49.809a21.81 21.81 0 11-13.009 27.968 21.812 21.812 0 0113.009-27.968m-24.357 32.11a29.377 29.377 0 1017.521-37.668 29.375 29.375 0 00-17.521 37.668"/><path d="M110.692 26.145a21.81 21.81 0 11-27.967-13.009 21.812 21.812 0 0127.967 13.009M78.582 1.788a29.377 29.377 0 1037.668 17.521A29.375 29.375 0 0078.582 1.788"/><path d="M89.321 94.833a21.81 21.81 0 1127.972 13.009 21.812 21.812 0 01-27.972-13.009m32.11 24.357a29.377 29.377 0 10-37.663-17.521 29.375 29.375 0 0037.668 17.521"/><path d="M52.656 77.777a21.81 21.81 0 1140.262 1.721l3.791 1.831a29.377 29.377 0 10-55.4.591"/></g><g clip-path="url(#b)" transform="translate(39.521 42.46)"><path d="M49.8 52.373a21.81 21.81 0 1127.972 13.009A21.812 21.812 0 0149.8 52.373M81.91 76.73a29.377 29.377 0 10-37.663-17.521A29.375 29.375 0 0081.915 76.73" fill="#fff"/></g><g clip-path="url(#a)" fill="#fff"><path d="M134.353 71.168a21.81 21.81 0 1113.009-27.962 21.812 21.812 0 01-13.009 27.962m24.357-32.11a29.377 29.377 0 10-17.522 37.673 29.375 29.375 0 0017.522-37.668"/><path d="M134.353 71.168a21.81 21.81 0 1113.009-27.962 21.812 21.812 0 01-13.009 27.962m24.357-32.11a29.377 29.377 0 10-17.522 37.673 29.375 29.375 0 0017.522-37.668"/></g><g clip-path="url(#c)" transform="translate(101.728 19.751)"><path d="M-32.016 21.348a21.81 21.81 0 1138.453 4.9l1.689 3.73a29.379 29.379 0 10-48.8-10.269" fill="#fff"/></g><g clip-path="url(#a)"><path d="M117.293 107.843a21.81 21.81 0 115.328-38.143l4.443-2.935a29.377 29.377 0 10-5.628 52.426" fill="#fff"/></g><g clip-path="url(#d)" transform="translate(81.978 62.211)"><path d="M52.375 8.957a21.81 21.81 0 1113.009-27.962A21.812 21.812 0 0152.375 8.957m24.357-32.11A29.377 29.377 0 1059.21 14.52a29.375 29.375 0 0017.522-37.668" fill="#fff"/></g><g clip-path="url(#a)"><path d="M65.665 49.809a21.81 21.81 0 11-13.009 27.968 21.812 21.812 0 0113.009-27.968m-24.357 32.11a29.377 29.377 0 1017.521-37.668 29.375 29.375 0 00-17.521 37.668" fill="#fff"/></g><g clip-path="url(#e)" transform="translate(39.521 42.46)"><path d="M76.729-23.148a29.377 29.377 0 10-38.11 37.5l2.865-3.411a21.809 21.809 0 1129.685-27.253" fill="#fff"/></g><g clip-path="url(#a)" fill="#fff"><path d="M6.426 139.376v8.874h4.114a2.919 2.919 0 002.07-.626 4.1 4.1 0 00.873-2.472h.617v7.643h-.617a4.505 4.505 0 00-.338-1.933 2.2 2.2 0 00-.9-.923 3.738 3.738 0 00-1.706-.309H6.426v7.092a7.448 7.448 0 00.215 2.265 1.5 1.5 0 00.7.716 3.16 3.16 0 001.528.4h.818v.617H0v-.617h.8a2.406 2.406 0 002.029-.815 5.061 5.061 0 00.4-2.565v-14.585a7.536 7.536 0 00-.215-2.262 1.5 1.5 0 00-.684-.716 3.057 3.057 0 00-1.528-.4H0v-.617h16.8l.218 4.961h-.582a6.82 6.82 0 00-1.007-2.32 3.341 3.341 0 00-1.415-1.077 7.6 7.6 0 00-2.606-.332zm25.064 20.726v.617h-9.672v-.617h.8a2.409 2.409 0 002.032-.815 5.1 5.1 0 00.4-2.565v-14.581a7.546 7.546 0 00-.215-2.265 1.507 1.507 0 00-.681-.716 3.174 3.174 0 00-1.534-.4h-.8v-.617h9.672v.617h-.815a2.383 2.383 0 00-2.015.815 4.9 4.9 0 00-.416 2.565v14.58a7.546 7.546 0 00.215 2.265 1.479 1.479 0 00.7.716 3.035 3.035 0 001.514.4zm15.174-22.473a10.245 10.245 0 017.619 3.336 11.539 11.539 0 013.223 8.332 11.855 11.855 0 01-3.249 8.539 10.464 10.464 0 01-7.858 3.395 10.4 10.4 0 01-7.832-3.31 11.889 11.889 0 01-3.171-8.574 11.421 11.421 0 013.66-8.772 10.809 10.809 0 017.608-2.946m-.314 1.214a5.953 5.953 0 00-4.862 2.248q-2.275 2.8-2.28 8.19 0 5.529 2.364 8.507a5.846 5.846 0 004.8 2.265 6.553 6.553 0 005.252-2.481q2.07-2.481 2.07-7.826 0-5.791-2.277-8.638a6.152 6.152 0 00-5.063-2.265m37.382 21.876h-6.027l-7.642-10.557q-.847.035-1.38.035c-.146 0-.3 0-.469-.009s-.338-.015-.515-.026v6.559a4.618 4.618 0 00.466 2.646 2.374 2.374 0 001.9.734h.882v.617h-9.674v-.617h.85a2.274 2.274 0 002.047-.932 5.265 5.265 0 00.349-2.449v-14.582a4.632 4.632 0 00-.466-2.646 2.454 2.454 0 00-1.93-.731h-.85v-.617h8.225a19.56 19.56 0 015.3.524 6.068 6.068 0 012.9 1.93 5.044 5.044 0 011.191 3.357 5.279 5.279 0 01-1.363 3.61 7.666 7.666 0 01-4.2 2.166l4.661 6.475a11.6 11.6 0 002.745 2.964 6.918 6.918 0 003 .932zm-16.033-11.6q.319 0 .55.009c.154.006.282.009.381.009a7.327 7.327 0 004.871-1.4 4.469 4.469 0 001.639-3.561 4.652 4.652 0 00-1.322-3.438 4.747 4.747 0 00-3.505-1.325 14.828 14.828 0 00-2.614.317zm28.811 10.983v.617h-9.672v-.617h.8a2.409 2.409 0 002.032-.815 5.1 5.1 0 00.4-2.565v-14.581a7.547 7.547 0 00-.215-2.265 1.5 1.5 0 00-.684-.716 3.172 3.172 0 00-1.531-.4h-.8v-.617h9.67v.617h-.815a2.387 2.387 0 00-2.015.815 4.87 4.87 0 00-.416 2.565v14.58a7.418 7.418 0 00.218 2.265 1.477 1.477 0 00.7.716 3.053 3.053 0 001.517.4zm23.116-21.958l.247 5.293h-.632a6.261 6.261 0 00-.5-2 3.368 3.368 0 00-1.374-1.424 4.77 4.77 0 00-2.256-.457h-3.18v17.247a4.646 4.646 0 00.451 2.6 2.5 2.5 0 001.948.7h.78v.617h-9.569v-.617h.8a2.29 2.29 0 002.032-.868 5.054 5.054 0 00.364-2.431v-17.245h-2.713a7.616 7.616 0 00-2.248.233 3.1 3.1 0 00-1.485 1.214 4.962 4.962 0 00-.731 2.431h-.632l.265-5.293zm19.921.617v-.614h7.989v.614h-.85a2.286 2.286 0 00-2.044 1.115 5.046 5.046 0 00-.352 2.4v9.156a16.222 16.222 0 01-.673 5.265 6.628 6.628 0 01-2.649 3.214 9.441 9.441 0 01-5.366 1.339 10.116 10.116 0 01-5.61-1.281 6.932 6.932 0 01-2.713-3.447 19.125 19.125 0 01-.533-5.561v-8.82a4.41 4.41 0 00-.576-2.731 2.355 2.355 0 00-1.855-.649h-.85v-.614h9.756v.614h-.865a2.234 2.234 0 00-2 .882 4.9 4.9 0 00-.419 2.5v9.838a21.823 21.823 0 00.242 3.013 6.387 6.387 0 00.877 2.645 4.787 4.787 0 001.825 1.566 6.289 6.289 0 002.92.614 8.028 8.028 0 003.962-.967 5.149 5.149 0 002.387-2.472 14.284 14.284 0 00.643-5.1v-9.139a4.684 4.684 0 00-.466-2.649 2.456 2.456 0 00-1.933-.731zm33.955 21.958h-6.027l-7.642-10.557c-.565.023-1.028.035-1.38.035-.146 0-.3 0-.469-.009s-.338-.015-.515-.026v6.559a4.593 4.593 0 00.466 2.646 2.37 2.37 0 001.9.734h.882v.617h-9.677v-.617h.85a2.279 2.279 0 002.05-.932 5.265 5.265 0 00.349-2.449v-14.582a4.632 4.632 0 00-.466-2.646 2.456 2.456 0 00-1.933-.731h-.85v-.617h8.228a19.574 19.574 0 015.3.524 6.06 6.06 0 012.892 1.927 5.032 5.032 0 011.2 3.36 5.268 5.268 0 01-1.36 3.61 7.645 7.645 0 01-4.2 2.166l4.66 6.475a11.6 11.6 0 002.745 2.964 6.918 6.918 0 003 .932zm-16.033-11.6q.314 0 .55.009c.154.006.282.009.381.009a7.332 7.332 0 004.871-1.4 4.469 4.469 0 001.639-3.561 4.663 4.663 0 00-1.322-3.438 4.749 4.749 0 00-3.508-1.325 14.8 14.8 0 00-2.612.317zm33.886 4.036h-8.74l-1.531 3.564a5.606 5.606 0 00-.565 1.962 1.143 1.143 0 00.489.908 4.268 4.268 0 002.122.507v.617h-7.107v-.617a3.869 3.869 0 001.831-.646 10.167 10.167 0 001.878-3.246l7.942-18.581h.582l7.859 18.782a8.606 8.606 0 001.724 2.941 3.5 3.5 0 002.157.754v.617h-8.909v-.617a3.31 3.31 0 001.823-.448 1.159 1.159 0 00.477-.932 6.938 6.938 0 00-.667-2.315zm-.466-1.232l-3.827-9.12-3.93 9.124zM57.585 184.372c-.306 0-.367-.181-.367-.335 0-.183.16-.285.312-.384a14.961 14.961 0 004.125-3.607 22.8 22.8 0 002.277-3.724 2.929 2.929 0 00.148-.317 5.336 5.336 0 00-.544.052c-1.505.166-3.208.373-4.489.617a1.182 1.182 0 00-.457.181 1 1 0 01-.521.131c-.314 0-.632-.213-1.022-.7a1.642 1.642 0 01-.518-1.141c0-.553.233-.614.335-.614.146 0 .236.087.37.224a1.24 1.24 0 001.15.542c.367-.015.719-.032 1.083-.061l.5-.044c1.264-.116 2.568-.239 3.747-.381a1.179 1.179 0 00.582-.175.8.8 0 01.539-.213 1.675 1.675 0 011.007.466c.562.419.734.673.734 1.08a.639.639 0 01-.408.539 1.174 1.174 0 00-.55.632 16.528 16.528 0 01-2.83 3.954 13.225 13.225 0 01-4.92 3.223 1.051 1.051 0 01-.279.052m6.548-8.72c.3 0 .317.2.317.247a1.258 1.258 0 01-.21.579 22.754 22.754 0 01-2.309 3.779 15.348 15.348 0 01-4.223 3.696 1.044 1.044 0 00-.1.073.7.7 0 00.134-.035 12.814 12.814 0 004.789-3.133 16.088 16.088 0 002.769-3.875 1.491 1.491 0 01.71-.783c.143-.073.213-.166.213-.224 0-.245-.061-.4-.6-.8-.39-.3-.588-.4-.8-.4a.477.477 0 00-.32.14 1.5 1.5 0 01-.754.245c-1.182.146-2.489.265-3.753.381l-.5.047c-.373.026-.731.044-1.1.058-.049 0-.1.006-.148.006a1.525 1.525 0 01-1.269-.655l-.082-.079a.951.951 0 00-.023.23c0 .285.061.448.445.92.309.381.556.571.748.571a.635.635 0 00.332-.079 1.508 1.508 0 01.576-.23c1.3-.247 3.01-.454 4.516-.62a5.93 5.93 0 01.641-.058m8.207 9.385a.791.791 0 01-.675-.355 1.553 1.553 0 01-.265-.891.83.83 0 01.052-.274 2.652 2.652 0 00.1-.78c.012-.317.029-.617.029-1.185 0-.213 0-.527.006-.836 0-.291.009-.574.009-.754s-.006-.312-.012-.4a15.91 15.91 0 01-3.767 2.78.688.688 0 01-.329.122.31.31 0 01-.32-.323c0-.128.09-.25.28-.378a24.867 24.867 0 003.587-3.47 10.441 10.441 0 001.275-1.75l.029-.049c.128-.236.154-.309.154-.4a.852.852 0 00-.282-.23.9.9 0 00-.084-.047c-.093-.052-.236-.125-.236-.3 0-.1.047-.411.673-.411a3.178 3.178 0 011.418.5c.431.265.641.521.641.783 0 .151-.061.425-.5.576a.276.276 0 00-.172.1c-.638.7-1.13 1.229-1.5 1.616.384.285.629.536.629.806a.638.638 0 01-.064.3c.006 0-.009.224-.009.833v1.528c.012 1.048.012 1.677.012 2.018 0 .783-.472.865-.673.865m-.608-6.126l.1.23a1.744 1.744 0 01.1.821c0 .181 0 .466-.006.757 0 .309-.009.623-.009.833 0 .574-.012.879-.029 1.2a3.147 3.147 0 01-.093.824l-.015.055a.54.54 0 00-.041.16 1.234 1.234 0 00.2.687.464.464 0 00.4.213c.087 0 .326 0 .326-.518 0-.341 0-.969-.015-2.015v-1.526a7.431 7.431 0 01.035-.964.342.342 0 00.038-.169c0-.125-.218-.341-.646-.641l-.166-.116.14-.146c.384-.4.917-.967 1.63-1.747a.568.568 0 01.335-.213c.253-.084.253-.2.253-.242s-.038-.213-.477-.486a2.888 2.888 0 00-1.234-.448.654.654 0 00-.282.047h.006c.035.02.073.038.108.061.163.1.445.3.445.527a1.142 1.142 0 01-.2.571l-.032.052a10.49 10.49 0 01-1.316 1.8 25.117 25.117 0 01-3.59 3.485 15.572 15.572 0 003.849-2.911zm11.782 6.045c-.2 0-.445 0-.5-.32a.912.912 0 00-.239-.588 3.342 3.342 0 00-.795-.454l-.143-.064a.359.359 0 01-.265-.367c0-.128.087-.277.338-.277a.6.6 0 01.116.012c.032.006.073.012.128.017a7.924 7.924 0 001.269.148.143.143 0 00.064-.009.846.846 0 00.012-.157c0-1.59-.009-2.725-.029-3.954a16.049 16.049 0 01-2.064 2.472 11.962 11.962 0 01-2.938 2.2.836.836 0 01-.367.119c-.169 0-.285-.143-.285-.349a.547.547 0 01.25-.387 17.325 17.325 0 002.542-2.545 21.212 21.212 0 001.884-2.725c-.6.1-1.179.218-1.753.367a1.833 1.833 0 00-.617.242.726.726 0 01-.533.189c-.274 0-.594-.247-.987-.76a1.687 1.687 0 01-.437-.972c0-.25.125-.51.335-.51a.408.408 0 01.3.175 1.2 1.2 0 00.891.469c.125 0 .314-.012.623-.041.751-.093 1.639-.2 3.121-.355 0-1.322-.009-1.753-.023-1.98-.023-.376-.058-.4-.119-.434a1.678 1.678 0 00-.533-.215c-.131-.026-.3-.067-.3-.3a.583.583 0 01.256-.39.831.831 0 01.594-.181 3.017 3.017 0 011.217.3.9.9 0 01.6.757 1.273 1.273 0 01-.213.6 1.646 1.646 0 00-.116.664c-.009.25-.02.594-.023 1.074l.477-.044c.309-.029.608-.055.993-.1a.759.759 0 00.422-.119 1.116 1.116 0 01.475-.163 2.831 2.831 0 011.095.253.849.849 0 01.492.7.576.576 0 01-.533.646h-.116q-1.048-.1-2.111-.1c-.3 0-.565.015-1.019.032l-.148.006c0 .62.015 1.316.023 1.759.026 1.692.061 3.034.084 4.015a1.457 1.457 0 01-.3 1.121 1.772 1.772 0 01-1.1.53m-1.422-1.704l.041.02a3.4 3.4 0 01.871.5 1.189 1.189 0 01.364.8c.015.029.116.029.151.029a1.447 1.447 0 00.83-.413 1.125 1.125 0 00.221-.879c-.026-.987-.058-2.329-.084-4.021a85.851 85.851 0 01-.026-1.93v-.165l.483-.02c.46-.02.731-.029 1.034-.029a20.467 20.467 0 012.128.1h.1c.128 0 .186-.151.186-.3a.532.532 0 00-.309-.39 2.456 2.456 0 00-.932-.215 1.036 1.036 0 00-.271.1l-.1-.14.1.14a1.063 1.063 0 01-.585.183c-.39.044-.693.07-1 .1l-.664.064-.192.017v-.192c0-.591.015-.993.026-1.284a1.838 1.838 0 01.16-.821.959.959 0 00.166-.425c0-.122-.049-.262-.408-.448a2.72 2.72 0 00-1.06-.262.511.511 0 00-.381.114.48.48 0 00-.087.076 2.1 2.1 0 01.638.256c.221.143.256.332.28.707.017.25.026.7.026 2.16v.16l-.157.015c-1.572.16-2.5.274-3.235.364-.37.038-.562.05-.7.05a1.546 1.546 0 01-1.15-.582l-.012-.015a.442.442 0 00-.017.114 1.336 1.336 0 00.367.757c.443.582.658.629.71.629a.379.379 0 00.3-.108 1.972 1.972 0 01.754-.312 18.753 18.753 0 012.152-.434l.349-.047-.172.306a21.807 21.807 0 01-2.095 3.085 17.855 17.855 0 01-2.6 2.594c-.049.044-.079.073-.1.09l.122-.055a11.551 11.551 0 002.842-2.131 14.794 14.794 0 002.336-2.908l.314-.53.009.617c.029 1.473.038 2.7.038 4.548 0 .154 0 .512-.422.512a8.315 8.315 0 01-1.322-.148h-.017m-.166-.1zm9.285 2.147c-.271 0-.364-.157-.364-.3 0-.215.2-.3.314-.344a7.322 7.322 0 004.268-3.319 7.874 7.874 0 00.774-3.179c.041-.611.058-1.552.058-3.593 0-.576-.044-.7-.175-.783a1.911 1.911 0 00-.661-.253c-.119-.029-.3-.07-.3-.277 0-.166.146-.3.3-.416a.976.976 0 01.547-.169 3.679 3.679 0 011.336.326c.469.215.926.463.926.937a.79.79 0 01-.221.55c-.082.082-.116.3-.116.687a25.9 25.9 0 01-.37 5.107 5.681 5.681 0 01-1.523 2.775 8.547 8.547 0 01-4.484 2.207l-.087.017a.993.993 0 01-.23.029m4.339-12.108a2.142 2.142 0 01.739.291c.312.21.326.544.326 1.074 0 2.053-.015 3-.058 3.616a8.061 8.061 0 01-.815 3.319 7.524 7.524 0 01-4.233 3.4 8.164 8.164 0 004.265-2.1 5.272 5.272 0 001.424-2.606 25.3 25.3 0 00.364-5.025c0-.521.058-.774.218-.932a.447.447 0 00.122-.306c0-.242-.265-.413-.722-.62a3.419 3.419 0 00-1.194-.3.607.607 0 00-.346.1l-.093.079m-2.577 7.689a1.021 1.021 0 01-.815-.614 1.982 1.982 0 01-.211-.901 1.551 1.551 0 01.084-.483 3.648 3.648 0 00.064-.629 44.9 44.9 0 00.041-2.332v-.268a2.961 2.961 0 00-.061-.888c-.052-.146-.242-.282-.629-.46l-.041-.02c-.1-.052-.221-.114-.221-.288a.393.393 0 01.269-.332 1.251 1.251 0 01.539-.128 2.964 2.964 0 011.191.416c.542.3.853.664.853 1a.81.81 0 01-.218.527.938.938 0 00-.061.393 119.51 119.51 0 00-.087 4.2c0 .667-.373.8-.69.8m-.576-6.251a2.946 2.946 0 01.087 1.013v.268c0 1.153-.009 1.767-.038 2.349a3.954 3.954 0 01-.082.713 1.438 1.438 0 00-.07.381 1.662 1.662 0 00.169.745c.16.274.346.434.512.434s.341-.035.341-.457c.012-1.721.041-2.978.09-4.216a1.02 1.02 0 01.14-.6.488.488 0 00.137-.309c0-.163-.21-.443-.675-.7a2.635 2.635 0 00-1.019-.376.894.894 0 00-.387.1c.486.23.713.419.8.655m10.968 10.405a.85.85 0 01-.776-.428 2.634 2.634 0 01-.341-1.246 1.616 1.616 0 01.09-.5.393.393 0 00.061-.172c.012-.2.041-.585.052-3.3.012-.929.006-1.788 0-2.667v-1.365a8.712 8.712 0 00-.05-1.205.548.548 0 00-.233-.233 1.752 1.752 0 00-.466-.215c-.256-.07-.277-.233-.277-.3a.474.474 0 01.265-.367.968.968 0 01.509-.16 3.672 3.672 0 011.558.41c.571.25.69.6.69.85a.808.808 0 01-.309.6.423.423 0 00-.044.181c-.032.3-.073.961-.076 2.469a8.445 8.445 0 012.553.576c.635.268 1.476.725 1.476 1.648a.9.9 0 01-.8.955 1.169 1.169 0 01-.946-.489 8 8 0 00-1.034-1.051 4.4 4.4 0 00-1.249-.734v2.32c0 .477.017 1.4.041 2.527l.017 1.031c0 .719-.387.868-.716.868m-1.538-11.669a2.435 2.435 0 01.527.247.9.9 0 01.387.431 7.229 7.229 0 01.064 1.307c0 .469.006.917.006 1.363 0 .882.006 1.744-.006 2.673-.015 2.725-.041 3.118-.055 3.31a.722.722 0 01-.09.314 1.388 1.388 0 00-.058.346 2.255 2.255 0 00.3 1.074.51.51 0 00.469.253c.186 0 .37-.041.37-.518l-.02-1.025c-.02-1.13-.038-2.055-.038-2.536v-2.793l.221.067a4.574 4.574 0 011.6.868 8.534 8.534 0 011.08 1.1.813.813 0 00.678.367.566.566 0 00.457-.606c0-.55-.39-.961-1.264-1.325a8.191 8.191 0 00-2.6-.562l-.166-.009v-.166c0-1.3.026-2.218.073-2.67a.618.618 0 01.151-.39.491.491 0 00.2-.352c0-.213-.166-.39-.486-.533a3.292 3.292 0 00-1.415-.381.661.661 0 00-.317.1l-.064.044m11.094 11.683a.287.287 0 01-.323-.309c0-.119.1-.218.274-.358a10.06 10.06 0 002.742-3.016 11.291 11.291 0 001.444-3.13h-.134c-.4 0-.815.026-1.249.052l-.151.009c-.76.041-1.561.116-2.513.218.015.565.038.964.064 1.348v.131c.006.128.017.247.026.361.012.16.02.3.02.416a.559.559 0 01-.6.629 1 1 0 01-.911-1.071 1.034 1.034 0 01.02-.2.915.915 0 00.023-.183c0-.774-.012-1.106-.055-1.692a.483.483 0 00-.119-.323 1.272 1.272 0 00-.381-.32.3.3 0 01-.221-.271c0-.227.335-.376.556-.376a2.147 2.147 0 01.856.247 3.732 3.732 0 01.489.323h.082c.181 0 .361-.017.492-.029.227-.015.4-.029.591-.044.1-.009.2-.015.306-.02v-.943a.955.955 0 00-.055-.432.281.281 0 00-.154-.125 1.268 1.268 0 00-.3-.076c-.2-.049-.236-.163-.236-.247a.381.381 0 01.169-.3.886.886 0 01.6-.213 2.81 2.81 0 011.269.344c.393.2.475.416.475.565a.628.628 0 01-.239.536c-.015.012-.052.064-.082.271a6.27 6.27 0 00-.029.521l.457-.029c.253-.017.492-.032.809-.058a.342.342 0 00.183-.052.676.676 0 01.463-.213 2.058 2.058 0 01.871.355l.038.032c.344.268.591.457.591.742a.524.524 0 01-.349.507c-.1.047-.14.087-.207.253a13.777 13.777 0 01-1.992 3.487 9.62 9.62 0 01-3.316 2.6.877.877 0 01-.294.087m4-7.162a3.037 3.037 0 01.373.017l.2.02-.05.2a11.393 11.393 0 01-1.54 3.435 10.414 10.414 0 01-2.734 3.04 9.294 9.294 0 003.083-2.449 13.158 13.158 0 001.93-3.4.713.713 0 01.367-.431c.143-.073.169-.09.169-.2s-.224-.285-.457-.469a1.876 1.876 0 00-.7-.314.341.341 0 00-.207.1.6.6 0 01-.4.163c-.32.026-.562.044-.818.061l-.641.041-.189.015v-.186a7.185 7.185 0 01.032-.751.739.739 0 01.2-.5.293.293 0 00.116-.265c0-.041-.061-.14-.285-.256a2.468 2.468 0 00-1.112-.306.579.579 0 00-.323.1 1.89 1.89 0 01.215.067.652.652 0 01.341.277 1.3 1.3 0 01.1.608v1.258l-.163.012c-.172.012-.32.026-.46.035-.2.015-.37.029-.559.038a5.361 5.361 0 01-.707.029h-.058l-.047-.035a3 3 0 00-.472-.32 1.821 1.821 0 00-.7-.213.414.414 0 00-.116.023 1.623 1.623 0 01.428.37.831.831 0 01.2.512c.044.606.055.943.055 1.729a1.42 1.42 0 01-.026.256.54.54 0 00-.017.125c0 .3.2.725.565.725.16 0 .253-.049.253-.282 0-.1-.012-.242-.023-.393a12.03 12.03 0 01-.023-.367l-.009-.128c-.023-.425-.052-.862-.061-1.523v-.16l.157-.017a50.78 50.78 0 012.687-.236l.148-.009c.443-.026.859-.049 1.272-.049m6.552 2.406c-.39 0-.675-.408-1.039-1.109a1.675 1.675 0 01-.224-.876c0-.387.157-.524.3-.524.119 0 .207.1.285.2.376.489.53.489.786.489.294 0 .507-.017 1.144-.07 1.368-.119 2.83-.21 3.91-.236a1.442 1.442 0 00.766-.175.838.838 0 01.993.02c.381.213.792.483.792.972 0 .373-.2.766-.571.766-.154 0-.39-.015-.652-.029-.32-.023-.684-.047-.981-.047-.868 0-2.748.061-4.1.218a2.247 2.247 0 00-1 .239.546.546 0 01-.411.16m-.914-2.047v.061a1.363 1.363 0 00.186.719c.224.428.507.92.731.92a.23.23 0 00.175-.067c.116-.1.358-.239 1.2-.332 1.365-.157 3.264-.218 4.14-.218.309 0 .675.023 1 .044.253.015.48.029.629.029.131 0 .224-.221.224-.416 0-.242-.163-.416-.617-.67a.823.823 0 00-.413-.128.41.41 0 00-.2.09 1.873 1.873 0 01-.958.236c-1.074.029-2.53.116-3.893.236-.646.055-.865.07-1.173.07-.355 0-.6-.038-1.025-.574m12.456 6.905a.309.309 0 01-.32-.32.383.383 0 01.2-.291l.064-.047a16.934 16.934 0 004.222-4.053 13.477 13.477 0 001.82-3.051c.015-.029.026-.061.041-.1a.353.353 0 00-.073.015c-1.616.148-2.824.352-4.222.588a2.723 2.723 0 00-.83.23 1.17 1.17 0 01-.55.169c-.317 0-.533-.122-.935-.524a1.885 1.885 0 01-.623-1.194c0-.355.125-.585.317-.585.125 0 .186.052.314.166.434.4.585.524 1.1.524.175 0 .789-.055 1.316-.116.457-.055 1-.111 1.677-.183.635-.067 1.392-.146 2.3-.247a.765.765 0 00.434-.175 1.086 1.086 0 01.53-.163 2.549 2.549 0 011.264.74c.346.314.408.492.408.731 0 .291-.294.437-.408.495-.148.076-.218.125-.451.559a16.114 16.114 0 01-2.318 3.27 13.87 13.87 0 01-4.891 3.462 1.167 1.167 0 01-.39.1m6.152-8.219c.23 0 .277.119.277.218a1.983 1.983 0 01-.114.376 14.141 14.141 0 01-1.866 3.127 17.3 17.3 0 01-4.28 4.108l.093-.032a13.543 13.543 0 004.757-3.371 15.772 15.772 0 002.274-3.2c.236-.448.349-.579.6-.707.14-.073.215-.131.215-.183 0-.116 0-.207-.3-.472a2.352 2.352 0 00-1.028-.652.716.716 0 00-.338.108 1.119 1.119 0 01-.594.233c-.9.1-1.66.178-2.3.245-.673.073-1.217.128-1.671.183-.486.058-1.147.116-1.357.116a1.591 1.591 0 01-1.31-.591l-.055-.049a.9.9 0 00-.02.189 1.6 1.6 0 00.524.949c.39.39.524.419.687.419a.866.866 0 00.387-.125 3.042 3.042 0 01.935-.268c1.406-.239 2.617-.443 4.222-.588a1.2 1.2 0 01.253-.032m-4.533-1.773c-.646 0-.981-.3-1.406-.894a1.107 1.107 0 01-.239-.737c0-.317.218-.332.265-.332a.352.352 0 01.227.1l.038.029a1.63 1.63 0 001.278.483c.2 0 .44-.026.7-.052l.082-.009c.614-.084 1.2-.186 1.773-.32a2.886 2.886 0 00.515-.175.72.72 0 01.122-.05 1.919 1.919 0 01.635-.146c.69 0 1.459.355 1.459.833a.6.6 0 01-.422.655 5.347 5.347 0 01-.905.163c-.649.093-2.3.279-3.392.4a7.688 7.688 0 01-.725.044m-1.29-1.523a.736.736 0 00.166.422c.422.594.664.754 1.124.754.157 0 .376-.015.69-.044 1.089-.122 2.734-.309 3.363-.4a5.372 5.372 0 00.871-.154c.09-.026.172-.082.172-.32 0-.163-.48-.486-1.109-.486a1.552 1.552 0 00-.507.122l-.108.044a3.092 3.092 0 01-.579.2c-.591.134-1.182.242-1.811.326l-.087.009c-.25.026-.512.052-.731.052a1.906 1.906 0 01-1.453-.524"/><path d="M59.009 176.502a1.386 1.386 0 00-.518.207.825.825 0 01-.422.1c-.253 0-.533-.189-.885-.632-.4-.486-.486-.693-.486-1.031 0-.294.073-.44.163-.44.073 0 .131.058.25.175a1.349 1.349 0 001.278.588c.367-.015.722-.029 1.089-.058 1.444-.131 2.914-.265 4.254-.425a1.356 1.356 0 00.664-.207.628.628 0 01.384-.178 1.43 1.43 0 01.952.428c.53.4.664.6.664.943a.481.481 0 01-.309.381 1.334 1.334 0 00-.632.7 16.384 16.384 0 01-2.8 3.916 12.939 12.939 0 01-4.856 3.176.75.75 0 01-.218.047c-.134 0-.192-.032-.192-.163 0-.073.073-.134.233-.236a15.181 15.181 0 004.166-3.648 22.652 22.652 0 002.3-3.753 1.212 1.212 0 00.189-.5c0-.058-.073-.073-.146-.073a5.914 5.914 0 00-.62.058c-1.47.163-3.191.367-4.5.617m8.723 5.691a.576.576 0 01-.25.1.138.138 0 01-.146-.146c0-.061.073-.149.2-.236a25.087 25.087 0 003.622-3.5 10.467 10.467 0 001.328-1.826.993.993 0 00.175-.486c0-.1-.146-.247-.367-.381-.119-.073-.236-.1-.236-.192 0-.163.224-.236.5-.236a3.063 3.063 0 011.325.472c.309.192.559.411.559.635 0 .175-.119.32-.384.411a.412.412 0 00-.247.16 80.795 80.795 0 01-1.636 1.753c.445.309.722.559.722.78a.47.47 0 01-.044.221 8.1 8.1 0 00-.029.911v1.531c.017 1.045.017 1.677.017 2.015 0 .53-.239.693-.5.693a.634.634 0 01-.53-.279 1.39 1.39 0 01-.236-.795.991.991 0 01.061-.265 3.071 3.071 0 00.087-.78c.015-.338.032-.632.032-1.194 0-.411.012-1.22.012-1.587a1.641 1.641 0 00-.087-.751 15.562 15.562 0 01-3.945 2.973m19.041-5.89a.978.978 0 01.373-.134 2.638 2.638 0 011.016.239.685.685 0 01.4.544c0 .279-.148.469-.361.469h-.114c-.588-.058-1.3-.1-2.114-.1-.364 0-.678.015-1.342.044 0 .664.015 1.444.026 1.927.026 1.694.061 3.034.087 4.018a1.321 1.321 0 01-.262 1 1.614 1.614 0 01-.967.469c-.224 0-.3-.015-.323-.175a1.07 1.07 0 00-.3-.693 4.033 4.033 0 00-.978-.544c-.137-.058-.163-.1-.163-.207 0-.073.064-.1.163-.1.052 0 .1.015.227.029a7.816 7.816 0 001.287.148c.213 0 .25-.1.25-.341 0-1.924-.012-3.147-.038-4.545a15.041 15.041 0 01-2.352 2.943 12 12 0 01-2.891 2.163.759.759 0 01-.288.1c-.09 0-.116-.1-.116-.175s.064-.148.189-.25a17.643 17.643 0 002.568-2.577 21.215 21.215 0 002.079-3.06 19.128 19.128 0 00-2.131.425 1.935 1.935 0 00-.687.279.541.541 0 01-.413.148c-.2 0-.477-.207-.85-.693a1.542 1.542 0 01-.4-.868c0-.163.076-.338.163-.338.049 0 .1.044.163.116a1.371 1.371 0 001.028.53c.137 0 .338-.015.638-.044.74-.087 1.677-.207 3.278-.367 0-1.531-.012-1.93-.023-2.149-.023-.384-.061-.486-.2-.574a1.919 1.919 0 00-.591-.236c-.125-.029-.163-.029-.163-.134 0-.073.09-.175.189-.25a.69.69 0 01.486-.146 2.839 2.839 0 011.141.279c.338.175.5.352.5.6a1.1 1.1 0 01-.189.515 1.672 1.672 0 00-.137.737 29.4 29.4 0 00-.026 1.278c.6-.058 1.016-.087 1.668-.16a.9.9 0 00.5-.148m9.41-2.654a2.039 2.039 0 00-.722-.279c-.131-.029-.16-.044-.16-.1 0-.087.119-.189.233-.28a.8.8 0 01.445-.131 3.5 3.5 0 011.264.309c.486.221.824.428.824.78a.615.615 0 01-.178.428c-.1.1-.16.294-.16.809a25.566 25.566 0 01-.37 5.06 5.427 5.427 0 01-1.47 2.693 8.494 8.494 0 01-4.4 2.163 1.384 1.384 0 01-.282.047c-.131 0-.192-.047-.192-.134s.061-.116.21-.178a7.534 7.534 0 004.355-3.4 7.953 7.953 0 00.795-3.249c.044-.635.058-1.633.058-3.607 0-.559-.032-.78-.25-.926m-3.96 1.06c-.073-.192-.277-.355-.722-.559-.114-.061-.16-.076-.16-.148 0-.044.058-.116.16-.16a1.041 1.041 0 01.472-.119 2.771 2.771 0 011.106.4c.486.265.763.588.763.85a.663.663 0 01-.175.413.928.928 0 00-.1.5c-.047 1.162-.076 2.4-.09 4.21 0 .44-.175.632-.515.632-.236 0-.472-.192-.664-.53a1.8 1.8 0 01-.192-.824 1.368 1.368 0 01.079-.425 3.8 3.8 0 00.073-.678c.029-.559.041-1.162.041-2.341a4.053 4.053 0 00-.073-1.22m14.289 3.407c.885.37 1.368.824 1.368 1.485a.733.733 0 01-.632.783 1 1 0 01-.809-.428 7.9 7.9 0 00-1.06-1.074 4.37 4.37 0 00-1.531-.838v2.559c0 .617.029 1.974.058 3.561 0 .562-.247.693-.542.693a.678.678 0 01-.62-.338 2.491 2.491 0 01-.323-1.165 1.533 1.533 0 01.073-.425.519.519 0 00.076-.25c.015-.192.044-.6.055-3.3.017-1.4 0-2.649 0-4.032a8.158 8.158 0 00-.055-1.249.684.684 0 00-.312-.341 2.064 2.064 0 00-.512-.236c-.1-.029-.148-.073-.148-.131 0-.09.1-.163.192-.221a.867.867 0 01.413-.134 3.521 3.521 0 011.485.4c.4.175.588.411.588.69a.625.625 0 01-.25.472.463.463 0 00-.1.294c-.047.413-.076 1.281-.076 2.649a8.315 8.315 0 012.664.574m10.421-.688a.456.456 0 00.294-.1.5.5 0 01.338-.16 1.936 1.936 0 01.766.323c.323.25.559.428.559.632 0 .224-.116.28-.265.355a.55.55 0 00-.28.338 13.087 13.087 0 01-1.959 3.444 9.475 9.475 0 01-3.249 2.547.854.854 0 01-.224.073c-.1 0-.146-.032-.146-.134 0-.044.073-.116.207-.221a10.241 10.241 0 002.78-3.06 11.179 11.179 0 001.517-3.386 2.714 2.714 0 00-.352-.017c-.457 0-.926.032-1.412.058-.841.047-1.724.134-2.678.239.012.719.044 1.176.073 1.645.012.3.044.576.044.769 0 .306-.146.454-.428.454-.472 0-.737-.5-.737-.9 0-.134.044-.207.044-.384 0-.777-.012-1.118-.055-1.706a.666.666 0 00-.163-.425 1.432 1.432 0 00-.428-.355c-.1-.044-.131-.073-.131-.116 0-.09.221-.207.381-.207a1.971 1.971 0 01.78.236 3.152 3.152 0 01.5.338 4.793 4.793 0 00.69-.029c.326-.015.6-.044 1.019-.073v-1.107a1.184 1.184 0 00-.076-.512.483.483 0 00-.25-.207 1.694 1.694 0 00-.338-.09c-.058-.012-.09-.026-.09-.073s.032-.1.1-.16a.717.717 0 01.486-.178 2.628 2.628 0 011.191.323c.236.119.384.265.384.413a.452.452 0 01-.178.4.6.6 0 00-.146.384 7.372 7.372 0 00-.032.737c.574-.047.9-.061 1.459-.1m13.677 2.14c-.341 0-1.092-.073-1.63-.073-.873 0-2.766.058-4.123.218a2.526 2.526 0 00-1.092.279.392.392 0 01-.3.119c-.288 0-.542-.352-.885-1.016a1.484 1.484 0 01-.207-.795c0-.233.067-.352.131-.352.035 0 .09.058.143.134.411.53.608.556.926.556a10.937 10.937 0 001.159-.073 70.038 70.038 0 013.9-.233 1.7 1.7 0 00.862-.207.592.592 0 01.309-.119 1.012 1.012 0 01.5.148c.416.233.7.457.7.824 0 .28-.143.588-.4.588m6.278-2.837c.882-.1 2.1-.224 3.974-.428a.951.951 0 00.512-.207.882.882 0 01.428-.134 2.467 2.467 0 011.147.693c.326.294.355.428.355.606 0 .16-.163.265-.312.338-.2.1-.294.189-.53.632a15.812 15.812 0 01-2.295 3.237 13.667 13.667 0 01-4.827 3.415 1.079 1.079 0 01-.323.087.137.137 0 01-.146-.148c0-.073.116-.131.2-.2a16.948 16.948 0 004.251-4.079 13.716 13.716 0 001.845-3.092 2.139 2.139 0 00.1-.309c0-.044-.029-.044-.1-.044a1.446 1.446 0 00-.236.029c-1.575.148-2.737.338-4.207.588a2.834 2.834 0 00-.885.25 1.037 1.037 0 01-.469.146c-.236 0-.413-.073-.812-.469a1.758 1.758 0 01-.574-1.074c0-.25.073-.413.146-.413s.09.032.224.148a1.433 1.433 0 001.191.544c.192 0 .824-.058 1.339-.116m.707-2.812a21.068 21.068 0 001.793-.323 3.315 3.315 0 00.661-.236 1.829 1.829 0 01.576-.131c.646 0 1.278.338 1.278.661a.444.444 0 01-.291.486 5.834 5.834 0 01-.9.16c-.617.087-2.207.265-3.371.4-.294.029-.53.044-.7.044-.53 0-.824-.207-1.264-.824a.936.936 0 01-.207-.635c0-.1.026-.16.087-.16s.087.044.16.1a1.786 1.786 0 001.386.515c.233 0 .515-.029.795-.058"/></g></svg>