<svg xmlns="http://www.w3.org/2000/svg" width="104.66" height="100"><defs><clipPath id="a"><path data-name="長方形 526" fill="#79c9bc" d="M0 0h104.66v100H0z"/></clipPath></defs><g data-name="グループ 229" clip-path="url(#a)" fill="#79c9bc"><path data-name="パス 401" d="M104.66 85.347c-.518.671-1.079 1.262-2.043.9-.941-.356-1.028-1.143-1.03-2.01-.024-11.242-.339-22.471-1.4-33.67a140.52 140.52 0 00-3.3-20.745c-1.23-4.933-2.762-9.759-5.589-14.057C88.7 11.819 85.246 9.377 80.3 9.5a2.319 2.319 0 01-1.611-.811 7.4 7.4 0 00-11.947-.012 2.777 2.777 0 01-1.717.818c-1.178.134-2.382 0-3.571.072a12.128 12.128 0 00-11.062 9.344 14.968 14.968 0 011.96 2.484 7.17 7.17 0 01-2.565 8.663 1.888 1.888 0 00-.9 1.348 20.777 20.777 0 01-5.628 10.344c-.75.749-.746 1.238.047 1.946a15.483 15.483 0 006.536 3.426c2.14.553 4.3 1.024 6.444 1.56a1.544 1.544 0 011.354 1.829 1.49 1.49 0 01-1.951 1.141c-4.359-1.019-8.853-1.65-12.676-4.266-.039-.026-.124.015-.145.018-.18 2.073-.265 4.145-.554 6.189a34.633 34.633 0 01-6.808 16.723c-1.265 1.633-2.141 1.646-3.4.036a34.817 34.817 0 01-6.937-17.415c-.235-1.836-.307-3.693-.462-5.646a9.194 9.194 0 01-1.372.815 2.427 2.427 0 00-1.559 1.941c-.362 1.555-.734 3.114-1.218 4.635a8.438 8.438 0 001.949 8.883c2.508 2.683 5.047 5.341 7.654 7.927 1.326 1.315 2.829 2.452 4.258 3.662.886.75 1.084 1.672.5 2.389s-1.5.717-2.439-.01c-.081-.062-.164-.123-.239-.191-2.8-2.539-5.718-4.959-8.353-7.657a60.844 60.844 0 01-5.509-6.8 7.807 7.807 0 01-1.232-6.432c.384-1.794.78-3.586 1.165-5.38.059-.276.093-.558.166-1-3.827.972-7.487 1.875-11.124 2.863a1.833 1.833 0 00-1.045 1.084 38.091 38.091 0 00-1.156 4.54C3.585 67.123 3.3 75.8 3.051 84.48a8.244 8.244 0 002.378 6.368c2.142 2.183 4.4 4.249 6.618 6.361a1.541 1.541 0 01.34 2.174 1.515 1.515 0 01-2.259.2 44.368 44.368 0 01-8.081-8.056A9.178 9.178 0 01.015 85.37c.4-6.728.547-13.474 1.122-20.185a109.343 109.343 0 011.989-11.339A4.911 4.911 0 017.22 49.71c3.515-.79 7.006-1.69 10.5-2.584a15.49 15.49 0 006.612-3.5 1.1 1.1 0 00.058-1.827A21.128 21.128 0 0118.612 31.2a1.578 1.578 0 00-.639-.923 6.559 6.559 0 01-3.035-4.182c-.867-3.186 0-5.314 2.786-7.067a1.138 1.138 0 00.361-.837c.033-1.736.073-3.476.005-5.21a10.539 10.539 0 013.682-8.411 18.1 18.1 0 0123.971-.07 10.385 10.385 0 013.738 8.381 5.9 5.9 0 00.085.816c.6-.85 1.09-1.587 1.622-2.292a11.146 11.146 0 017.482-4.536c1.71-.25 3.454-.265 5.178-.435a1.966 1.966 0 001.141-.448 10.429 10.429 0 0115.435 0 1.708 1.708 0 001.033.467 14.342 14.342 0 019.953 4.563A30.406 30.406 0 0197.714 22a100.8 100.8 0 015.24 25.731c.749 8.575 1.053 17.19 1.557 25.786.028.47.1.938.149 1.406zm-63.888-72.9a9.627 9.627 0 01-6.551 2.149c-2.889-.007-5.778-.219-8.665-.377a1.518 1.518 0 11.2-3.029c1.7.052 3.4.274 5.095.265a32.826 32.826 0 005.974-.352c2.512-.482 4.324-3.561 3.85-6.081a1.079 1.079 0 00-.566-.6 15.025 15.025 0 00-16.583 2.715 7.572 7.572 0 00-2.374 5.763c.071 2.279.022 4.561.013 6.841-.007 1.551-.315 1.9-1.861 2.076a1.516 1.516 0 00-1.515 1.483 4.589 4.589 0 00.775 3.4 2.163 2.163 0 001.164.9c1.327.178 1.579 1.069 1.757 2.142a17.746 17.746 0 004.021 8.793 11.479 11.479 0 006.535 4.092c3.6.712 6.548-.661 9.076-3.092a17.621 17.621 0 005.067-10.238A1.78 1.78 0 0147.7 27.64c1.731-.411 2.882-3.907 1.732-5.257a2.316 2.316 0 00-1.354-.551c-1.245-.184-1.656-.577-1.661-1.85-.011-2.587.006-5.174-.007-7.761-.011-2.191-1.1-3.852-2.744-5.479a9.2 9.2 0 01-2.89 5.7m-4.759 51.29a1.45 1.45 0 00.151-.776q-.73-8.276-1.485-16.556a3.466 3.466 0 00-.111-.455h-1.607c-.118 1.19-.25 2.427-.361 3.667-.373 4.164-.709 8.332-1.129 12.491a4.07 4.07 0 00.635 2.697c.535.857 1.048 1.726 1.716 2.831.831-1.471 1.526-2.674 2.188-3.895m-7.034-7.98l.679-7.549c.031-.339.054-.678.083-1.018.2-2.393.523-1.763-1.849-2.719a36.7 36.7 0 001.087 11.286m10.441-11.232c-1.712.685-1.739.687-1.588 2.561.235 2.911.511 5.819.856 8.725a38.44 38.44 0 00.968-11.276 1.1 1.1 0 00-.235-.01"/><path data-name="パス 402" d="M79.635 75.01a6.654 6.654 0 015.436 11.884c-3.646 2.74-7.308 5.46-10.944 8.215a3.276 3.276 0 01-2.173.641 21.177 21.177 0 00-3.949.284 2.486 2.486 0 00-2.27 2.373c-.137 1.451-1.186 1.955-2.49 1.266-1.684-.89-3.4-1.748-4.987-2.785-2.418-1.576-4.774-3.253-7.095-4.971a5.5 5.5 0 01-2.148-3.593 80.2 80.2 0 01-1.084-21.044 12.837 12.837 0 015-9.373 25.665 25.665 0 017.612-3.615c1-.339 2.014-.634 2.979-1.048 1.089-.467 1.49-2.52.643-3.162a17.883 17.883 0 01-6.617-10.48 1.98 1.98 0 00-.808-1.03 7.027 7.027 0 01-3.14-6.385c.043-2.347 1-4.151 3.4-4.9.014-.281.033-.517.038-.753a15.677 15.677 0 0131.344-.208c.017.391.237.993.526 1.118a4.685 4.685 0 012.888 4.436 7.649 7.649 0 01-3.127 6.709c.573.473 1.1.892 1.606 1.33a4.539 4.539 0 011.289 5.531 16.5 16.5 0 01-2.152 2.517 4.712 4.712 0 00-1 1.564c-.313 1.12-.837 1.7-1.742 1.581-.943-.122-1.415-.9-1.313-2.063.155-1.766 1.273-2.853 2.577-3.855 1.386-1.064 1.358-2.16-.019-3.243-.158-.124-.328-.231-.55-.386-.152.351-.289.652-.412.958a16.342 16.342 0 01-5.241 7.16 1.833 1.833 0 00-.838 2.039 1.953 1.953 0 001.472 1.734c.454.142.912.276 1.353.453 2.33.935 4.675 1.839 6.975 2.846a1.491 1.491 0 01.865 2.167c-.431.805-1.284.953-2.294.523-2.03-.864-4.081-1.677-6.129-2.5-.914-.366-1.859-.657-2.76-1.053a3.9 3.9 0 01-2.3-2.818c-.083-.351-.187-.7-.3-1.115a14.766 14.766 0 01-10.212-.007c-.182 2.775-1.936 3.905-4.2 4.654a68.046 68.046 0 00-6.382 2.415c-3.861 1.724-5.709 4.94-6.056 9.015a82.575 82.575 0 00.893 18.626 4.786 4.786 0 001.082 2.661c2.987 2.864 6.639 4.77 10.246 6.838 1.054-2.053 2.838-2.872 5.018-3.362-.4-.32-.669-.554-.956-.77q-3.431-2.573-6.868-5.139a6.622 6.622 0 01-2.679-4.309c-.379-2.212-.8-4.419-1.113-6.641-.329-2.342-1.126-4.626-.738-7.062a8.813 8.813 0 0111.933-7.016 29.225 29.225 0 014.3 2.306 1.041 1.041 0 001.346 0 24.758 24.758 0 012.7-1.635 9.491 9.491 0 016.793-1.1 9.321 9.321 0 016.869 9.069 1.5 1.5 0 01-1.4 1.581 1.517 1.517 0 01-1.65-1.449c-.027-.2-.014-.408-.029-.612-.283-3.835-4.04-7.165-8.253-5.156a40.905 40.905 0 00-4.378 2.59 1.9 1.9 0 01-2.671-.006 33.069 33.069 0 00-4.382-2.579c-3.7-1.63-7.631.44-8.049 4.469-.239 2.3.379 4.691.636 7.3a7.129 7.129 0 016.76-1.509c1.267-2.906 3.353-4.591 6.555-4.519 3.02.067 4.979 1.73 6.2 4.519l.548-.121M57.89 33.47a8.018 8.018 0 014.117-4.479c1.954-.94 4.015-1.657 6.02-2.494 1.723-.719 3.476-1.383 5.136-2.228 1.892-.963 3.314-2.35 3.469-4.684a1.371 1.371 0 011.635-1.3 1.474 1.474 0 011.358 1.621 7.047 7.047 0 01-2.553 5.361 22.552 22.552 0 01-7.351 3.884c-1.811.685-3.661 1.286-5.421 2.085-3.419 1.552-4.614 3.95-3.755 7.621 1.182 5.054 3.87 8.931 9.058 10.5a11.451 11.451 0 0012.614-4.508 15.275 15.275 0 002.817-6.814 2.17 2.17 0 011.707-2.078c1.381-.4 1.825-1.762 1.971-3.083.173-1.571-.075-2.748-2.054-2.736-.981.006-1.3-.822-1.349-1.733a30.048 30.048 0 00-.266-4.063 12.589 12.589 0 00-24.939 2.294c-.008.681.023 1.363-.017 2.042a1.476 1.476 0 01-1.291 1.485c-1.96.374-2.5 1.191-2.043 3.176.117.507.338.989.6 1.725.238-.709.372-1.16.539-1.6m23.082 51.625a3.6 3.6 0 10-1.789-6.577 3.293 3.293 0 01-1.459.609c-.907.048-1.389-.7-1.439-1.961a3.518 3.518 0 00-2.412-3.32 3.366 3.366 0 00-3.859 1.08 5.669 5.669 0 00-.867 2.324c-.115.7-.149 1.354-.844 1.725-.748.4-1.35.062-1.971-.367a3.571 3.571 0 00-5.171.98 3.507 3.507 0 001.242 4.949 5.425 5.425 0 002.338.544c2.652.065 5.308.025 7.962.025 2.756 0 5.513.03 8.269-.011m-8.262 7.228l5.42-4.056H67.296l5.414 4.056"/><path data-name="パス 403" d="M94.867 61.627c-1.139.035-1.958 1.016-1.549 1.914 1.8 3.958 1.438 8.139 1.268 12.266-.149 3.631-.635 7.247-.951 10.871a4.625 4.625 0 01-2.22 3.7q-4.735 3-9.49 5.969c-.46.288-.97.5-1.429.786a1.489 1.489 0 00-.636 2.019 1.461 1.461 0 002 .679c4.451-2.353 8.876-4.746 12.676-8.127 1.834-1.632 2.154-3.848 2.313-6.031.385-5.288.635-10.588.839-15.888a15.753 15.753 0 00-1.387-6.949c-.311-.713-.747-1.211-1.432-1.209"/><path data-name="パス 404" d="M33.797 85.159a1.742 1.742 0 001.73-1.747 1.786 1.786 0 00-1.8-1.7 1.73 1.73 0 00-1.651 1.719 1.675 1.675 0 001.716 1.731"/><path data-name="パス 405" d="M35.527 91.585a1.786 1.786 0 00-1.8-1.7 1.728 1.728 0 00-1.647 1.821 1.67 1.67 0 001.715 1.628 1.742 1.742 0 001.729-1.748"/><path data-name="パス 406" d="M33.807 39.092a7.709 7.709 0 005.645-2.535 1.534 1.534 0 10-2.182-2.139c-2.434 2.175-4.515 2.164-7-.037a1.53 1.53 0 10-2.185 2.135 7.741 7.741 0 005.718 2.576"/><path data-name="パス 407" d="M27.7 27.802a4.621 4.621 0 003.421-1.289 1.5 1.5 0 00.184-2.111 1.438 1.438 0 00-2.091-.237 1.9 1.9 0 01-2.662 0 1.43 1.43 0 00-2.088.25 1.506 1.506 0 00.2 2.108 4.354 4.354 0 003.038 1.283"/><path data-name="パス 408" d="M39.645 27.802a4.5 4.5 0 003.243-1.248 1.532 1.532 0 00.255-2.108 1.447 1.447 0 00-2.16-.25 1.866 1.866 0 01-2.576 0 1.452 1.452 0 00-2.163.252 1.437 1.437 0 00.279 2.083 26.96 26.96 0 002.986 1.546l.135-.272"/><path data-name="パス 409" d="M72.719 47.256a6.419 6.419 0 004.679-2.062 1.556 1.556 0 00.114-2.27 1.51 1.51 0 00-2.26.089c-1.827 1.585-3.248 1.575-5.114-.035a1.529 1.529 0 10-2.152 2.165 6.435 6.435 0 004.733 2.113"/><path data-name="パス 410" d="M78.59 37.564a4.434 4.434 0 003.164-1.186 1.516 1.516 0 00.3-2.173 1.475 1.475 0 00-2.17-.224 1.862 1.862 0 01-2.576-.029 1.464 1.464 0 00-2.1.211 1.5 1.5 0 00.229 2.179 4.417 4.417 0 003.149 1.223"/><path data-name="パス 411" d="M66.817 37.564a4.414 4.414 0 003.226-1.28 1.516 1.516 0 00.18-2.11 1.458 1.458 0 00-2.093-.234 1.893 1.893 0 01-2.657-.01 1.464 1.464 0 00-2.091.254 1.5 1.5 0 00.208 2.108 4.4 4.4 0 003.228 1.272"/></g></svg>