<svg xmlns="http://www.w3.org/2000/svg" width="111.663" height="100"><defs><clipPath id="a"><path fill="#79c9bc" d="M0 0h111.663v100H0z"/></clipPath></defs><g clip-path="url(#a)" fill="#79c9bc"><path d="M0 56.973a7.886 7.886 0 015.976-6.117c.316-.079.627-.182.94-.276 2.606-.783 5.195-1.627 7.824-2.321a3.124 3.124 0 002.483-2.1 2.1 2.1 0 012.257-1.68l.337-.462a4.874 4.874 0 01-1.056-.505 18.847 18.847 0 01-7.008-12.624 1.356 1.356 0 00-.555-.92c-3.507-1.858-4.352-4.058-2.966-7.974a6.549 6.549 0 01-3.292-4.726 6.122 6.122 0 012.2-5.831 1.636 1.636 0 00.688-1.55 5.435 5.435 0 016.642-5.755 1.953 1.953 0 001.436-.276A16.764 16.764 0 0126.661 0c3.593.013 7.2-.007 10.774.275A13.985 13.985 0 0145.1 3.653a2.015 2.015 0 001.935.5 5.434 5.434 0 016.5 5.9 1.412 1.412 0 00.294 1.037c3.826 3.7 3.592 7.71-.6 10.864a16.986 16.986 0 01.527 3.1c-.028 2.312-1.388 3.791-3.352 4.84a1.7 1.7 0 00-.829 1.064 18.829 18.829 0 01-7.128 12.67c-.246.2-.568.3-.762.639a2.74 2.74 0 012.546 2.119 2.738 2.738 0 002.082 1.791c2.762.76 5.491 1.641 8.233 2.474.278.084.561.153.834.25a1.646 1.646 0 11-.95 3.122c-1.915-.56-3.821-1.15-5.732-1.725-.274-.082-.553-.15-.908-.246-.149.3-.306.573-.428.863a43.374 43.374 0 01-15.119 18.876c-1.369.973-1.772.976-3.111.028A43.441 43.441 0 0114.1 53.131c-.155-.362-.33-.715-.538-1.164L4.774 54.7c2.355 2.352 4.417 4.5 6.579 6.548A10.974 10.974 0 0114.9 69.8c-.087 9.2-.029 18.393-.031 27.589a8.363 8.363 0 01-.038 1.2 1.47 1.47 0 01-1.439 1.378 1.432 1.432 0 01-1.646-1.111 5.44 5.44 0 01-.142-1.4c-.008-9.306-.041-18.611.019-27.917A7.518 7.518 0 009.2 63.716c-1.94-1.856-3.8-3.8-5.93-5.949V97.02c0 .254-.01.509 0 .763.042.934-.128 1.791-1.133 2.121S.487 99.668 0 98.854zM17.917 6.514a5.632 5.632 0 01-.527 6.617c-.174.223-.066.747.038 1.094a6.424 6.424 0 01-1.128 6.152 7.549 7.549 0 01-3.843 2.335 2.075 2.075 0 00-1.591 2.3 2.165 2.165 0 001.879 1.966c1.987.487 2 .508 2.178 2.6.024.29.054.579.084.868a15.769 15.769 0 0031.407-.652c.143-2.269.143-2.269 2.284-2.845a2.133 2.133 0 001.249-3.533 3.991 3.991 0 00-1.68-.911 6.454 6.454 0 01-4.312-8.379 1.289 1.289 0 000-.991 5.634 5.634 0 01-.531-6.623 12.652 12.652 0 00-7.632-3.158c-3.045-.135-6.1-.1-9.148-.08a13.457 13.457 0 00-8.722 3.239m24.96 47.939c-.026 0-.065-.011-.075 0-1.123 1.377-2.23 2.767-3.369 4.131a3.576 3.576 0 01-5.871-.066c-.369-.46-.715-.938-1.072-1.407-.2 2.13-.189 4.154-.21 6.178-.012 1.146-.609 1.824-1.56 1.86-.98.038-1.655-.676-1.7-1.853-.032-.87-.007-1.743-.008-2.614v-3.773c-.636.807-1.033 1.373-1.491 1.882a3.521 3.521 0 01-5.44.007c-.533-.593-1.009-1.238-1.51-1.86-.319-.4-.632-.8-.954-1.189s-.637-.764-.955-1.145a36.823 36.823 0 0011.948 14.256C35.55 65.7 41.331 58.665 42.882 54.452m3.836-38.263a3.442 3.442 0 002.833 3.249 3.173 3.173 0 003.485-2.159 3.127 3.127 0 00-1.639-3.83c-1.85-.942-1.947-1.181-1.267-3.1a2.245 2.245 0 00-1.213-2.887 2.182 2.182 0 00-2.724.938 2.154 2.154 0 00.7 2.955c1.4 1.062 1.475 1.6.568 3.075a12.053 12.053 0 00-.744 1.762m-35.39 3.267a3.14 3.14 0 002.764-1.631 3.084 3.084 0 00-.07-3.209c-1.116-1.85-1.09-2.024.57-3.374a2.135 2.135 0 00.509-2.914 2.191 2.191 0 00-2.756-.847 2.263 2.263 0 00-1.191 2.734c.653 2.178.653 2.178-1.4 3.319a3.162 3.162 0 001.567 5.922m30.11 28.919l-8.281 4.143 3.333 4.432c.363-.418.6-.677.825-.953 1.409-1.756 2.757-3.565 4.243-5.253.786-.893.656-1.553-.121-2.368m-13.25 4.135l-8.311-4.147c-.879 1.344-.877 1.343-.01 2.427q2.073 2.593 4.142 5.188c.237.3.508.564.859.95l3.319-4.418M24.3 46.908c2 1.006 4 2.02 6.018 3a.926.926 0 00.715-.007c2.172-1.065 4.331-2.157 6.493-3.242a22.414 22.414 0 01-13.226.244"/><path d="M103.053 66.422a24.821 24.821 0 01-40.3-.01c-3.007 1.27-4.979 3.433-5.178 6.754-.2 3.4-.1 6.829-.111 10.245-.012 4.689 0 9.378-.008 14.067a5.283 5.283 0 01-.125 1.4 1.293 1.293 0 01-1.55 1.051 2.711 2.711 0 01-1.438-1.075 2.936 2.936 0 01-.15-1.49c-.007-7.2.087-14.4-.037-21.59-.082-4.762 1.226-8.732 5.309-11.377a21.98 21.98 0 01-1.225-3.387 7.174 7.174 0 013.008-7.44 2.011 2.011 0 00.7-1.185 6.981 6.981 0 012.137-4.293 1.47 1.47 0 00.373-1.1 20.475 20.475 0 00-2.066-6.321c-3.88-8.166-3.266-16.182 2.057-23.471 5.43-7.435 13-10.559 22.133-9.134a22.653 22.653 0 0119.136 20.213 23.723 23.723 0 01-3.232 14.427c-.785 1.377-.853 3.168-1.2 4.78-.034.158.244.418.423.581a6.4 6.4 0 012.163 4.374 1.652 1.652 0 00.6 1.048c3.534 2.67 4.3 6.593 1.991 10.381-.074.122-.125.258-.209.434a10.9 10.9 0 014.831 6.232 13.859 13.859 0 01.552 3.64c.048 7.887.025 15.775.024 23.662a3.967 3.967 0 01-.023.653 1.545 1.545 0 01-1.593 1.48 1.528 1.528 0 01-1.621-1.443 6.5 6.5 0 01-.032-1.088c0-7.742.011-15.484-.007-23.226a7.948 7.948 0 00-5.327-7.794m-2.194-27.973c.149-.282.264-.457.339-.647a19.355 19.355 0 001.118-10.157 19.643 19.643 0 10-35.884 13.7 5.49 5.49 0 01.764 2.311 15.338 15.338 0 004.231 9.352 15.065 15.065 0 0015.406 4.5c6.025-1.543 9.782-5.6 11.425-11.567.793-2.881.534-5.623-1.595-7.938a13.268 13.268 0 00-1.4-1.164 1.377 1.377 0 00.209.853 5.235 5.235 0 01-.335 5.766 5.164 5.164 0 01-5.304 2.271 5.327 5.327 0 01-4.464-3.963 2.3 2.3 0 00-2.483-1.753 2.251 2.251 0 00-2.425 1.833 5.484 5.484 0 11-10.513-3.124 5.192 5.192 0 014.022-3.742 5.381 5.381 0 015.4 1.794 1.372 1.372 0 001.12.43 7.084 7.084 0 014.894.033.928.928 0 00.837-.154 6.274 6.274 0 013.977-2.34c-5-1.563-10.121-2.67-14.235-5.384-1.919 1.564-3.609 3.028-5.395 4.363a1.647 1.647 0 01-2.56-.305c-.535-.862-.246-1.792.872-2.433a13.192 13.192 0 004.656-4.638c.872-1.406 1.6-1.427 3.066-.6a54.631 54.631 0 006.866 3.454c2.523.987 5.2 1.579 7.805 2.359 3.951 1.183 7.553 2.868 9.579 6.894m-1.072 26.645c-1.12-.455-2.178-.837-3.191-1.314a1.35 1.35 0 00-1.707.312 21.415 21.415 0 01-3.817 2.853 16.964 16.964 0 01-20.267-2.941c-.245-.234-.725-.487-.983-.4-1.259.427-2.48.967-3.734 1.475a21.124 21.124 0 0033.7.009m-7.62-2.967a10.039 10.039 0 01-1.653-1.379 1.231 1.231 0 00-1.637-.449 16.59 16.59 0 01-8.151.837c-1.6-.252-3.176-.655-4.718-.98l-2.258 1.978c4.329 4.613 13.373 5.06 18.417-.008m.654-3.6a5.865 5.865 0 00.855.57c2.956 1.2 5.912 2.395 8.891 3.529a1.23 1.23 0 001.028-.412 4.015 4.015 0 00-1.4-6.164c-1.231-.592-1.888-1.3-1.666-2.77a7.671 7.671 0 00-.322-2.22l-.358-.037a19.9 19.9 0 01-7.028 7.5m-19.736.025a21.262 21.262 0 01-7.225-7.547 3.746 3.746 0 00-.587 2.015c.379 1.675-.382 2.436-1.768 3.109a4.059 4.059 0 00-1.3 6.069.994.994 0 001.369.38c2.711-1.131 5.451-2.191 8.173-3.292a14.675 14.675 0 001.339-.733m-.08-18.4a2.2 2.2 0 002.017 2.37 2.269 2.269 0 002.37-2.049 2.22 2.22 0 00-2.048-2.348 2.16 2.16 0 00-2.339 2.026m15.472.2a2.233 2.233 0 002.232 2.178 2.3 2.3 0 002.177-2.264 2.268 2.268 0 00-2.263-2.167 2.209 2.209 0 00-2.147 2.254"/><path d="M49.722 83.37v14.278a4.385 4.385 0 01-.07 1.082 1.6 1.6 0 01-3.126-.007 5.035 5.035 0 01-.07-1.191c0-9.373.021-18.746-.016-28.119a10.291 10.291 0 013.207-7.812c.94-.908 1.84-1.859 2.777-2.771s1.864-1.01 2.587-.315c.745.715.641 1.7-.31 2.668s-1.887 1.915-2.854 2.848a6.776 6.776 0 00-2.133 5.17c.034 4.723.011 9.446.011 14.169m17.425 4.352v9.906a4.552 4.552 0 01-.081 1.079 1.492 1.492 0 01-1.65 1.263 1.516 1.516 0 01-1.51-1.432 4.861 4.861 0 01-.026-.761v-20.03a4.764 4.764 0 01.036-.868 1.516 1.516 0 011.459-1.369 1.462 1.462 0 011.643 1.125 4.245 4.245 0 01.127 1.18c.009 3.3.005 6.6.005 9.906m31.572-.105v-9.687c0-.4-.107-.909.093-1.17.38-.495.929-1.144 1.439-1.172s1.147.546 1.557 1.008c.235.265.173.831.174 1.261q.014 9.905 0 19.81a4.939 4.939 0 01-.108 1.076 1.582 1.582 0 01-3.109-.136 7.562 7.562 0 01-.048-1.085v-9.905M30.62 38.041a6.48 6.48 0 01-4.933-2.363 1.6 1.6 0 01-.067-2.253 1.613 1.613 0 012.333-.041c.3.255.57.561.891.793a3.083 3.083 0 003.819-.126c.28-.228.522-.5.8-.728a1.576 1.576 0 012.242.1 1.5 1.5 0 01.019 2.159 6.478 6.478 0 01-5.107 2.456M21.292 25.84c.018-.4.015-.8.057-1.189a1.48 1.48 0 011.507-1.422 1.426 1.426 0 011.608 1.287 10.38 10.38 0 01.046 2.366 1.552 1.552 0 01-1.672 1.491 1.579 1.579 0 01-1.516-1.666c-.013-.288 0-.578 0-.866h-.03m15.523-.09c-.024-1.747.5-2.561 1.612-2.547s1.638.844 1.631 2.582a7.515 7.515 0 01-.075 1.184 1.589 1.589 0 01-3.162-.138c-.027-.359 0-.721 0-1.082m46.433 25.845a6.744 6.744 0 01-5.284-2.329 1.578 1.578 0 01-.054-2.329 1.693 1.693 0 012.342.022 7.668 7.668 0 002.3 1.293 2.962 2.962 0 002.889-1.124 1.637 1.637 0 012.625-.03 1.526 1.526 0 01-.06 2.006 6.3 6.3 0 01-4.756 2.49"/></g></svg>