<svg xmlns="http://www.w3.org/2000/svg" width="80.039" height="100"><defs><clipPath id="a"><path data-name="長方形 532" fill="#79c9bc" d="M0 0h80.039v100H0z"/></clipPath></defs><g data-name="グループ 249"><g data-name="グループ 248" clip-path="url(#a)" fill="#79c9bc"><path data-name="パス 431" d="M54.826 0c.69.158 1.383.3 2.069.477a15.653 15.653 0 017.584 4.385 1.192 1.192 0 001.315.459 3.35 3.35 0 014.12 2.631 1.085 1.085 0 001.18.976 3.405 3.405 0 012.872 5.1 1.024 1.024 0 00.284 1.42 3.437 3.437 0 01-1.033 5.78c-.609.265-.846.525-.736 1.228a3.369 3.369 0 01-3.391 3.953 1.045 1.045 0 00-1.186.806c-.722 1.845-1.526 3.659-2.243 5.506a1.092 1.092 0 00.154.966 7.029 7.029 0 012.151 7.625 6.943 6.943 0 01-6.087 5.051 1.912 1.912 0 00-.334.127c-.417 7.2-3.449 13.058-9.44 17.176C46.1 67.8 39.53 68.427 32.563 66.213c0 1.984-.015 3.9.02 5.813a1 1 0 00.44.66 335.547 335.547 0 006.7 4.368 1.119 1.119 0 001-.014q3.125-2.085 6.178-4.276a1.812 1.812 0 00.483-.948 5.222 5.222 0 00.028-.874 1.414 1.414 0 011.388-1.374 1.436 1.436 0 011.507 1.358 12.545 12.545 0 01.008 1.278c4.125 1.66 8.212 3.249 12.251 4.953a45.1 45.1 0 016.2 3.031 15.74 15.74 0 015.77 6.615c1.769 3.585 3.5 7.189 5.235 10.791.5 1.041.283 1.841-.569 2.247-.81.387-1.585.024-2.089-1.012-1.634-3.362-3.278-6.719-4.881-10.095a15.243 15.243 0 00-8.457-7.946c-2.57-1.012-5.121-2.071-7.693-3.077a1.379 1.379 0 00-1.063-.046c-3.253 2.205-6.474 4.457-9.887 6.826.484.036.754.073 1.024.073h11.231a4.539 4.539 0 014.89 4.861c.014 2.9.007 5.794 0 8.691 0 1.206-.565 1.9-1.49 1.87-.894-.028-1.425-.7-1.435-1.852-.012-1.36 0-2.721 0-4.138H43.018l2.009 2.678c.234.313.483.615.7.941a1.45 1.45 0 01-.271 2.081 1.427 1.427 0 01-2.067-.35c-.986-1.252-1.927-2.54-2.89-3.811-.136-.18-.285-.351-.516-.633L37.12 98.5c-.243.305-.471.625-.735.911a1.437 1.437 0 01-2.08.239 1.422 1.422 0 01-.162-2.088c.741-.989 1.529-1.944 2.293-2.916.137-.174.257-.36.5-.7h-4.574a4.672 4.672 0 01-1.07-.044 1.452 1.452 0 01.023-2.845 4.518 4.518 0 01.973-.038h27.053c0-.707.033-1.348-.008-1.983a1.529 1.529 0 00-1.492-1.517 7.694 7.694 0 00-.976-.015H23.27c-2.351 0-2.693.349-2.662 2.722 0 .224.023.448.041.794h3.5c1.209.006 1.911.558 1.9 1.479s-.708 1.444-1.931 1.449h-3.516c0 1.338.005 2.6 0 3.853a4.528 4.528 0 01-.079 1.064 1.343 1.343 0 01-1.5 1.113 1.292 1.292 0 01-1.323-1.321c-.021-3.417-.1-6.839.053-10.249a4.344 4.344 0 014.468-3.834c3.939-.022 7.878-.007 11.817-.007h1.271a8.531 8.531 0 00-.652-.556c-3.112-2.076-6.234-4.138-9.336-6.229a1.243 1.243 0 00-1.335-.123c-2.609 1.088-5.235 2.136-7.857 3.192a15.118 15.118 0 00-8.176 7.582c-1.694 3.44-3.367 6.892-5.1 10.313a2.415 2.415 0 01-1.19 1.149 1.565 1.565 0 01-1.347-.445 1.891 1.891 0 01-.286-1.42 6.575 6.575 0 01.723-1.59c1.491-3.033 3-6.06 4.474-9.1a18.2 18.2 0 019.973-9.269c4.529-1.8 9.032-3.669 13.561-5.469a1.191 1.191 0 00.891-1.35c-.06-1.918 0-3.84-.042-5.76a1.264 1.264 0 00-.476-.926 22.186 22.186 0 01-7.542-7.361c-.029-.047-.1-.067-.292-.187v7.153c-.007 1.321-.508 2.016-1.445 2.021s-1.48-.7-1.481-2q-.007-8.2 0-16.4a6.55 6.55 0 010-.683c.056-.536-.181-.747-.708-.807a17.408 17.408 0 01-1.746-.383v20.288c0 .261.007.521 0 .781-.037 1.068-.583 1.727-1.446 1.749-.893.023-1.478-.658-1.478-1.784-.006-7.421.01-14.842-.026-22.263a4.487 4.487 0 00-.514-2 7.344 7.344 0 011.5-8.85c.214-.195.435-.381.7-.613-.889-2.106-1.861-4.165-2.626-6.3-.677-1.884-1.1-3.858-1.688-5.777a2.488 2.488 0 00-.752-1.221c-2.13-1.606-4.309-3.147-6.465-4.719-.927-.676-1.155-1.505-.647-2.236.549-.79 1.379-.839 2.384-.117 1.794 1.289 3.58 2.59 5.46 3.952.266-1.151.539-2.2.731-3.267.042-.234-.175-.538-.325-.778-.922-1.464-1.86-2.911-2.771-4.374-.6-.959-.459-1.822.329-2.289.76-.45 1.536-.2 2.135.713.586.894 1.153 1.8 1.79 2.8.164-.256.292-.422.386-.606A15.73 15.73 0 0124.7.166 2.3 2.3 0 0025.135 0zm3.924 41.2l-.182-.012c0-2.114.027-4.229-.025-6.342A1.643 1.643 0 0058 33.733a284.055 284.055 0 00-5.956-4.577 4.62 4.62 0 00-5.867-.1 463.584 463.584 0 00-5.115 3.578 1.716 1.716 0 01-2.232-.007 362.831 362.831 0 00-5.1-3.6 4.613 4.613 0 00-5.865.138c-1.972 1.49-3.925 3-5.916 4.468a1.508 1.508 0 00-.661 1.391c.025 3.513-.012 7.026.026 10.539a23.2 23.2 0 00.292 3.493 18.588 18.588 0 0036.5.767 72.449 72.449 0 00.647-8.63m5.494-12.776c-2.067-.11-2.488-.365-3.672-1.854a1.2 1.2 0 00-1.047-.317 3.557 3.557 0 01-4.68-3.994 1.148 1.148 0 00-.539-.93c-2.67-1.303-3.145-3.922-1.079-6.022.207-.211.424-.707.319-.883a3.944 3.944 0 01.191-4.391c-1.3-.137-2.422-.351-3.543-.357-6.085-.034-12.171-.019-18.256-.013-1.2 0-2.414-.038-3.609.073a7.424 7.424 0 00-6.466 4.786 8.4 8.4 0 00-.37 4.754c.211-.079.263-.253.375-.365A15.8 15.8 0 0133.013 14c4.619-.1 9.241-.012 13.861 0a2.436 2.436 0 01.485.041 1.232 1.232 0 011.126 1.359 2.66 2.66 0 01-.991 1.381c-.245.2-.749.123-1.137.123q-6.053 0-12.105-.021c-5.905-.018-10.174 2.667-12.943 7.827-.78 1.454-2.008 1.51-2.912.1-1.474-2.3-2.932-4.608-4.4-6.911-.164-.258-.35-.5-.526-.752l-.362.074a23.14 23.14 0 00.467 5.05c1 3.179 2.362 6.246 3.593 9.352.068.172.309.4.456.394a3.848 3.848 0 002.482-.6c2-1.616 4.068-3.14 6.125-4.68a7.445 7.445 0 019-.22c1.346.911 2.7 1.825 3.983 2.815a1.063 1.063 0 001.525-.028c1.224-.914 2.491-1.772 3.748-2.641a7.492 7.492 0 019.324.161c2 1.5 4.025 2.986 5.961 4.574a4.3 4.3 0 002.668.641c.141.014.377-.218.452-.387.455-1.034.877-2.084 1.351-3.228M57.13 8.772c.951-2.6 1.043-2.7 3.138-3.619a11.662 11.662 0 00-6.6-2.189c-9.143-.051-18.288-.094-27.431.009a12.786 12.786 0 00-11.764 9.275 1.243 1.243 0 00-.033.839c1.213 1.977 2.469 3.928 3.712 5.886a2.87 2.87 0 00.22-1.108 22.257 22.257 0 01.611-3.928c1.479-4.514 5.479-7.194 10.59-7.208 6.508-.018 13.017.031 19.524-.021 2.854-.023 5.584.279 8.028 2.063m.629 14.265c.011.381.352.553.9.383a3.491 3.491 0 014.438 1.6c.341.553.757.626 1.126.045a3.629 3.629 0 014.542-1.634c.563.169.913-.064.813-.694a3.489 3.489 0 012.378-4.159c.656-.268.651-.683.177-1.107a3.491 3.491 0 01-.829-4.645c.306-.59.155-.956-.53-.987a3.5 3.5 0 01-3.659-3.1c-.116-.6-.518-.756-1-.383a3.628 3.628 0 01-4.823.02c-.464-.345-.874-.31-1.009.334a3.567 3.567 0 01-3.661 3.122c-.676.031-.886.385-.569.968a3.493 3.493 0 01-.858 4.713c-.459.412-.395.819.181 1.045 1.954.765 2.715 2.189 2.392 4.478M37.97 82.68c.549.366 1.058.649 1.5 1.015a1.176 1.176 0 001.689.021c3.3-2.357 6.656-4.648 9.989-6.964.282-.2.556-.4.916-.668-.793-.328-1.471-.56-2.1-.883a1.44 1.44 0 00-1.681.175c-3.173 2.261-6.377 4.481-9.568 6.718-.232.163-.447.351-.742.586m23.591-47.66v8.313a4.172 4.172 0 000-8.313M18.3 43.323v-8.33a4.116 4.116 0 00-3.771 4.351 4 4 0 003.771 3.979m9.712 32.735c2.381 1.586 4.647 3.1 6.93 4.6a.761.761 0 00.675.015c.676-.428 1.315-.916 2.038-1.432-2.183-1.429-4.245-2.787-6.322-4.121a.926.926 0 00-.708-.12c-.843.3-1.664.665-2.613 1.055"/><path data-name="パス 432" d="M68.297 90.431a1.488 1.488 0 011.465 1.506 1.446 1.446 0 01-1.5 1.452 1.491 1.491 0 01-1.481-1.491 1.524 1.524 0 011.518-1.467"/><path data-name="パス 433" d="M11.874 90.427a1.515 1.515 0 011.524 1.455 1.5 1.5 0 01-1.469 1.5 1.442 1.442 0 01-1.5-1.445 1.47 1.47 0 011.448-1.511"/><path data-name="パス 434" d="M62.213 16.827a1.46 1.46 0 011.454-1.507 1.512 1.512 0 011.505 1.475 1.535 1.535 0 01-1.473 1.517 1.487 1.487 0 01-1.486-1.485"/><path data-name="パス 435" d="M33.073 41.635c.017 2.012-.611 2.965-1.906 2.924-1.253-.04-1.867-.984-1.861-2.9a8.081 8.081 0 01.085-1.5 1.849 1.849 0 013.677.218c.03.416 0 .836 0 1.254"/><path data-name="パス 436" d="M51.008 41.631c.017 2.015-.607 2.966-1.9 2.928-1.279-.038-1.874-.991-1.865-3.02a7.348 7.348 0 01.083-1.372 1.85 1.85 0 013.679.21c.031.416.005.836.005 1.254"/><path data-name="パス 437" d="M40.192 59.327a10.727 10.727 0 01-7.913-3.873 1.537 1.537 0 01.1-2.192 1.641 1.641 0 012.208.1 17.1 17.1 0 003.139 2.253c2.639 1.218 5 .382 7.106-1.408.371-.315.687-.7 1.069-1a1.545 1.545 0 012.12.151 1.453 1.453 0 01.039 2.045 10.722 10.722 0 01-7.866 3.919"/></g></g></svg>