<svg data-name="グループ 396" xmlns="http://www.w3.org/2000/svg" width="83.203" height="100"><defs><clipPath id="a"><path data-name="長方形 23846" fill="#79c9bc" d="M0 0h83.203v100H0z"/></clipPath></defs><g data-name="グループ 395" clip-path="url(#a)" fill="#79c9bc"><path data-name="パス 545" d="M0 .795A1.856 1.856 0 011.736 0c2.573.03 5.146.011 7.718.012a4.357 4.357 0 01.646.021 1.2 1.2 0 011.1 1.285 1.131 1.131 0 01-1.171 1.116C9 2.46 7.975 2.44 6.888 2.44V4.8c2.594.773 2.887 2.85 2.68 5.114 1.452.492 2.831.95 4.2 1.428.9.315 1.254.922 1 1.653a1.211 1.211 0 01-1.749.636 17.617 17.617 0 00-8.334-1.272c-.324.019-.654-.03-.974.011-.408.052-.809.163-1.213.249.139.5.134 1.149.454 1.473a3.126 3.126 0 001.66.827 16.279 16.279 0 002.757.039 8.874 8.874 0 014.579 1.17c3.5 1.944 7.016 3.856 10.526 5.78.258.141.52.274.862.453v-5.147l-4.118-1.439c-.2-.071-.417-.123-.613-.211a1.208 1.208 0 01-.721-1.529 1.155 1.155 0 011.5-.742c1.214.372 2.41.8 3.613 1.212l.971.331a6.442 6.442 0 016.653-3.436 8.608 8.608 0 012.566-4.867 7.793 7.793 0 015.094-2.24 56.227 56.227 0 016.656.013c3.967.312 6.693 2.9 7.644 7.081.311 0 .653-.005.994 0a6.017 6.017 0 015.3 2.919.671.671 0 00.967.333c3.853-1.346 7.716-2.665 11.578-3.986.69-.236 1.39-.444 2.19-.7-.144-2.2.024-4.342 2.725-5.149V2.449c-.96 0-1.9.007-2.837 0-.958-.009-1.507-.456-1.507-1.206S72.548.018 73.5.015q4.1-.015 8.2 0c.94 0 1.5.487 1.49 1.239s-.559 1.184-1.52 1.193c-.916.008-1.832 0-2.8 0v2.344c2.068.666 2.867 2.183 2.7 4.3a1.6 1.6 0 00.691 1.644 2.592 2.592 0 01.91 2.556 4.623 4.623 0 01-4.425 4.1c-.081 0-.162.008-.244.008-5.251 0-3.978-.234-8.717 2.335-3.139 1.7-6.262 3.431-9.4 5.134a1.645 1.645 0 00-.792 1.023c-.371 1.026-.911 1.99-1.446 3.116.8.973 1.762 2.1 2.68 3.265.6.764 1.168 1.56 1.706 2.371a1.233 1.233 0 01-.262 1.844 1.251 1.251 0 01-1.749-.478c-1.391-1.8-2.8-3.577-4.193-5.375a.751.751 0 00-.95-.32 17.284 17.284 0 01-2.174.345c.2.254.367.48.547.7q1.45 1.752 2.906 3.5a21.621 21.621 0 015.17 14.267c0 .244-.008.488.01.731a1.244 1.244 0 001.2 1.275 1.185 1.185 0 001.2-1.27c-.056-1.647-.114-3.3-.334-4.933a29.888 29.888 0 00-.9-3.7c-.244-.913 0-1.564.724-1.779s1.287.135 1.582 1a26.6 26.6 0 011.376 9.428 3.66 3.66 0 01-3.636 3.7 3.622 3.622 0 01-3.647-3.766 19.9 19.9 0 00-2.4-10.145 20.44 20.44 0 00-1.8-2.7c-1.586-1.99-3.228-3.936-4.867-5.882a1.285 1.285 0 00-.76-.5c-1.375-.049-2.753-.023-4.191-.023v3.024c.572.056 1.139.064 1.686.173a3.406 3.406 0 012.785 3.259q.062 4.914 0 9.83a3.446 3.446 0 01-3.32 3.36 12.788 12.788 0 01-1.38 0 1.156 1.156 0 01-1.192-1.176 1.2 1.2 0 011.15-1.233c.375-.039.757-.012 1.136-.02a1.067 1.067 0 001.178-1.157q.023-4.671 0-9.343a1.078 1.078 0 00-1.149-1.179q-4.671-.032-9.343 0a1.093 1.093 0 00-1.181 1.248q-.018 4.59 0 9.181c0 .852.393 1.233 1.243 1.255.758.019 1.517-.007 2.275.01.886.02 1.414.491 1.411 1.228s-.509 1.19-1.418 1.2c-.866.011-1.734.023-2.6-.012a3.433 3.433 0 01-3.336-3.341q-.068-4.914 0-9.83a3.5 3.5 0 013.488-3.383c.372-.016.746 0 1.163 0v-3.087c-1.5 0-3.009-.015-4.514.019-.188 0-.4.243-.551.42-1.7 2.036-3.438 4.045-5.073 6.133a18.893 18.893 0 00-4.042 12 6.835 6.835 0 01-.182 1.847 3.6 3.6 0 01-3.863 2.559 3.635 3.635 0 01-3.256-3.66A25.843 25.843 0 0120.779 34.5c1.317-1.976 2.876-3.79 4.193-5.505-.511-1.212-.985-2.366-1.492-3.505a1.158 1.158 0 00-.48-.5c-4.216-2.325-8.422-4.668-12.676-6.923a7.5 7.5 0 00-2.644-.646c-.963-.108-1.947-.015-2.922-.028A4.58 4.58 0 01.147 13.91 1.659 1.659 0 000 13.632v-1.463a5.208 5.208 0 01.963-1.455A1.568 1.568 0 001.63 9.14c-.181-2.133.606-3.683 2.7-4.35V2.449c-.947 0-1.837-.033-2.723.01A1.566 1.566 0 010 1.607zm50 10.591a5.412 5.412 0 00-4.628-4.545 47.641 47.641 0 00-7.531 0 5.443 5.443 0 00-4.649 4.548c.412 0 .814-.011 1.215 0 .884.028 1.41.5 1.4 1.235s-.511 1.189-1.424 1.2c-1.57.012-3.141-.009-4.712.007a3.665 3.665 0 00-3.833 3.835q-.016 3.29 0 6.58a3.625 3.625 0 003.853 3.876q11.9.017 23.8 0a3.628 3.628 0 003.864-3.867c.009-2.085 0-4.17 0-6.256 0-2.714-1.449-4.171-4.152-4.172H40.692c-1.061 0-1.584-.4-1.6-1.187-.013-.806.556-1.244 1.637-1.247H50M59.8 22.4c.392-.2.655-.334.911-.475q5.373-2.943 10.742-5.893a8.411 8.411 0 014.2-1.069c1 .006 2 .02 3.006-.016a2.144 2.144 0 002.041-1.673c.153-.611-.017-.926-.706-.918-1.76.02-3.521-.007-5.281.017a4.478 4.478 0 00-1.357.211q-6.568 2.222-13.117 4.5a.759.759 0 00-.421.548c-.034 1.542-.019 3.084-.019 4.764M30 30.685c-.89-.16-1.649-.326-2.417-.414a.9.9 0 00-.644.311c-.679.771-1.31 1.585-1.981 2.363A24.162 24.162 0 0018.943 49.8a1.234 1.234 0 001.233 1.325 1.257 1.257 0 001.184-1.3c.012-.162.009-.325.008-.487A21.752 21.752 0 0126.8 34.533c1.071-1.25 2.1-2.533 3.2-3.848M7.165 9.883c-.174-.9.459-2-.591-2.511a2.479 2.479 0 00-2.048.077c-.9.553-.324 1.6-.468 2.434zm72 0c-.177-.9.421-1.981-.555-2.49a2.5 2.5 0 00-2.055.02c-.946.527-.358 1.591-.515 2.469zM40.5 33.6h2.337v-3H40.5z"/><path data-name="パス 546" d="M41.594 38.309a3.613 3.613 0 013.649 3.653 3.645 3.645 0 01-7.289.01 3.617 3.617 0 013.639-3.663m-1.188 3.538a1.2 1.2 0 102.385.2 1.2 1.2 0 10-2.385-.2"/><path data-name="パス 547" d="M41.64 56.442h22.413c3.826 0 6.195 2.378 6.208 6.206 0 1.233-.275 2.608.176 3.661s1.641 1.816 2.536 2.675a12.422 12.422 0 014.109 10.267c-.159 2.109-.6 4.2-.965 6.288-.49 2.767-.9 5.559-1.607 8.274a48.971 48.971 0 01-2.2 5.806.749.749 0 01-.574.351q-7.2.029-14.393 0a.938.938 0 01-.642-.465c-.3-.56-.374-1.4-.821-1.687-.483-.305-1.288-.117-1.952-.117q-12.961-.005-25.922-.016a.911.911 0 00-1.036.69c-.6 1.626-.632 1.615-2.378 1.615-4.3 0-8.593-.009-12.889.012a.825.825 0 01-.924-.629c-1.041-2.736-2.308-5.39-2.771-8.322-.584-3.7-1.286-7.376-1.8-11.082a12.094 12.094 0 013.336-10.253c.972-1.05 2.03-2.02 3.012-3.062a1.541 1.541 0 00.381-.919c.045-1.12.013-2.243.019-3.364a5.72 5.72 0 015.912-5.929q11.385-.013 22.771 0M55.15 95.367c-1.6-4.607-.659-9.225-.414-13.87l-.632-.172a9.153 9.153 0 012.519-17.99 9.153 9.153 0 017.23 14.58 1.134 1.134 0 00-.216 1.172c.783 2.094 1.542 4.2 2.325 6.292.208.558.582.978 1.244.814s.764-.683.763-1.287q-.013-11.279-.008-22.558a3.42 3.42 0 00-3.589-3.612q-22.775-.007-45.551 0a3.417 3.417 0 00-3.572 3.556q-.012 11.315-.009 22.629c0 .608.128 1.124.778 1.275s1.028-.276 1.235-.832c.788-2.118 1.579-4.236 2.314-6.372a1.309 1.309 0 00-.206-1.013 9.189 9.189 0 016.881-14.655 9.162 9.162 0 014.063 17.58c-.61.263-1.524.373-1.752.828-.275.548.032 1.388.087 2.1 0 .024.008.047.009.071.071 2.571.222 5.144.177 7.713a24.282 24.282 0 01-.639 3.75zm15.108-25.76v15.42a3.276 3.276 0 01-2.568 3.415 3.153 3.153 0 01-3.715-1.96c-.948-2.309-1.781-4.667-2.589-7.029-.384-1.124-.582-2.31-.892-3.46a1.528 1.528 0 00-3.019.2c-.048.33-.075.664-.1 1-.258 3.4-.469 6.809-.783 10.206a19.675 19.675 0 001.689 9.9.758.758 0 00.556.379q5.694.034 11.387 0a.675.675 0 00.52-.322 42.922 42.922 0 001.92-5.525c.722-3.3 1.22-6.659 1.732-10a21.25 21.25 0 00.35-4.541c-.209-3.2-2-5.588-4.488-7.681m-57.3.08a26.944 26.944 0 00-2.106 2.014 9.854 9.854 0 00-2.363 8.049c.352 2.454.817 4.891 1.177 7.344a34.987 34.987 0 002.7 10.043c.144.3.21.574.669.571 3.772-.022 7.544-.007 11.316-.028a.757.757 0 00.574-.351 16.485 16.485 0 001.636-5.966c.069-2.138-.019-4.287-.142-6.425-.167-2.882-.42-5.759-.664-8.635a1.522 1.522 0 00-1.43-1.517 1.56 1.56 0 00-1.623 1.317c-.3 1.13-.492 2.292-.874 3.391-.844 2.425-1.713 4.846-2.7 7.216a3.1 3.1 0 01-3.358 1.791 3.281 3.281 0 01-2.749-2.656 5.848 5.848 0 01-.057-1.069V69.692m7.469 5.486a14.306 14.306 0 011.228-1.651 1.381 1.381 0 00.48-1.085 4.569 4.569 0 116.749 4.054c-.246.133-.5.245-.784.381l.187 2.23a6.726 6.726 0 005.2-5.585 6.862 6.862 0 00-11.547-5.98 6.7 6.7 0 00-1.52 7.631m34.683 1.688a4.588 4.588 0 115.985-4.35 1.263 1.263 0 00.164.713c.5.665 1.051 1.293 1.554 1.9a6.706 6.706 0 00-1.544-7.582 6.862 6.862 0 00-11.522 6.125 6.722 6.722 0 005.178 5.439l.188-2.241M27.617 74.53a2.188 2.188 0 001.288-2.668 2.3 2.3 0 00-2.53-1.643 2.221 2.221 0 00-1.9 2.273 4.017 4.017 0 013.142 2.038m27.992-.007a4.013 4.013 0 013.145-2.034 2.252 2.252 0 00-1.995-2.279 2.311 2.311 0 00-2.474 1.732 2.185 2.185 0 001.324 2.581"/><path data-name="パス 548" d="M35.908 61.065h11.371v6.785H35.908zm9.1 2.3H38.22v2.219h6.788z"/><path data-name="パス 549" d="M31.328 83.983h9.079v9.078h-9.079zm6.818 2.312h-4.519v4.48h4.519z"/><path data-name="パス 550" d="M51.864 93.086h-9.066v-9.1h9.066zm-6.787-2.316h4.5v-4.495h-4.5z"/><path data-name="長方形 23840" d="M38.207 70.252h2.228v2.19h-2.228z"/><path data-name="長方形 23841" d="M42.81 70.22h2.191v2.228H42.81z"/><path data-name="長方形 23842" d="M38.215 74.793h2.187v2.225h-2.187z"/><path data-name="長方形 23843" d="M42.786 74.815h2.203v2.205h-2.203z"/><path data-name="長方形 23844" d="M38.209 79.396h2.199v2.211h-2.199z"/><path data-name="長方形 23845" d="M42.781 79.408h2.224v2.211h-2.224z"/></g></svg>