<svg data-name="グループ 245" xmlns="http://www.w3.org/2000/svg" width="166.626" height="100"><defs><clipPath id="a"><path data-name="長方形 531" fill="#79c9bc" d="M0 0h112.055v100H0z"/></clipPath></defs><g data-name="グループ 242"><g data-name="グループ 246" fill="#79c9bc"><path data-name="パス 424" d="M104.871 99.428c-.57-.122-1.16-.251-1.752-.374a6.224 6.224 0 01-5.011-6.935q1.092-10.907 2.1-21.823a60.261 60.261 0 0110.06-29 32.484 32.484 0 0111.622-10.751 1.13 1.13 0 01.135-.069 6.793 6.793 0 004.123-3.411 6.008 6.008 0 014.331-2.835c.17-.038.334-.1.5-.154h2.743a20.655 20.655 0 012.147.727 7.226 7.226 0 013.69 3.878 1.311 1.311 0 00.623.672c5.617 2.166 9.885 6.022 13.408 10.769a55.407 55.407 0 019.946 23.547c.78 4.334 1.105 8.753 1.566 13.142.529 5.047.941 10.107 1.478 15.153a6.223 6.223 0 01-5.094 7.079c-.545.11-1.088.227-1.671.349l-2.473.214v-5.065a11.868 11.868 0 00-2.951-7.957 20.081 20.081 0 00-7.053-5.068c-2.623-1.213-5.243-2.435-7.87-3.64a3.14 3.14 0 01-2.085-3.211c.033-.692.005-1.386.005-2.163a12.431 12.431 0 01-10.057-.01c0 .812-.031 1.5.006 2.181a3.054 3.054 0 01-1.945 3.142c-1.26.6-2.539 1.154-3.8 1.759-2.83 1.361-5.8 2.456-8.355 4.344a13.671 13.671 0 00-5.379 7.176c-.812 2.783-.376 5.636-.492 8.5zm35.443.573a8.1 8.1 0 01-2.26-4.962 3.777 3.777 0 014.1-4.333 11.4 11.4 0 012.657.851l3.151-1.151c-.337-.407-.709-.917-1.142-1.367a7.906 7.906 0 00-9.769-.415c-.827.671-1.672 1.326-2.558 1.915a3.622 3.622 0 01-4.283-.007c-.76-.5-1.479-1.072-2.189-1.645a7.581 7.581 0 00-5.361-1.743c-3.558.182-6.18 2.24-6.745 5.758a66.917 66.917 0 00-.291 7.1h-2.441c0-1.546-.02-3.448 0-4.943a11.481 11.481 0 012.11-6.788c2.751-3.776 9.557-4.972 13.779-1.653.758.6 1.527 1.179 2.3 1.76a1.479 1.479 0 001.958 0c.605-.462 1.219-.913 1.811-1.392a9.761 9.761 0 017.287-2.27 9.193 9.193 0 017.681 4.63 11.41 11.41 0 011.413 5.545c.03 1.565.006 3.525.006 5.106zm-.2-67.839a14.6 14.6 0 012.424 1.633 65.7 65.7 0 016.23 6.649c6.171 8.234 9.139 17.738 10.378 27.83.476 3.877.7 7.784 1.036 11.678a1.271 1.271 0 01-1.048 1.513c-.725.1-1.29-.386-1.377-1.268a263.098 263.098 0 01-.411-4.779 93.255 93.255 0 00-1.681-13.277 57.113 57.113 0 00-6.486-16.817c-.127-.213-.274-.414-.5-.755 0 1.378-.018 2.546.015 3.712a.989.989 0 00.334.675 2.833 2.833 0 011.192 2.424q-.022 2.323 0 4.647a2.65 2.65 0 01-1.146 2.358c-.471.325-.4.686-.085 1.016a10.479 10.479 0 001.1.935c2.652 2.115 2.689 5.119.012 7.185-.9.7-1.6 1.383-1.374 2.624a.906.906 0 01-.048.375 1.131 1.131 0 01-1.157.918 1.065 1.065 0 01-1.154-.91c-.23-1.57-.093-3.052 1.284-4.139.458-.362.927-.714 1.35-1.114a1.7 1.7 0 00.036-2.617c-.712-.665-1.484-1.266-2.227-1.893-.03.026-.059.039-.064.058a18.562 18.562 0 01-6.626 10.044 1.021 1.021 0 00-.293.7c-.033.989.023 1.982-.027 2.97a1.058 1.058 0 00.726 1.167c1.254.548 2.5 1.125 3.733 1.711 2.953 1.4 6.02 2.582 8.666 4.564 3.851 2.885 6.418 6.537 6.783 11.472.084 1.131.012 2.274.012 3.483.7-.152 1.278-.239 1.833-.4a3.627 3.627 0 002.605-3.761c-.088-1.088-.2-2.173-.307-3.26-.589-6.088-1.238-12.17-1.753-18.264a62.311 62.311 0 00-5.482-21.169 40.568 40.568 0 00-10.393-14.293 19.3 19.3 0 00-6.108-3.626m-22.277 28.544c-.429.392-.837.807-1.288 1.169-2.077 1.671-2.12 2.517.008 4.107a4.333 4.333 0 011.785 4.321 1.188 1.188 0 01-1.58 1.056 1.2 1.2 0 01-.835-1.38 2.082 2.082 0 00-1.144-2.267 2.992 2.992 0 01-.363-.277 4.219 4.219 0 01-.023-6.962c.412-.337.852-.647 1.229-1.019s.45-.749-.086-1.121a2.71 2.71 0 01-1.118-2.381v-4.494a2.921 2.921 0 011.207-2.5.752.752 0 00.322-.46c.026-1.276.015-2.552.015-3.964-.321.528-.593.947-.838 1.381a60.853 60.853 0 00-7.458 25.256c-.256 3.035-.5 6.07-.765 9.1a1.245 1.245 0 01-1.31 1.2 1.217 1.217 0 01-1.117-1.373c.023-.608.085-1.215.146-1.821.454-4.492.724-9.012 1.412-13.468a57.81 57.81 0 017.392-20.8 43.877 43.877 0 016.18-7.893 18.344 18.344 0 014.537-3.661 4.692 4.692 0 00.435-.3.847.847 0 00-.6.092 26.15 26.15 0 00-9.015 6.989c-6.995 8.223-10.545 17.926-12 28.48-.458 3.316-.685 6.663-1.009 10q-.722 7.425-1.423 14.852a3.944 3.944 0 00.08 1.207c.425 1.9 1.9 2.958 4.307 3.082 0-.761.005-1.52 0-2.279a14.035 14.035 0 012.687-8.472 19.872 19.872 0 017.634-6.258c2.914-1.425 5.87-2.764 8.821-4.114a1.158 1.158 0 00.817-1.268c-.059-.936.02-1.88-.035-2.816a1.316 1.316 0 00-.427-.865 17.9 17.9 0 01-5.362-6.905c-.458-1.036-.817-2.116-1.219-3.171m20.291-17.21c-4.7 5.91-11.15 7.7-18.263 8.056 0 1.706-.027 3.352.005 5a15.4 15.4 0 005.76 12.025c3.123 2.594 6.717 3.426 10.524 1.754a14.091 14.091 0 008.322-10.843 50.4 50.4 0 00.351-8.038.955.955 0 00-.376-.594c-2.484-2.1-4.984-4.182-6.323-7.357m-5.772-10.444c-.3 0-.609-.006-.914 0a12.83 12.83 0 00-11.369 6.7 14.224 14.224 0 00-1.67 8c.035.971.382 1.366 1.381 1.313 1.24-.065 2.484-.138 3.712-.312a19.549 19.549 0 009.848-3.9c2.253-1.824 4.262-3.863 4.273-7.09a1.146 1.146 0 011.211-1.124 1.192 1.192 0 011.178 1.239c.03.709.035 1.422.008 2.131a6.3 6.3 0 001.493 4.519c1.248 1.425 2.66 2.707 4.017 4.034a.563.563 0 00.518.1.672.672 0 00.214-.5 48.54 48.54 0 00-.009-2.588 12.54 12.54 0 00-3.046-7.862 12.949 12.949 0 00-10.846-4.664m15.99 60.248a1.509 1.509 0 00-1.821.242c-1.494 1.137-2.011 1.125-3.51.011-.081-.061-.162-.123-.247-.178a1.381 1.381 0 00-2.261 1 4.445 4.445 0 00.521 2.16 7.124 7.124 0 003.458 2.978.82.82 0 00.623-.022 8.925 8.925 0 003.157-2.555c.474-.6 1.166-2.99.08-3.639m-21.262-62.083a22.928 22.928 0 0110.541-.024c-.279-3-2.34-4.708-5.551-4.675a4.889 4.889 0 00-4.991 4.7m-9.704 19.739c-.536.235-.669 1.658-.48 4.882a2.238 2.238 0 00.259.648l.221-.09zm29.952-.042v5.5l.215.074a2.094 2.094 0 00.261-.608c.209-2.651.044-4.647-.476-4.969"/><path data-name="パス 425" d="M132.392 68.363a8.371 8.371 0 01-6.175-3.022 1.2 1.2 0 01.076-1.71 1.281 1.281 0 011.723.078 13.347 13.347 0 002.45 1.758c2.059.95 3.9.3 5.545-1.1.29-.246.536-.544.834-.778a1.206 1.206 0 011.654.118 1.134 1.134 0 01.03 1.6 8.367 8.367 0 01-6.139 3.058"/><path data-name="パス 426" d="M124.401 54.399a9.489 9.489 0 01.009-1.134 1.084 1.084 0 011.111-1.029 1.03 1.03 0 011.207.9 12.173 12.173 0 010 2.557 1.028 1.028 0 01-1.218.885 1.085 1.085 0 01-1.1-1.044 10.225 10.225 0 01-.007-1.134"/><path data-name="パス 427" d="M140.299 54.429a8.681 8.681 0 01-.009 1.133 1.076 1.076 0 01-1.06 1 1.024 1.024 0 01-1.239-.852 11.6 11.6 0 010-2.629 1.025 1.025 0 011.238-.854 1.073 1.073 0 011.061 1 9.831 9.831 0 01.009 1.209"/></g></g><g data-name="グループ 244"><g data-name="グループ 243" clip-path="url(#a)" fill="#79c9bc"><path data-name="パス 428" d="M102.608 63.216c.124 1.982-.821 4.351-.714 6.248-2.165 9.128-.484 12.764-1.871 21.907-.231 1.521 1.036 7.084-.383 6.444-1.64-.74-3.231-1.589-4.884-2.411.446 2.527.948 5.06 1.328 7.61.411 2.76.725 5.535 1.049 8.308.128 1.1-.354 1.636-1.457 1.652-1.734.026-3.469.022-5.2 0a4.679 4.679 0 01-4.845-4.61 99.013 99.013 0 00-4.778-24.947 3.453 3.453 0 00-1.139-1.525c-1.174-.91-2.439-1.7-3.792-2.632-.329 2.457-.843 4.777-.915 7.11-.243 7.822-.329 15.649-.474 23.474-.009.472 0 .945 0 1.417-.019 1.369-.364 1.712-1.777 1.715q-5.973.01-11.946 0H40.585c-5.553 0-9.062-3.232-9.407-8.732-.173-2.76-1.795-4.551-3.779-6.3a32.124 32.124 0 00-4.912 10.445c-.824 3.25-2.526 4.584-5.9 4.585H5.942c-1.786 0-2.187-.5-1.847-2.35a28.324 28.324 0 017.365-14.275c1.789-1.935 3.74-3.719 5.614-5.575a5.616 5.616 0 00.381-.469 43.787 43.787 0 01-3.184-4.1c-1.763-2.873-3.385-5.837-4.971-8.817-.681-1.282-.206-1.972 1.253-2.183a4.271 4.271 0 011.052-.136c2.115.243 3.474-.994 4.9-2.283 4.41-3.99 8.887-7.908 13.336-11.855.262-.233.514-.478.9-.837-.662-.211-1.209-.381-1.754-.559-1.146-.373-1.456-.926-1.014-2.057A20.94 20.94 0 0138.21 45.757l.8-.4c-.432-.158-.717-.285-1.014-.368C27.2 41.978 16.39 38.984 5.6 35.928a3.805 3.805 0 01-2.074-1.373C2.3 32.609 1.259 30.541.195 28.495a1.244 1.244 0 01.791-1.892c2.249-.82 4.5-1.635 6.8-2.318a4.212 4.212 0 012.193.125q16.147 4.486 32.281 9.038c.265.074.626.075.773.251.345.411.911 1.028.794 1.341a2.178 2.178 0 01-1.353.94c-.355.109-.831-.155-1.247-.272C31 32.826 20.76 29.993 10.56 27.022c-2.038-.594-3.783-.054-5.607.526-.707.225-1.381.55-2.2.88a14.186 14.186 0 002.867 4.855 2.075 2.075 0 00.96.4q18.3 5.125 36.611 10.226a5.757 5.757 0 001.63.134c2.327-.043 4.656-.128 6.89 1.126v-8.395c-.061-.022-.14-.082-.194-.065-3.042.953-6.393-.738-6.482-5.628a5.854 5.854 0 00-1.479-3.909c-4.959-6.14-1.323-16.773 6.354-18.746a2.269 2.269 0 001.559-1.231A13.771 13.771 0 0167.665.622a32.712 32.712 0 005.1.845c1.467.168 1.961.979 1.151 2.21-.449.683-1 1.3-1.55 2a22.644 22.644 0 017.677 6.541 8.969 8.969 0 003.926 2.715c.477.182 1.1.662 1.158 1.078a2.011 2.011 0 01-.75 1.428 10 10 0 01-5.899 2.409c.265.736.522 1.377.729 2.034.67 2.124.3 2.654-1.892 2.707-1.177.028-2.355.005-3.533.005l-1.141 17.387L82.7 44.824c.649-1.469 1.28-2.9 1.912-4.323 1.257-2.839 3.428-3.722 6.351-2.705a1.659 1.659 0 011.258 2.147c-.3 1.7-.55 3.416-.815 5.125-.047.3-.063.613-.1.952a21.871 21.871 0 0110.014 3.677c2.42 1.29 2.917 4 3.275 4.146 0 0 .418 8.761-1.987 9.374m-29 15.49c-2.052 1.486-3.811 2.87-5.68 4.084a5.655 5.655 0 01-6.076.288 94.438 94.438 0 01-8.815-5.441 29.677 29.677 0 01-7.249-7.87c-.669-1-.385-2.1.586-2.075a2.317 2.317 0 011.555.948 36.245 36.245 0 0014.644 12.148 4.336 4.336 0 004.471-.267A23.181 23.181 0 0077.06 67.259a21.137 21.137 0 00.5-3 1.551 1.551 0 00-.7.736 25.423 25.423 0 01-6.929 8.111c-3.442 2.62-7.161 2.586-10.477-.166a1.72 1.72 0 01-.355-1.508 1 1 0 011.554-.522c.7.361 1.4.721 2.093 1.092a4.494 4.494 0 005.192-.429 23.651 23.651 0 007.88-10.119c.647-1.573.65-1.77-.748-2.723a8.624 8.624 0 01-3.12-3.75 3.521 3.521 0 00-3.259-2.111c-.083.211-.144.354-.2.5-1.837 5.2-6.134 6.7-10.742 3.684a43.418 43.418 0 01-3.5-2.833 9.716 9.716 0 01-.516 1.233 1.691 1.691 0 00.307 2.194 32.007 32.007 0 006.869 6.267 4.551 4.551 0 006.345-.879 19.191 19.191 0 001.687-2.411c.457-.742.96-1.35 1.878-.809.9.53.712 1.31.231 2.038a26.1 26.1 0 01-1.886 2.7c-2.653 3.079-6.453 3.664-9.712 1.261-2.3-1.7-4.333-3.75-6.472-5.659a6.78 6.78 0 01-.717-.817c-1.948 2.081-3.789 4.109-5.711 6.059a3.473 3.473 0 01-1.9 1.11c-1.8.147-2.814 1.4-4.047 2.411a1.529 1.529 0 00-.56 1.836c.976 3.438 1.857 6.905 2.9 10.322a21.548 21.548 0 011.01 7.315c-.188 4.364-.3 8.73-.441 13.1-.014.419 0 .839 0 1.257h28.657c-.229-8.084-.121-16.057 1.433-24.042m7.513-62.032c-1.3-1.343-2.608-2.632-3.85-3.979-2.32-2.515-4.734-4.848-8.292-5.53a1.443 1.443 0 01-.883-1.04 1.755 1.755 0 01.69-1.2 10.853 10.853 0 011.805-.978 29.528 29.528 0 00-4.387-1.12 20.155 20.155 0 00-5.49.05c-3.593.665-5.938 3.066-7.5 6.259a2.249 2.249 0 01-1.918 1.46 7.42 7.42 0 00-4.847 2.687 10.748 10.748 0 00-2.651 8.182 7.412 7.412 0 002.319 4.918 4.8 4.8 0 014.26-1.73c1.748.194 2.885 1.246 3.927 3.094.6-1.32 1.143-2.3 1.488-3.339.476-1.439 1.239-1.718 2.413-.733.267.224.532.451.994.842a10.906 10.906 0 001.494-2.691 23 23 0 00.324-4.311c.02-.7-.045-1.354.764-1.659s1.21.18 1.638.76c3.28 4.451 8.024 5.355 13.443 5.523a32.3 32.3 0 01-1.675-2.855 2.19 2.19 0 01-.169-1.667c.175-.323 1.028-.49 1.518-.4a7.094 7.094 0 004.588-.548m-6.225 38.64a5.272 5.272 0 00.727.783 9.111 9.111 0 014.331 8.728 1.225 1.225 0 00.369.908c2.826 2.166 5.681 4.3 8.739 6.594.087-.629.126-.847.147-1.066.21-2.23.356-4.47.677-6.684.061-.424.809-.748 1.239-1.118a10.077 10.077 0 011.085 1.327c.131.224-.026.612-.044.925-.365 6.356-.765 12.711-1.075 19.07a7.675 7.675 0 002.619 6.333 56.109 56.109 0 004.725 3.49 7.187 7.187 0 001.244.548c1.371-10.512 1.151-20.72 1.983-31.219-4.125.194-9.152-1.39-12.645-3.269-.246 1.561-.4 2.972-.722 4.343a1.841 1.841 0 01-1.008 1.225 5.065 5.065 0 01-6.368-4.862c-.065-1.256-.115-2.515-.233-3.767a1.051 1.051 0 00-.476-.785c-1.68-.522-3.384-.969-5.315-1.505m-16.91-28.461a31.38 31.38 0 01-3.394 3.161c-1.543 1.071-2.222.691-2.671-1.144a2.152 2.152 0 00-2.149-1.817 2.313 2.313 0 00-2.211 2.072 14.544 14.544 0 000 2.707 2.736 2.736 0 001.641 2.528c1.082.432 1.856-.164 2.695-.73a2.026 2.026 0 011.56-.393c.385.165.529.908.761 1.405a.832.832 0 01.008.351 5.547 5.547 0 003.318 5.739c2.565 1.181 5.119 2.408 7.763 3.387 2.316.858 2.741.572 3.945-1.607a4.677 4.677 0 00.667-1.5c.43-3.133.793-6.276 1.177-9.406a5.753 5.753 0 01-1.76-.192 1.222 1.222 0 01-.578-1.02 2.861 2.861 0 01.955-1.181c.412-.346 1.289-.539 1.323-.865a37.008 37.008 0 00.066-3.995l-7.614-3.51c-.021.111-.064.372-.121.628a7.994 7.994 0 01-2.89 4.863c-.849.649-1.708 1.208-2.491.523m-27.32 30.625a31.257 31.257 0 0111.126 6.41 2.145 2.145 0 002.924-.108 21 21 0 007.607-12.012 4.216 4.216 0 00-3.521-5.124c-8.623-1.323-15.216 3.669-18.14 10.834m4.107 33.187a3.694 3.694 0 00-.247-.3 45 45 0 01-6.567-8.744 5.158 5.158 0 00-2.013-1.9c-4.238-2.271-8.823-2.662-13.527-2.253-.1.009-.193.106-.354.2a39.879 39.879 0 0016.028 17.99l6.679-4.991m-28.141 19.9c3.492 0 6.875.01 10.257 0 1.856-.008 2.585-.749 3.209-2.5 1-2.8 2.133-5.551 3.3-8.284a25.327 25.327 0 011.71-2.909l-5.844-4.654c-5.7 5.046-11.041 10.3-12.634 18.355m11.5-35.943c2.736.852 5.545 1.668 8.3 2.624a1.349 1.349 0 001.628-.275c3.9-3.547 7.824-7.06 11.737-10.589a8.327 8.327 0 00.595-.714c-2.074-1.379-4.073-2.684-6.045-4.029-.759-.518-1.281-.343-1.936.246-4.534 4.073-9.106 8.1-13.664 12.15-.283.251-.55.522-.619.588m76.653 35.914c-.749-4.508-1.632-8.786-2.126-13.109-.412-3.6-2.512-6.453-3.705-9.7a.735.735 0 00-.27-.366c-1.535-.907-3.079-1.8-4.812-2.808.125.538.192.836.263 1.133.813 3.441 1.794 6.852 2.395 10.329.675 3.907 1.029 7.871 1.475 11.815.189 1.669.765 2.584 2.111 2.68 1.444.1 2.9.023 4.669.023m7.7-53.829c-.015 0 .015-.57 0-.572a2.318 2.318 0 00-.357-1.936 8.821 8.821 0 00-1.8-2.21 20.623 20.623 0 00-7.96-3.415 2.55 2.55 0 00-3.139 2.134 56.489 56.489 0 00-.262 5.874 1.992 1.992 0 00.687 1.415 18.043 18.043 0 009.013 3.491 2.917 2.917 0 003.093-2.236c.088-.9.654-1.646.728-2.547M30.32 97.385c2.315 2.176 3.133 4.807 3.4 7.845a6.039 6.039 0 007.358 5.126c0-2.962-.113-5.984.03-8.993a9.506 9.506 0 00-3.855-8.174 1.111 1.111 0 00-.929-.14 14.317 14.317 0 00-6.008 4.336m49.139-28.858c-1 1.991-2.082 4.064-3.075 6.18a1.552 1.552 0 00.55 2.23c3.341 2.145 6.637 4.358 9.959 6.533.513.336 1.069.607 1.7.961.123-3.125.249-6.095.337-9.065a1.03 1.03 0 00-.379-.758c-3.052-2.066-6.124-4.1-9.092-6.081M63.124 105.38H43.537v5.1h19.587zm-8.895-63.483c0 1.349.007 2.831 0 4.313-.023 4.335 2.042 7.395 5.808 9.373a4.064 4.064 0 006.06-2.784 1.109 1.109 0 00-.2-.916 8.119 8.119 0 01-2.478-5.21 1.135 1.135 0 00-.574-.735c-2.825-1.352-5.667-2.667-8.61-4.042m26.142 12.4a22.154 22.154 0 01.044-3.7 23.222 23.222 0 011.226-3.536c-3.351-.94-6.67-1.884-10-2.778a1.022 1.022 0 00-.838.4c-1.15 1.688-2.608 2.693-4.76 2.231.132 2.139 1.176 3.3 3.087 3.51 1.545.169 2.695 1.212 4.037 1.772a62.281 62.281 0 007.206 2.1m5.721 9.392c.237-1.8.614-3.614.681-5.44.077-2.1-.248-4.223-.146-6.323a6.882 6.882 0 011.02-3.543 7.307 7.307 0 001.312-3.533c.153-1.208.4-2.4.549-3.612a7.466 7.466 0 00-.063-1.334 5.22 5.22 0 00-1.662.287 2.511 2.511 0 00-.9 1.188q-1.945 4.357-3.814 8.748a2.918 2.918 0 00-.255 1.243c.168 3.338.347 6.675.575 10.009.122 1.784.727 2.284 2.7 2.312M33.926 86.261a31.493 31.493 0 004.282-8.579c.78-2.161.035-4-.531-6.1-1.493 1.344-2.864 2.579-4.236 3.812-1.392 1.252-2.784 2.5-4.2 3.775l4.686 7.092m7.3 7.1c.878-4.24.237-10.8-1.2-12.84l-4.227 7.78 5.425 5.062m24.472 17.106h6.334v-5.121h-6.336z"/><path data-name="パス 429" d="M53.949 65.782c.987.186 1.941 1.126 1.929 1.878a1.135 1.135 0 01-1.254 1.228c-.685.005-1.748-1.076-1.583-1.739a4.876 4.876 0 01.908-1.367"/><path data-name="パス 430" d="M64.927 31.714a14.127 14.127 0 01-2.653-.726 1.465 1.465 0 01-.646-1.268 1.67 1.67 0 011.221-.94 4.935 4.935 0 012.253.542 1.552 1.552 0 01.72 1.249c-.056.436-.612.808-.894 1.142"/></g></g></svg>