<svg xmlns="http://www.w3.org/2000/svg" width="212.939" height="102.89"><path data-name="パス 929" d="M3.147 2.636a10.613 10.613 0 00-1.022-.462v10.542h.854v-1.274h6.874v1.274h.854V3.25l.35-.238a.178.178 0 00.1-.154q-.021-.21-.924-.882l-.532.658h-4.02a8.676 8.676 0 00.994-1.68c.378-.07.574-.168.574-.294 0-.2-.462-.378-1.4-.546a14.358 14.358 0 01-.644 2.52zm-.168.35h6.874V5.35H2.979zm6.874 5.138H2.979V5.702h6.874zm0 2.968H2.979V8.474h6.874zm6.1-4A11.722 11.722 0 0018.351 5.1a14.218 14.218 0 002.268-3.528c.392-.084.588-.182.588-.308q0-.273-1.26-.714a13.784 13.784 0 01-4.214 6.258zM22.859.75q.525 1.113 1.008 1.932a13.711 13.711 0 003.328 3.762 2.473 2.473 0 01.728-.854A13.616 13.616 0 0123.205.55zm-2.632 5.33a10.8 10.8 0 01-.574 2.758 6.8 6.8 0 01-3.318 3.584l.2.308a7.049 7.049 0 003.388-2.6 8.6 8.6 0 001.19-4.046h3.332a21 21 0 01-.382 4.466c-.14.588-.448.882-.938.882a18.029 18.029 0 01-2.2-.2v.378a7.255 7.255 0 011.47.34c.35.14.532.35.532.63a1.707 1.707 0 001.638-.84c.448-.826.672-2.6.686-5.362l.294-.224a.27.27 0 00.14-.21c0-.126-.28-.406-.826-.84l-.532.63h-6.44l.112.35zm15.792 6.118c4.046 0 5.81-2.1 5.81-3.85a2.344 2.344 0 00-2.576-2.352 7.411 7.411 0 00-4.172 1.666 1.43 1.43 0 01-.742.308c-.2 0-.336-.126-.336-.462a1.209 1.209 0 01.014-.21l.378-3.136c.07-.6.294-1.036 1.12-1.036a4.244 4.244 0 011.162.2 2.172 2.172 0 00.476.07c.406 0 .616-.21.616-.546a1.6 1.6 0 00-.294-.812c-.448-.672-.9-1.078-2.45-1.134-.154 0-.266.07-.266.168s.07.154.252.238a2.752 2.752 0 011.428 1.06.18.18 0 01.056.14.15.15 0 01-.168.154c-1.232.168-2.422.252-2.6 1.5s-.42 2.87-.476 3.906c-.042.756.336 1.246.882 1.246a1.627 1.627 0 001.062-.548c1.568-1.568 2.94-2.17 3.948-2.17a1.794 1.794 0 011.918 1.834c0 1.526-1.666 3.444-5.8 3.4-.224 0-.336.084-.336.168s.1.154.308.168c.268.016.52.03.786.03zm16.128.084a7.761 7.761 0 005.53-3.164.453.453 0 00.126-.266.114.114 0 00-.126-.112.43.43 0 00-.294.154 7.819 7.819 0 01-4.942 2.478 2.151 2.151 0 01-2.282-2.436c0-.126 0-.266.014-.406.266-3.066.742-4.732.742-5.754a1.4 1.4 0 00-.826-1.414.677.677 0 00-.294-.084c-.154 0-.238.084-.238.21a.594.594 0 00.14.35 1.311 1.311 0 01.224.868c0 .826-.28 2.366-.6 5.894-.014.2-.028.378-.028.546.002 2.114 1.216 3.136 2.854 3.136zm16.786.368c.224 0 .434-.2.434-.56a1.225 1.225 0 00-.028-.224c-.448-2.2-1.3-3.192-3-5.166a.543.543 0 01-.14-.364.649.649 0 01.056-.266 9.507 9.507 0 012.86-3.42 1.105 1.105 0 00.5-.924 1.574 1.574 0 00-.35-.938.5.5 0 00-.364-.238c-.154 0-.266.14-.266.392a1.281 1.281 0 00.014.224.476.476 0 01.014.14c0 .868-1.554 1.834-2.926 4.522a1.108 1.108 0 00-.126.49 1.037 1.037 0 00.238.672 11.642 11.642 0 012.496 5.026c.098.434.35.634.588.634zm15.022-4.9h4.088l.168-.308a8.554 8.554 0 00-.938-1.036l-.728.994h-2.59V4.12h4.774l.154-.28a8.144 8.144 0 00-.952-1.064l-.742.994h-3.234V1.194c.406-.154.616-.294.616-.42 0-.21-.5-.336-1.5-.378V3.77h-2.966c.224-.6.42-1.2.588-1.778.42-.07.63-.168.63-.308 0-.2-.462-.406-1.4-.644a15.384 15.384 0 01-2.352 6.1l.294.21a12.667 12.667 0 002.086-3.23h3.122v3.276h-4.144l.14.35h4v3.78h-5.774l.14.35h11.952l.154-.28a12.715 12.715 0 00-.98-1.106l-.8 1.036h-3.806zm18.7-3.808a29.205 29.205 0 01-2.87-.588 4.437 4.437 0 00.686-.322c.252-.14.364-.294.364-.42 0-.21-.28-.378-.6-.378a1.124 1.124 0 00-.42.084c-.21.1-.476.238-.756.364-.63-1.386-.924-1.708-1.666-1.876a1.654 1.654 0 00-.418-.056c-.294 0-.476.1-.476.238s.182.322.588.49a3.058 3.058 0 011.3 1.47 4.362 4.362 0 01-1.288.224 3.043 3.043 0 01-.98-.154.252.252 0 00-.14-.028c-.14 0-.224.07-.224.168s.07.21.252.294a4.208 4.208 0 001.6.266 6.161 6.161 0 001.12-.1c.252.56.5 1.19.77 1.876a7.007 7.007 0 01-2.086.35 4.292 4.292 0 01-2.044-.476.538.538 0 00-.266-.07c-.14 0-.238.07-.238.168s.07.182.224.294a4.221 4.221 0 002.492.7 8.287 8.287 0 002.17-.308c.224.616.462 1.26.7 1.932a1.034 1.034 0 01.028.168c0 .126-.07.182-.21.182a1.456 1.456 0 01-.21-.028 6.568 6.568 0 00-1.794-.256c-1.96 0-3.108 1.008-3.108 2.03 0 1.05 1.19 2.086 3.92 2.086.378 0 .8-.014 1.26-.056.434-.042.63-.238.63-.448 0-.266-.35-.574-.938-.574a1.281 1.281 0 00-.238.014 13.487 13.487 0 01-1.554.112c-1.778 0-2.478-.56-2.478-1.148 0-.728.994-1.512 2.324-1.512a3.728 3.728 0 012.156.714 1.006 1.006 0 00.56.2.763.763 0 00.756-.826 1.652 1.652 0 00-.158-.632 79.667 79.667 0 01-.938-2.17 13.206 13.206 0 002.422-1.05.569.569 0 00.35-.476c.004-.224-.206-.434-.57-.476zm-1.092.672a13.074 13.074 0 01-1.4.644c-.28-.644-.5-1.19-.714-1.666a20.453 20.453 0 002.03.686c.154.042.224.112.224.182s-.052.108-.136.15zm13.356.854a5.445 5.445 0 00-2.408.588.2.2 0 01-.084.028.03.03 0 01-.028-.028.186.186 0 01.042-.1 28.1 28.1 0 013.122-3.36 1 1 0 00.364-.742.635.635 0 00-.672-.658 1.817 1.817 0 00-.938.336 6 6 0 01-2.8 1.26 1.324 1.324 0 01-.644-.154.577.577 0 00-.238-.056.2.2 0 00-.2.224.872.872 0 00.42.644 1.045 1.045 0 00.63.182 6.155 6.155 0 002.884-1.33.421.421 0 01.2-.084.1.1 0 01.1.1.408.408 0 01-.084.21c-.2.266-4.382 5.418-5.138 6.314a1.257 1.257 0 00-.294.742c0 .308.168.518.392.518.2 0 .476-.2.742-.7 1.232-2.436 2.954-3.29 4.41-3.29 1.638 0 2.954 1.078 2.968 2.226-.014 1.918-1.568 2.7-3 2.856a1.273 1.273 0 00.1-.49c0-.686-.672-.98-1.386-.98-.8 0-1.652.364-1.652.938 0 .714 1.288 1.232 2.73 1.232 1.89 0 4.046-.9 4.046-3.472.004-1.866-1.662-2.958-3.58-2.958zm-2.464 5.194c-.014-.336.378-.532.77-.532s.812.21.812.6a1.018 1.018 0 01-.168.5c-.794-.04-1.424-.28-1.41-.572zm20.234-8.012a2.947 2.947 0 00-.35.028c-2.142.238-3.43.35-5.068.406 0-.336-.112-.686-1.064-.826a1.081 1.081 0 00-.21-.028c-.252 0-.378.1-.378.224 0 .1.07.21.238.308.462.308.42.392.588 3.584a.674.674 0 00.6.714c.266 0 .5-.2.5-.616 0-.07-.014-.14-.014-.21a13.169 13.169 0 01-.28-2.366 43.612 43.612 0 015.1-.448.251.251 0 01.294.266v.028a10.476 10.476 0 01-5.67 8.442c-.154.084-.224.182-.224.238s.042.07.112.07a.548.548 0 00.182-.042 10.661 10.661 0 006.678-7.98 3.258 3.258 0 00.084-.686.978.978 0 00-1.118-1.106zm16.6.574c0-.336-.2-.532-.616-.532a1.785 1.785 0 00-.266.014 19.639 19.639 0 01-3.066.28c.028-.07.07-.154.1-.238a2.022 2.022 0 00.2-.742c0-.378-.224-.714-.91-.966a.885.885 0 00-.294-.07c-.154 0-.266.07-.266.2a.8.8 0 00.308.476.772.772 0 01.21.56 1.853 1.853 0 01-.182.714 9.528 9.528 0 01-3.528 4.312c-.14.1-.2.2-.2.266a.113.113 0 00.126.1.365.365 0 00.154-.042 8.026 8.026 0 004-3.976c.8-.042 1.75-.1 2.8-.21a.158.158 0 01.2.168l-.014.1a14.875 14.875 0 01-1.15 2.96 9.241 9.241 0 00-1.638-.882.483.483 0 00-.182-.042c-.1 0-.154.042-.154.1 0 .084.07.182.224.266a4.241 4.241 0 011.358 1.2c-1.19 1.862-3 3.332-6.006 4.788-.154.07-.238.168-.238.238s.056.1.14.1a.548.548 0 00.182-.042 12.711 12.711 0 006.328-4.424c.084.168.168.336.238.518a1.034 1.034 0 00.868.714.486.486 0 00.49-.518 1.312 1.312 0 00-.2-.588 4.1 4.1 0 00-.826-.966 25.59 25.59 0 001.582-3.052 2.048 2.048 0 00.234-.784zm9.884 2.254a.515.515 0 00.546-.518 1.037 1.037 0 00-.252-.588 3.653 3.653 0 00-2.828-1.106h-.336c-.2.014-.294.084-.294.168s.112.168.28.2a3.531 3.531 0 012.226 1.512.847.847 0 00.662.332zm-1.662 6.118c2.66 0 6.356-4.046 8.722-7.63a.406.406 0 00.084-.224c0-.084-.042-.126-.112-.126a.489.489 0 00-.35.238c-3.178 4.256-6.58 6.622-8.05 6.622a1.1 1.1 0 01-.882-.308.441.441 0 00-.308-.14c-.154 0-.28.112-.28.35a1.416 1.416 0 00.14.546 1.081 1.081 0 001.036.672zm.42-3.738a.49.49 0 00.5-.49.844.844 0 00-.238-.546 3.377 3.377 0 00-2.562-.924c-.14 0-.294.014-.434.028s-.238.084-.238.154.084.168.266.2a3.28 3.28 0 012.044 1.19.824.824 0 00.662.388zm23.338 2.058a.706.706 0 00.77-.588c0-.2-.154-.364-.49-.378-1.512-.056-3.738-2.394-6.146-4.858a1.051 1.051 0 00-.742-.434 1.1 1.1 0 00-.77.5c-.5.6-1.918 2.506-2.9 2.506a.432.432 0 01-.14-.014 1.1 1.1 0 00-.28-.028c-.238 0-.35.084-.35.224 0 .2.252.476.728.644a1.361 1.361 0 00.378.07c1.148 0 2.03-1.806 2.8-2.926.182-.238.35-.378.56-.378s.42.14.658.448c2.592 3.28 4.15 5.212 5.924 5.212zm-178 21.67c-.462-.238-.812-.42-1.036-.518v11.27h.882v-1.2h6.4v1.064h.868v-9.958l.378-.252a.2.2 0 00.112-.168c0-.14-.308-.462-.91-.952l-.588.714zm-.154.35h6.4v4.1h-6.4zm6.4 8.848h-6.4v-4.4h6.4zm12.63-8.092V30.76c.378-.126.574-.252.574-.364 0-.182-.462-.28-1.372-.322v2.618h-4.1a5.017 5.017 0 01-.056-.532l-.378-.056a3.77 3.77 0 01-.952 2.338.741.741 0 00-.2.434c0 .322.168.476.518.476.28 0 .518-.21.728-.63a4.027 4.027 0 00.35-1.68h9.368a5.81 5.81 0 01-.714 1.414l.266.2a16.958 16.958 0 001.26-1.176l.49-.084c.112-.014.168-.07.168-.14 0-.182-.322-.588-.98-1.19l-.5.63h-2.482a17.7 17.7 0 001.262-1.39c.406-.014.6-.084.6-.21 0-.182-.42-.448-1.246-.77a14.231 14.231 0 01-1.134 2.366zm-4.45-1.974a2.835 2.835 0 011.134 1.512c.07.294.224.448.448.448.35 0 .532-.2.532-.574q0-.945-1.932-1.638zm1.6 3.556a8.812 8.812 0 00-.882-.35v3.332h.782v-.574h2.142v1.484h-3.098q-.273-.126-.714-.294l-.21-.07v4.1h.812v-3.386h3.206v4.242h.826v-4.242h3.346v1.89c0 .266-.154.392-.462.392a20.73 20.73 0 01-1.834-.112v.364a5.948 5.948 0 011.274.266.585.585 0 01.476.532c.91-.042 1.358-.406 1.358-1.064v-2l.322-.224q.126-.084.126-.168c0-.112-.28-.378-.84-.812l-.53.586h-3.236v-1.484h2.086v.518h.784v-2.282l.308-.238c.084-.07.126-.126.126-.182.014-.1-.266-.364-.826-.77l-.476.546zm-.1.35h5.05v1.708h-5.05zm18.98-2.408c-2.884 0-6.048 2.016-6.048 5.516 0 1.694.812 2.6 1.792 2.6 1.5 0 3.388-2.072 3.388-6.65 0-.28-.014-.546-.028-.84.21-.014.406-.028.6-.028a3.842 3.842 0 014.1 4.018c0 3.164-3.094 4.27-5.712 4.3-.154.014-.238.084-.238.154s.07.14.238.168a10.233 10.233 0 001.12.07c3.052 0 5.488-1.68 5.488-4.732a4.366 4.366 0 00-4.7-4.576zm-1.414.966c0 4.1-1.694 5.978-2.842 5.978-.616 0-1.022-.5-1.022-1.526a4.7 4.7 0 013.864-4.69zm17.92 9.03c.616.014.854-.154.854-.378 0-.336-.56-.77-1.246-.728h-.224a1.941 1.941 0 01-2.2-1.89 2.184 2.184 0 011.414-2.03 13.6 13.6 0 013.528-.84c.42-.042.616-.252.616-.462 0-.266-.294-.546-.784-.546a1.472 1.472 0 00-.462.084 64.987 64.987 0 00-6.734 2.422.26.26 0 01-.1.028c-.07 0-.112-.042-.112-.126a.383.383 0 01.1-.21 53.368 53.368 0 015.054-5.012.96.96 0 00.364-.686.631.631 0 00-.714-.6 1.515 1.515 0 00-.56.126 6.15 6.15 0 01-2.086.5 2.01 2.01 0 01-.91-.2.431.431 0 00-.182-.042.259.259 0 00-.252.28.97.97 0 00.448.686 1.069 1.069 0 00.672.21 4.377 4.377 0 001.96-.658.226.226 0 01.126-.042c.042 0 .07.028.07.084a.223.223 0 01-.042.112c-1.974 2.226-3.276 3.682-4.718 5.18a1.031 1.031 0 00-.308.728.569.569 0 00.616.6 1.786 1.786 0 00.616-.154c.98-.42 1.68-.714 2.352-.98a.188.188 0 01.112-.028c.042 0 .07.014.07.042a.189.189 0 01-.07.126 2.4 2.4 0 00-.756 1.722c.002 1.296 1.136 2.598 3.488 2.682zm14.294-10c-2.884 0-6.048 2.016-6.048 5.516 0 1.694.812 2.6 1.792 2.6 1.5 0 3.388-2.072 3.388-6.65 0-.28-.014-.546-.028-.84.21-.014.406-.028.6-.028a3.842 3.842 0 014.1 4.018c0 3.164-3.094 4.27-5.712 4.3-.154.014-.238.084-.238.154s.07.14.238.168a10.234 10.234 0 001.12.07c3.052 0 5.488-1.68 5.488-4.732a4.366 4.366 0 00-4.7-4.572zm-1.414.966c0 4.1-1.694 5.978-2.842 5.978-.616 0-1.022-.5-1.022-1.526a4.7 4.7 0 013.864-4.69zm16.226.294h4.382l.168-.28a6.8 6.8 0 00-.952-1.036l-.728.966h-2.87v-2.124c.406-.154.616-.294.616-.434 0-.21-.476-.322-1.442-.364v2.926h-2.8a13.858 13.858 0 00.574-1.582c.378-.084.574-.182.574-.308q0-.315-1.3-.588a12.7 12.7 0 01-2 5.068l.294.21a9.683 9.683 0 001.694-2.45h2.968V36.5h-5.576l.154.35h3.738a6.756 6.756 0 01-.518 2.478 6.1 6.1 0 01-3.57 3.066l.2.336a7 7 0 003.5-2.044 6.225 6.225 0 001.27-3.836h2.072v4.424a1.194 1.194 0 00.2.756c.21.224 1.022.336 2.422.336a10.3 10.3 0 002.128-.126.743.743 0 00.532-.8.434.434 0 01-.42-.182 2.994 2.994 0 01-.154-1.2c0-.336 0-.63.014-.882l-.378-.154c-.126 1.61-.35 2.464-.686 2.562a5.808 5.808 0 01-1.316.084 4.8 4.8 0 01-1.3-.112c-.126-.056-.2-.2-.2-.434V36.85h4.118l.168-.308a9.158 9.158 0 00-.994-1.05l-.8 1.008h-3.78zm15.988-1.26c-2.884 0-6.048 2.016-6.048 5.516 0 1.694.812 2.6 1.792 2.6 1.5 0 3.388-2.072 3.388-6.65 0-.28-.014-.546-.028-.84.21-.014.406-.028.6-.028a3.842 3.842 0 014.1 4.018c0 3.164-3.094 4.27-5.712 4.3-.154.014-.238.084-.238.154s.07.14.238.168a10.234 10.234 0 001.12.07c3.052 0 5.488-1.68 5.488-4.732a4.366 4.366 0 00-4.7-4.572zm-1.414.966c0 4.1-1.694 5.978-2.842 5.978-.616 0-1.022-.5-1.022-1.526a4.7 4.7 0 013.864-4.69zm15.386 1.232h-5.628l.154.35h11.886l.154-.266a6.338 6.338 0 00-1.008-1.022l-.728.938h-4v-1.802h4.214l.154-.252a5.006 5.006 0 00-.966-.994l-.7.9h-2.7V31.04c.378-.14.574-.266.574-.378 0-.2-.462-.308-1.4-.336v1.932h-4.318l.126.35h4.186zm-5.446 2.814l.154.35h5.278v2.058h-4.7l.14.35h4.564v2.772h.854v-2.768h4.634l.14-.252a6.224 6.224 0 00-1.036-1.064l-.77.966h-2.968v-2.058h5.348l.154-.266a5.869 5.869 0 00-.98-1.036l-.742.952h-2.776a14.853 14.853 0 001.218-1.442c.392-.014.588-.07.588-.2 0-.21-.406-.448-1.232-.742a13.25 13.25 0 01-1.036 2.38zm2.716-2.086a2.613 2.613 0 01.966 1.554c.042.28.182.42.406.42.35 0 .518-.182.518-.56q0-.945-1.68-1.638zm24.346-.49a3.363 3.363 0 01-2.884-1.092v-.2a1.68 1.68 0 00-.756-1.652.71.71 0 00-.364-.126.288.288 0 00-.322.294.71.71 0 00.182.42 3.605 3.605 0 01.5 2.128c0 .168 0 .336-.014.5-1.638.154-2.856.308-3.808.42.028-.518.042-.938.042-1.3 0-1.176-.21-1.6-1.2-1.918a.7.7 0 00-.224-.042c-.2 0-.322.112-.322.252s.1.294.35.448c.406.266.5 1.106.532 2.66-.434.042-.812.07-1.148.07a3.665 3.665 0 01-1.5-.266.956.956 0 00-.308-.07.39.39 0 00-.42.392c0 .322.364.77 1.232.77.406 0 1.162-.1 2.156-.21.014.742.014 1.61.042 2.618.056 2.422 1.68 3.052 3.6 3.052a9.984 9.984 0 001.442-.1c.588-.07.84-.28.84-.49 0-.252-.35-.49-.924-.49a3.494 3.494 0 00-.35.028 10.5 10.5 0 01-1.68.168c-1.3 0-2.212-.434-2.226-1.9v-.762c0-.854.014-1.6.042-2.212a57.009 57.009 0 013.766-.322 12.568 12.568 0 01-.336 1.75.24.24 0 01-.238.182.351.351 0 01-.238-.1 5.091 5.091 0 00-.812-.532.522.522 0 00-.224-.056c-.084 0-.14.028-.14.1a.459.459 0 00.182.266 4.424 4.424 0 01.966 1.19.665.665 0 00.574.42c.406 0 .8-.448.826-1.12.028-.812.07-1.512.112-2.128.378-.014.77-.014 1.162-.014.616 0 1.232.014 1.862.056s.952-.238.952-.518-.322-.574-.924-.562zm-2.324.154c-.224.014-.448.042-.658.056.028-.28.056-.546.07-.784a2.567 2.567 0 00.588.518c.084.056.154.112.154.154s-.042.06-.154.06zm17.43 5.11a.706.706 0 00.77-.588c0-.2-.154-.364-.49-.378-1.512-.056-3.738-2.394-6.146-4.858a1.051 1.051 0 00-.742-.434 1.1 1.1 0 00-.77.5c-.5.6-1.918 2.506-2.9 2.506a.432.432 0 01-.14-.014 1.1 1.1 0 00-.28-.028c-.238 0-.35.084-.35.224 0 .2.252.476.728.644a1.361 1.361 0 00.378.07c1.148 0 2.03-1.806 2.8-2.926.182-.238.35-.378.56-.378s.42.14.658.448c2.592 3.284 4.15 5.216 5.924 5.216zM3.147 62.636a10.612 10.612 0 00-1.022-.462v10.542h.854v-1.274h6.874v1.274h.854V63.25l.35-.238a.178.178 0 00.1-.154q-.021-.21-.924-.882l-.532.658h-4.02a8.676 8.676 0 00.994-1.68c.378-.07.574-.168.574-.294 0-.2-.462-.378-1.4-.546a14.358 14.358 0 01-.644 2.52zm-.168.35h6.874v2.364H2.979zm6.874 5.138H2.979v-2.422h6.874zm0 2.968H2.979v-2.618h6.874zm12.264-7.63v-2.17c.406-.14.6-.266.6-.392 0-.21-.49-.322-1.456-.364v2.926h-3.652a8.6 8.6 0 00-.994-.434v9.674h.854v-1.106h8.512v1.106h.854v-8.624l.364-.238a.2.2 0 00.112-.168c0-.126-.308-.434-.91-.91l-.574.7zm-.854.35v3.416h-3.794v-3.416zm4.718 3.416h-3.864v-3.416h3.864zm-8.512 4.022v-3.672h3.794v3.672zm8.512-3.668v3.668h-3.864v-3.672zm7.756 4.732c.238 0 .434-.182.434-.518a1.281 1.281 0 00-.07-.35 7.34 7.34 0 01-.378-2.044 3.448 3.448 0 01.336-1.484.926.926 0 00.084-.308c0-.07-.028-.112-.084-.112s-.182.084-.322.252a3.729 3.729 0 00-.49.91c-.042.126-.112.2-.154.2s-.07-.07-.07-.224c.056-2.562 1.162-4.1 1.162-5.264a1.419 1.419 0 00-.28-.9c-.28-.364-.532-.518-.686-.518a.185.185 0 00-.182.21.955.955 0 00.14.434 1.565 1.565 0 01.154.742c0 1.232-.9 3.094-.9 5.334a7.721 7.721 0 00.634 3.076.824.824 0 00.672.56zm5.81-8.372a4.667 4.667 0 001.526-.224c.308-.1.462-.308.462-.49s-.168-.364-.462-.364a.778.778 0 00-.294.056 6.839 6.839 0 01-1.988.35 4.308 4.308 0 01-1.232-.182.722.722 0 00-.154-.028c-.112 0-.182.056-.182.14s.07.182.238.28a4.438 4.438 0 002.086.458zm.924 7.434a7.4 7.4 0 001.708-.21c.434-.112.616-.308.616-.49 0-.252-.322-.49-.8-.49a1.785 1.785 0 00-.266.014 11.582 11.582 0 01-2.058.252 3.335 3.335 0 01-2.24-.77.518.518 0 00-.294-.126.144.144 0 00-.154.14.569.569 0 00.112.266 4.079 4.079 0 003.376 1.41zm7.812-7.226a31.172 31.172 0 00.91-3.052c.406-.07.6-.168.6-.294.014-.2-.42-.392-1.288-.574A27.994 27.994 0 0145.999 68l.322.2a18.368 18.368 0 001.4-2.632v7.2h.784V64.89q.588-.21.588-.378c.002-.182-.264-.294-.81-.362zm3.038-2.814l-.182-.112c-.266-.126-.532-.252-.77-.35V72.55h.812v-.854h6.174v.854h.812V61.964l.322-.224c.1-.07.154-.14.154-.21q-.021-.189-.882-.84l-.5.644zm-.14.35h6.174v9.66h-6.174zm2.058 5.054c-.1-.042-.21-.1-.35-.168a3.14 3.14 0 00-.364-.154l-.182-.084v4.2h.752v-.826h2.184v.742h.756v-3.166l.28-.2a.24.24 0 00.112-.168c0-.1-.266-.35-.784-.728l-.448.546h-.616V64.68h2.254l.14-.28a7.842 7.842 0 00-.63-.672l-.21-.2-.574.8h-.98v-1.37c.364-.126.546-.238.546-.35 0-.224-.434-.336-1.316-.35v2.072h-2.264l.14.35h2.128v2.058zm-.14.35h2.184v2.268h-2.188zm10.43 5.67h.812V60.942c.378-.154.574-.294.574-.406q0-.315-1.386-.336zm6.748-8.568h3.472l.154-.266-.112-.14a9.718 9.718 0 00-.812-.868l-.686.924h-2.016v-2.816c.406-.126.6-.252.6-.378 0-.238-.476-.35-1.442-.364v3.556h-1.75c.126-.406.266-1.022.448-1.848.364-.07.546-.168.546-.28 0-.182-.448-.392-1.33-.616a16.724 16.724 0 01-1.6 5.866l.336.2a10.919 10.919 0 001.49-2.972h1.862v3.388h-2.8l.14.35h2.66v3.892h-3.976l.168.35h8.54l.168-.28c-.21-.266-.476-.56-.784-.882l-.168-.168-.728.98h-2.38v-3.892h3.066l.168-.266c-.21-.266-.5-.6-.882-.994l-.672.91h-1.68zm-5.754-1.484a5.234 5.234 0 01.644 2.086c.028.378.154.56.364.56q.5 0 .5-.588a3.67 3.67 0 00-1.232-2.268zm-2.254.2a7.205 7.205 0 01-.588 3.248 1.714 1.714 0 00-.2.49c0 .294.154.448.476.448.588 0 .882-.714.882-2.156a12.459 12.459 0 00-.21-1.988zm25.872 1.554c0-.448-.378-.728-.966-.728-.9 0-2.268.644-3.6 2.338a1.625 1.625 0 00-1.288-.672 2.36 2.36 0 00-.91.21.2.2 0 01-.084.028c-.042 0-.07-.014-.07-.056s.014-.056.056-.1a9.292 9.292 0 001.526-2.744 2.13 2.13 0 00.98-.938 1.309 1.309 0 00.126-.434c0-.14-.084-.238-.28-.28-.28-.056-.644-.126-.924-.154a.84.84 0 00-.574-.308c-.21 0-.35.112-.35.294a.542.542 0 00.154.35 1.221 1.221 0 01.28.812 2.513 2.513 0 01-.868.154 1.767 1.767 0 01-.954-.256.56.56 0 00-.294-.1.351.351 0 00-.336.378.957.957 0 00.49.728 1.472 1.472 0 00.784.182 3.5 3.5 0 00.966-.14 10.514 10.514 0 01-3.206 3.794.721.721 0 00-.322.56.457.457 0 00.462.462.908.908 0 00.658-.364c.994-1.162 1.82-1.624 2.45-1.624.658 0 1.092.546 1.218 1.344-2.142 1.036-3.066 2.212-3.066 3.164 0 1.12 1.218 1.932 3.206 1.932a9.129 9.129 0 002.45-.35c.448-.126.644-.322.644-.49 0-.266-.378-.49-.882-.49a1.678 1.678 0 00-.434.056 9.623 9.623 0 01-2.548.42c-1.232 0-1.82-.448-1.82-1.064 0-.756.868-1.764 2.492-2.562a4.986 4.986 0 01-.224 1.3.974.974 0 00-.056.322.448.448 0 00.434.5c.252 0 .56-.21.672-.7a3.653 3.653 0 00.112-.966 4.032 4.032 0 00-.084-.826l.07-.028c2.864-1.042 3.91-2.218 3.91-2.96zm-5.278-3.234a1.866 1.866 0 01.392.084c.084.028.126.056.126.112 0 .028-.014.056-.056.1a2.618 2.618 0 01-.364.238 1.288 1.288 0 00-.098-.54zm.966 5.236a4.346 4.346 0 012.912-2.086c.238 0 .392.084.392.252 0 .406-.826 1.232-3.122 2.24a3.569 3.569 0 00-.182-.412zm15.176-.28a9.427 9.427 0 005.376 6.16 3.811 3.811 0 01.728-.868 10.239 10.239 0 01-3.752-2.282 14.184 14.184 0 002.058-1.6 1.361 1.361 0 00.252.014c.266 0 .392-.056.392-.168 0-.168-.35-.462-1.064-.9a15.037 15.037 0 01-1.89 2.38 9.206 9.206 0 01-1.666-2.786h5.25l.168-.28a10.508 10.508 0 00-.98-1.022l-.77.952h-3.948V64.12h4.036l.154-.266a11.445 11.445 0 00-.924-.952l-.672.868h-2.59v-1.512h4.872l.168-.252a8.73 8.73 0 00-.952-.966l-.7.868h-3.392v-.98c.406-.14.6-.266.6-.392 0-.21-.476-.308-1.414-.322v1.694h-4.926l.154.35h4.774v1.512h-4.1l.14.35h3.962v1.666h-5.63l.154.35h5a12.652 12.652 0 01-5.448 3.374l.168.336a16.144 16.144 0 003.612-1.47v2.856l-.448.07c-1.05.168-1.652.266-1.82.28.266.84.49 1.26.686 1.26.1 0 .182-.182.238-.532a51.766 51.766 0 005.768-1.68l-.1-.378c-.994.266-2.156.546-3.5.826v-3.206a13.5 13.5 0 001.976-1.694zm15.008-5.1l-.168-.084c-.126-.07-.364-.182-.714-.35v7.88h.8v-.7h.868a4.9 4.9 0 01-4.046 4.7l.182.322a6.87 6.87 0 003.3-1.568 5.373 5.373 0 001.4-3.458h1.05v3.78c0 .42.112.672.336.77a5.32 5.32 0 001.75.168 4.648 4.648 0 001.484-.14.738.738 0 00.406-.742.476.476 0 01-.476-.28 7.055 7.055 0 01-.154-1.96l-.35-.154a10.365 10.365 0 01-.28 2.142q-.147.42-.966.42a2.279 2.279 0 01-.784-.084c-.126-.042-.182-.154-.182-.35V67.83h1.064v.7h.8v-6.832l.364-.238c.07-.042.1-.084.1-.14 0-.154-.28-.448-.854-.882l-.518.644zm-3.332 4.62h1.806l.154-.28a4.875 4.875 0 00-.8-.952l-.63.882h-.532v-3.376h1.96l.168-.266a8.773 8.773 0 00-.868-.938l-.616.854h-3.388l.112.35h1.82v3.372h-1.736l.112.35h1.624v3.542l-.07.014c-.462.112-1.12.252-1.974.434.238.826.462 1.246.644 1.246.1 0 .182-.168.252-.518a39.918 39.918 0 004.046-1.652l-.112-.35c-.742.252-1.4.462-1.974.616zm3.248-4.27h4.606v1.636h-4.606zm4.606 1.988v1.792h-4.606V63.42zm0 2.142v1.916h-4.606v-1.918zm7.294-.168V62.75c.378-.126.574-.252.574-.378 0-.2-.462-.322-1.372-.364v4.732h.8v-.994h3.264v5.362h-3.92v-2.59c.35-.126.532-.252.532-.378 0-.224-.448-.336-1.358-.35v4.73h.826v-1.064h8.792v1.064h.826v-4.088c.364-.126.546-.238.546-.364 0-.238-.462-.364-1.372-.406v3.444h-4.032v-5.362h3.346v.91h.8v-4c.35-.126.532-.252.532-.378 0-.224-.448-.35-1.33-.392v3.514h-3.346v-4.33c.392-.14.588-.28.588-.406q0-.357-1.428-.378v5.11zm18.634 1.414h-5.838l.154.35h5.264a13.871 13.871 0 01-5.446 4.424l.2.308a13.71 13.71 0 005.67-3.892v4.76h.84v-5.18a15.087 15.087 0 005.376 4.116 2.451 2.451 0 01.7-.9 14.991 14.991 0 01-5.852-3.542l-.1-.1h5.824l.168-.28a8.386 8.386 0 00-1.008-1.008l-.714.938h-4.4v-3.93h5.152l.168-.28a6.311 6.311 0 00-.938-.994l-.7.924h-3.682v-1.568c.406-.14.616-.266.616-.392 0-.21-.49-.336-1.456-.378v2.338h-5.026l.154.35h4.872zm2.352-.378a12.054 12.054 0 001.6-2.268c.406-.028.616-.1.616-.224 0-.182-.42-.434-1.274-.756a15.563 15.563 0 01-1.246 3.08zm-6.118-2.8a5.148 5.148 0 011.148 2.086q.147.546.462.546c.35 0 .518-.182.518-.56 0-.784-.644-1.54-1.918-2.282zm20.426 1.834a5.445 5.445 0 00-2.408.588.2.2 0 01-.084.028.03.03 0 01-.028-.028.186.186 0 01.042-.1 28.1 28.1 0 013.122-3.36 1 1 0 00.364-.742.635.635 0 00-.672-.658 1.817 1.817 0 00-.938.336 6 6 0 01-2.8 1.26 1.324 1.324 0 01-.644-.154.577.577 0 00-.238-.056.2.2 0 00-.2.224.872.872 0 00.42.644 1.045 1.045 0 00.63.182 6.155 6.155 0 002.884-1.33.421.421 0 01.2-.084.1.1 0 01.1.1.408.408 0 01-.084.21c-.2.266-4.382 5.418-5.138 6.314a1.257 1.257 0 00-.294.742c0 .308.168.518.392.518.2 0 .476-.2.742-.7 1.232-2.436 2.954-3.29 4.41-3.29 1.638 0 2.954 1.078 2.968 2.226-.014 1.918-1.568 2.7-3 2.856a1.273 1.273 0 00.1-.49c0-.686-.672-.98-1.386-.98-.8 0-1.652.364-1.652.938 0 .714 1.288 1.232 2.73 1.232 1.89 0 4.046-.9 4.046-3.472 0-1.864-1.666-2.956-3.584-2.956zm-2.464 5.194c-.014-.336.378-.532.77-.532s.812.21.812.6a1.018 1.018 0 01-.168.5c-.798-.038-1.428-.278-1.414-.57zm19.586-2.156v1.12h.826V64.65h2.912l.154-.266a7.076 7.076 0 00-.714-.8l-.252-.252-.728.966h-1.372v-3.062c.406-.14.616-.266.616-.392 0-.21-.476-.336-1.442-.378v3.836h-2.464v-3.038c.434-.154.658-.294.658-.406 0-.21-.49-.336-1.484-.378v3.822h-2.506v-2.674c.406-.14.6-.266.6-.392 0-.224-.49-.35-1.456-.378v3.444h-2.128l.14.35h1.99v8.106h.854v-1.232h9.1l.182-.308a14.094 14.094 0 00-1.064-1.022l-.784.98h-7.434V64.65h2.506v5.054h.826v-1.2zm-2.464-.35V64.65h2.464v3.5zm11.97-6.972a8.162 8.162 0 00-1.008-.448v5.712h.8v-.686h1.918a9.4 9.4 0 01-4.606 3.528l.21.308a11.168 11.168 0 003.808-2.03v1.064a3.982 3.982 0 01-2.87 3.948l.224.322c2.31-.63 3.472-2.058 3.472-4.256v-.434c.322-.126.49-.238.49-.336 0-.182-.42-.308-1.26-.364a8.264 8.264 0 001.554-1.75h1.456a10.224 10.224 0 004.97 3.332 2.306 2.306 0 01.63-.854 10.83 10.83 0 01-5.082-2.478h2.226v.518h.8V61.75l.406-.238c.07-.042.112-.084.112-.14 0-.14-.294-.434-.882-.9l-.574.7zm-.21.35h3.15v1.694h-3.15zm3.948 0h3.192v1.694h-3.192zm-3.948 3.878v-1.836h3.15v1.834zm7.14-1.834v1.834h-3.192v-1.836zm-2.044 9.128h.812v-4.538c.336-.126.5-.252.5-.35 0-.182-.434-.294-1.316-.336zm19.432-2.786a.706.706 0 00.77-.588c0-.2-.154-.364-.49-.378-1.512-.056-3.738-2.394-6.146-4.858a1.051 1.051 0 00-.742-.434 1.1 1.1 0 00-.77.5c-.5.6-1.918 2.506-2.9 2.506a.432.432 0 01-.14-.014 1.1 1.1 0 00-.28-.028c-.238 0-.35.084-.35.224 0 .2.252.476.728.644a1.361 1.361 0 00.378.07c1.148 0 2.03-1.806 2.8-2.926.182-.238.35-.378.56-.378s.42.14.658.448c2.592 3.278 4.15 5.21 5.924 5.21zM3.455 90.45a8.348 8.348 0 013.262 1.43 1.1 1.1 0 00.63.35q.42 0 .42-.462c0-.294-.28-.574-.854-.84a11.142 11.142 0 00-3.332-.812zm3.332 3.276l.378-.224a.189.189 0 00.126-.168c0-.14-.294-.42-.882-.854l-.546.672H2.055l.14.35h3.808v7.574c0 .28-.168.42-.49.42a18.945 18.945 0 01-2.1-.154v.364a8.3 8.3 0 011.372.322.71.71 0 01.518.672c.994.014 1.484-.35 1.484-1.106V94.96a10.662 10.662 0 001.218 3.024 10.69 10.69 0 003.864 3.514 2.9 2.9 0 01.742-.812 11.021 11.021 0 01-4.316-3.336 17.567 17.567 0 002.716-2.478 2.168 2.168 0 00.308.014c.238 0 .364-.056.364-.168q0-.294-1.092-1.008a17.193 17.193 0 01-2.506 3.318 10.227 10.227 0 01-1.3-3.29zm-2.982 1.892H.557l.14.35h3.178a10.5 10.5 0 01-3.738 5.754l.21.294a9.52 9.52 0 002.748-2.324 10.8 10.8 0 001.666-3.416l.364-.2a.189.189 0 00.126-.168c0-.154-.294-.476-.882-.98zm19.04-2.128h-3.794l.182.35h8.162l.168-.266a8.155 8.155 0 00-.63-.714 3.088 3.088 0 01-.238-.224l-.672.854h-2.394v-1.4h3.15l.154-.252a7.308 7.308 0 00-.868-.882l-.644.784h-1.792v-.9c.378-.126.56-.252.56-.378 0-.21-.448-.308-1.344-.308v1.586h-3.05l.168.35h2.882zm-6.818-2.478a4.482 4.482 0 011.54 1.89c.126.336.308.5.518.5.35 0 .532-.182.532-.56 0-.756-.8-1.456-2.394-2.114zm4.97 3.85c-.406-.168-.686-.28-.84-.322v2.954h.77v-.462h1.89a12.088 12.088 0 01-3.612 2.94l.21.294a11.352 11.352 0 003.43-2.226v3.01h.784v-2.87a8.372 8.372 0 012.646 1.848c.21.224.364.336.49.336a.4.4 0 00.462-.448q0-.588-1.638-1.386a6.662 6.662 0 001.358-1.022.74.74 0 00.182.014q.42 0 .42-.168c-.014-.154-.308-.434-.882-.812a7.094 7.094 0 01-.5.756V95.45l.308-.238a.163.163 0 00.1-.154c0-.1-.252-.35-.756-.728l-.49.532zm4.424 1.82h-4.494v-1.47h4.494zm-6.93.042l.336-.21q.126-.084.126-.168c0-.126-.28-.42-.826-.854l-.546.644h-2.072l.154.35h2.044v3.738a14.419 14.419 0 01-2.226 1.4c.378.742.658 1.12.854 1.12.126 0 .2-.182.2-.56a20.081 20.081 0 001.764-2 3.658 3.658 0 002.016 1.68 13.274 13.274 0 004.354.546h3.066a2.305 2.305 0 01.434-.938 37.151 37.151 0 01-3.752.21 13.243 13.243 0 01-4-.462 3.162 3.162 0 01-1.922-1.57zm6.93.308v.364h.674a12.7 12.7 0 01-.826.994 13.112 13.112 0 00-1.47-.532l-.168-.042v-.63l.126-.154zm12.754-4.816c-2.884 0-6.048 2.016-6.048 5.516 0 1.694.812 2.6 1.792 2.6 1.5 0 3.388-2.072 3.388-6.65 0-.28-.014-.546-.028-.84.21-.014.406-.028.6-.028a3.842 3.842 0 014.1 4.018c0 3.164-3.094 4.27-5.712 4.3-.154.014-.238.084-.238.154s.07.14.238.168a10.233 10.233 0 001.12.07c3.052 0 5.488-1.68 5.488-4.732a4.366 4.366 0 00-4.7-4.576zm-1.414.966c0 4.1-1.694 5.978-2.842 5.978-.616 0-1.022-.5-1.022-1.526a4.7 4.7 0 013.864-4.69zm15.6 8.428v-.434a3.627 3.627 0 01-1.428-.168.905.905 0 01-.42-.868v-8.806a6.325 6.325 0 01-3.094.91v.392h1.386a.65.65 0 01.728.742v6.762a.863.863 0 01-.476.9 4.322 4.322 0 01-1.456.14v.434zm13.1-2.534a14.294 14.294 0 001.68-5.6h1.526l.14-.252-.126-.154a6.914 6.914 0 00-.77-.84l-.658.9h-3.906a15.83 15.83 0 00.588-2.128c.378-.056.574-.14.574-.266 0-.21-.448-.42-1.344-.6a17.119 17.119 0 01-2.114 6.514 4.908 4.908 0 00-1.638-1.414v-1.6h2.226l.14-.266a11 11 0 00-.854-1.008l-.616.924h-.9v-2.344c.378-.154.56-.294.56-.42q0-.294-1.344-.294v3.066h-2.24l.14.35h2.058a19.651 19.651 0 01-2.338 6.118l.308.224a15.971 15.971 0 002.072-4.074v6.846h.784v-7.084a4.963 4.963 0 011.064 1.834.412.412 0 00.406.35c.294 0 .448-.168.448-.5a1.345 1.345 0 00-.07-.322 15.2 15.2 0 001.54-2.548 14.6 14.6 0 001.764 4.578 9.208 9.208 0 01-4.014 3.384l.21.308a8.984 8.984 0 004.284-3.008 11.627 11.627 0 003.178 2.744 2.58 2.58 0 01.686-.8 11.323 11.323 0 01-3.444-2.618zm-.49-.644a13.049 13.049 0 01-1.806-4.242l-.028-.126a1.765 1.765 0 01-.07-.21 1.811 1.811 0 00.126-.28l.028-.1h3.024l-.014.154a15.654 15.654 0 01-1.26 4.804zm9.618 3.878c.238 0 .434-.182.434-.518a1.281 1.281 0 00-.07-.35 7.341 7.341 0 01-.378-2.044 3.448 3.448 0 01.336-1.484.926.926 0 00.084-.308c0-.07-.028-.112-.084-.112s-.182.084-.322.252a3.729 3.729 0 00-.49.91c-.042.126-.112.2-.154.2s-.07-.07-.07-.224c.056-2.562 1.162-4.1 1.162-5.264a1.419 1.419 0 00-.28-.9c-.28-.364-.532-.518-.686-.518a.185.185 0 00-.182.21.955.955 0 00.14.434 1.565 1.565 0 01.154.742c0 1.232-.9 3.094-.9 5.334a7.721 7.721 0 00.63 3.08.824.824 0 00.676.56zm5.806-8.372a4.667 4.667 0 001.526-.224c.308-.1.462-.308.462-.49s-.168-.364-.462-.364a.778.778 0 00-.294.056 6.839 6.839 0 01-1.988.35 4.308 4.308 0 01-1.232-.182.722.722 0 00-.154-.028c-.112 0-.182.056-.182.14s.07.182.238.28a4.438 4.438 0 002.086.462zm.924 7.434a7.4 7.4 0 001.708-.21c.434-.112.616-.308.616-.49 0-.252-.322-.49-.8-.49a1.785 1.785 0 00-.266.014 11.582 11.582 0 01-2.058.252 3.335 3.335 0 01-2.24-.77.518.518 0 00-.284-.128.144.144 0 00-.154.14.569.569 0 00.112.266 4.079 4.079 0 003.37 1.416zm10.85-2.576v2.366c0 .266-.154.406-.448.406a15.126 15.126 0 01-1.82-.112v.364a7.733 7.733 0 011.218.266.616.616 0 01.42.574c.924.014 1.386-.336 1.386-1.078V94.26l.35-.21c.084-.042.126-.1.126-.154 0-.126-.266-.406-.784-.826l-.518.63h-1.424a12.79 12.79 0 001.176-1.694l.322-.14c.084-.042.126-.1.126-.14 0-.126-.266-.42-.8-.91l-.49.616h-1.314a2.789 2.789 0 00.112-.322l.084-.238c.35-.112.518-.224.518-.322 0-.154-.392-.28-1.176-.364a12.219 12.219 0 01-2.238 4.844l.266.224a9.95 9.95 0 00.812-.924v3.78a8.2 8.2 0 01-1.066 4.44l.322.21a6.627 6.627 0 001.512-3.962zm6.216-7.182a9.542 9.542 0 01-.182 2.2.631.631 0 01-.644.546 8.875 8.875 0 01-1.358-.126v.35a6.218 6.218 0 011.008.224.55.55 0 01.406.546 1.3 1.3 0 001.064-.448 6.74 6.74 0 00.476-3.038l.336-.21c.07-.042.1-.084.1-.14 0-.112-.28-.406-.826-.868l-.532.616h-4.814l.14.35h1.89a6.27 6.27 0 01-.182 1.4 4.541 4.541 0 01-1.988 2.618l.2.28a5.421 5.421 0 002.03-1.6 5.016 5.016 0 00.784-2.7zM88.911 93.7a.743.743 0 00-.154-.042l-.168-.056a11.952 11.952 0 00.966-1.82h1.512a12.622 12.622 0 01-.812 1.918zm-.056.35h1.246v1.96h-1.246zm3.318 1.96h-1.316v-1.96h1.316zm2.622 1.386c.1-.308.2-.616.266-.91q.5-.1.5-.252c0-.168-.406-.35-1.2-.532a10.16 10.16 0 01-.924 3.514l.294.168a7.916 7.916 0 00.92-1.634h1.456v1.932h-2.982l.154.35h2.828v2.73h.788v-2.73h2.786l.154-.252a22.85 22.85 0 00-.91-1.022l-.7.924h-1.33V97.75h2.46l.168-.266a4.955 4.955 0 00-.7-.812 1.031 1.031 0 01-.154-.14l-.63.868h-1.144v-1.3c.308-.126.462-.238.462-.35 0-.21-.42-.308-1.246-.322v1.974zm-5.94 1.054v-2.09h1.246v2.09zm3.318 0h-1.316v-2.09h1.316zm20.538-4.508a29.206 29.206 0 01-2.87-.588 4.437 4.437 0 00.686-.322c.252-.14.364-.294.364-.42 0-.21-.28-.378-.6-.378a1.124 1.124 0 00-.42.084c-.21.1-.476.238-.756.364-.63-1.386-.924-1.708-1.666-1.876a1.654 1.654 0 00-.42-.056c-.294 0-.476.1-.476.238s.182.322.588.49a3.058 3.058 0 011.3 1.47 4.362 4.362 0 01-1.288.224 3.043 3.043 0 01-.98-.154.252.252 0 00-.14-.028c-.14 0-.224.07-.224.168s.07.21.252.294a4.208 4.208 0 001.6.266 6.161 6.161 0 001.12-.1c.252.56.5 1.19.77 1.876a7.007 7.007 0 01-2.086.35 4.292 4.292 0 01-2.044-.476.538.538 0 00-.266-.07c-.14 0-.238.07-.238.168s.07.182.224.294a4.221 4.221 0 002.492.7 8.287 8.287 0 002.17-.308c.224.616.462 1.26.7 1.932a1.034 1.034 0 01.028.168c0 .126-.07.182-.21.182a1.456 1.456 0 01-.21-.028 6.568 6.568 0 00-1.792-.252c-1.96 0-3.108 1.008-3.108 2.03 0 1.05 1.19 2.086 3.92 2.086.378 0 .8-.014 1.26-.056.434-.042.63-.238.63-.448 0-.266-.35-.574-.938-.574a1.281 1.281 0 00-.238.014 13.487 13.487 0 01-1.554.112c-1.778 0-2.478-.56-2.478-1.148 0-.728.994-1.512 2.324-1.512a3.728 3.728 0 012.156.714 1.006 1.006 0 00.56.2.763.763 0 00.756-.826 1.652 1.652 0 00-.154-.63 79.667 79.667 0 01-.938-2.17 13.206 13.206 0 002.422-1.05.569.569 0 00.35-.476c-.004-.23-.214-.44-.578-.482zm-1.092.672a13.074 13.074 0 01-1.4.644c-.28-.644-.5-1.19-.714-1.666a20.453 20.453 0 002.03.686c.154.042.224.112.224.182s-.056.108-.14.15zm8.792-1.652h-2.59l.126.35h1.834v.91q0 5.376-1.876 8.288l.294.238q2.1-2.352 2.366-6.832h1.694a25.232 25.232 0 01-.35 4.97.678.678 0 01-.714.616 8.985 8.985 0 01-1.358-.14v.364a5.25 5.25 0 01.9.266.656.656 0 01.364.616 1.381 1.381 0 001.442-.84 19.746 19.746 0 00.5-5.628l.308-.2c.084-.056.126-.112.126-.154 0-.126-.28-.42-.826-.882l-.49.658h-1.582c.014-.658.028-1.092.028-1.33v-.924h3.43l.154-.266a9.068 9.068 0 00-.882-1.008l-.672.924h-1.428v-2.03c.378-.112.574-.224.574-.336 0-.21-.462-.336-1.372-.378zm4.648 1.666a14.211 14.211 0 001.526 4.41 8.964 8.964 0 01-3.668 3.388l.21.322a8.65 8.65 0 003.906-3 11.522 11.522 0 002.87 2.758 3.434 3.434 0 01.7-.742 9.378 9.378 0 01-3.164-2.688 13.675 13.675 0 001.512-5.474h1.414l.14-.252a7.109 7.109 0 00-.882-.952l-.658.854h-3.388a21.241 21.241 0 00.532-2.254c.378-.07.56-.154.56-.266 0-.224-.448-.392-1.344-.518a17.08 17.08 0 01-1.918 6.524l.308.224a11.1 11.1 0 001.344-2.338zm.406-1.022h2.618a13.509 13.509 0 01-1.12 4.774 13.981 13.981 0 01-1.61-4.452zm13.4 7.322c4.144-.322 5.95-2.6 5.95-4.522a2.739 2.739 0 00-3-2.73 8.276 8.276 0 00-4.536 1.736 3.147 3.147 0 01-1.778.756 3.479 3.479 0 01-.8-.126.682.682 0 00-.168-.014c-.168 0-.308.07-.308.21 0 .168.21.448.812.8a1.92 1.92 0 00.952.238 2.215 2.215 0 001.526-.644c1.764-1.694 3.248-2.338 4.34-2.338a1.921 1.921 0 012.03 2.016c0 1.582-1.5 3.626-5.04 4.256-.2.042-.294.126-.294.224 0 .07.084.14.252.14z" fill="#5d5d5d" stroke="#5d5d5d" stroke-width=".2"/></svg>