<svg xmlns="http://www.w3.org/2000/svg" xmlns:xlink="http://www.w3.org/1999/xlink" width="376" height="216.486" viewBox="0 0 376 216.486"><defs><clipPath id="a"><rect width="376" height="216.487" fill="none"/></clipPath><clipPath id="b"><path d="M548.616,320.1a13.881,13.881,0,0,0-2.624,1.892S529.7,329.308,527.631,332.2c-5.969,7.274,5.392,30.839,6.063,32.052s6.423,10.49,5.79,13.283c-.892,3.937-4.2,18.221-4.491,19.976s.139,2.081.139,2.081,28.583,6.089,48.023,1.673c.611-.956-1.2-9.382-2.474-13.128s-2.749-14.406-2.586-17.488c3.64-4.811,4.328-8.086,4.483-9.623s1.273-9.73,2.223-12.5c2.707-7.882.014-15.83.014-15.83s-.031-.767-2.63-2.583a77.38,77.38,0,0,0-9.956-5.642c-1.135-.542-4.719-2.262-5.9-2.738-2.941-1.182-4.34-2.628-7.028-2.853-.721-.061-1.421-.087-2.1-.087a32.6,32.6,0,0,0-8.585,1.3" transform="translate(-525.903 -318.8)" fill="none"/></clipPath><linearGradient id="c" x1="-1.016" y1="1.413" x2="-1.014" y2="1.413" gradientUnits="objectBoundingBox"><stop offset="0" stop-color="#9ed1e2"/><stop offset="1" stop-color="#fff"/></linearGradient><clipPath id="d"><path d="M492.066,375.232c-5.184,9.869-9.04,33.734-10.631,38.613s-1.075,9.581,1.589,11.346c2.2,1.454,6.066.644,10.345-2.589,5.652-12.563,10.6-28.848,8.232-37.472-1.782-6.494-4.759-11.728-7.271-11.728-.824,0-1.6.563-2.263,1.83" transform="translate(-480.537 -373.402)" fill="none"/></clipPath><linearGradient id="e" x1="-4.63" y1="2.43" x2="-4.621" y2="2.43" xlink:href="#c"/><clipPath id="g"><path d="M135.076,431.761s-16.783,5.381-29.2,27.059c-8.981,15.686-8.888,41.337-10.659,58.53-.5,4.887,18.233,6.081,23.911,5.785,6.175-.321,16.115-3.887,19.731-3.662.434-1.93-.009-7.674.015-10.815,4.824-9.987,10.484-25.671,13.435-33.436,2.6-6.839.536-17.934-1.75-23.677-.145-.369,3.672-7.415,3.483-7.755-4.534-8.176-15.193-14.539-15.193-14.539l-3.9-.272Z" transform="translate(-95.212 -428.978)" fill="none"/></clipPath><linearGradient id="h" x1="0.035" y1="1.218" x2="0.037" y2="1.218" gradientUnits="objectBoundingBox"><stop offset="0" stop-color="#a3ccdc"/><stop offset="1" stop-color="#fff"/></linearGradient></defs><g clip-path="url(#a)"><path d="M593.9,723.227c2-18.323,2.654-24.261,3-29.94.8-13.114-.64-21.081-.64-21.081l-1.484-10.4-47.54-.569s-4.846,17.32-5.182,19.784c-2.044,15.018,2.543,29.951,1.959,42.2Z" transform="translate(-415.001 -506.744)" fill="#1e506f"/><path d="M588.43,222.852c-2.319,8.692-16.464,9.674-10.5,26.737,4.11,11.753,18.884-.4,20.5-6.1s-8.37-26.755-10-20.634" transform="translate(-441.784 -169.936)" fill="#144665"/><path d="M761.911,419.739a81.382,81.382,0,0,1-6.372-28.165c-.481-8.411-3.325-13.513-5.036-14.914a6.119,6.119,0,0,0-1.031,1.763c-1.6,3.547-8.208,25.645-6.869,28.474,1.969,4.162,3.8,14.281,6.35,19.45s15.544-.814,12.958-6.608" transform="translate(-568.96 -288.654)" fill="#add8e4"/><path d="M788.181,510.35c-1.186.417-3.336,2.221-9.494,3.973-12.05,3.428-14.221,24.207,1.666,14.623,4.312-2.6,8.059-5.8,9.121-6.476,5.628-3.578,1.837-13.219-1.293-12.119" transform="translate(-589.358 -391.042)" fill="#fff"/><path d="M843.376,459.958c1.616-.967,11.257-6.434,11.257-6.434a6.658,6.658,0,0,1,2.277-4.247c2-1.477,3.826-1.64,5.554-3.8,1.005-1.255,2.068-2.593,2.068-2.593s1.653.69.721,2.692c-.887,1.905-2.986,2.726-3,3.5,1.456.6,4.078.018,4.078.018l.294-.492s-.506-1.6-.686-2.517c-.151-.773,1.222-1.458,1.222-1.458l1.358,4.095,1.1-3.015a13.284,13.284,0,0,1,.924-3.1,1.4,1.4,0,0,1,1.559-.445l-.469,3.53-.357,1.9a7.749,7.749,0,0,1,1.9-2.148c2.065-3.688,3.189-1.612,3.189-1.612l-2.758,4.428s-2.363,3.162-2.712,3.607a2.816,2.816,0,0,1-1.129.7,2.3,2.3,0,0,1-2.079,1.385c-.2.365-1.143.75-2.567,1.179s-6.771,1.547-6.771,1.547a42.513,42.513,0,0,1-9.861,10.3c-5.758,4-6.417-5.526-5.107-7.019" transform="translate(-645.887 -338.787)" fill="#f0c0a7"/></g><g transform="translate(122.853 74.44)"><g clip-path="url(#b)"><rect width="100.042" height="108.028" transform="matrix(0.871, -0.491, 0.491, 0.871, -41.425, 20.977)" fill="url(#c)"/></g></g><g transform="translate(112.269 87.217)"><g clip-path="url(#d)"><rect width="24.122" height="53.244" transform="translate(-0.692 0)" fill="url(#e)"/></g></g><g clip-path="url(#a)"><path d="M522.4,439.389c.914.054,30.369-5.21,31.075-5.046.426,1.5,7.756,38.591,7.739,40.832-.01,1.28-2.161,2.142-2.482,2.122-4.219-.259-27.308,2.461-27.963,2.308-.06-.014-.346-.066-.487-.6-1.506-5.7-8.717-39.666-7.881-39.617" transform="translate(-400.295 -332.857)" fill="#003853"/><path d="M523.9,434.324c.964-.012,28.426-2.305,29.162-2.221s.471.9.055,1.722c-.493.969-.585,1.7-1.055,2.108-.314.406-.9.37-1.237.374-4.45.053-27.022,1.9-27.723,1.929-.752.033-1.109-.657-.188-.873.061-.014.6-.07.67-.08,0,0-.128-1.27-.179-2.116-.057-.448-.082-.836.494-.843" transform="translate(-400.319 -331.141)" fill="#003853"/><path d="M555.225,437.811c-7.763.381-26.848,1.933-26.848,1.933l.38-2.156s26.88-2.255,27.981-2.277-.341,2.6-1.513,2.5" transform="translate(-404.923 -333.601)" fill="#e5e2e5"/><path d="M483.6,537.335c2.483-2.66,6.492-3.2,10.361-3.087a141.055,141.055,0,0,0,19.81-1.787c3.888-.825,8.905,6.822,1.725,9.064s-11.911,4.988-19.075,7.27c-7.137,2.273-10.854-.115-12.768-1.675a6.649,6.649,0,0,1-.052-9.785" transform="translate(-368.984 -408.004)" fill="#add8e4"/><path d="M622.706,509.353a7.278,7.278,0,0,1,1.206-3.315c.926-.967,2.734-3.711,4.216-4.98,1.008-.864,2.851-.664,5.085-1.463,1.174-.42,2.771,1.088,4.4,1.475,1.358.322.625,1.72-.78,1.961a29.96,29.96,0,0,1-3.608-.146c-1.987-.173-.88.726-.88.726s6.552,8.342,5.2,9.892a10.811,10.811,0,0,1-3.682,2.166c-1.613.672-7.883.077-8.935-.585-2.813-1.771-2.229-5.732-2.229-5.732" transform="translate(-477.174 -382.81)" fill="#deb09b"/><path d="M655.483,519.125c1.487-.725.573-2.5-.421-2.875,1.054-1.453.283-3.085-.674-3.239a1.79,1.79,0,0,0-1.588-2.862c-2.037.085-6.3-.255-6.895.278a1.852,1.852,0,0,0,.082,2.511c1.014.753,1.538,1.239,1.082,2.246s1.408,1.418,1.05,2.987,1.344,2.1,1.334,3.7,1.846,1.9,3.393,1.172a14.562,14.562,0,0,0,3.372-1.919c.381-.442.365-2.041-.735-2" transform="translate(-494.646 -390.931)" fill="#f0c0a7"/><path d="M684.531,322.094a20.45,20.45,0,0,0-1.367,2.756,11.822,11.822,0,0,0-.814,3.083s-9.963-11.671-10.105-13.237,2.186-2.078,2.9-1.733c4.487,2.179,9.391,9.131,9.391,9.131" transform="translate(-515.172 -239.761)" fill="#c8dce4"/><path d="M638.02,301.178s-3.347-9.765-5.2-12.3a38.054,38.054,0,0,0-6.7-7.159c-.925-.793-.906-4.212-2.05-4.583-3.329-1.079-6.789-2.162-8.177-4.21s-1.146-2.977-1.146-2.977,3.286-2.8,3.357-6.469a109.576,109.576,0,0,0-1.139-11.973l18.789,1.387s-2.465,10.716-2.666,15.255,3.559,7.836,3.559,7.836,3.238,5.888,4.469,8.207-1.069,8.987-1.069,8.987Z" transform="translate(-471.105 -192.744)" fill="#f0c0a7"/><path d="M650,281.792a60.384,60.384,0,0,1-5.306-4.379c-2.51-2.324-4.765-11.06-4.765-11.06l14.741-3.95s-2.016,9.876-2.2,14.112,3.113,7.45,3.113,7.45-3.987-.81-5.579-2.173" transform="translate(-490.413 -201.094)" fill="#deb09b"/><path d="M630.691,163.469s4.884-6.5,5.718-10.979c1.093-5.871-1.552-14.043-10.543-12.772-3.778-2.964-13.873,1.14-16.566,6.635-2.474,5.049-3.557,10.782-2.4,14.46,1.7,5.416,23.8,2.655,23.8,2.655" transform="translate(-464.742 -106.313)" fill="#144665"/><path d="M619.242,192.361s2.875,6.353,7.69,9.059c4.791,2.693,8.469,1.394,10.191-1.317,1.768-2.781,5.591-12.838,4.076-15.5-1.5-2.643.221-3.952-.383-6.867-.515-2.488-1.372-4.969-2.553-5.873a4.149,4.149,0,0,0-3.641-.416c-8.121-3.139-13.758,4.761-14.346,6.93-.673,2.48.125,7.7-.751,6.958-1.412-1.192-2.212-.77-3,.983-.539,1.2-.61,3.836.33,4.947,1.421,1.678,2.382,1.1,2.382,1.1" transform="translate(-472.177 -130.831)" fill="#f0c0a7"/><path d="M619.587,143.233c-1.664-.419-5.872-1.256-6.831,3.043-.506,2.266-.384,4.2-1.01,5.744s-3.855,1.895-3.993,3.953-.981,2.547-1.685,1.686c-1.958-2.4-3.512-.385-3.7,2.273-.167,2.373,1.494,7.9,1.941,10.336-1.379,2.175-3.457-2.594-3.844-4.508-.917-4.525-2.748-12.147-2.178-16.38,1.317-9.776,6.316-12.587,7.043-13.244,2.3-2.076,9.431-3.355,12.712-1.474,2.4,1.375,3.25,2.418,3.694,4.148.765,2.978.01,4.965-2.15,4.422" transform="translate(-458.416 -102.498)" fill="#144665"/><path d="M618.836,329.331s-1.441,1.041-2.567,2.022a33.155,33.155,0,0,1-5.654,3.044s-2.54-7.775-2.682-9.341.128-2.095.563-2.538,3.036-2.872,3.036-2.872a2.312,2.312,0,0,0,.157,1.241c2.5,6.666,7.146,8.445,7.146,8.445" transform="translate(-465.861 -244.962)" fill="#c8dce4"/><path d="M1067.559,344.942s16.571,7.615,51.243-2.1c4.841-32.776,7.773-70.355,8.894-69.766s-27.228-22.007-27.228-22.007l-26.257,18.989s-7.256,18.963-5,31.106.992,22.082-2.145,37.578C1066.224,342.919,1067.559,344.942,1067.559,344.942Z" transform="translate(-817.536 -192.409)" fill="none" stroke="#231f20" stroke-miterlimit="10" stroke-width="1"/><path d="M1109.921,293.414l-6.53-4.631s-.416-2.759,3.342-6.67c3.418-3.557,5.425-3.14,5.425-3.14l-1.234,5.042Z" transform="translate(-845.576 -213.78)" fill="#fff"/><path d="M1128.848,205.274a60.949,60.949,0,0,0,1.74,11.306c1.36,4.579-10.453,30.932-13.81,32.518-6.077,2.871-2.752-14.024-2.752-14.024s.238-6.855.352-7.561-4.261-14.932-5.513-18.476,19.984-3.763,19.984-3.763" transform="translate(-849.74 -157.312)" fill="#e1b39d"/><path d="M1124.761,401.12s1.873,15.9,4.554,23.225c.641,1.8-2.247,2.156-5.83,3.7-3.031,1.308-3.343,3.953-8.806,7.605-12.69,8.485-55.362,6.786-57.52,7.736s-5.36-.472-5.36-.472l7.013-93.772Z" transform="translate(-806.049 -267.569)" fill="#9097a1"/><path d="M1124.268,624.487s1.895,8.569,1.471,10.765-39.407,13.965-41.565,14.916-12.082-13.817-12.082-13.817l-.129-6.8Z" transform="translate(-821.502 -478.577)" fill="#002e49"/><path d="M1083.05,271.992s-2.185,7.827,1.486,11.437a93.067,93.067,0,0,1,4.7-15.9c-.364-3.458-.564-5.114-.564-5.114a47.62,47.62,0,0,0,6.762-3.859c2.52-1.883,5.243-7.3,5.243-7.3l2.8,9.636,20.906,46.511-2.233,36.42s-20.1,5.074-34.727,5.126c-15.574.056-16.219-1.6-16.219-1.6a17.94,17.94,0,0,1-1.94-13.495c1.956-7.663,4.387-15.453,1.927-29.831-1.9-11.127,6.167-37.449,6.167-37.449Z" transform="translate(-819.015 -192.553)" fill="#fff"/><path d="M1069.724,666.656s-.608,18.291-.852,58.984h28.1c.028-.612-.559-13.616.041-13.645.646-.031,3.478,12.713,3.661,13.645,7.644.009,28.7,0,28.7,0,0-4.752-.527-44.2-6.031-61.25-41.889,13.09-53.616,2.265-53.616,2.265" transform="translate(-819.133 -509.158)" fill="#073d5e"/><path d="M998.3,592.857a27.144,27.144,0,0,1-12.987,3.326c-3.224-.084-6.651-12.99-6.651-12.99l20.406-.7Z" transform="translate(-749.999 -446.398)" fill="#002e4a"/><path d="M1070.506,440.837s1.452,14.083,2.88,18.9.432,11.111-.555,16.763-1.3,14.892-1.77,16.373c-.968-.443-3.011-.891-2.912-6.04.192-9.956,2.357-46,2.357-46" transform="translate(-818.576 -337.837)" fill="#b1d8e6"/><path d="M1238.329,459.23c-2.284-6.761-.617-36.129.811-31.31s14.9,23.445,13.916,29.1-.77,20.141-1.238,21.623c-3.073.8-6.7,1.6-11.287,2.54.192-9.956.081-15.19-2.2-21.951" transform="translate(-948.134 -327.53)" fill="#b1d8e6"/><path d="M1154.18,256.211a17.531,17.531,0,0,1,10.53,4.866l3.371-16.2-2.845-1.722s-4.42,8.467-11.055,13.053" transform="translate(-884.509 -186.345)" fill="#b1d8e6"/><path d="M1049.385,421.932l.686-40.071s-2.6-37.651-.749-46.427,12.381-13.647,12.381-13.647a51.951,51.951,0,0,1-2.483,15.237c-2.6,7.948-4.165,33.521-4.268,38.9s-3.9,43.16-3.982,44.9a1.087,1.087,0,0,1-1.584,1.11" transform="translate(-803.64 -246.602)" fill="#073d5e"/><path d="M1232.081,244.7a38.059,38.059,0,0,0-6.611-.8c-1.907.145-13.228,3.394-13.228,3.394s-2.586.27-7.916-2.443c-6.06,18.784,3.438,55.424,4.341,58.125s13.613,30.711,17.509,36.75,8.333,6.193,10.015,5.8c1.323-.309,5.773-1.495,7.613-1.987a1.064,1.064,0,0,1,.868.146l-9.1-45.383s3.262-23.116,4.413-30.5c1.519-7.844-7.9-23.1-7.9-23.1" transform="translate(-921.399 -186.905)" fill="#073d5e"/><path d="M1102.382,299.173c-.1-.789-.944-7.321-.944-7.321a11.029,11.029,0,0,1,2.581-5.186,16.508,16.508,0,0,1,3.764-3.079s-5.341,4.807-5.345,7.892c-.173.171,2.32,2.633,2.32,2.633a38.6,38.6,0,0,0-1.465,5.167c-.053,1.079-.812.683-.912-.105" transform="translate(-844.09 -217.327)" fill="#b1d8e6"/><path d="M907.548,532.593s-31.34-15.141-31.878-15.484c-.269-.172-.2-.571-.142-.916.1-.568.644-.627.923-.653.557-.052,18.7-1.108,19.317-1.147a5.294,5.294,0,0,1,2.375.614c.616.347,27.405,14.559,27.932,14.86.412.236.381,1.119.028,1.475a2.141,2.141,0,0,1-.9.293c-.959.191-17.655.957-17.655.957" transform="translate(-670.922 -394.204)" fill="#465060"/><path d="M1069.914,105.117s-3.02-6.263-3.416-7.59a14.977,14.977,0,0,1-.5-2.783,3.175,3.175,0,0,1-.8-1.126c-.169-.451-.643-1.881.537-2.234.839-.251.151-1.27.145-1.829a3.287,3.287,0,0,1,1.248-2.837,11.053,11.053,0,0,1,1.092-2.88c.724-1.287,2.438-3.056,5.913-4,3.442-.937,5.788-.636,7.414-.864s1.882-.758,2.842-.582a3.933,3.933,0,0,1,1.812,1.1s3.939-.084,5.86,2.572c.7.972.844,2.289,2.264,3.127s2.667,4.374,2.617,6.987-.127,5.053-.249,5.97-.984,4.412-.984,4.412l-22.224,4.762Z" transform="translate(-816.131 -60.047)" fill="#144665"/><path d="M907.058,536.807s-30.309-15.791-30.847-16.134-.087-.9.47-.949,18.727-.86,19.379-.88a4.41,4.41,0,0,1,2.066.565c.617.347,27.314,14.468,27.773,14.807s.469.67-.49.86-18.35,1.73-18.35,1.73" transform="translate(-671.302 -397.617)" fill="#002e4a"/><path d="M1082.51,135.52a4.236,4.236,0,0,1-4-2.745c-1.166-2.9-1.984-5.389-.438-5.545a4.342,4.342,0,0,1,3.585,2.174c.346.786.893,2.2.893,2.2s1.9.08.835-3.235c-.354-1.107,1.47-4.718.447-7.314-.51-1.294-1.675-1.927-.653-3.954s3.6-2.835,5.523-2.884c7.9-.2,10.819-2.758,10.819-2.758s3.344,3.036,3.935,4.552c1.438,3.691.142,5.047,1.41,7.374.707,1.3,1.052,6.818.849,9.423s-.54,7.178-2.669,9.842-6.116,4.154-10.94,2.151c-7.763-3.223-9.592-9.278-9.592-9.278" transform="translate(-825.53 -85.415)" fill="#f0c0a7"/><path d="M969.154,564.441c.5.552,1.546.761.372,2.129s-4.195,4.862-4.747,5.363-2.631.928-3.855,1.132a2.218,2.218,0,0,1-2.708-1.821c-2.425-.065-2.507-2.708-2.507-2.708-1.374.039-2.49-1.969-2.037-3.688-1.022-.683-.956-2.052-.994-3.426s2.953-3.524,4.44-4.481c1.525-.981,3.166,1.1,1.875,2.677s-2.639,3.249-2.639,3.249,5.845-2.988,7.822-3.472,4.081.727,1.732,2.354-5.179,3.39-5.179,3.39a47.516,47.516,0,0,0,4.8-2.141c1.628-.924,1.255-.836,2.065-1.219s2.815.718,1.559,2.662" transform="translate(-730.085 -426.62)" fill="#d49b86"/><path d="M1212.474,668.5l-.484-5.659-2.647.4.626,6.008Z" transform="translate(-926.783 -507.969)" fill="#0b3e5d"/><path d="M1106.417,673.83l.616-5.451,2.3.137-.749,5.62Z" transform="translate(-847.906 -512.213)" fill="#0b3e5d"/><path d="M1324.9,183.789c5.267-4.94,18.592-11.453,22.806-16.183,1.225-1.375,15.72-17.76,18.979-25.241,2.658-6.1-6.843-10.6-10.914-5.944-7.429,8.488-12.673,15.524-16.275,18.171-1.423,1.046-15.371,4.688-19.959,5.615a21.825,21.825,0,0,1-3.325.425c-1.926.057-.691,28.566,3.275,26.951s5.413-3.793,5.413-3.793" transform="translate(-1008.002 -103.073)" fill="#073d5e"/><path d="M1500.264,102.129l-8.163,9.73s.159,6.712,7.55,4.178c2.482-3.827,6.031-10.686,6.031-10.686Z" transform="translate(-1143.475 -78.267)" fill="#deb09b"/><path d="M1516.618,24.6a7.469,7.469,0,0,1-.673-4.479c.545-2.673-.828-4.572-1.926-5.894s-.533-2.205,1.086-1.715a4.391,4.391,0,0,1,3.357,3.4,22.416,22.416,0,0,0,1-2.166s1.574-7.532,2.6-11.552c.981-3.837,2.957-1.758,2.633-.286-.1.47-1.171,9.07-.6,8.506.855-.84,3.217-8.231,3.624-8.892.653-1.06,1.855-1.239,2.309-.309.85-.42,2.076.144,1.364,2.035a73.686,73.686,0,0,0-2.653,9.343c-.033.547,1.022.847,1.635-.215s3.378-5.5,3.968-6.175,2.566-.359.724,2.8c-1.284,2.2-4,7.742-4,7.742a6.037,6.037,0,0,1-1.262,3.608c-2.1,3.151-2.419,3.418-3.356,4.734-1.809,2.542-3.636,2.183-4.367,2.174a7.143,7.143,0,0,1-5.469-2.651" transform="translate(-1159.837 0)" fill="#f0c0a7"/><path d="M1207.236,301.25c2.415-6.6,2.8-35.867,2.8-35.867l-6-1.051,5.707-4.053-.8-10.375-4.755-1.836s-6.258,16.018,3.042,53.182" transform="translate(-921.259 -190.108)" fill="#3a678b"/><path d="M617.391,668.405s8.577-30.708,8.8-31.7a2.39,2.39,0,0,1,2.686-1.726c1.734.118,30.74-.062,31.49.085a1.269,1.269,0,0,1,1,1.609c-.23.728-9.242,32.227-9.242,32.227Z" transform="translate(-473.139 -486.614)" fill="#05384a"/><path d="M511.905,778.483l24.659-.462,34.73.507s-.431,2.938-2.462,3.112c-3.5.045-53.816-.051-55.074,0-1.658.07-1.853-3.155-1.853-3.155" transform="translate(-392.3 -596.238)" fill="#05384a"/><path d="M637.812,644.511l29.35-.1-9.126,31.6-28.876-.078Z" transform="translate(-482.159 -493.847)" fill="#fff"/><path d="M645.764,741.545h4.563l-1.334,4.732H644.43Z" transform="translate(-493.861 -568.285)" fill="#adddea"/><path d="M704.168,723.422h4.562l-2.532,8.967h-4.56Z" transform="translate(-537.702 -554.396)" fill="#adddea"/><path d="M677.531,696.772h4.563l-4.287,15.193h-4.562Z" transform="translate(-515.943 -533.973)" fill="#6ba0c3"/><path d="M735.91,679.01h4.561l-5.457,19.344h-4.561Z" transform="translate(-559.785 -520.361)" fill="#fbcd5b"/><path d="M11.74,786.07a198.412,198.412,0,0,0-9.653-28.943C-3.9,742.994,4.2,743.291,11.238,743.256c8.372-.042,20.746.047,20.746.047l4.7,42.768Z" transform="translate(0 -569.587)" fill="#305d81"/><path d="M232.686,838.168c-.118-3.047-1.672-14.678-10.088-16.782-11.44-2.86-48.965-10.16-48.965-10.16s-16.361,3.018-24.658,2.055c-.74,3.26-3.58,18.956.569,24.888Z" transform="translate(-112.913 -621.685)" fill="#003853"/><path d="M183.1,832.6c-.226-.562-2.622-7.229-8.094-10.058-10.523-5.44-38.138-12.274-38.138-12.274S111.1,808.625,98.1,803.957A58.3,58.3,0,0,0,99.948,832.6Z" transform="translate(-74.425 -616.114)" fill="#144665"/><path d="M292.744,591.367s5.221,22.914,7.734,30.938c.211,3.229-.048,5.139.15,4.9-1.1,4.967.228,8.485-10.32,5.869s-10.629-22.6-10.629-22.6Z" transform="translate(-214.332 -453.196)" fill="#add8e4"/></g><g transform="translate(22.268 100.114)"><g clip-path="url(#g)"><rect width="111.44" height="96.276" transform="translate(-38.467 75.304) rotate(-63.239)" fill="url(#h)"/></g></g><g clip-path="url(#a)"><path d="M292.923,375.484c-5.76.156-11.594,5.328-14.359,11.634-7.884-3.792-14.042-10.882-15.55-11.206a11.965,11.965,0,0,0,5.152-8.2s12.816-31.43,24.756,7.769" transform="translate(-201.561 -272.662)" fill="#deb09b"/><path d="M159.643,651.333c5.1,4.463,25.176-2.632,25.176-2.632l-.137-1.419c1.236-2.518,5.266-10.8,5.919-12.484-.9-1.594-20.285,5.675-18.678-2.772,2.873-15.1.95-28.243-5.779-19.417-16.78,22.011-10.423,35.291-6.5,38.724" transform="translate(-118.883 -467.29)" fill="#add8e4"/><path d="M343.276,336.325a27.659,27.659,0,0,1-5.688-.8c-3.956-.879-3.938-5.637-3.938-5.637l-.151-5.479s-3.69-.533-2.655-4.554c.765-2.976-5.491-1.924-2.3-2.788,4.717-1.279,1.636-11.66,1.636-11.66l6.437-1.087,5.275,3.479,6.639,14.317s.452.884-.764,1.172c-1.125.266-1.2.493-1.2.493s-.72,10.82-.827,11.359-1.277,1.241-2.458,1.181" transform="translate(-251.079 -233.219)" fill="#f0c0a7"/><path d="M404.814,737.006c4.449.842,16.332,2.882,21.216,3.462a18.12,18.12,0,0,1,7.147-3.493c6.7-1.783,13.765,7.464,13.765,7.464s-2.191,1.568-3.051-.366c-1.616,2.128-7.963-5.009-10.352-.717-.214.389,6.709,1.117,7.449,1.354a2.242,2.242,0,0,1,1.361,2.459s-8.984-.071-13.381-.289c-1.357-.067-2.565.167-3.961-1.078-.508-.06-16.728-1.627-21.291-1.946-5.044-.352-3.715-7.762,1.1-6.851" transform="translate(-306.934 -564.608)" fill="#f0c0a7"/><path d="M344.754,723.436c7.9,1.35,17.537,4.376,31.08,6.38-1.251,4.932-1.563,6.138-1.563,6.138s-26.449,1.525-36.914-1.408c0,0-.5-12.46,7.4-11.11" transform="translate(-258.53 -554.329)" fill="#add8e4"/><path d="M307.311,496.191s1.914.9,2.136,4.048a5.773,5.773,0,0,1-.661,3.235,77.425,77.425,0,0,1,4.157,28.181c-.927,24.458-.406,29.32-.406,29.32a51.273,51.273,0,0,1-5.539,6.41,1.392,1.392,0,0,1-1.775-.349l-4.621-5.951s1.954-6.668,5.67-30.36c2.565-16.363-.021-26.666-.021-26.666s-1.227-2.183-2.525-4.564c3.059-2.184,3.585-3.3,3.585-3.3" transform="translate(-230.368 -380.257)" fill="#305d81"/><path d="M339.207,670.677s9.254-.638,18.356-1.809c.4-1.188,6.969-2.011,15.182-2.657.378,2.569-5.458,3.206-6.281,3.682,3,1.506,13.593,6.353,14.312,6.786s.908,1.783.178,2.1c.244.461,1.006,1.366-.622,1.724s-8.067-1.917-8.067-1.917,5.037,2.313,5.653,2.641c.5.268.358,1.693-2.1.9-.711-.23-3.031-.83-6.675-1.984-4.762-.974-9.817-2.665-10.871-5.224-.524-.082-17.161,3.957-17.161,3.957Z" transform="translate(-259.952 -510.552)" fill="#f0c0a7"/><path d="M213.42,542.952S178,545.9,174.964,546.21c-.933-2.344,2.218-16.362,1.421-31.876-.494-9.6-7.013-18.775-14.5-8.442-6.8,9.386-6.377,26.643-5.967,40.567.227,7.693-.511,14.037,12.415,14.528,18.058.687,45.426-9.4,45.426-9.4Z" transform="translate(-119.334 -384.201)" fill="#fff"/><path d="M271.152,444.66a13.938,13.938,0,0,1-5.857,6.168c-6.5-12.044-13.142-17.6-13.142-17.6s1.443-2.095,3.033-3.918c6.514,2.422,15.966,15.35,15.966,15.35" transform="translate(-193.238 -329.003)" fill="#d2e8f2"/><path d="M287.294,289c1.044-3.337,2.6-4.188,4.548-4.683,1.546-.392,3.127.144,3.816-.8a4.239,4.239,0,0,1,4.913-1.587c2.649,1.3,3.666-1.111,6.205-.289a5.3,5.3,0,0,1,1.292,9.2c-5.223-.635-6.07,1.242-4.71,4.706a46.557,46.557,0,0,1,1.771,6.317,1.859,1.859,0,0,1-2.582,1.44c-1.3-3.382-3.806-3.808-5.54-1.573-1.789,2.31.063,12.955-11.123,10.3a12.405,12.405,0,0,1-2.39-1.226c1.058-6.314-3.56-20.264,3.8-21.8" transform="translate(-216.894 -215.7)" fill="#003853"/><path d="M460.117,824.475v-16.8c0-3.665-1.3-4.964-4.965-4.964H276.945c-3.666,0-4.965,1.3-4.965,4.964v16.805h-7.14V807.672c0-8.827,5.483-14.31,14.311-14.31H452.813c8.827,0,14.311,5.484,14.311,14.31v16.809Z" transform="translate(-202.961 -607.995)" fill="#177e9d"/></g></svg>